<svg version="1.1" viewBox="0.0 0.0 930.0 360.0" fill="none" stroke="none" stroke-linecap="square" stroke-miterlimit="10" xmlns:xlink="http://www.w3.org/1999/xlink" xmlns="http://www.w3.org/2000/svg"><clipPath id="p.0"><path d="m0 0l1280.0 0l0 960.0l-1280.0 0l0 -960.0z" clip-rule="nonzero"/></clipPath><g clip-path="url(#p.0)"><path fill="#000000" fill-opacity="0.0" d="m0 0l1280.0 0l0 960.0l-1280.0 0z" fill-rule="evenodd"/><path fill="#ffe599" d="m25.29928 234.63293l0 0c0 -10.860367 8.804068 -19.664429 19.664434 -19.664429l245.616 0c5.215332 0 10.217072 2.0717773 13.904877 5.7595825c3.6878052 3.68779 5.7595825 8.689514 5.7595825 13.904846l0 78.655396c0 10.860352 -8.804077 19.664429 -19.66446 19.664429l-245.616 0l0 0c-10.860367 0 -19.664434 -8.804077 -19.664434 -19.664429z" fill-rule="evenodd"/><path stroke="#000000" stroke-width="1.0" stroke-linejoin="round" stroke-linecap="butt" d="m25.29928 234.63293l0 0c0 -10.860367 8.804068 -19.664429 19.664434 -19.664429l245.616 0c5.215332 0 10.217072 2.0717773 13.904877 5.7595825c3.6878052 3.68779 5.7595825 8.689514 5.7595825 13.904846l0 78.655396c0 10.860352 -8.804077 19.664429 -19.66446 19.664429l-245.616 0l0 0c-10.860367 0 -19.664434 -8.804077 -19.664434 -19.664429z" fill-rule="evenodd"/><path fill="#000000" d="m47.85567 244.22615q0 -0.828125 -0.59375 -1.40625q-0.578125 -0.578125 -1.96875 -1.03125q-1.953125 -0.59375 -2.84375 -1.546875q-0.875 -0.953125 -0.875 -2.421875q0 -1.5 0.859375 -2.453125q0.875 -0.953125 2.390625 -1.140625l0 -1.984375l1.359375 0l0 2.0q1.53125 0.203125 2.375 1.28125q0.859375 1.078125 0.859375 2.9375l-1.671875 0q0 -1.28125 -0.609375 -2.03125q-0.609375 -0.765625 -1.65625 -0.765625q-1.078125 0 -1.65625 0.5625q-0.5625 0.5625 -0.5625 1.5625q0 0.9375 0.59375 1.484375q0.609375 0.546875 2.0 1.0q1.390625 0.453125 2.171875 1.0q0.78125 0.53125 1.140625 1.25q0.375 0.71875 0.375 1.6875q0 1.546875 -0.921875 2.484375q-0.921875 0.9375 -2.59375 1.109375l0 1.734375l-1.34375 0l0 -1.734375q-1.703125 -0.15625 -2.671875 -1.203125q-0.953125 -1.0625 -0.953125 -2.859375l1.6875 0q0 1.265625 0.65625 1.953125q0.671875 0.671875 1.890625 0.671875q1.203125 0 1.875 -0.5625q0.6875 -0.578125 0.6875 -1.578125zm13.382172 -8.40625l-4.265625 0l0 11.828125l-1.734375 0l0 -11.828125l-4.25 0l0 -1.4375l10.25 0l0 1.4375zm4.225559 -1.4375l4.34375 10.828125l4.328125 -10.828125l2.265625 0l0 13.265625l-1.75 0l0 -5.171875l0.171875 -5.5625l-4.359375 10.734375l-1.34375 0l-4.34375 -10.71875l0.171875 5.546875l0 5.171875l-1.7343788 0l0 -13.265625l2.2500038 0zm15.772156 8.078125l0 5.1875l-1.734375 0l0 -13.265625l4.890625 0q2.171875 0 3.40625 1.109375q1.234375 1.109375 1.234375 2.953125q0 1.921875 -1.21875 2.96875q-1.203125 1.046875 -3.453125 1.046875l-3.125 0zm0 -1.4375l3.15625 0q1.390625 0 2.140625 -0.65625q0.75 -0.65625 0.75 -1.90625q0 -1.1875 -0.75 -1.890625q-0.75 -0.71875 -2.046875 -0.75l-3.25 0l0 5.203125zm10.097595 7.765625l-1.453125 0l5.546875 -14.40625l1.4375 0l-5.53125 14.40625zm10.110291 -5.703125l-1.0625 1.09375l0 3.46875l-1.6875 0l0 -14.0l1.6875 0l0 8.46875l0.90625 -1.078125l3.0625 -3.25l2.046875 0l-3.828125 4.125l4.28125 5.734375l-1.984375 0l-3.421875 -4.5625zm11.471283 -3.78125q-0.390625 -0.0625 -0.84375 -0.0625q-1.65625 0 -2.25 1.40625l0 7.0l-1.671875 0l0 -9.859375l1.640625 0l0.015625 1.140625q0.828125 -1.3125 2.359375 -1.3125q0.484375 0 0.75 0.125l0 1.5625zm5.6253815 8.53125q-2.0 0 -3.265625 -1.3125q-1.25 -1.328125 -1.25 -3.53125l0 -0.3125q0 -1.46875 0.5625 -2.609375q0.5625 -1.15625 1.5625 -1.796875q1.015625 -0.65625 2.1875 -0.65625q1.921875 0 2.984375 1.265625q1.0625 1.265625 1.0625 3.625l0 0.6875l-6.671875 0q0.03125 1.46875 0.84375 2.375q0.828125 0.890625 2.078125 0.890625q0.890625 0 1.515625 -0.359375q0.625 -0.375 1.078125 -0.96875l1.03125 0.796875q-1.234375 1.90625 -3.71875 1.90625zm-0.203125 -8.84375q-1.015625 0 -1.71875 0.75q-0.6875 0.734375 -0.84375 2.078125l4.9375 0l0 -0.125q-0.078125 -1.28125 -0.703125 -1.984375q-0.609375 -0.71875 -1.671875 -0.71875zm14.727547 6.328125l1.890625 -7.53125l1.6875 0l-2.859375 9.859375l-1.375 0l-2.390625 -7.46875l-2.3281174 7.46875l-1.375 0l-2.859375 -9.859375l1.671875 0l1.953125 7.375l2.2812424 -7.375l1.359375 0l2.34375 7.53125zm5.628891 3.46875l-1.453125 0l5.546875 -14.40625l1.4375 0l-5.53125 14.40625zm6.9384155 -6.15625q0 -2.265625 1.078125 -3.640625q1.078125 -1.375 2.8125 -1.375q1.734375 0 2.75 1.171875l0 -5.140625l1.6875 0l0 14.0l-1.546875 0l-0.09375 -1.0625q-1.0 1.25 -2.8125 1.25q-1.703125 0 -2.796875 -1.40625q-1.078125 -1.40625 -1.078125 -3.65625l0 -0.140625zm1.6875 0.203125q0 1.671875 0.6875 2.625q0.703125 0.9375 1.921875 0.9375q1.609375 0 2.34375 -1.4375l0 -4.53125q-0.765625 -1.390625 -2.328125 -1.390625q-1.234375 0 -1.9375 0.953125q-0.6875 0.953125 -0.6875 2.84375zm8.802719 -0.203125q0 -1.453125 0.5625 -2.609375q0.578125 -1.15625 1.59375 -1.78125q1.015625 -0.625 2.3125 -0.625q2.015625 0 3.25 1.390625q1.25 1.390625 1.25 3.703125l0 0.125q0 1.4375 -0.546875 2.578125q-0.546875 1.140625 -1.578125 1.78125q-1.015625 0.640625 -2.359375 0.640625q-2.0 0 -3.25 -1.390625q-1.234375 -1.40625 -1.234375 -3.703125l0 -0.109375zm1.6875 0.203125q0 1.640625 0.765625 2.640625q0.765625 0.984375 2.03125 0.984375q1.296875 0 2.046875 -1.0q0.75 -1.015625 0.75 -2.828125q0 -1.625 -0.765625 -2.625q-0.765625 -1.015625 -2.046875 -1.015625q-1.25 0 -2.015625 1.0q-0.765625 0.984375 -0.765625 2.84375zm18.124268 2.484375l1.890625 -7.53125l1.6875 0l-2.859375 9.859375l-1.375 0l-2.390625 -7.46875l-2.328125 7.46875l-1.375 0l-2.859375 -9.859375l1.671875 0l1.953125 7.375l2.28125 -7.375l1.359375 0l2.34375 7.53125zm6.894516 -7.53125l0.046875 1.234375q1.125 -1.40625 2.953125 -1.40625q3.125 0 3.15625 3.515625l0 6.515625l-1.6875 0l0 -6.515625q-0.015625 -1.078125 -0.5 -1.578125q-0.46875 -0.515625 -1.484375 -0.515625q-0.8125 0 -1.4375 0.4375q-0.609375 0.4375 -0.96875 1.15625l0 7.015625l-1.671875 0l0 -9.859375l1.59375 0zm10.528107 9.859375l-1.6875 0l0 -14.0l1.6875 0l0 14.0zm2.24617 -5.015625q0 -1.453125 0.5625 -2.609375q0.578125 -1.15625 1.59375 -1.78125q1.015625 -0.625 2.3125 -0.625q2.015625 0 3.25 1.390625q1.25 1.390625 1.25 3.703125l0 0.125q0 1.4375 -0.546875 2.578125q-0.546875 1.140625 -1.578125 1.78125q-1.015625 0.640625 -2.359375 0.640625q-2.0 0 -3.25 -1.390625q-1.234375 -1.40625 -1.234375 -3.703125l0 -0.109375zm1.6875 0.203125q0 1.640625 0.765625 2.640625q0.765625 0.984375 2.03125 0.984375q1.296875 0 2.046875 -1.0q0.75 -1.015625 0.75 -2.828125q0 -1.625 -0.765625 -2.625q-0.765625 -1.015625 -2.046875 -1.015625q-1.25 0 -2.015625 1.0q-0.765625 0.984375 -0.765625 2.84375zm15.483643 4.8125q-0.140625 -0.296875 -0.234375 -1.03125q-1.171875 1.21875 -2.8125 1.21875q-1.453125 0 -2.390625 -0.828125q-0.921875 -0.828125 -0.921875 -2.09375q0 -1.53125 1.15625 -2.375q1.171875 -0.859375 3.296875 -0.859375l1.640625 0l0 -0.78125q0 -0.890625 -0.53125 -1.40625q-0.515625 -0.53125 -1.546875 -0.53125q-0.90625 0 -1.515625 0.46875q-0.609375 0.453125 -0.609375 1.09375l-1.703125 0q0 -0.734375 0.515625 -1.421875q0.53125 -0.6875 1.421875 -1.078125q0.90625 -0.40625 1.984375 -0.40625q1.703125 0 2.671875 0.859375q0.96875 0.84375 1.0 2.328125l0 4.53125q0 1.359375 0.34375 2.171875l0 0.140625l-1.765625 0zm-2.796875 -1.28125q0.796875 0 1.5 -0.40625q0.71875 -0.421875 1.03125 -1.078125l0 -2.015625l-1.3125 0q-3.109375 0 -3.109375 1.8125q0 0.796875 0.53125 1.25q0.53125 0.4375 1.359375 0.4375zm6.4448547 -3.734375q0 -2.265625 1.078125 -3.640625q1.078125 -1.375 2.8125 -1.375q1.734375 0 2.75 1.171875l0 -5.140625l1.6875 0l0 14.0l-1.546875 0l-0.09375 -1.0625q-1.0 1.25 -2.8125 1.25q-1.703125 0 -2.796875 -1.40625q-1.078125 -1.40625 -1.078125 -3.65625l0 -0.140625zm1.6875 0.203125q0 1.671875 0.6875 2.625q0.703125 0.9375 1.921875 0.9375q1.609375 0 2.34375 -1.4375l0 -4.53125q-0.765625 -1.390625 -2.328125 -1.390625q-1.234375 0 -1.9375 0.953125q-0.6875 0.953125 -0.6875 2.84375zm9.583969 5.953125l-1.453125 0l5.546875 -14.40625l1.4375 0l-5.53125 14.40625z" fill-rule="nonzero"/><path fill="#f1c232" d="m25.333334 275.9083l0 0c0 -4.3632812 3.537138 -7.900421 7.900419 -7.900421l269.14404 0c2.0953064 0 4.1047974 0.83236694 5.586426 2.3139648c1.4816284 1.4816284 2.3139954 3.4911194 2.3139954 5.5864563l0 31.600739c0 4.3632812 -3.53714 7.900421 -7.900421 7.900421l-269.14404 0c-4.3632812 0 -7.900419 -3.53714 -7.900419 -7.900421z" fill-rule="evenodd"/><path stroke="#000000" stroke-width="1.0" stroke-linejoin="round" stroke-linecap="butt" d="m25.333334 275.9083l0 0c0 -4.3632812 3.537138 -7.900421 7.900419 -7.900421l269.14404 0c2.0953064 0 4.1047974 0.83236694 5.586426 2.3139648c1.4816284 1.4816284 2.3139954 3.4911194 2.3139954 5.5864563l0 31.600739c0 4.3632812 -3.53714 7.900421 -7.900421 7.900421l-269.14404 0c-4.3632812 0 -7.900419 -3.53714 -7.900419 -7.900421z" fill-rule="evenodd"/><path fill="#000000" d="m38.256664 299.7693l-1.453125 0l5.546875 -14.40625l1.4375 0l-5.53125 14.40625zm10.110291 -5.703125l-1.0625 1.09375l0 3.46875l-1.6875 0l0 -14.0l1.6875 0l0 8.46875l0.90625 -1.078125l3.0625 -3.25l2.046875 0l-3.828125 4.125l4.28125 5.734375l-1.984375 0l-3.421875 -4.5625zm11.471283 -3.78125q-0.390625 -0.0625 -0.84375 -0.0625q-1.65625 0 -2.25 1.40625l0 7.0l-1.671875 0l0 -9.859375l1.640625 0l0.015625 1.140625q0.828125 -1.3125 2.359375 -1.3125q0.484375 0 0.75 0.125l0 1.5625zm5.6253777 8.53125q-1.9999962 0 -3.2656212 -1.3125q-1.25 -1.328125 -1.25 -3.53125l0 -0.3125q0 -1.46875 0.5625 -2.609375q0.5625 -1.15625 1.5625 -1.796875q1.0156212 -0.65625 2.1874962 -0.65625q1.921875 0 2.984375 1.265625q1.0625 1.265625 1.0625 3.625l0 0.6875l-6.671871 0q0.03125 1.46875 0.84375 2.375q0.8281212 0.890625 2.0781212 0.890625q0.890625 0 1.515625 -0.359375q0.625 -0.375 1.078125 -0.96875l1.03125 0.796875q-1.234375 1.90625 -3.71875 1.90625zm-0.203125 -8.84375q-1.015625 0 -1.7187462 0.75q-0.6875 0.734375 -0.84375 2.078125l4.937496 0l0 -0.125q-0.078125 -1.28125 -0.703125 -1.984375q-0.609375 -0.71875 -1.671875 -0.71875zm14.727554 6.328125l1.890625 -7.53125l1.6875 0l-2.859375 9.859375l-1.375 0l-2.390625 -7.46875l-2.328125 7.46875l-1.375 0l-2.859375 -9.859375l1.671875 0l1.953125 7.375l2.28125 -7.375l1.359375 0l2.34375 7.53125zm5.628891 3.46875l-1.453125 0l5.546875 -14.40625l1.4375 0l-5.53125 14.40625zm8.485291 -7.0l5.703125 2.296875l0 1.78125l-7.453125 -3.453125l0 -1.328125l7.453125 -3.4375l0 1.78125l-5.703125 2.359375zm9.951736 -4.0l0.046875 1.234375q1.125 -1.40625 2.953125 -1.40625q3.125 0 3.15625 3.515625l0 6.515625l-1.6875 0l0 -6.515625q-0.015625 -1.078125 -0.5 -1.578125q-0.46875 -0.515625 -1.484375 -0.515625q-0.8125 0 -1.4375 0.4375q-0.609375 0.4375 -0.96875 1.15625l0 7.015625l-1.671875 0l0 -9.859375l1.59375 0zm12.778107 10.046875q-2.0 0 -3.265625 -1.3125q-1.25 -1.328125 -1.25 -3.53125l0 -0.3125q0 -1.46875 0.5625 -2.609375q0.5625 -1.15625 1.5625 -1.796875q1.015625 -0.65625 2.1875 -0.65625q1.921875 0 2.984375 1.265625q1.0625 1.265625 1.0625 3.625l0 0.6875l-6.671875 0q0.03125 1.46875 0.84375 2.375q0.828125 0.890625 2.078125 0.890625q0.890625 0 1.515625 -0.359375q0.625 -0.375 1.078125 -0.96875l1.03125 0.796875q-1.234375 1.90625 -3.71875 1.90625zm-0.203125 -8.84375q-1.015625 0 -1.71875 0.75q-0.6875 0.734375 -0.84375 2.078125l4.9375 0l0 -0.125q-0.078125 -1.28125 -0.703125 -1.984375q-0.609375 -0.71875 -1.671875 -0.71875zm14.727562 6.328125l1.890625 -7.53125l1.6875 0l-2.859375 9.859375l-1.375 0l-2.390625 -7.46875l-2.3281326 7.46875l-1.375 0l-2.859375 -9.859375l1.671875 0l1.953125 7.375l2.28125 -7.375l1.3593826 0l2.34375 7.53125zm8.800766 -2.625l-4.4375 0l0 -1.375l4.4375 0l0 1.375zm7.381241 2.34375q0 -0.6875 -0.515625 -1.0625q-0.515625 -0.375 -1.796875 -0.640625q-1.28125 -0.28125 -2.03125 -0.65625q-0.75 -0.390625 -1.109375 -0.921875q-0.359375 -0.53125 -0.359375 -1.265625q0 -1.203125 1.015625 -2.03125q1.03125 -0.84375 2.625 -0.84375q1.671875 0 2.71875 0.859375q1.046875 0.859375 1.046875 2.21875l-1.6875 0q0 -0.703125 -0.59375 -1.203125q-0.59375 -0.5 -1.484375 -0.5q-0.921875 0 -1.4375 0.40625q-0.515625 0.390625 -0.515625 1.046875q0 0.609375 0.484375 0.921875q0.484375 0.3125 1.734375 0.59375q1.265625 0.28125 2.046875 0.671875q0.78125 0.390625 1.15625 0.9375q0.390625 0.546875 0.390625 1.34375q0 1.328125 -1.0625 2.125q-1.046875 0.796875 -2.734375 0.796875q-1.1875 0 -2.109375 -0.421875q-0.90625 -0.421875 -1.421875 -1.171875q-0.515625 -0.75 -0.515625 -1.625l1.6875 0q0.046875 0.84375 0.671875 1.34375q0.640625 0.5 1.6875 0.5q0.953125 0 1.53125 -0.390625q0.578125 -0.390625 0.578125 -1.03125zm5.557129 -6.046875q1.125 -1.375 2.921875 -1.375q3.125 0 3.15625 3.515625l0 6.515625l-1.6875 0l0 -6.515625q-0.015625 -1.078125 -0.5 -1.578125q-0.46875 -0.515625 -1.484375 -0.515625q-0.8125 0 -1.4375 0.4375q-0.609375 0.4375 -0.96875 1.15625l0 7.015625l-1.671875 0l0 -14.0l1.671875 0l0 5.34375zm14.681763 8.65625q-0.140625 -0.296875 -0.234375 -1.03125q-1.171875 1.21875 -2.8125 1.21875q-1.453125 0 -2.390625 -0.828125q-0.921875 -0.828125 -0.921875 -2.09375q0 -1.53125 1.15625 -2.375q1.171875 -0.859375 3.296875 -0.859375l1.640625 0l0 -0.78125q0 -0.890625 -0.53125 -1.40625q-0.515625 -0.53125 -1.546875 -0.53125q-0.90625 0 -1.515625 0.46875q-0.609375 0.453125 -0.609375 1.09375l-1.703125 0q0 -0.734375 0.515625 -1.421875q0.53125 -0.6875 1.421875 -1.078125q0.90625 -0.40625 1.984375 -0.40625q1.703125 0 2.671875 0.859375q0.96875 0.84375 1.0 2.328125l0 4.53125q0 1.359375 0.34375 2.171875l0 0.140625l-1.765625 0zm-2.796875 -1.28125q0.796875 0 1.5 -0.40625q0.71875 -0.421875 1.03125 -1.078125l0 -2.015625l-1.3125 0q-3.109375 0 -3.109375 1.8125q0 0.796875 0.53125 1.25q0.53125 0.4375 1.359375 0.4375zm15.382355 1.28125l-8.6875 0l0 -1.21875l4.578125 -5.09375q1.03125 -1.15625 1.40625 -1.875q0.390625 -0.734375 0.390625 -1.5q0 -1.046875 -0.625 -1.703125q-0.625 -0.671875 -1.671875 -0.671875q-1.265625 0 -1.96875 0.71875q-0.6875 0.71875 -0.6875 1.984375l-1.6875 0q0 -1.828125 1.171875 -2.953125q1.1875 -1.140625 3.171875 -1.140625q1.84375 0 2.921875 0.984375q1.078125 0.96875 1.078125 2.578125q0 1.953125 -2.5 4.65625l-3.546875 3.859375l6.65625 0l0 1.375zm2.5540466 -6.65625l0.671875 -6.609375l6.796875 0l0 1.5625l-5.359375 0l-0.40625 3.609375q0.984375 -0.5625 2.21875 -0.5625q1.8125 0 2.875 1.203125q1.0625 1.1875 1.0625 3.21875q0 2.0625 -1.109375 3.25q-1.09375 1.171875 -3.09375 1.171875q-1.75 0 -2.859375 -0.96875q-1.109375 -0.984375 -1.265625 -2.703125l1.59375 0q0.15625 1.140625 0.8125 1.71875q0.65625 0.578125 1.71875 0.578125q1.1875 0 1.84375 -0.796875q0.671875 -0.8125 0.671875 -2.21875q0 -1.328125 -0.71875 -2.140625q-0.71875 -0.8125 -1.921875 -0.8125q-1.109375 0 -1.734375 0.484375l-0.453125 0.375l-1.34375 -0.359375zm16.319672 -6.609375l0 1.421875l-0.3125 0q-1.96875 0.03125 -3.140625 1.171875q-1.15625 1.125 -1.34375 3.171875q1.046875 -1.203125 2.859375 -1.203125q1.734375 0 2.765625 1.21875q1.03125 1.21875 1.03125 3.15625q0 2.046875 -1.125 3.28125q-1.109375 1.234375 -2.984375 1.234375q-1.890625 0 -3.078125 -1.453125q-1.1875 -1.46875 -1.1875 -3.78125l0 -0.640625q0 -3.671875 1.5625 -5.609375q1.5625 -1.9375 4.65625 -1.96875l0.296875 0zm-2.21875 5.96875q-0.859375 0 -1.59375 0.515625q-0.734375 0.515625 -1.015625 1.3125l0 0.609375q0 1.640625 0.734375 2.640625q0.75 1.0 1.84375 1.0q1.140625 0 1.796875 -0.828125q0.65625 -0.84375 0.65625 -2.203125q0 -1.359375 -0.671875 -2.203125q-0.65625 -0.84375 -1.75 -0.84375zm9.757172 2.34375l-4.4375 0l0 -1.375l4.4375 0l0 1.375zm1.1937408 -0.0625q0 -1.453125 0.5625 -2.609375q0.578125 -1.15625 1.59375 -1.78125q1.015625 -0.625 2.3125 -0.625q2.015625 0 3.25 1.390625q1.25 1.390625 1.25 3.703125l0 0.125q0 1.4375 -0.546875 2.578125q-0.546875 1.140625 -1.578125 1.78125q-1.015625 0.640625 -2.359375 0.640625q-2.0 0 -3.25 -1.390625q-1.234375 -1.40625 -1.234375 -3.703125l0 -0.109375zm1.6875 0.203125q0 1.640625 0.765625 2.640625q0.765625 0.984375 2.03125 0.984375q1.296875 0 2.046875 -1.0q0.75 -1.015625 0.75 -2.828125q0 -1.625 -0.765625 -2.625q-0.765625 -1.015625 -2.046875 -1.015625q-1.25 0 -2.015625 1.0q-0.765625 0.984375 -0.765625 2.84375zm14.171143 -3.53125q-0.390625 -0.0625 -0.84375 -0.0625q-1.65625 0 -2.25 1.40625l0 7.0l-1.671875 0l0 -9.859375l1.640625 0l0.015625 1.140625q0.828125 -1.3125 2.359375 -1.3125q0.484375 0 0.75 0.125l0 1.5625zm5.0472565 3.390625l-4.4375 0l0 -1.375l4.4375 0l0 1.375zm12.099991 4.953125l-1.765625 0l0 -6.125l-6.6875 0l0 6.125l-1.734375 0l0 -13.265625l1.734375 0l0 5.703125l6.6875 0l0 -5.703125l1.765625 0l0 13.265625zm10.596741 -6.125l-5.75 0l0 4.6875l6.6875 0l0 1.4375l-8.421875 0l0 -13.265625l8.328125 0l0 1.4375l-6.59375 0l0 4.265625l5.75 0l0 1.4375zm10.431564 2.65625l-5.546875 0l-1.2499847 3.46875l-1.8125 0l5.0624847 -13.265625l1.53125 0l5.078125 13.265625l-1.796875 0l-1.265625 -3.46875zm-5.03125 -1.4375l4.515625 0l-2.265625 -6.203125l-2.25 6.203125zm9.889038 4.90625l0 -13.265625l3.734375 0q1.734375 0 3.0625 0.765625q1.328125 0.765625 2.046875 2.1875q0.734375 1.40625 0.734375 3.234375l0 0.84375q0 1.875 -0.71875 3.296875q-0.71875 1.40625 -2.0625 2.171875q-1.34375 0.75 -3.140625 0.765625l-3.65625 0zm1.734375 -11.828125l0 10.390625l1.84375 0q2.03125 0 3.15625 -1.25q1.125 -1.25 1.125 -3.578125l0 -0.78125q0 -2.25 -1.0625 -3.5q-1.0625 -1.265625 -3.015625 -1.28125l-2.046875 0zm16.187164 5.90625l-6.0155945 -2.359375l0 -1.734375l7.7812195 3.453125l0 1.328125l-7.7812195 3.453125l0 -1.75l6.0155945 -2.390625zm4.1221924 7.0625l-1.453125 0l5.546875 -14.40625l1.4375 0l-5.53125 14.40625z" fill-rule="nonzero"/><path fill="#ffe599" d="m419.49606 131.2265l0 0c0 -21.514893 17.441254 -38.95616 38.956146 -38.95616l287.09558 0c10.331787 0 20.240479 4.1043015 27.546143 11.409996c7.305725 7.3056946 11.410034 17.214348 11.410034 27.546165l0 155.81998c0 21.514893 -17.441284 38.956146 -38.956177 38.956146l-287.09558 0c-21.514893 0 -38.956146 -17.441254 -38.956146 -38.956146z" fill-rule="evenodd"/><path stroke="#000000" stroke-width="1.0" stroke-linejoin="round" stroke-linecap="butt" d="m419.49606 131.2265l0 0c0 -21.514893 17.441254 -38.95616 38.956146 -38.95616l287.09558 0c10.331787 0 20.240479 4.1043015 27.546143 11.409996c7.305725 7.3056946 11.410034 17.214348 11.410034 27.546165l0 155.81998c0 21.514893 -17.441284 38.956146 -38.956177 38.956146l-287.09558 0c-21.514893 0 -38.956146 -17.441254 -38.956146 -38.956146z" fill-rule="evenodd"/><path fill="#000000" d="m451.40594 123.52209q0 1.4375 -0.859375 2.4375q-0.84375 0.984375 -2.09375 0.984375q-0.65625 0 -1.234375 -0.234375q-0.578125 -0.25 -1.359375 -0.921875q-0.765625 -0.6875 -1.109375 -0.84375q-0.328125 -0.171875 -0.703125 -0.171875q-0.71875 0 -1.109375 0.5q-0.375 0.484375 -0.375 1.34375l-1.46875 0.015625q0 -1.453125 0.84375 -2.390625q0.84375 -0.953125 2.109375 -0.953125q0.6875 0 1.328125 0.296875q0.640625 0.296875 1.4375 1.03125q0.796875 0.734375 1.390625 0.8125l0.25 0.03125q0.703125 0 1.125 -0.53125q0.4375 -0.53125 0.4375 -1.390625l1.390625 -0.015625zm2.7988892 8.218742l-1.453125 0l5.546875 -14.406242l1.4375 0l-5.53125 14.406242zm7.3915405 -2.03125q0 -0.4375 0.25 -0.71875q0.265625 -0.296875 0.78125 -0.296875q0.53125 0 0.796875 0.296875q0.265625 0.28125 0.265625 0.71875q0 0.421875 -0.265625 0.703125q-0.265625 0.28125 -0.796875 0.28125q-0.515625 0 -0.78125 -0.28125q-0.25 -0.28125 -0.25 -0.703125zm7.628784 -3.6718674l-1.0625 1.09375l0 3.4687424l-1.6875 0l0 -13.999992l1.6875 0l0 8.46875l0.90625 -1.078125l3.0625 -3.25l2.046875 0l-3.828125 4.125l4.28125 5.7343674l-1.984375 0l-3.421875 -4.5624924zm12.783783 3.5937424q-0.984375 1.15625 -2.890625 1.15625q-1.578125 0 -2.40625 -0.921875q-0.8125 -0.921875 -0.828125 -2.7031174l0 -6.421875l1.6875 0l0 6.375q0 2.2343674 1.828125 2.2343674q1.921875 0 2.5625 -1.4374924l0 -7.171875l1.6875 0l0 9.859367l-1.609375 0l-0.03125 -0.96875zm12.550232 -3.8437424q0 2.2499924 -1.046875 3.6249924q-1.03125 1.375 -2.78125 1.375q-1.875 0 -2.890625 -1.328125l-0.078125 1.140625l-1.546875 0l0 -13.999992l1.671875 0l0 5.234375q1.03125 -1.265625 2.8125 -1.265625q1.796875 0 2.828125 1.359375q1.03125 1.34375 1.03125 3.703125l0 0.15625zm-1.6875 -0.203125q0 -1.71875 -0.671875 -2.65625q-0.65625 -0.9375 -1.90625 -0.9375q-1.671875 0 -2.40625 1.546875l0 4.265625q0.78125 1.5468674 2.421875 1.5468674q1.21875 0 1.890625 -0.9375q0.671875 -0.9374924 0.671875 -2.8281174zm7.8887024 5.2031174q-2.0 0 -3.265625 -1.3125q-1.25 -1.328125 -1.25 -3.5312424l0 -0.3125q0 -1.46875 0.5625 -2.609375q0.5625 -1.15625 1.5625 -1.796875q1.015625 -0.65625 2.1875 -0.65625q1.921875 0 2.984375 1.265625q1.0625 1.265625 1.0625 3.625l0 0.6875l-6.671875 0q0.03125 1.46875 0.84375 2.3749924q0.828125 0.890625 2.078125 0.890625q0.890625 0 1.515625 -0.359375q0.625 -0.375 1.078125 -0.96875l1.03125 0.796875q-1.234375 1.90625 -3.71875 1.90625zm-0.203125 -8.843742q-1.015625 0 -1.71875 0.75q-0.6875 0.734375 -0.84375 2.078125l4.9375 0l0 -0.125q-0.078125 -1.28125 -0.703125 -1.984375q-0.609375 -0.71875 -1.671875 -0.71875zm6.336914 9.796867l-1.453125 0l5.546875 -14.406242l1.4375 0l-5.53125 14.406242zm15.672791 -5.9531174q0 2.2499924 -1.03125 3.6249924q-1.015625 1.375 -2.78125 1.375q-1.796875 0 -2.828125 -1.140625l0 4.75l-1.671875 0l0 -13.656242l1.53125 0l0.078125 1.09375q1.03125 -1.265625 2.859375 -1.265625q1.78125 0 2.8125 1.34375q1.03125 1.328125 1.03125 3.71875l0 0.15625zm-1.671875 -0.203125q0 -1.65625 -0.71875 -2.625q-0.703125 -0.96875 -1.953125 -0.96875q-1.53125 0 -2.296875 1.359375l0 4.7031174q0.765625 1.359375 2.328125 1.359375q1.203125 0 1.921875 -0.953125q0.71875 -0.9687424 0.71875 -2.8749924zm5.654297 5.0156174l-1.6875 0l0 -13.999992l1.6875 0l0 13.999992zm8.777466 -0.96875q-0.984375 1.15625 -2.890625 1.15625q-1.578125 0 -2.40625 -0.921875q-0.8125 -0.921875 -0.828125 -2.7031174l0 -6.421875l1.6875 0l0 6.375q0 2.2343674 1.828125 2.2343674q1.921875 0 2.5625 -1.4374924l0 -7.171875l1.6875 0l0 9.859367l-1.609375 0l-0.03125 -0.96875zm3.800232 -4.0468674q0 -2.296875 1.0625 -3.65625q1.0625 -1.359375 2.828125 -1.359375q1.796875 0 2.8125 1.265625l0.078125 -1.09375l1.546875 0l0 9.624992q0 1.90625 -1.140625 3.0q-1.125 1.109375 -3.046875 1.109375q-1.0625 0 -2.09375 -0.453125q-1.015625 -0.453125 -1.546875 -1.25l0.875 -1.0q1.078125 1.328125 2.65625 1.328125q1.21875 0 1.90625 -0.6875q0.6875 -0.6875 0.6875 -1.953125l0 -0.84375q-1.0 1.171875 -2.75 1.171875q-1.734375 0 -2.8125 -1.390625q-1.0625 -1.4062424 -1.0625 -3.8124924zm1.6875 0.203125q0 1.65625 0.6875 2.6093674q0.6875 0.953125 1.921875 0.953125q1.59375 0 2.328125 -1.4531174l0 -4.5q-0.765625 -1.40625 -2.3125 -1.40625q-1.234375 0 -1.9375 0.953125q-0.6875 0.953125 -0.6875 2.84375zm11.013672 4.8124924l-1.6875 0l0 -9.859367l1.6875 0l0 9.859367zm-1.828125 -12.468742q0 -0.40625 0.25 -0.6875q0.25 -0.296875 0.734375 -0.296875q0.5 0 0.75 0.296875q0.265625 0.28125 0.265625 0.6875q0 0.40625 -0.265625 0.6875q-0.25 0.265625 -0.75 0.265625q-0.484375 0 -0.734375 -0.265625q-0.25 -0.28125 -0.25 -0.6875zm6.121155 2.609375l0.046875 1.234375q1.125 -1.40625 2.953125 -1.40625q3.125 0 3.15625 3.515625l0 6.5156174l-1.6875 0l0 -6.5156174q-0.015625 -1.078125 -0.5 -1.578125q-0.46875 -0.515625 -1.484375 -0.515625q-0.8125 0 -1.4375 0.4375q-0.609375 0.4375 -0.96875 1.15625l0 7.0156174l-1.671875 0l0 -9.859367l1.59375 0zm14.434387 7.25q0 -0.6875 -0.515625 -1.0625q-0.515625 -0.375 -1.796875 -0.640625q-1.28125 -0.28125 -2.03125 -0.65625q-0.75 -0.390625 -1.109375 -0.921875q-0.359375 -0.53125 -0.359375 -1.265625q0 -1.203125 1.015625 -2.03125q1.03125 -0.84375 2.625 -0.84375q1.671875 0 2.71875 0.859375q1.046875 0.859375 1.046875 2.21875l-1.6875 0q0 -0.703125 -0.59375 -1.203125q-0.59375 -0.5 -1.484375 -0.5q-0.921875 0 -1.4375 0.40625q-0.515625 0.390625 -0.515625 1.046875q0 0.609375 0.484375 0.921875q0.484375 0.3125 1.734375 0.59375q1.265625 0.28125 2.046875 0.671875q0.78125 0.390625 1.15625 0.9375q0.390625 0.546875 0.390625 1.34375q0 1.3281174 -1.0625 2.1249924q-1.046875 0.796875 -2.734375 0.796875q-1.1875 0 -2.109375 -0.421875q-0.90625 -0.421875 -1.421875 -1.171875q-0.515625 -0.75 -0.515625 -1.6249924l1.6875 0q0.046875 0.8437424 0.671875 1.3437424q0.640625 0.5 1.6875 0.5q0.953125 0 1.53125 -0.390625q0.578125 -0.390625 0.578125 -1.0312424zm4.213379 3.7499924l-1.453125 0l5.546875 -14.406242l1.4375 0l-5.53125 14.406242zm10.110291 -5.7031174l-1.0625 1.09375l0 3.4687424l-1.6875 0l0 -13.999992l1.6875 0l0 8.46875l0.90625 -1.078125l3.0625 -3.25l2.046875 0l-3.828125 4.125l4.28125 5.7343674l-1.984375 0l-3.421875 -4.5624924zm11.471252 -3.78125q-0.390625 -0.0625 -0.84375 -0.0625q-1.65625 0 -2.25 1.40625l0 6.9999924l-1.671875 0l0 -9.859367l1.640625 0l0.015625 1.140625q0.828125 -1.3125 2.359375 -1.3125q0.484375 0 0.75 0.125l0 1.5625zm5.6254272 8.531242q-2.0 0 -3.265625 -1.3125q-1.25 -1.328125 -1.25 -3.5312424l0 -0.3125q0 -1.46875 0.5625 -2.609375q0.5625 -1.15625 1.5625 -1.796875q1.015625 -0.65625 2.1875 -0.65625q1.921875 0 2.984375 1.265625q1.0625 1.265625 1.0625 3.625l0 0.6875l-6.671875 0q0.03125 1.46875 0.84375 2.3749924q0.828125 0.890625 2.078125 0.890625q0.890625 0 1.515625 -0.359375q0.625 -0.375 1.078125 -0.96875l1.03125 0.796875q-1.234375 1.90625 -3.71875 1.90625zm-0.203125 -8.843742q-1.015625 0 -1.71875 0.75q-0.6875 0.734375 -0.84375 2.078125l4.9375 0l0 -0.125q-0.078125 -1.28125 -0.703125 -1.984375q-0.609375 -0.71875 -1.671875 -0.71875zm14.727539 6.3281174l1.890625 -7.5312424l1.6875 0l-2.859375 9.859367l-1.375 0l-2.390625 -7.4687424l-2.328125 7.4687424l-1.375 0l-2.859375 -9.859367l1.671875 0l1.953125 7.3749924l2.28125 -7.3749924l1.359375 0l2.34375 7.5312424zm5.6289062 3.46875l-1.453125 0l5.546875 -14.406242l1.4375 0l-5.53125 14.406242zm13.094666 -3.7499924q0 -0.6875 -0.515625 -1.0625q-0.515625 -0.375 -1.796875 -0.640625q-1.28125 -0.28125 -2.03125 -0.65625q-0.75 -0.390625 -1.109375 -0.921875q-0.359375 -0.53125 -0.359375 -1.265625q0 -1.203125 1.015625 -2.03125q1.03125 -0.84375 2.625 -0.84375q1.671875 0 2.71875 0.859375q1.046875 0.859375 1.046875 2.21875l-1.6875 0q0 -0.703125 -0.59375 -1.203125q-0.59375 -0.5 -1.484375 -0.5q-0.921875 0 -1.4375 0.40625q-0.515625 0.390625 -0.515625 1.046875q0 0.609375 0.484375 0.921875q0.484375 0.3125 1.734375 0.59375q1.265625 0.28125 2.046875 0.671875q0.78125 0.390625 1.15625 0.9375q0.390625 0.546875 0.390625 1.34375q0 1.3281174 -1.0625 2.1249924q-1.046875 0.796875 -2.734375 0.796875q-1.1875 0 -2.109375 -0.421875q-0.90625 -0.421875 -1.421875 -1.171875q-0.515625 -0.75 -0.515625 -1.6249924l1.6875 0q0.046875 0.8437424 0.671875 1.3437424q0.640625 0.5 1.6875 0.5q0.953125 0 1.53125 -0.390625q0.578125 -0.390625 0.578125 -1.0312424zm6.166504 -9.640625l0 2.390625l1.84375 0l0 1.3125l-1.84375 0l0 6.1093674q0 0.59375 0.234375 0.890625q0.25 0.296875 0.84375 0.296875q0.296875 0 0.8125 -0.109375l0 1.359375q-0.671875 0.1875 -1.296875 0.1875q-1.125 0 -1.703125 -0.6875q-0.578125 -0.6875 -0.578125 -1.9375l0 -6.1093674l-1.796875 0l0 -1.3125l1.796875 0l0 -2.390625l1.6875 0zm3.3598633 7.234375q0 -1.453125 0.5625 -2.609375q0.578125 -1.15625 1.59375 -1.78125q1.015625 -0.625 2.3125 -0.625q2.015625 0 3.25 1.390625q1.25 1.390625 1.25 3.703125l0 0.125q0 1.4375 -0.546875 2.5781174q-0.546875 1.140625 -1.578125 1.78125q-1.015625 0.640625 -2.359375 0.640625q-2.0 0 -3.25 -1.390625q-1.234375 -1.4062424 -1.234375 -3.7031174l0 -0.109375zm1.6875 0.203125q0 1.640625 0.765625 2.6406174q0.765625 0.984375 2.03125 0.984375q1.296875 0 2.046875 -1.0q0.75 -1.0156174 0.75 -2.8281174q0 -1.625 -0.765625 -2.625q-0.765625 -1.015625 -2.046875 -1.015625q-1.25 0 -2.015625 1.0q-0.765625 0.984375 -0.765625 2.84375zm14.171143 -3.53125q-0.390625 -0.0625 -0.84375 -0.0625q-1.65625 0 -2.25 1.40625l0 6.9999924l-1.671875 0l0 -9.859367l1.640625 0l0.015625 1.140625q0.828125 -1.3125 2.359375 -1.3125q0.484375 0 0.75 0.125l0 1.5625zm5.625366 8.531242q-2.0 0 -3.265625 -1.3125q-1.25 -1.328125 -1.25 -3.5312424l0 -0.3125q0 -1.46875 0.5625 -2.609375q0.5625 -1.15625 1.5625 -1.796875q1.015625 -0.65625 2.1875 -0.65625q1.921875 0 2.984375 1.265625q1.0625 1.265625 1.0625 3.625l0 0.6875l-6.671875 0q0.03125 1.46875 0.84375 2.3749924q0.828125 0.890625 2.078125 0.890625q0.890625 0 1.515625 -0.359375q0.625 -0.375 1.078125 -0.96875l1.03125 0.796875q-1.234375 1.90625 -3.71875 1.90625zm-0.203125 -8.843742q-1.015625 0 -1.71875 0.75q-0.6875 0.734375 -0.84375 2.078125l4.9375 0l0 -0.125q-0.078125 -1.28125 -0.703125 -1.984375q-0.609375 -0.71875 -1.671875 -0.71875zm6.336914 9.796867l-1.453125 0l5.546875 -14.406242l1.4375 0l-5.53125 14.406242zm8.188416 -1.140625l0 -8.546867l-1.5625 0l0 -1.3125l1.5625 0l0 -1.015625q0 -1.578125 0.84375 -2.4375q0.84375 -0.875 2.390625 -0.875q0.59375 0 1.15625 0.15625l-0.09375 1.375q-0.421875 -0.09375 -0.90625 -0.09375q-0.8125 0 -1.265625 0.484375q-0.4375 0.484375 -0.4375 1.375l0 1.03125l2.09375 0l0 1.3125l-2.09375 0l0 8.546867l-1.6875 0zm5.1956177 -5.0156174q0 -1.453125 0.5625 -2.609375q0.578125 -1.15625 1.59375 -1.78125q1.015625 -0.625 2.3125 -0.625q2.015625 0 3.25 1.390625q1.25 1.390625 1.25 3.703125l0 0.125q0 1.4375 -0.546875 2.5781174q-0.546875 1.140625 -1.578125 1.78125q-1.015625 0.640625 -2.359375 0.640625q-2.0 0 -3.25 -1.390625q-1.234375 -1.4062424 -1.234375 -3.7031174l0 -0.109375zm1.6875 0.203125q0 1.640625 0.765625 2.6406174q0.765625 0.984375 2.03125 0.984375q1.296875 0 2.046875 -1.0q0.75 -1.0156174 0.75 -2.8281174q0 -1.625 -0.765625 -2.625q-0.765625 -1.015625 -2.046875 -1.015625q-1.25 0 -2.015625 1.0q-0.765625 0.984375 -0.765625 2.84375zm8.952393 -0.203125q0 -1.453125 0.5625 -2.609375q0.578125 -1.15625 1.59375 -1.78125q1.015625 -0.625 2.3125 -0.625q2.015625 0 3.25 1.390625q1.25 1.390625 1.25 3.703125l0 0.125q0 1.4375 -0.546875 2.5781174q-0.546875 1.140625 -1.578125 1.78125q-1.015625 0.640625 -2.359375 0.640625q-2.0 0 -3.25 -1.390625q-1.234375 -1.4062424 -1.234375 -3.7031174l0 -0.109375zm1.6875 0.203125q0 1.640625 0.765625 2.6406174q0.765625 0.984375 2.03125 0.984375q1.296875 0 2.046875 -1.0q0.75 -1.0156174 0.75 -2.8281174q0 -1.625 -0.765625 -2.625q-0.765625 -1.015625 -2.046875 -1.015625q-1.25 0 -2.015625 1.0q-0.765625 0.984375 -0.765625 2.84375zm9.733643 5.9531174l-1.453125 0l5.546875 -14.406242l1.4375 0l-5.53125 14.406242z" fill-rule="nonzero"/><path fill="#f1c232" d="m419.49606 182.02655l0 0c0 -8.343872 6.764038 -15.10791 15.10791 -15.10791l209.34323 0c4.006897 0 7.8496094 1.5917206 10.682922 4.425003c2.833252 2.8332825 4.424988 6.6760406 4.424988 10.682907l0 60.42984c0 8.343872 -6.764038 15.10791 -15.10791 15.10791l-209.34323 0l0 0c-8.343872 0 -15.10791 -6.764038 -15.10791 -15.10791z" fill-rule="evenodd"/><path stroke="#000000" stroke-width="1.0" stroke-linejoin="round" stroke-linecap="butt" d="m419.49606 182.02655l0 0c0 -8.343872 6.764038 -15.10791 15.10791 -15.10791l209.34323 0c4.006897 0 7.8496094 1.5917206 10.682922 4.425003c2.833252 2.8332825 4.424988 6.6760406 4.424988 10.682907l0 60.42984c0 8.343872 -6.764038 15.10791 -15.10791 15.10791l-209.34323 0l0 0c-8.343872 0 -15.10791 -6.764038 -15.10791 -15.10791z" fill-rule="evenodd"/><path fill="#000000" d="m434.5304 199.40422l-1.453125 0l5.546875 -14.40625l1.4375 0l-5.53125 14.40625zm8.485291 -7.0l5.703125 2.296875l0 1.78125l-7.453125 -3.453125l0 -1.328125l7.453125 -3.4375l0 1.78125l-5.703125 2.359375zm7.904846 0.84375q0 -1.453125 0.5625 -2.609375q0.578125 -1.15625 1.59375 -1.78125q1.015625 -0.625 2.3125 -0.625q2.015625 0 3.25 1.390625q1.25 1.390625 1.25 3.703125l0 0.125q0 1.4375 -0.546875 2.578125q-0.546875 1.140625 -1.578125 1.78125q-1.015625 0.640625 -2.359375 0.640625q-2.0 0 -3.25 -1.390625q-1.234375 -1.40625 -1.234375 -3.703125l0 -0.109375zm1.6875 0.203125q0 1.640625 0.765625 2.640625q0.765625 0.984375 2.03125 0.984375q1.296875 0 2.046875 -1.0q0.75 -1.015625 0.75 -2.828125q0 -1.625 -0.765625 -2.625q-0.765625 -1.015625 -2.046875 -1.015625q-1.25 0 -2.015625 1.0q-0.765625 0.984375 -0.765625 2.84375zm11.233643 4.8125l-1.6875 0l0 -14.0l1.6875 0l0 14.0zm2.2774353 -5.015625q0 -2.265625 1.078125 -3.640625q1.078125 -1.375 2.8125 -1.375q1.734375 0 2.75 1.171875l0 -5.140625l1.6875 0l0 14.0l-1.546875 0l-0.09375 -1.0625q-1.0 1.25 -2.8125 1.25q-1.703125 0 -2.796875 -1.40625q-1.078125 -1.40625 -1.078125 -3.65625l0 -0.140625zm1.6875 0.203125q0 1.671875 0.6875 2.625q0.703125 0.9375 1.921875 0.9375q1.609375 0 2.34375 -1.4375l0 -4.53125q-0.765625 -1.390625 -2.328125 -1.390625q-1.234375 0 -1.9375 0.953125q-0.6875 0.953125 -0.6875 2.84375zm12.755829 -0.140625l-4.4375 0l0 -1.375l4.4375 0l0 1.375zm7.381256 2.34375q0 -0.6875 -0.515625 -1.0625q-0.515625 -0.375 -1.796875 -0.640625q-1.28125 -0.28125 -2.03125 -0.65625q-0.75 -0.390625 -1.109375 -0.921875q-0.359375 -0.53125 -0.359375 -1.265625q0 -1.203125 1.015625 -2.03125q1.03125 -0.84375 2.625 -0.84375q1.671875 0 2.71875 0.859375q1.046875 0.859375 1.046875 2.21875l-1.6875 0q0 -0.703125 -0.59375 -1.203125q-0.59375 -0.5 -1.484375 -0.5q-0.921875 0 -1.4375 0.40625q-0.515625 0.390625 -0.515625 1.046875q0 0.609375 0.484375 0.921875q0.484375 0.3125 1.734375 0.59375q1.265625 0.28125 2.046875 0.671875q0.78125 0.390625 1.15625 0.9375q0.390625 0.546875 0.390625 1.34375q0 1.328125 -1.0625 2.125q-1.046875 0.796875 -2.734375 0.796875q-1.1875 0 -2.109375 -0.421875q-0.90625 -0.421875 -1.421875 -1.171875q-0.515625 -0.75 -0.515625 -1.625l1.6875 0q0.046875 0.84375 0.671875 1.34375q0.640625 0.5 1.6875 0.5q0.953125 0 1.53125 -0.390625q0.578125 -0.390625 0.578125 -1.03125zm5.557129 -6.046875q1.125 -1.375 2.921875 -1.375q3.125 0 3.15625 3.515625l0 6.515625l-1.6875 0l0 -6.515625q-0.015625 -1.078125 -0.5 -1.578125q-0.46875 -0.515625 -1.484375 -0.515625q-0.8125 0 -1.4375 0.4375q-0.609375 0.4375 -0.96875 1.15625l0 7.015625l-1.671875 0l0 -14.0l1.671875 0l0 5.34375zm14.681763 8.65625q-0.140625 -0.296875 -0.234375 -1.03125q-1.171875 1.21875 -2.8125 1.21875q-1.453125 0 -2.390625 -0.828125q-0.921875 -0.828125 -0.921875 -2.09375q0 -1.53125 1.15625 -2.375q1.171875 -0.859375 3.296875 -0.859375l1.640625 0l0 -0.78125q0 -0.890625 -0.53125 -1.40625q-0.515625 -0.53125 -1.546875 -0.53125q-0.90625 0 -1.515625 0.46875q-0.609375 0.453125 -0.609375 1.09375l-1.703125 0q0 -0.734375 0.515625 -1.421875q0.53125 -0.6875 1.421875 -1.078125q0.90625 -0.40625 1.984375 -0.40625q1.703125 0 2.671875 0.859375q0.96875 0.84375 1.0 2.328125l0 4.53125q0 1.359375 0.34375 2.171875l0 0.140625l-1.765625 0zm-2.796875 -1.28125q0.796875 0 1.5 -0.40625q0.71875 -0.421875 1.03125 -1.078125l0 -2.015625l-1.3125 0q-3.109375 0 -3.109375 1.8125q0 0.796875 0.53125 1.25q0.53125 0.4375 1.359375 0.4375zm15.382355 1.28125l-8.6875 0l0 -1.21875l4.578125 -5.09375q1.03125 -1.15625 1.40625 -1.875q0.390625 -0.734375 0.390625 -1.5q0 -1.046875 -0.625 -1.703125q-0.625 -0.671875 -1.671875 -0.671875q-1.265625 0 -1.96875 0.71875q-0.6875 0.71875 -0.6875 1.984375l-1.6875 0q0 -1.828125 1.171875 -2.953125q1.1875 -1.140625 3.171875 -1.140625q1.84375 0 2.921875 0.984375q1.078125 0.96875 1.078125 2.578125q0 1.953125 -2.5 4.65625l-3.546875 3.859375l6.65625 0l0 1.375zm2.554016 -6.65625l0.671875 -6.609375l6.796875 0l0 1.5625l-5.359375 0l-0.40625 3.609375q0.984375 -0.5625 2.21875 -0.5625q1.8125 0 2.875 1.203125q1.0625 1.1875 1.0625 3.21875q0 2.0625 -1.109375 3.25q-1.09375 1.171875 -3.09375 1.171875q-1.75 0 -2.859375 -0.96875q-1.109375 -0.984375 -1.265625 -2.703125l1.59375 0q0.15625 1.140625 0.8125 1.71875q0.65625 0.578125 1.71875 0.578125q1.1875 0 1.84375 -0.796875q0.671875 -0.8125 0.671875 -2.21875q0 -1.328125 -0.71875 -2.140625q-0.71875 -0.8125 -1.921875 -0.8125q-1.109375 0 -1.734375 0.484375l-0.453125 0.375l-1.34375 -0.359375zm16.319702 -6.609375l0 1.421875l-0.3125 0q-1.96875 0.03125 -3.140625 1.171875q-1.15625 1.125 -1.34375 3.171875q1.046875 -1.203125 2.859375 -1.203125q1.734375 0 2.765625 1.21875q1.03125 1.21875 1.03125 3.15625q0 2.046875 -1.125 3.28125q-1.109375 1.234375 -2.984375 1.234375q-1.890625 0 -3.078125 -1.453125q-1.1875 -1.46875 -1.1875 -3.78125l0 -0.640625q0 -3.671875 1.5625 -5.609375q1.5625 -1.9375 4.65625 -1.96875l0.296875 0zm-2.21875 5.96875q-0.859375 0 -1.59375 0.515625q-0.734375 0.515625 -1.015625 1.3125l0 0.609375q0 1.640625 0.734375 2.640625q0.75 1.0 1.84375 1.0q1.140625 0 1.796875 -0.828125q0.65625 -0.84375 0.65625 -2.203125q0 -1.359375 -0.671875 -2.203125q-0.65625 -0.84375 -1.75 -0.84375zm9.757141 2.34375l-4.4375 0l0 -1.375l4.4375 0l0 1.375zm1.1937866 -0.0625q0 -1.453125 0.5625 -2.609375q0.578125 -1.15625 1.59375 -1.78125q1.015625 -0.625 2.3125 -0.625q2.015625 0 3.25 1.390625q1.25 1.390625 1.25 3.703125l0 0.125q0 1.4375 -0.546875 2.578125q-0.546875 1.140625 -1.578125 1.78125q-1.015625 0.640625 -2.359375 0.640625q-2.0 0 -3.25 -1.390625q-1.234375 -1.40625 -1.234375 -3.703125l0 -0.109375zm1.6875 0.203125q0 1.640625 0.765625 2.640625q0.765625 0.984375 2.03125 0.984375q1.296875 0 2.046875 -1.0q0.75 -1.015625 0.75 -2.828125q0 -1.625 -0.765625 -2.625q-0.765625 -1.015625 -2.046875 -1.015625q-1.25 0 -2.015625 1.0q-0.765625 0.984375 -0.765625 2.84375zm14.171143 -3.53125q-0.390625 -0.0625 -0.84375 -0.0625q-1.65625 0 -2.25 1.40625l0 7.0l-1.671875 0l0 -9.859375l1.640625 0l0.015625 1.140625q0.828125 -1.3125 2.359375 -1.3125q0.484375 0 0.75 0.125l0 1.5625zm5.047241 3.390625l-4.4375 0l0 -1.375l4.4375 0l0 1.375zm12.099976 4.953125l-1.765625 0l0 -6.125l-6.6875 0l0 6.125l-1.734375 0l0 -13.265625l1.734375 0l0 5.703125l6.6875 0l0 -5.703125l1.765625 0l0 13.265625zm10.596741 -6.125l-5.75 0l0 4.6875l6.6875 0l0 1.4375l-8.421875 0l0 -13.265625l8.328125 0l0 1.4375l-6.59375 0l0 4.265625l5.75 0l0 1.4375zm10.43158 2.65625l-5.546875 0l-1.25 3.46875l-1.8125 0l5.0625 -13.265625l1.53125 0l5.078125 13.265625l-1.796875 0l-1.265625 -3.46875zm-5.03125 -1.4375l4.515625 0l-2.265625 -6.203125l-2.25 6.203125zm9.889038 4.90625l0 -13.265625l3.734375 0q1.734375 0 3.0625 0.765625q1.328125 0.765625 2.046875 2.1875q0.734375 1.40625 0.734375 3.234375l0 0.84375q0 1.875 -0.71875 3.296875q-0.71875 1.40625 -2.0625 2.171875q-1.34375 0.75 -3.140625 0.765625l-3.65625 0zm1.734375 -11.828125l0 10.390625l1.84375 0q2.03125 0 3.15625 -1.25q1.125 -1.25 1.125 -3.578125l0 -0.78125q0 -2.25 -1.0625 -3.5q-1.0625 -1.265625 -3.015625 -1.28125l-2.046875 0zm16.187195 5.90625l-6.015625 -2.359375l0 -1.734375l7.78125 3.453125l0 1.328125l-7.78125 3.453125l0 -1.75l6.015625 -2.390625zm4.1221313 7.0625l-1.453125 0l5.546875 -14.40625l1.4375 0l-5.53125 14.40625z" fill-rule="nonzero"/><path fill="#f1c232" d="m419.50394 265.0369l0 0c0 -4.3632812 3.53714 -7.900421 7.900421 -7.900421l223.75824 0c2.0952759 0 4.1047974 0.83236694 5.586426 2.3139954c1.4816284 1.4815979 2.3139648 3.4911194 2.3139648 5.586426l0 31.600739c0 4.3632812 -3.5371094 7.900421 -7.9003906 7.900421l-223.75824 0l0 0c-4.3632812 0 -7.900421 -3.53714 -7.900421 -7.900421z" fill-rule="evenodd"/><path stroke="#000000" stroke-width="1.0" stroke-linejoin="round" stroke-linecap="butt" d="m419.50394 265.0369l0 0c0 -4.3632812 3.53714 -7.900421 7.900421 -7.900421l223.75824 0c2.0952759 0 4.1047974 0.83236694 5.586426 2.3139954c1.4816284 1.4815979 2.3139648 3.4911194 2.3139648 5.586426l0 31.600739c0 4.3632812 -3.5371094 7.900421 -7.9003906 7.900421l-223.75824 0l0 0c-4.3632812 0 -7.900421 -3.53714 -7.900421 -7.900421z" fill-rule="evenodd"/><path fill="#000000" d="m432.42728 287.51105l-1.453125 0l5.546875 -14.40625l1.4375 0l-5.53125 14.40625zm8.485291 -7.0l5.703125 2.296875l0 1.78125l-7.453125 -3.453125l0 -1.328125l7.453125 -3.4375l0 1.78125l-5.703125 2.359375zm9.951721 -4.0l0.046875 1.234375q1.125 -1.40625 2.953125 -1.40625q3.125 0 3.15625 3.515625l0 6.515625l-1.6875 0l0 -6.515625q-0.015625 -1.078125 -0.5 -1.578125q-0.46875 -0.515625 -1.484375 -0.515625q-0.8125 0 -1.4375 0.4375q-0.609375 0.4375 -0.96875 1.15625l0 7.015625l-1.671875 0l0 -9.859375l1.59375 0zm12.778107 10.046875q-2.0 0 -3.265625 -1.3125q-1.25 -1.328125 -1.25 -3.53125l0 -0.3125q0 -1.46875 0.5625 -2.609375q0.5625 -1.15625 1.5625 -1.796875q1.015625 -0.65625 2.1875 -0.65625q1.921875 0 2.984375 1.265625q1.0625 1.265625 1.0625 3.625l0 0.6875l-6.671875 0q0.03125 1.46875 0.84375 2.375q0.828125 0.890625 2.078125 0.890625q0.890625 0 1.515625 -0.359375q0.625 -0.375 1.078125 -0.96875l1.03125 0.796875q-1.234375 1.90625 -3.71875 1.90625zm-0.203125 -8.84375q-1.015625 0 -1.71875 0.75q-0.6875 0.734375 -0.84375 2.078125l4.9375 0l0 -0.125q-0.078125 -1.28125 -0.703125 -1.984375q-0.609375 -0.71875 -1.671875 -0.71875zm14.72757 6.328125l1.890625 -7.53125l1.6875 0l-2.859375 9.859375l-1.375 0l-2.390625 -7.46875l-2.328125 7.46875l-1.375 0l-2.859375 -9.859375l1.671875 0l1.953125 7.375l2.28125 -7.375l1.359375 0l2.34375 7.53125zm8.800751 -2.625l-4.4375 0l0 -1.375l4.4375 0l0 1.375zm7.381256 2.34375q0 -0.6875 -0.515625 -1.0625q-0.515625 -0.375 -1.796875 -0.640625q-1.28125 -0.28125 -2.03125 -0.65625q-0.75 -0.390625 -1.109375 -0.921875q-0.359375 -0.53125 -0.359375 -1.265625q0 -1.203125 1.015625 -2.03125q1.03125 -0.84375 2.625 -0.84375q1.671875 0 2.71875 0.859375q1.046875 0.859375 1.046875 2.21875l-1.6875 0q0 -0.703125 -0.59375 -1.203125q-0.59375 -0.5 -1.484375 -0.5q-0.921875 0 -1.4375 0.40625q-0.515625 0.390625 -0.515625 1.046875q0 0.609375 0.484375 0.921875q0.484375 0.3125 1.734375 0.59375q1.265625 0.28125 2.046875 0.671875q0.78125 0.390625 1.15625 0.9375q0.390625 0.546875 0.390625 1.34375q0 1.328125 -1.0625 2.125q-1.046875 0.796875 -2.734375 0.796875q-1.1875 0 -2.109375 -0.421875q-0.90625 -0.421875 -1.421875 -1.171875q-0.515625 -0.75 -0.515625 -1.625l1.6875 0q0.046875 0.84375 0.671875 1.34375q0.640625 0.5 1.6875 0.5q0.953125 0 1.53125 -0.390625q0.578125 -0.390625 0.578125 -1.03125zm5.557129 -6.046875q1.125 -1.375 2.921875 -1.375q3.125 0 3.15625 3.515625l0 6.515625l-1.6875 0l0 -6.515625q-0.015625 -1.078125 -0.5 -1.578125q-0.46875 -0.515625 -1.484375 -0.515625q-0.8125 0 -1.4375 0.4375q-0.609375 0.4375 -0.96875 1.15625l0 7.015625l-1.671875 0l0 -14.0l1.671875 0l0 5.34375zm14.681732 8.65625q-0.140625 -0.296875 -0.234375 -1.03125q-1.171875 1.21875 -2.8124695 1.21875q-1.453125 0 -2.390625 -0.828125q-0.921875 -0.828125 -0.921875 -2.09375q0 -1.53125 1.15625 -2.375q1.171875 -0.859375 3.2968445 -0.859375l1.640625 0l0 -0.78125q0 -0.890625 -0.53125 -1.40625q-0.515625 -0.53125 -1.546875 -0.53125q-0.9062195 0 -1.5155945 0.46875q-0.609375 0.453125 -0.609375 1.09375l-1.703125 0q0 -0.734375 0.515625 -1.421875q0.53125 -0.6875 1.421875 -1.078125q0.90625 -0.40625 1.9843445 -0.40625q1.703125 0 2.671875 0.859375q0.96875 0.84375 1.0 2.328125l0 4.53125q0 1.359375 0.34375 2.171875l0 0.140625l-1.765625 0zm-2.7968445 -1.28125q0.7968445 0 1.4999695 -0.40625q0.71875 -0.421875 1.03125 -1.078125l0 -2.015625l-1.3125 0q-3.1093445 0 -3.1093445 1.8125q0 0.796875 0.53125 1.25q0.53125 0.4375 1.359375 0.4375zm15.382355 1.28125l-8.6875 0l0 -1.21875l4.578125 -5.09375q1.03125 -1.15625 1.40625 -1.875q0.390625 -0.734375 0.390625 -1.5q0 -1.046875 -0.625 -1.703125q-0.625 -0.671875 -1.671875 -0.671875q-1.265625 0 -1.96875 0.71875q-0.6875 0.71875 -0.6875 1.984375l-1.6875 0q0 -1.828125 1.171875 -2.953125q1.1875 -1.140625 3.171875 -1.140625q1.84375 0 2.921875 0.984375q1.078125 0.96875 1.078125 2.578125q0 1.953125 -2.5 4.65625l-3.546875 3.859375l6.65625 0l0 1.375zm2.554016 -6.65625l0.671875 -6.609375l6.796875 0l0 1.5625l-5.359375 0l-0.40625 3.609375q0.984375 -0.5625 2.21875 -0.5625q1.8125 0 2.875 1.203125q1.0625 1.1875 1.0625 3.21875q0 2.0625 -1.109375 3.25q-1.09375 1.171875 -3.09375 1.171875q-1.75 0 -2.859375 -0.96875q-1.109375 -0.984375 -1.265625 -2.703125l1.59375 0q0.15625 1.140625 0.8125 1.71875q0.65625 0.578125 1.71875 0.578125q1.1875 0 1.84375 -0.796875q0.671875 -0.8125 0.671875 -2.21875q0 -1.328125 -0.71875 -2.140625q-0.71875 -0.8125 -1.921875 -0.8125q-1.109375 0 -1.734375 0.484375l-0.453125 0.375l-1.34375 -0.359375zm16.319702 -6.609375l0 1.421875l-0.3125 0q-1.96875 0.03125 -3.140625 1.171875q-1.15625 1.125 -1.34375 3.171875q1.046875 -1.203125 2.859375 -1.203125q1.734375 0 2.765625 1.21875q1.03125 1.21875 1.03125 3.15625q0 2.046875 -1.125 3.28125q-1.109375 1.234375 -2.984375 1.234375q-1.890625 0 -3.078125 -1.453125q-1.1875 -1.46875 -1.1875 -3.78125l0 -0.640625q0 -3.671875 1.5625 -5.609375q1.5625 -1.9375 4.65625 -1.96875l0.296875 0zm-2.21875 5.96875q-0.859375 0 -1.59375 0.515625q-0.734375 0.515625 -1.015625 1.3125l0 0.609375q0 1.640625 0.734375 2.640625q0.75 1.0 1.84375 1.0q1.140625 0 1.796875 -0.828125q0.65625 -0.84375 0.65625 -2.203125q0 -1.359375 -0.671875 -2.203125q-0.65625 -0.84375 -1.75 -0.84375zm9.757141 2.34375l-4.4375 0l0 -1.375l4.4375 0l0 1.375zm1.1937866 -0.0625q0 -1.453125 0.5625 -2.609375q0.578125 -1.15625 1.59375 -1.78125q1.015625 -0.625 2.3125 -0.625q2.015625 0 3.25 1.390625q1.25 1.390625 1.25 3.703125l0 0.125q0 1.4375 -0.546875 2.578125q-0.546875 1.140625 -1.578125 1.78125q-1.015625 0.640625 -2.359375 0.640625q-2.0 0 -3.25 -1.390625q-1.234375 -1.40625 -1.234375 -3.703125l0 -0.109375zm1.6875 0.203125q0 1.640625 0.765625 2.640625q0.765625 0.984375 2.03125 0.984375q1.296875 0 2.046875 -1.0q0.75 -1.015625 0.75 -2.828125q0 -1.625 -0.765625 -2.625q-0.765625 -1.015625 -2.046875 -1.015625q-1.25 0 -2.015625 1.0q-0.765625 0.984375 -0.765625 2.84375zm14.171143 -3.53125q-0.390625 -0.0625 -0.84375 -0.0625q-1.65625 0 -2.25 1.40625l0 7.0l-1.671875 0l0 -9.859375l1.640625 0l0.015625 1.140625q0.828125 -1.3125 2.359375 -1.3125q0.484375 0 0.75 0.125l0 1.5625zm5.047241 3.390625l-4.4375 0l0 -1.375l4.4375 0l0 1.375zm12.099976 4.953125l-1.765625 0l0 -6.125l-6.6875 0l0 6.125l-1.734375 0l0 -13.265625l1.734375 0l0 5.703125l6.6875 0l0 -5.703125l1.765625 0l0 13.265625zm10.596741 -6.125l-5.75 0l0 4.6875l6.6875 0l0 1.4375l-8.421875 0l0 -13.265625l8.328125 0l0 1.4375l-6.59375 0l0 4.265625l5.75 0l0 1.4375zm10.43158 2.65625l-5.546875 0l-1.25 3.46875l-1.8125 0l5.0625 -13.265625l1.53125 0l5.078125 13.265625l-1.796875 0l-1.265625 -3.46875zm-5.03125 -1.4375l4.515625 0l-2.265625 -6.203125l-2.25 6.203125zm9.889038 4.90625l0 -13.265625l3.734375 0q1.734375 0 3.0625 0.765625q1.328125 0.765625 2.046875 2.1875q0.734375 1.40625 0.734375 3.234375l0 0.84375q0 1.875 -0.71875 3.296875q-0.71875 1.40625 -2.0625 2.171875q-1.34375 0.75 -3.140625 0.765625l-3.65625 0zm1.734375 -11.828125l0 10.390625l1.84375 0q2.03125 0 3.15625 -1.25q1.125 -1.25 1.125 -3.578125l0 -0.78125q0 -2.25 -1.0625 -3.5q-1.0625 -1.265625 -3.015625 -1.28125l-2.046875 0zm16.187195 5.90625l-6.015625 -2.359375l0 -1.734375l7.78125 3.453125l0 1.328125l-7.78125 3.453125l0 -1.75l6.015625 -2.390625zm4.1221313 7.0625l-1.453125 0l5.546875 -14.40625l1.4375 0l-5.53125 14.40625z" fill-rule="nonzero"/><path fill="#cfe2f3" d="m122.03809 53.90662l0 0c-1.6080856 -9.517609 3.671585 -18.939465 13.598656 -24.267527c9.927063 -5.328062 22.760529 -5.627903 33.054688 -0.7722893l0 0c3.646515 -5.5339336 10.320679 -9.354731 18.003708 -10.306679c7.683029 -0.95194817 15.472504 1.076767 21.012283 5.472494l0 0c3.1063538 -5.017418 9.205734 -8.388483 16.133759 -8.916964c6.9280396 -0.5284815 13.704224 1.8604145 17.924042 6.318983l0 0c5.612076 -5.318453 14.541046 -7.557741 22.923279 -5.7489157c8.382233 1.8088255 14.712219 7.340886 16.250916 14.202426l0 0c6.875763 1.5104637 12.603119 5.3502617 15.702301 10.527309c3.0992126 5.1770515 3.2662048 11.183495 0.45788574 16.467464l0 0c6.77063 7.0969505 8.354431 16.553547 4.1604004 24.840755c-4.194031 8.287216 -13.535797 14.159981 -24.539124 15.426697c-0.07757568 7.7778473 -5.373993 14.914703 -13.847809 18.659714c-8.473846 3.7450104 -18.80185 3.513382 -27.003174 -0.6056061c-3.493332 9.315315 -13.325882 16.169434 -25.249634 17.60112c-11.923752 1.4317017 -23.801132 -2.8157043 -30.500687 -10.90715c-8.2122345 3.9883041 -18.066254 5.137207 -27.339157 3.1875458c-9.272903 -1.9496689 -17.183609 -6.8336716 -21.947617 -13.550278l0 0c-8.391876 0.79089355 -16.505661 -2.7107544 -20.314514 -8.767105c-3.8088531 -6.056343 -2.5019608 -13.378136 3.2720795 -18.331589l0 0c-7.485771 -3.5484161 -11.305466 -10.589653 -9.467262 -17.451988c1.838211 -6.8623276 8.917778 -11.990719 17.546982 -12.710918z" fill-rule="evenodd"/><path fill="#000000" fill-opacity="0.0" d="m113.792496 84.43635l0 0c3.5325546 1.6745071 7.613495 2.434105 11.69487 2.1768036m5.3457336 24.922493c1.7551422 -0.1654129 3.4755096 -0.51569366 5.116745 -1.0418167m44.167572 11.404121c-1.2344513 -1.4909286 -2.2680054 -3.0841064 -3.0830383 -4.7524033m58.83548 -1.9418488l0 0c0.6368866 -1.6983261 1.0495453 -3.4462662 1.2310638 -5.2146606m39.618378 -12.8387985c0.08255005 -8.280716 -5.7572937 -15.862625 -15.011139 -19.489075m35.38968 -20.7775c-1.4986267 2.8197403 -3.7864685 5.3210945 -6.6841125 7.307934m-9.47467 -34.303444l0 0c0.25534058 1.1386738 0.37350464 2.2944622 0.35287476 3.4513454m-39.526413 -11.904514l0 0c-1.3999329 1.3266907 -2.553299 2.809248 -3.424179 4.401512m-30.633942 -1.8041077l0 0c-0.746048 1.2050209 -1.3031464 2.4801407 -1.6584625 3.7959862m-37.358093 1.0382977l0 0c2.178238 1.0274429 4.193405 2.2640839 6.0012207 3.6827526m-52.65397 21.357197l0 0c0.22163391 1.3117714 0.57183075 2.6073723 1.0473099 3.8746758" fill-rule="evenodd"/><path stroke="#000000" stroke-width="1.0" stroke-linejoin="round" stroke-linecap="butt" d="m122.03809 53.90662l0 0c-1.6080856 -9.517609 3.671585 -18.939465 13.598656 -24.267527c9.927063 -5.328062 22.760529 -5.627903 33.054688 -0.7722893l0 0c3.646515 -5.5339336 10.320679 -9.354731 18.003708 -10.306679c7.683029 -0.95194817 15.472504 1.076767 21.012283 5.472494l0 0c3.1063538 -5.017418 9.205734 -8.388483 16.133759 -8.916964c6.9280396 -0.5284815 13.704224 1.8604145 17.924042 6.318983l0 0c5.612076 -5.318453 14.541046 -7.557741 22.923279 -5.7489157c8.382233 1.8088255 14.712219 7.340886 16.250916 14.202426l0 0c6.875763 1.5104637 12.603119 5.3502617 15.702301 10.527309c3.0992126 5.1770515 3.2662048 11.183495 0.45788574 16.467464l0 0c6.77063 7.0969505 8.354431 16.553547 4.1604004 24.840755c-4.194031 8.287216 -13.535797 14.159981 -24.539124 15.426697c-0.07757568 7.7778473 -5.373993 14.914703 -13.847809 18.659714c-8.473846 3.7450104 -18.80185 3.513382 -27.003174 -0.6056061c-3.493332 9.315315 -13.325882 16.169434 -25.249634 17.60112c-11.923752 1.4317017 -23.801132 -2.8157043 -30.500687 -10.90715c-8.2122345 3.9883041 -18.066254 5.137207 -27.339157 3.1875458c-9.272903 -1.9496689 -17.183609 -6.8336716 -21.947617 -13.550278l0 0c-8.391876 0.79089355 -16.505661 -2.7107544 -20.314514 -8.767105c-3.8088531 -6.056343 -2.5019608 -13.378136 3.2720795 -18.331589l0 0c-7.485771 -3.5484161 -11.305466 -10.589653 -9.467262 -17.451988c1.838211 -6.8623276 8.917778 -11.990719 17.546982 -12.710918z" fill-rule="evenodd"/><path stroke="#000000" stroke-width="1.0" stroke-linejoin="round" stroke-linecap="butt" d="m113.792496 84.43635l0 0c3.5325546 1.6745071 7.613495 2.434105 11.69487 2.1768036m5.3457336 24.922493c1.7551422 -0.1654129 3.4755096 -0.51569366 5.116745 -1.0418167m44.167572 11.404121c-1.2344513 -1.4909286 -2.2680054 -3.0841064 -3.0830383 -4.7524033m58.83548 -1.9418488l0 0c0.6368866 -1.6983261 1.0495453 -3.4462662 1.2310638 -5.2146606m39.618378 -12.8387985c0.08255005 -8.280716 -5.7572937 -15.862625 -15.011139 -19.489075m35.38968 -20.7775c-1.4986267 2.8197403 -3.7864685 5.3210945 -6.6841125 7.307934m-9.47467 -34.303444l0 0c0.25534058 1.1386738 0.37350464 2.2944622 0.35287476 3.4513454m-39.526413 -11.904514l0 0c-1.3999329 1.3266907 -2.553299 2.809248 -3.424179 4.401512m-30.633942 -1.8041077l0 0c-0.746048 1.2050209 -1.3031464 2.4801407 -1.6584625 3.7959862m-37.358093 1.0382977l0 0c2.178238 1.0274429 4.193405 2.2640839 6.0012207 3.6827526m-52.65397 21.357197l0 0c0.22163391 1.3117714 0.57183075 2.6073723 1.0473099 3.8746758" fill-rule="evenodd"/><path fill="#000000" d="m156.58821 77.83947l0 -13.359375l2.703125 0l0 5.9375l5.4375 -5.9375l3.625 0l-5.015625 5.203125l5.296875 8.15625l-3.484375 0l-3.671875 -6.265625l-2.1875 2.234375l0 4.03125l-2.703125 0zm15.879196 0l-2.5625 0l0 -9.671875l2.375 0l0 1.375q0.609375 -0.984375 1.09375 -1.28125q0.484375 -0.3125 1.109375 -0.3125q0.875 0 1.6875 0.484375l-0.796875 2.234375q-0.640625 -0.421875 -1.203125 -0.421875q-0.53125 0 -0.90625 0.296875q-0.375 0.296875 -0.59375 1.078125q-0.203125 0.765625 -0.203125 3.234375l0 2.984375zm10.400894 -3.078125l2.546875 0.421875q-0.484375 1.40625 -1.546875 2.140625q-1.0625 0.734375 -2.65625 0.734375q-2.515625 0 -3.734375 -1.65625q-0.953125 -1.3125 -0.953125 -3.328125q0 -2.40625 1.25 -3.765625q1.265625 -1.359375 3.1875 -1.359375q2.15625 0 3.40625 1.421875q1.25 1.421875 1.1875 4.375l-6.40625 0q0.03125 1.140625 0.609375 1.78125q0.59375 0.625 1.484375 0.625q0.59375 0 1.0 -0.328125q0.421875 -0.328125 0.625 -1.0625zm0.15625 -2.59375q-0.03125 -1.109375 -0.578125 -1.6875q-0.546875 -0.578125 -1.328125 -0.578125q-0.84375 0 -1.390625 0.609375q-0.546875 0.609375 -0.53125 1.65625l3.828125 0zm6.422592 5.671875l-3.0625 -9.671875l2.484375 0l1.8125 6.34375l1.671875 -6.34375l2.46875 0l1.609375 6.34375l1.859375 -6.34375l2.515625 0l-3.109375 9.671875l-2.453125 0l-1.671875 -6.21875l-1.640625 6.21875l-2.484375 0zm17.897858 -13.359375l2.6875 0l0 7.234375q0 1.71875 0.109375 2.234375q0.171875 0.828125 0.8125 1.328125q0.65625 0.484375 1.78125 0.484375q1.15625 0 1.734375 -0.46875q0.59375 -0.46875 0.703125 -1.140625q0.125 -0.6875 0.125 -2.28125l0 -7.390625l2.6875 0l0 7.015625q0 2.40625 -0.21875 3.40625q-0.21875 0.984375 -0.8125 1.671875q-0.578125 0.6875 -1.5625 1.09375q-0.984375 0.40625 -2.5625 0.40625q-1.921875 0 -2.90625 -0.4375q-0.984375 -0.453125 -1.5625 -1.15625q-0.578125 -0.703125 -0.75 -1.484375q-0.265625 -1.140625 -0.265625 -3.390625l0 -7.125zm13.488571 13.359375l0 -13.359375l5.6875 0q2.140625 0 3.109375 0.359375q0.96875 0.359375 1.546875 1.28125q0.578125 0.921875 0.578125 2.109375q0 1.5 -0.890625 2.484375q-0.875 0.96875 -2.625 1.234375q0.875 0.5 1.4375 1.125q0.578125 0.609375 1.53125 2.15625l1.640625 2.609375l-3.234375 0l-1.9375 -2.90625q-1.046875 -1.5625 -1.4375 -1.96875q-0.375 -0.40625 -0.8125 -0.546875q-0.421875 -0.15625 -1.34375 -0.15625l-0.546875 0l0 5.578125l-2.703125 0zm2.703125 -7.703125l2.0 0q1.9375 0 2.421875 -0.15625q0.484375 -0.171875 0.75 -0.578125q0.28125 -0.40625 0.28125 -1.0q0 -0.671875 -0.359375 -1.078125q-0.359375 -0.421875 -1.015625 -0.53125q-0.328125 -0.046875 -1.96875 -0.046875l-2.109375 0l0 3.390625zm10.691696 7.703125l0 -13.359375l2.6875 0l0 13.359375l-2.6875 0z" fill-rule="nonzero"/><path fill="#000000" d="m155.19759 79.0528l82.93286 0l0 1.6800003l-82.93286 0l0 -1.6800003z" fill-rule="nonzero"/><path fill="#000000" fill-opacity="0.0" d="m203.75542 132.52245l-35.93701 135.49608" fill-rule="evenodd"/><path stroke="#000000" stroke-width="1.0" stroke-linejoin="round" stroke-linecap="butt" d="m203.75542 132.52245l-34.398834 129.69658" fill-rule="evenodd"/><path fill="#000000" stroke="#000000" stroke-width="1.0" stroke-linecap="butt" d="m167.76004 261.7956l0.433136 4.8098755l2.7599335 -3.9629822z" fill-rule="evenodd"/><path fill="#000000" fill-opacity="0.0" d="m310.27823 291.70865l109.22833 -10.866119" fill-rule="evenodd"/><path stroke="#000000" stroke-width="1.0" stroke-linejoin="round" stroke-linecap="butt" d="m310.27823 291.70865l103.25781 -10.272186" fill-rule="evenodd"/><path fill="#000000" stroke="#000000" stroke-width="1.0" stroke-linecap="butt" d="m413.69955 283.08008l4.352295 -2.0928345l-4.6793213 -1.194397z" fill-rule="evenodd"/><path fill="#b6d7a8" d="m325.91785 263.8294l77.921234 0l0 34.015747l-77.921234 0z" fill-rule="evenodd"/><path stroke="#000000" stroke-width="1.0" stroke-linejoin="round" stroke-linecap="butt" d="m325.91785 263.8294l77.921234 0l0 34.015747l-77.921234 0z" fill-rule="evenodd"/><path fill="#000000" d="m351.46347 286.17914l0 1.578125l-8.828125 0q-0.015625 -0.59375 0.1875 -1.140625q0.34375 -0.90625 1.078125 -1.78125q0.75 -0.875 2.15625 -2.015625q2.171875 -1.78125 2.9375 -2.828125q0.765625 -1.046875 0.765625 -1.96875q0 -0.984375 -0.703125 -1.640625q-0.6875 -0.671875 -1.8125 -0.671875q-1.1875 0 -1.90625 0.71875q-0.703125 0.703125 -0.703125 1.953125l-1.6875 -0.171875q0.171875 -1.890625 1.296875 -2.875q1.140625 -0.984375 3.03125 -0.984375q1.921875 0 3.046875 1.0625q1.125 1.0625 1.125 2.640625q0 0.796875 -0.328125 1.578125q-0.328125 0.78125 -1.09375 1.640625q-0.75 0.84375 -2.53125 2.34375q-1.46875 1.234375 -1.890625 1.6875q-0.421875 0.4375 -0.6875 0.875l6.546875 0zm2.672577 1.578125l0 -1.875l1.875 0l0 1.875l-1.875 0zm9.913483 0l0 -9.671875l1.46875 0l0 1.359375q0.453125 -0.71875 1.203125 -1.140625q0.765625 -0.4375 1.71875 -0.4375q1.078125 0 1.765625 0.453125q0.6875 0.4375 0.96875 1.234375q1.15625 -1.6875 2.984375 -1.6875q1.453125 0 2.21875 0.796875q0.78125 0.796875 0.78125 2.453125l0 6.640625l-1.640625 0l0 -6.09375q0 -0.984375 -0.15625 -1.40625q-0.15625 -0.4375 -0.578125 -0.703125q-0.421875 -0.265625 -0.984375 -0.265625q-1.015625 0 -1.6875 0.6875q-0.671875 0.671875 -0.671875 2.15625l0 5.625l-1.640625 0l0 -6.28125q0 -1.09375 -0.40625 -1.640625q-0.40625 -0.546875 -1.3125 -0.546875q-0.6875 0 -1.28125 0.359375q-0.59375 0.359375 -0.859375 1.0625q-0.25 0.703125 -0.25 2.03125l0 5.015625l-1.640625 0zm18.228302 0l-3.6875 -9.671875l1.734375 0l2.078125 5.796875q0.328125 0.9375 0.625 1.9375q0.203125 -0.765625 0.609375 -1.828125l2.140625 -5.90625l1.6875 0l-3.65625 9.671875l-1.53125 0z" fill-rule="nonzero"/><path fill="#b6d7a8" d="m97.25197 156.80052l239.55907 0l0 34.015747l-239.55907 0z" fill-rule="evenodd"/><path stroke="#000000" stroke-width="1.0" stroke-linejoin="round" stroke-linecap="butt" d="m97.25197 156.80052l239.55907 0l0 34.015747l-239.55907 0z" fill-rule="evenodd"/><path fill="#000000" d="m131.6963 180.7284l-1.640625 0l0 -10.453125q-0.59375 0.5625 -1.5625 1.140625q-0.953125 0.5625 -1.71875 0.84375l0 -1.59375q1.375 -0.640625 2.40625 -1.5625q1.03125 -0.921875 1.453125 -1.78125l1.0625 0l0 13.40625zm5.110092 0l0 -1.875l1.875 0l0 1.875l-1.875 0zm10.116608 0l0 -13.359375l4.609375 0q1.546875 0 2.375 0.203125q1.140625 0.25 1.953125 0.953125q1.0625 0.890625 1.578125 2.28125q0.53125 1.390625 0.53125 3.171875q0 1.515625 -0.359375 2.703125q-0.359375 1.171875 -0.921875 1.9375q-0.546875 0.765625 -1.203125 1.21875q-0.65625 0.4375 -1.59375 0.671875q-0.9375 0.21875 -2.140625 0.21875l-4.828125 0zm1.765625 -1.578125l2.859375 0q1.3125 0 2.0625 -0.234375q0.75 -0.25 1.203125 -0.703125q0.625 -0.625 0.96875 -1.6875q0.359375 -1.0625 0.359375 -2.578125q0 -2.09375 -0.6875 -3.21875q-0.6875 -1.125 -1.671875 -1.5q-0.703125 -0.28125 -2.28125 -0.28125l-2.8125 0l0 10.203125zm10.894821 -3.265625q0 -2.6875 1.484375 -3.96875q1.25 -1.078125 3.046875 -1.078125q2.0 0 3.265625 1.3125q1.265625 1.296875 1.265625 3.609375q0 1.859375 -0.5625 2.9375q-0.5625 1.0625 -1.640625 1.65625q-1.0625 0.59375 -2.328125 0.59375q-2.03125 0 -3.28125 -1.296875q-1.25 -1.3125 -1.25 -3.765625zm1.6875 0q0 1.859375 0.796875 2.796875q0.8125 0.921875 2.046875 0.921875q1.21875 0 2.03125 -0.921875q0.8125 -0.9375 0.8125 -2.84375q0 -1.796875 -0.8125 -2.71875q-0.8125 -0.921875 -2.03125 -0.921875q-1.234375 0 -2.046875 0.921875q-0.796875 0.90625 -0.796875 2.765625zm11.078842 4.84375l-2.96875 -9.671875l1.703125 0l1.53125 5.578125l0.578125 2.078125q0.046875 -0.15625 0.5 -2.0l1.546875 -5.65625l1.6875 0l1.4375 5.609375l0.484375 1.84375l0.5625 -1.859375l1.65625 -5.59375l1.59375 0l-3.03125 9.671875l-1.703125 0l-1.53125 -5.796875l-0.375 -1.640625l-1.953125 7.4375l-1.71875 0zm11.691696 0l0 -9.671875l1.46875 0l0 1.375q1.0625 -1.59375 3.078125 -1.59375q0.875 0 1.609375 0.3125q0.734375 0.3125 1.09375 0.828125q0.375 0.5 0.515625 1.203125q0.09375 0.453125 0.09375 1.59375l0 5.953125l-1.640625 0l0 -5.890625q0 -1.0 -0.203125 -1.484375q-0.1875 -0.5 -0.671875 -0.796875q-0.484375 -0.296875 -1.140625 -0.296875q-1.046875 0 -1.8125 0.671875q-0.75 0.65625 -0.75 2.515625l0 5.28125l-1.640625 0zm10.328842 0l0 -13.359375l1.640625 0l0 13.359375l-1.640625 0zm3.5823212 -4.84375q0 -2.6875 1.484375 -3.96875q1.25 -1.078125 3.046875 -1.078125q2.0 0 3.265625 1.3125q1.265625 1.296875 1.265625 3.609375q0 1.859375 -0.5625 2.9375q-0.5625 1.0625 -1.640625 1.65625q-1.0625 0.59375 -2.328125 0.59375q-2.03125 0 -3.28125 -1.296875q-1.25 -1.3125 -1.25 -3.765625zm1.6875 0q0 1.859375 0.796875 2.796875q0.8125 0.921875 2.046875 0.921875q1.21875 0 2.03125 -0.921875q0.8125 -0.9375 0.8125 -2.84375q0 -1.796875 -0.8125 -2.71875q-0.8125 -0.921875 -2.03125 -0.921875q-1.234375 0 -2.046875 0.921875q-0.796875 0.90625 -0.796875 2.765625zm15.610092 3.65625q-0.921875 0.765625 -1.765625 1.09375q-0.828125 0.3125 -1.796875 0.3125q-1.59375 0 -2.453125 -0.78125q-0.859375 -0.78125 -0.859375 -1.984375q0 -0.71875 0.328125 -1.296875q0.328125 -0.59375 0.84375 -0.9375q0.53125 -0.359375 1.1875 -0.546875q0.46875 -0.125 1.453125 -0.25q1.984375 -0.234375 2.921875 -0.5625q0.015625 -0.34375 0.015625 -0.421875q0 -1.0 -0.46875 -1.421875q-0.625 -0.546875 -1.875 -0.546875q-1.15625 0 -1.703125 0.40625q-0.546875 0.40625 -0.8125 1.421875l-1.609375 -0.21875q0.21875 -1.015625 0.71875 -1.640625q0.5 -0.640625 1.453125 -0.984375q0.953125 -0.34375 2.1875 -0.34375q1.25 0 2.015625 0.296875q0.78125 0.28125 1.140625 0.734375q0.375 0.4375 0.515625 1.109375q0.078125 0.421875 0.078125 1.515625l0 2.1875q0 2.28125 0.109375 2.890625q0.109375 0.59375 0.40625 1.15625l-1.703125 0q-0.265625 -0.515625 -0.328125 -1.1875zm-0.140625 -3.671875q-0.890625 0.375 -2.671875 0.625q-1.015625 0.140625 -1.4375 0.328125q-0.421875 0.1875 -0.65625 0.53125q-0.21875 0.34375 -0.21875 0.78125q0 0.65625 0.5 1.09375q0.5 0.4375 1.453125 0.4375q0.9375 0 1.671875 -0.40625q0.75 -0.421875 1.09375 -1.140625q0.265625 -0.5625 0.265625 -1.640625l0 -0.609375zm10.469467 4.859375l0 -1.21875q-0.90625 1.4375 -2.703125 1.4375q-1.15625 0 -2.125 -0.640625q-0.96875 -0.640625 -1.5 -1.78125q-0.53125 -1.140625 -0.53125 -2.625q0 -1.453125 0.484375 -2.625q0.484375 -1.1875 1.4375 -1.8125q0.96875 -0.625 2.171875 -0.625q0.875 0 1.546875 0.375q0.6875 0.359375 1.109375 0.953125l0 -4.796875l1.640625 0l0 13.359375l-1.53125 0zm-5.171875 -4.828125q0 1.859375 0.78125 2.78125q0.78125 0.921875 1.84375 0.921875q1.078125 0 1.828125 -0.875q0.75 -0.890625 0.75 -2.6875q0 -1.984375 -0.765625 -2.90625q-0.765625 -0.9375 -1.890625 -0.9375q-1.078125 0 -1.8125 0.890625q-0.734375 0.890625 -0.734375 2.8125zm22.090271 3.25q-0.8125 0.90625 -1.765625 1.359375q-0.953125 0.453125 -2.0625 0.453125q-2.046875 0 -3.25 -1.390625q-0.984375 -1.125 -0.984375 -2.53125q0 -1.234375 0.796875 -2.234375q0.796875 -1.0 2.390625 -1.75q-0.90625 -1.03125 -1.203125 -1.671875q-0.296875 -0.65625 -0.296875 -1.265625q0 -1.203125 0.9375 -2.078125q0.9375 -0.890625 2.375 -0.890625q1.359375 0 2.234375 0.84375q0.875 0.828125 0.875 2.0q0 1.90625 -2.53125 3.25l2.390625 3.0625q0.421875 -0.8125 0.640625 -1.859375l1.703125 0.359375q-0.4375 1.75 -1.1875 2.875q0.921875 1.21875 2.09375 2.046875l-1.109375 1.3125q-0.984375 -0.640625 -2.046875 -1.890625zm-3.328125 -6.953125q1.0625 -0.640625 1.375 -1.109375q0.3125 -0.46875 0.3125 -1.046875q0 -0.6875 -0.4375 -1.109375q-0.421875 -0.4375 -1.0625 -0.4375q-0.671875 0 -1.125 0.4375q-0.4375 0.421875 -0.4375 1.03125q0 0.3125 0.15625 0.65625q0.171875 0.34375 0.484375 0.734375l0.734375 0.84375zm2.296875 5.65625l-3.0 -3.71875q-1.328125 0.796875 -1.796875 1.46875q-0.46875 0.671875 -0.46875 1.34375q0 0.8125 0.640625 1.6875q0.65625 0.875 1.84375 0.875q0.734375 0 1.515625 -0.453125q0.796875 -0.46875 1.265625 -1.203125zm11.267502 2.875l0 -13.359375l9.65625 0l0 1.578125l-7.875 0l0 4.09375l7.375 0l0 1.5625l-7.375 0l0 4.546875l8.1875 0l0 1.578125l-9.96875 0zm11.115448 0l3.53125 -5.03125l-3.265625 -4.640625l2.046875 0l1.484375 2.265625q0.421875 0.640625 0.671875 1.078125q0.40625 -0.59375 0.734375 -1.0625l1.640625 -2.28125l1.953125 0l-3.34375 4.546875l3.59375 5.125l-2.015625 0l-1.984375 -3.0l-0.515625 -0.8125l-2.546875 3.8125l-1.984375 0zm14.0 -1.46875l0.234375 1.453125q-0.6875 0.140625 -1.234375 0.140625q-0.890625 0 -1.390625 -0.28125q-0.484375 -0.28125 -0.6875 -0.734375q-0.203125 -0.46875 -0.203125 -1.9375l0 -5.578125l-1.203125 0l0 -1.265625l1.203125 0l0 -2.390625l1.625 -0.984375l0 3.375l1.65625 0l0 1.265625l-1.65625 0l0 5.671875q0 0.6875 0.078125 0.890625q0.09375 0.203125 0.28125 0.328125q0.203125 0.109375 0.578125 0.109375q0.265625 0 0.71875 -0.0625zm1.5895691 1.46875l0 -9.671875l1.46875 0l0 1.46875q0.5625 -1.03125 1.03125 -1.359375q0.484375 -0.328125 1.0625 -0.328125q0.828125 0 1.6875 0.53125l-0.5625 1.515625q-0.609375 -0.359375 -1.203125 -0.359375q-0.546875 0 -0.96875 0.328125q-0.421875 0.328125 -0.609375 0.890625q-0.28125 0.875 -0.28125 1.921875l0 5.0625l-1.625 0zm12.540802 -1.1875q-0.921875 0.765625 -1.765625 1.09375q-0.828125 0.3125 -1.796875 0.3125q-1.59375 0 -2.453125 -0.78125q-0.859375 -0.78125 -0.859375 -1.984375q0 -0.71875 0.328125 -1.296875q0.328125 -0.59375 0.84375 -0.9375q0.53125 -0.359375 1.1875 -0.546875q0.46875 -0.125 1.453125 -0.25q1.984375 -0.234375 2.921875 -0.5625q0.015625 -0.34375 0.015625 -0.421875q0 -1.0 -0.46875 -1.421875q-0.625 -0.546875 -1.875 -0.546875q-1.15625 0 -1.703125 0.40625q-0.546875 0.40625 -0.8125 1.421875l-1.609375 -0.21875q0.21875 -1.015625 0.71875 -1.640625q0.5 -0.640625 1.453125 -0.984375q0.953125 -0.34375 2.1875 -0.34375q1.25 0 2.015625 0.296875q0.78125 0.28125 1.140625 0.734375q0.375 0.4375 0.515625 1.109375q0.078125 0.421875 0.078125 1.515625l0 2.1875q0 2.28125 0.109375 2.890625q0.109375 0.59375 0.40625 1.15625l-1.703125 0q-0.265625 -0.515625 -0.328125 -1.1875zm-0.140625 -3.671875q-0.890625 0.375 -2.671875 0.625q-1.015625 0.140625 -1.4375 0.328125q-0.421875 0.1875 -0.65625 0.53125q-0.21875 0.34375 -0.21875 0.78125q0 0.65625 0.5 1.09375q0.5 0.4375 1.453125 0.4375q0.9375 0 1.671875 -0.40625q0.75 -0.421875 1.09375 -1.140625q0.265625 -0.5625 0.265625 -1.640625l0 -0.609375zm10.516327 1.3125l1.609375 0.21875q-0.265625 1.65625 -1.359375 2.609375q-1.078125 0.9375 -2.671875 0.9375q-1.984375 0 -3.1875 -1.296875q-1.203125 -1.296875 -1.203125 -3.71875q0 -1.578125 0.515625 -2.75q0.515625 -1.171875 1.578125 -1.75q1.0625 -0.59375 2.3125 -0.59375q1.578125 0 2.578125 0.796875q1.0 0.796875 1.28125 2.265625l-1.59375 0.234375q-0.234375 -0.96875 -0.8125 -1.453125q-0.578125 -0.5 -1.390625 -0.5q-1.234375 0 -2.015625 0.890625q-0.78125 0.890625 -0.78125 2.8125q0 1.953125 0.75 2.84375q0.75 0.875 1.953125 0.875q0.96875 0 1.609375 -0.59375q0.65625 -0.59375 0.828125 -1.828125zm6.59375 2.078125l0.234375 1.453125q-0.6875 0.140625 -1.234375 0.140625q-0.890625 0 -1.390625 -0.28125q-0.484375 -0.28125 -0.6875 -0.734375q-0.203125 -0.46875 -0.203125 -1.9375l0 -5.578125l-1.203125 0l0 -1.265625l1.203125 0l0 -2.390625l1.625 -0.984375l0 3.375l1.65625 0l0 1.265625l-1.65625 0l0 5.671875q0 0.6875 0.078125 0.890625q0.09375 0.203125 0.28125 0.328125q0.203125 0.109375 0.578125 0.109375q0.265625 0 0.71875 -0.0625z" fill-rule="nonzero"/><path fill="#b6d7a8" d="m675.21265 223.12073l169.00787 0l0 34.015747l-169.00787 0z" fill-rule="evenodd"/><path stroke="#000000" stroke-width="1.0" stroke-linejoin="round" stroke-linecap="butt" d="m675.21265 223.12073l169.00787 0l0 34.015747l-169.00787 0z" fill-rule="evenodd"/><path fill="#000000" d="m691.03796 243.51735l1.640625 -0.21875q0.28125 1.40625 0.953125 2.015625q0.6875 0.609375 1.65625 0.609375q1.15625 0 1.953125 -0.796875q0.796875 -0.796875 0.796875 -1.984375q0 -1.125 -0.734375 -1.859375q-0.734375 -0.734375 -1.875 -0.734375q-0.46875 0 -1.15625 0.171875l0.1875 -1.4375q0.15625 0.015625 0.265625 0.015625q1.046875 0 1.875 -0.546875q0.84375 -0.546875 0.84375 -1.671875q0 -0.90625 -0.609375 -1.5q-0.609375 -0.59375 -1.578125 -0.59375q-0.953125 0 -1.59375 0.609375q-0.640625 0.59375 -0.8125 1.796875l-1.640625 -0.296875q0.296875 -1.640625 1.359375 -2.546875q1.0625 -0.90625 2.65625 -0.90625q1.09375 0 2.0 0.46875q0.921875 0.46875 1.40625 1.28125q0.5 0.8125 0.5 1.71875q0 0.859375 -0.46875 1.578125q-0.46875 0.703125 -1.375 1.125q1.1875 0.28125 1.84375 1.140625q0.65625 0.859375 0.65625 2.15625q0 1.734375 -1.28125 2.953125q-1.265625 1.21875 -3.21875 1.21875q-1.765625 0 -2.921875 -1.046875q-1.15625 -1.046875 -1.328125 -2.71875zm11.281921 3.53125l0 -1.875l1.875 0l0 1.875l-1.875 0zm9.897888 0l0 -9.671875l1.46875 0l0 1.46875q0.5625 -1.03125 1.03125 -1.359375q0.484375 -0.328125 1.0625 -0.328125q0.828125 0 1.6875 0.53125l-0.5625 1.515625q-0.609375 -0.359375 -1.203125 -0.359375q-0.546875 0 -0.96875 0.328125q-0.421875 0.328125 -0.609375 0.890625q-0.28125 0.875 -0.28125 1.921875l0 5.0625l-1.625 0zm6.2282715 0l0 -9.671875l1.46875 0l0 1.359375q0.453125 -0.71875 1.203125 -1.140625q0.765625 -0.4375 1.71875 -0.4375q1.078125 0 1.765625 0.453125q0.6875 0.4375 0.96875 1.234375q1.15625 -1.6875 2.984375 -1.6875q1.453125 0 2.21875 0.796875q0.78125 0.796875 0.78125 2.453125l0 6.640625l-1.640625 0l0 -6.09375q0 -0.984375 -0.15625 -1.40625q-0.15625 -0.4375 -0.578125 -0.703125q-0.421875 -0.265625 -0.984375 -0.265625q-1.015625 0 -1.6875 0.6875q-0.671875 0.671875 -0.671875 2.15625l0 5.625l-1.640625 0l0 -6.28125q0 -1.09375 -0.40625 -1.640625q-0.40625 -0.546875 -1.3125 -0.546875q-0.6875 0 -1.28125 0.359375q-0.59375 0.359375 -0.859375 1.0625q-0.25 0.703125 -0.25 2.03125l0 5.015625l-1.640625 0zm27.036621 -3.546875l1.609375 0.21875q-0.265625 1.65625 -1.359375 2.609375q-1.078125 0.9375 -2.671875 0.9375q-1.984375 0 -3.1875 -1.296875q-1.203125 -1.296875 -1.203125 -3.71875q0 -1.578125 0.515625 -2.75q0.515625 -1.171875 1.578125 -1.75q1.0625 -0.59375 2.3125 -0.59375q1.578125 0 2.578125 0.796875q1.0 0.796875 1.28125 2.265625l-1.59375 0.234375q-0.234375 -0.96875 -0.8125 -1.453125q-0.578125 -0.5 -1.390625 -0.5q-1.234375 0 -2.015625 0.890625q-0.78125 0.890625 -0.78125 2.8125q0 1.953125 0.75 2.84375q0.75 0.875 1.953125 0.875q0.96875 0 1.609375 -0.59375q0.65625 -0.59375 0.828125 -1.828125zm2.40625 -1.296875q0 -2.6875 1.484375 -3.96875q1.25 -1.078125 3.046875 -1.078125q2.0 0 3.265625 1.3125q1.265625 1.296875 1.265625 3.609375q0 1.859375 -0.5625 2.9375q-0.5625 1.0625 -1.640625 1.65625q-1.0625 0.59375 -2.328125 0.59375q-2.03125 0 -3.28125 -1.296875q-1.25 -1.3125 -1.25 -3.765625zm1.6875 0q0 1.859375 0.796875 2.796875q0.8125 0.921875 2.046875 0.921875q1.21875 0 2.03125 -0.921875q0.8125 -0.9375 0.8125 -2.84375q0 -1.796875 -0.8125 -2.71875q-0.8125 -0.921875 -2.03125 -0.921875q-1.234375 0 -2.046875 0.921875q-0.796875 0.90625 -0.796875 2.765625zm9.297607 4.84375l0 -9.671875l1.46875 0l0 1.359375q0.453125 -0.71875 1.203125 -1.140625q0.765625 -0.4375 1.71875 -0.4375q1.078125 0 1.765625 0.453125q0.6875 0.4375 0.96875 1.234375q1.15625 -1.6875 2.984375 -1.6875q1.453125 0 2.21875 0.796875q0.78125 0.796875 0.78125 2.453125l0 6.640625l-1.640625 0l0 -6.09375q0 -0.984375 -0.15625 -1.40625q-0.15625 -0.4375 -0.578125 -0.703125q-0.421875 -0.265625 -0.984375 -0.265625q-1.015625 0 -1.6875 0.6875q-0.671875 0.671875 -0.671875 2.15625l0 5.625l-1.640625 0l0 -6.28125q0 -1.09375 -0.40625 -1.640625q-0.40625 -0.546875 -1.3125 -0.546875q-0.6875 0 -1.28125 0.359375q-0.59375 0.359375 -0.859375 1.0625q-0.25 0.703125 -0.25 2.03125l0 5.015625l-1.640625 0zm15.5407715 0l0 -9.671875l1.46875 0l0 1.359375q0.453125 -0.71875 1.203125 -1.140625q0.765625 -0.4375 1.71875 -0.4375q1.078125 0 1.765625 0.453125q0.6875 0.4375 0.96875 1.234375q1.15625 -1.6875 2.984375 -1.6875q1.453125 0 2.21875 0.796875q0.78125 0.796875 0.78125 2.453125l0 6.640625l-1.640625 0l0 -6.09375q0 -0.984375 -0.15625 -1.40625q-0.15625 -0.4375 -0.578125 -0.703125q-0.421875 -0.265625 -0.984375 -0.265625q-1.015625 0 -1.6875 0.6875q-0.671875 0.671875 -0.671875 2.15625l0 5.625l-1.640625 0l0 -6.28125q0 -1.09375 -0.40625 -1.640625q-0.40625 -0.546875 -1.3125 -0.546875q-0.6875 0 -1.28125 0.359375q-0.59375 0.359375 -0.859375 1.0625q-0.25 0.703125 -0.25 2.03125l0 5.015625l-1.640625 0zm21.853333 -1.1875q-0.921875 0.765625 -1.765625 1.09375q-0.828125 0.3125 -1.796875 0.3125q-1.59375 0 -2.453125 -0.78125q-0.859375 -0.78125 -0.859375 -1.984375q0 -0.71875 0.328125 -1.296875q0.328125 -0.59375 0.84375 -0.9375q0.53125 -0.359375 1.1875 -0.546875q0.46875 -0.125 1.453125 -0.25q1.984375 -0.234375 2.921875 -0.5625q0.015625 -0.34375 0.015625 -0.421875q0 -1.0 -0.46875 -1.421875q-0.625 -0.546875 -1.875 -0.546875q-1.15625 0 -1.703125 0.40625q-0.546875 0.40625 -0.8125 1.421875l-1.609375 -0.21875q0.21875 -1.015625 0.71875 -1.640625q0.5 -0.640625 1.453125 -0.984375q0.953125 -0.34375 2.1875 -0.34375q1.25 0 2.015625 0.296875q0.78125 0.28125 1.140625 0.734375q0.375 0.4375 0.515625 1.109375q0.078125 0.421875 0.078125 1.515625l0 2.1875q0 2.28125 0.109375 2.890625q0.109375 0.59375 0.40625 1.15625l-1.703125 0q-0.265625 -0.515625 -0.328125 -1.1875zm-0.140625 -3.671875q-0.890625 0.375 -2.671875 0.625q-1.015625 0.140625 -1.4375 0.328125q-0.421875 0.1875 -0.65625 0.53125q-0.21875 0.34375 -0.21875 0.78125q0 0.65625 0.5 1.09375q0.5 0.4375 1.453125 0.4375q0.9375 0 1.671875 -0.40625q0.75 -0.421875 1.09375 -1.140625q0.265625 -0.5625 0.265625 -1.640625l0 -0.609375zm4.2038574 4.859375l0 -9.671875l1.46875 0l0 1.375q1.0625 -1.59375 3.078125 -1.59375q0.875 0 1.609375 0.3125q0.734375 0.3125 1.09375 0.828125q0.375 0.5 0.515625 1.203125q0.09375 0.453125 0.09375 1.59375l0 5.953125l-1.640625 0l0 -5.890625q0 -1.0 -0.203125 -1.484375q-0.1875 -0.5 -0.671875 -0.796875q-0.484375 -0.296875 -1.140625 -0.296875q-1.046875 0 -1.8125 0.671875q-0.75 0.65625 -0.75 2.515625l0 5.28125l-1.640625 0zm16.641296 0l0 -1.21875q-0.90625 1.4375 -2.703125 1.4375q-1.15625 0 -2.125 -0.640625q-0.96875 -0.640625 -1.5 -1.78125q-0.53125 -1.140625 -0.53125 -2.625q0 -1.453125 0.484375 -2.625q0.484375 -1.1875 1.4375 -1.8125q0.96875 -0.625 2.171875 -0.625q0.875 0 1.546875 0.375q0.6875 0.359375 1.109375 0.953125l0 -4.796875l1.640625 0l0 13.359375l-1.53125 0zm-5.171875 -4.828125q0 1.859375 0.78125 2.78125q0.78125 0.921875 1.84375 0.921875q1.078125 0 1.828125 -0.875q0.75 -0.890625 0.75 -2.6875q0 -1.984375 -0.765625 -2.90625q-0.765625 -0.9375 -1.890625 -0.9375q-1.078125 0 -1.8125 0.890625q-0.734375 0.890625 -0.734375 2.8125zm8.625732 1.9375l1.625 -0.25q0.125 0.96875 0.75 1.5q0.625 0.515625 1.75 0.515625q1.125 0 1.671875 -0.453125q0.546875 -0.46875 0.546875 -1.09375q0 -0.546875 -0.484375 -0.875q-0.328125 -0.21875 -1.671875 -0.546875q-1.8125 -0.46875 -2.515625 -0.796875q-0.6875 -0.328125 -1.046875 -0.90625q-0.359375 -0.59375 -0.359375 -1.3125q0 -0.640625 0.296875 -1.1875q0.296875 -0.5625 0.8125 -0.921875q0.375 -0.28125 1.03125 -0.46875q0.671875 -0.203125 1.421875 -0.203125q1.140625 0 2.0 0.328125q0.859375 0.328125 1.265625 0.890625q0.421875 0.5625 0.578125 1.5l-1.609375 0.21875q-0.109375 -0.75 -0.640625 -1.171875q-0.515625 -0.421875 -1.46875 -0.421875q-1.140625 0 -1.625 0.375q-0.46875 0.375 -0.46875 0.875q0 0.3125 0.1875 0.578125q0.203125 0.265625 0.640625 0.4375q0.234375 0.09375 1.4375 0.421875q1.75 0.453125 2.4375 0.75q0.6875 0.296875 1.078125 0.859375q0.390625 0.5625 0.390625 1.40625q0 0.828125 -0.484375 1.546875q-0.46875 0.71875 -1.375 1.125q-0.90625 0.390625 -2.046875 0.390625q-1.875 0 -2.875 -0.78125q-0.984375 -0.78125 -1.25 -2.328125z" fill-rule="nonzero"/><path fill="#bf9000" d="m477.48032 228.79015l0 0c0 -3.131134 2.538269 -5.6694183 5.669403 -5.6694183l157.66907 0c1.5036011 0 2.9456787 0.59732056 4.00885 1.6605377c1.0632324 1.0632172 1.6605225 2.505249 1.6605225 4.0088806l0 22.676926c0 3.131134 -2.538269 5.669403 -5.6693726 5.669403l-157.66907 0l0 0c-3.131134 0 -5.669403 -2.538269 -5.669403 -5.669403z" fill-rule="evenodd"/><path stroke="#000000" stroke-width="1.0" stroke-linejoin="round" stroke-linecap="butt" d="m477.48032 228.79015l0 0c0 -3.131134 2.538269 -5.6694183 5.669403 -5.6694183l157.66907 0c1.5036011 0 2.9456787 0.59732056 4.00885 1.6605377c1.0632324 1.0632172 1.6605225 2.505249 1.6605225 4.0088806l0 22.676926c0 3.131134 -2.538269 5.669403 -5.6693726 5.669403l-157.66907 0l0 0c-3.131134 0 -5.669403 -2.538269 -5.669403 -5.669403z" fill-rule="evenodd"/><path fill="#000000" d="m493.3752 245.86111q0.890625 0 1.5625 -0.546875q0.6875 -0.546875 0.75 -1.375l1.59375 0q-0.046875 0.84375 -0.578125 1.609375q-0.53125 0.765625 -1.4375 1.234375q-0.890625 0.453125 -1.890625 0.453125q-2.015625 0 -3.203125 -1.34375q-1.1875 -1.34375 -1.1875 -3.6875l0 -0.28125q0 -1.4375 0.515625 -2.546875q0.53125 -1.125 1.515625 -1.734375q1.0 -0.625 2.34375 -0.625q1.65625 0 2.75 1.0q1.109375 0.984375 1.171875 2.5625l-1.59375 0q-0.0625 -0.953125 -0.71875 -1.5625q-0.65625 -0.625 -1.609375 -0.625q-1.28125 0 -2.0 0.921875q-0.703125 0.921875 -0.703125 2.671875l0 0.328125q0 1.703125 0.703125 2.625q0.703125 0.921875 2.015625 0.921875zm5.359131 -3.828125q0 -1.453125 0.5625 -2.609375q0.578125 -1.15625 1.59375 -1.78125q1.015625 -0.625 2.3125 -0.625q2.015625 0 3.25 1.390625q1.25 1.390625 1.25 3.703125l0 0.125q0 1.4375 -0.546875 2.578125q-0.546875 1.140625 -1.578125 1.78125q-1.015625 0.640625 -2.359375 0.640625q-2.0 0 -3.25 -1.390625q-1.234375 -1.40625 -1.234375 -3.703125l0 -0.109375zm1.6875 0.203125q0 1.640625 0.765625 2.640625q0.765625 0.984375 2.03125 0.984375q1.296875 0 2.046875 -1.0q0.75 -1.015625 0.75 -2.828125q0 -1.625 -0.765625 -2.625q-0.765625 -1.015625 -2.046875 -1.015625q-1.25 0 -2.015625 1.0q-0.765625 0.984375 -0.765625 2.84375zm10.983643 -5.046875l0.046875 1.09375q1.0780945 -1.265625 2.9218445 -1.265625q2.0625 0 2.8125 1.578125q0.5 -0.71875 1.28125 -1.140625q0.796875 -0.4375 1.859375 -0.4375q3.25 0 3.296875 3.421875l0 6.609375l-1.671875 0l0 -6.5q0 -1.0625 -0.484375 -1.578125q-0.484375 -0.53125 -1.625 -0.53125q-0.9375 0 -1.5625 0.5625q-0.609375 0.5625 -0.71875 1.5l0 6.546875l-1.6875 0l0 -6.453125q0 -2.15625 -2.109375 -2.15625q-1.65625 0 -2.2655945 1.40625l0 7.203125l-1.6875 0l0 -9.859375l1.59375 0zm16.351532 0l0.046875 1.09375q1.078125 -1.265625 2.921875 -1.265625q2.0625 0 2.8125 1.578125q0.5 -0.71875 1.28125 -1.140625q0.796875 -0.4375 1.859375 -0.4375q3.25 0 3.296875 3.421875l0 6.609375l-1.671875 0l0 -6.5q0 -1.0625 -0.484375 -1.578125q-0.484375 -0.53125 -1.625 -0.53125q-0.9375 0 -1.5625 0.5625q-0.609375 0.5625 -0.71875 1.5l0 6.546875l-1.6875 0l0 -6.453125q0 -2.15625 -2.109375 -2.15625q-1.65625 0 -2.265625 1.40625l0 7.203125l-1.6875 0l0 -9.859375l1.59375 0zm20.851562 9.859375q-0.140625 -0.296875 -0.234375 -1.03125q-1.171875 1.21875 -2.8125 1.21875q-1.453125 0 -2.390625 -0.828125q-0.921875 -0.828125 -0.921875 -2.09375q0 -1.53125 1.15625 -2.375q1.171875 -0.859375 3.296875 -0.859375l1.640625 0l0 -0.78125q0 -0.890625 -0.53125 -1.40625q-0.515625 -0.53125 -1.546875 -0.53125q-0.90625 0 -1.515625 0.46875q-0.609375 0.453125 -0.609375 1.09375l-1.703125 0q0 -0.734375 0.515625 -1.421875q0.53125 -0.6875 1.421875 -1.078125q0.90625 -0.40625 1.984375 -0.40625q1.703125 0 2.671875 0.859375q0.96875 0.84375 1.0 2.328125l0 4.53125q0 1.359375 0.34375 2.171875l0 0.140625l-1.765625 0zm-2.796875 -1.28125q0.796875 0 1.5 -0.40625q0.71875 -0.421875 1.03125 -1.078125l0 -2.015625l-1.3125 0q-3.109375 0 -3.109375 1.8125q0 0.796875 0.53125 1.25q0.53125 0.4375 1.359375 0.4375zm8.460449 -8.578125l0.046875 1.234375q1.125 -1.40625 2.953125 -1.40625q3.125 0 3.15625 3.515625l0 6.515625l-1.6875 0l0 -6.515625q-0.015625 -1.078125 -0.5 -1.578125q-0.46875 -0.515625 -1.484375 -0.515625q-0.8125 0 -1.4375 0.4375q-0.609375 0.4375 -0.96875 1.15625l0 7.015625l-1.671875 0l0 -9.859375l1.59375 0zm8.278137 4.84375q0 -2.265625 1.078125 -3.640625q1.078125 -1.375 2.8125 -1.375q1.734375 0 2.75 1.171875l0 -5.140625l1.6875 0l0 14.0l-1.546875 0l-0.09375 -1.0625q-1.0 1.25 -2.8125 1.25q-1.703125 0 -2.796875 -1.40625q-1.078125 -1.40625 -1.078125 -3.65625l0 -0.140625zm1.6875 0.203125q0 1.671875 0.6875 2.625q0.703125 0.9375 1.921875 0.9375q1.609375 0 2.34375 -1.4375l0 -4.53125q-0.765625 -1.390625 -2.328125 -1.390625q-1.234375 0 -1.9375 0.953125q-0.6875 0.953125 -0.6875 2.84375zm14.990234 2.203125q0 -0.6875 -0.515625 -1.0625q-0.515625 -0.375 -1.796875 -0.640625q-1.28125 -0.28125 -2.03125 -0.65625q-0.75 -0.390625 -1.109375 -0.921875q-0.359375 -0.53125 -0.359375 -1.265625q0 -1.203125 1.015625 -2.03125q1.03125 -0.84375 2.625 -0.84375q1.671875 0 2.71875 0.859375q1.046875 0.859375 1.046875 2.21875l-1.6875 0q0 -0.703125 -0.59375 -1.203125q-0.59375 -0.5 -1.484375 -0.5q-0.921875 0 -1.4375 0.40625q-0.515625 0.390625 -0.515625 1.046875q0 0.609375 0.484375 0.921875q0.484375 0.3125 1.734375 0.59375q1.265625 0.28125 2.046875 0.671875q0.78125 0.390625 1.15625 0.9375q0.390625 0.546875 0.390625 1.34375q0 1.328125 -1.0625 2.125q-1.046875 0.796875 -2.734375 0.796875q-1.1875 0 -2.109375 -0.421875q-0.90625 -0.421875 -1.421875 -1.171875q-0.515625 -0.75 -0.515625 -1.625l1.6875 0q0.046875 0.84375 0.671875 1.34375q0.640625 0.5 1.6875 0.5q0.953125 0 1.53125 -0.390625q0.578125 -0.390625 0.578125 -1.03125zm4.213379 3.75l-1.453125 0l5.546875 -14.40625l1.4375 0l-5.53125 14.40625z" fill-rule="nonzero"/><path fill="#cc0000" d="m635.25397 231.75421l7.883423 -7.883438l8.374451 8.374405l8.37439 -8.374405l7.883423 7.883438l-8.37439 8.374405l8.37439 8.37439l-7.883423 7.883438l-8.37439 -8.374405l-8.374451 8.374405l-7.883423 -7.883438l8.37439 -8.37439z" fill-rule="evenodd"/><path stroke="#000000" stroke-width="1.0" stroke-linejoin="round" stroke-linecap="butt" d="m635.25397 231.75421l7.883423 -7.883438l8.374451 8.374405l8.37439 -8.374405l7.883423 7.883438l-8.37439 8.374405l8.37439 8.37439l-7.883423 7.883438l-8.37439 -8.374405l-8.374451 8.374405l-7.883423 -7.883438l8.37439 -8.37439z" fill-rule="evenodd"/><path fill="#b6d7a8" d="m675.2126 156.80052l226.99213 0l0 34.015747l-226.99213 0z" fill-rule="evenodd"/><path stroke="#000000" stroke-width="1.0" stroke-linejoin="round" stroke-linecap="butt" d="m675.2126 156.80052l226.99213 0l0 34.015747l-226.99213 0z" fill-rule="evenodd"/><path fill="#000000" d="m697.77844 180.7284l0 -3.203125l-5.796875 0l0 -1.5l6.09375 -8.65625l1.34375 0l0 8.65625l1.796875 0l0 1.5l-1.796875 0l0 3.203125l-1.640625 0zm0 -4.703125l0 -6.015625l-4.1875 6.015625l4.1875 0zm6.0319214 4.703125l0 -1.875l1.875 0l0 1.875l-1.875 0zm9.897888 0l0 -9.671875l1.46875 0l0 1.46875q0.5625 -1.03125 1.03125 -1.359375q0.484375 -0.328125 1.0625 -0.328125q0.828125 0 1.6875 0.53125l-0.5625 1.515625q-0.609375 -0.359375 -1.203125 -0.359375q-0.546875 0 -0.96875 0.328125q-0.421875 0.328125 -0.609375 0.890625q-0.28125 0.875 -0.28125 1.921875l0 5.0625l-1.625 0zm6.2282715 0l0 -9.671875l1.46875 0l0 1.359375q0.453125 -0.71875 1.203125 -1.140625q0.765625 -0.4375 1.71875 -0.4375q1.078125 0 1.765625 0.453125q0.6875 0.4375 0.96875 1.234375q1.15625 -1.6875 2.984375 -1.6875q1.453125 0 2.21875 0.796875q0.78125 0.796875 0.78125 2.453125l0 6.640625l-1.640625 0l0 -6.09375q0 -0.984375 -0.15625 -1.40625q-0.15625 -0.4375 -0.578125 -0.703125q-0.421875 -0.265625 -0.984375 -0.265625q-1.015625 0 -1.6875 0.6875q-0.671875 0.671875 -0.671875 2.15625l0 5.625l-1.640625 0l0 -6.28125q0 -1.09375 -0.40625 -1.640625q-0.40625 -0.546875 -1.3125 -0.546875q-0.6875 0 -1.28125 0.359375q-0.59375 0.359375 -0.859375 1.0625q-0.25 0.703125 -0.25 2.03125l0 5.015625l-1.640625 0zm20.114746 -4.84375q0 -2.6875 1.484375 -3.96875q1.25 -1.078125 3.046875 -1.078125q2.0 0 3.265625 1.3125q1.265625 1.296875 1.265625 3.609375q0 1.859375 -0.5625 2.9375q-0.5625 1.0625 -1.640625 1.65625q-1.0625 0.59375 -2.328125 0.59375q-2.03125 0 -3.28125 -1.296875q-1.25 -1.3125 -1.25 -3.765625zm1.6875 0q0 1.859375 0.796875 2.796875q0.8125 0.921875 2.046875 0.921875q1.21875 0 2.03125 -0.921875q0.8125 -0.9375 0.8125 -2.84375q0 -1.796875 -0.8125 -2.71875q-0.8125 -0.921875 -2.03125 -0.921875q-1.234375 0 -2.046875 0.921875q-0.796875 0.90625 -0.796875 2.765625zm9.297607 4.84375l0 -9.671875l1.46875 0l0 1.375q1.0625 -1.59375 3.078125 -1.59375q0.875 0 1.609375 0.3125q0.734375 0.3125 1.09375 0.828125q0.375 0.5 0.515625 1.203125q0.09375 0.453125 0.09375 1.59375l0 5.953125l-1.640625 0l0 -5.890625q0 -1.0 -0.203125 -1.484375q-0.1875 -0.5 -0.671875 -0.796875q-0.484375 -0.296875 -1.140625 -0.296875q-1.046875 0 -1.8125 0.671875q-0.75 0.65625 -0.75 2.515625l0 5.28125l-1.640625 0zm15.559021 0l0 -9.671875l1.46875 0l0 1.375q1.0625 -1.59375 3.078125 -1.59375q0.875 0 1.609375 0.3125q0.734375 0.3125 1.09375 0.828125q0.375 0.5 0.515625 1.203125q0.09375 0.453125 0.09375 1.59375l0 5.953125l-1.640625 0l0 -5.890625q0 -1.0 -0.203125 -1.484375q-0.1875 -0.5 -0.671875 -0.796875q-0.484375 -0.296875 -1.140625 -0.296875q-1.046875 0 -1.8125 0.671875q-0.75 0.65625 -0.75 2.515625l0 5.28125l-1.640625 0zm17.000732 -3.109375l1.6875 0.203125q-0.40625 1.484375 -1.484375 2.3125q-1.078125 0.8125 -2.765625 0.8125q-2.125 0 -3.375 -1.296875q-1.234375 -1.3125 -1.234375 -3.671875q0 -2.453125 1.25 -3.796875q1.265625 -1.34375 3.265625 -1.34375q1.9375 0 3.15625 1.328125q1.234375 1.3125 1.234375 3.703125q0 0.15625 0 0.4375l-7.21875 0q0.09375 1.59375 0.90625 2.453125q0.8125 0.84375 2.015625 0.84375q0.90625 0 1.546875 -0.46875q0.640625 -0.484375 1.015625 -1.515625zm-5.390625 -2.65625l5.40625 0q-0.109375 -1.21875 -0.625 -1.828125q-0.78125 -0.953125 -2.03125 -0.953125q-1.125 0 -1.90625 0.765625q-0.765625 0.75 -0.84375 2.015625zm8.047546 5.765625l3.53125 -5.03125l-3.265625 -4.640625l2.046875 0l1.484375 2.265625q0.421875 0.640625 0.671875 1.078125q0.40625 -0.59375 0.734375 -1.0625l1.640625 -2.28125l1.953125 0l-3.34375 4.546875l3.59375 5.125l-2.015625 0l-1.984375 -3.0l-0.515625 -0.8125l-2.546875 3.8125l-1.984375 0zm14.0 -1.46875l0.234375 1.453125q-0.6875 0.140625 -1.234375 0.140625q-0.890625 0 -1.390625 -0.28125q-0.484375 -0.28125 -0.6875 -0.734375q-0.203125 -0.46875 -0.203125 -1.9375l0 -5.578125l-1.203125 0l0 -1.265625l1.203125 0l0 -2.390625l1.625 -0.984375l0 3.375l1.65625 0l0 1.265625l-1.65625 0l0 5.671875q0 0.6875 0.078125 0.890625q0.09375 0.203125 0.28125 0.328125q0.203125 0.109375 0.578125 0.109375q0.265625 0 0.71875 -0.0625zm13.413513 -1.640625l1.6875 0.203125q-0.40625 1.484375 -1.484375 2.3125q-1.078125 0.8125 -2.765625 0.8125q-2.125 0 -3.375 -1.296875q-1.234375 -1.3125 -1.234375 -3.671875q0 -2.453125 1.25 -3.796875q1.265625 -1.34375 3.265625 -1.34375q1.9375 0 3.15625 1.328125q1.234375 1.3125 1.234375 3.703125q0 0.15625 0 0.4375l-7.21875 0q0.09375 1.59375 0.90625 2.453125q0.8125 0.84375 2.015625 0.84375q0.90625 0 1.546875 -0.46875q0.640625 -0.484375 1.015625 -1.515625zm-5.390625 -2.65625l5.40625 0q-0.109375 -1.21875 -0.625 -1.828125q-0.78125 -0.953125 -2.03125 -0.953125q-1.125 0 -1.90625 0.765625q-0.765625 0.75 -0.84375 2.015625zm8.047607 5.765625l3.53125 -5.03125l-3.265625 -4.640625l2.046875 0l1.484375 2.265625q0.421875 0.640625 0.671875 1.078125q0.40625 -0.59375 0.734375 -1.0625l1.640625 -2.28125l1.953125 0l-3.34375 4.546875l3.59375 5.125l-2.015625 0l-1.984375 -3.0l-0.515625 -0.8125l-2.546875 3.8125l-1.984375 0zm17.046875 -3.109375l1.6875 0.203125q-0.40625 1.484375 -1.484375 2.3125q-1.078125 0.8125 -2.765625 0.8125q-2.125 0 -3.375 -1.296875q-1.234375 -1.3125 -1.234375 -3.671875q0 -2.453125 1.25 -3.796875q1.265625 -1.34375 3.265625 -1.34375q1.9375 0 3.15625 1.328125q1.234375 1.3125 1.234375 3.703125q0 0.15625 0 0.4375l-7.21875 0q0.09375 1.59375 0.90625 2.453125q0.8125 0.84375 2.015625 0.84375q0.90625 0 1.546875 -0.46875q0.640625 -0.484375 1.015625 -1.515625zm-5.390625 -2.65625l5.40625 0q-0.109375 -1.21875 -0.625 -1.828125q-0.78125 -0.953125 -2.03125 -0.953125q-1.125 0 -1.90625 0.765625q-0.765625 0.75 -0.84375 2.015625zm15.453796 2.21875l1.609375 0.21875q-0.265625 1.65625 -1.359375 2.609375q-1.078125 0.9375 -2.671875 0.9375q-1.984375 0 -3.1875 -1.296875q-1.203125 -1.296875 -1.203125 -3.71875q0 -1.578125 0.515625 -2.75q0.515625 -1.171875 1.578125 -1.75q1.0625 -0.59375 2.3125 -0.59375q1.578125 0 2.578125 0.796875q1.0 0.796875 1.28125 2.265625l-1.59375 0.234375q-0.234375 -0.96875 -0.8125 -1.453125q-0.578125 -0.5 -1.390625 -0.5q-1.234375 0 -2.015625 0.890625q-0.78125 0.890625 -0.78125 2.8125q0 1.953125 0.75 2.84375q0.75 0.875 1.953125 0.875q0.96875 0 1.609375 -0.59375q0.65625 -0.59375 0.828125 -1.828125zm9.34375 3.546875l0 -1.421875q-1.125 1.640625 -3.0625 1.640625q-0.859375 0 -1.609375 -0.328125q-0.734375 -0.328125 -1.09375 -0.828125q-0.359375 -0.5 -0.5 -1.21875q-0.109375 -0.46875 -0.109375 -1.53125l0 -5.984375l1.640625 0l0 5.359375q0 1.28125 0.109375 1.734375q0.15625 0.640625 0.65625 1.015625q0.5 0.375 1.234375 0.375q0.734375 0 1.375 -0.375q0.65625 -0.390625 0.921875 -1.03125q0.265625 -0.65625 0.265625 -1.890625l0 -5.1875l1.640625 0l0 9.671875l-1.46875 0zm7.6257324 -1.46875l0.234375 1.453125q-0.6875 0.140625 -1.234375 0.140625q-0.890625 0 -1.390625 -0.28125q-0.484375 -0.28125 -0.6875 -0.734375q-0.203125 -0.46875 -0.203125 -1.9375l0 -5.578125l-1.203125 0l0 -1.265625l1.203125 0l0 -2.390625l1.625 -0.984375l0 3.375l1.65625 0l0 1.265625l-1.65625 0l0 5.671875q0 0.6875 0.078125 0.890625q0.09375 0.203125 0.28125 0.328125q0.203125 0.109375 0.578125 0.109375q0.265625 0 0.71875 -0.0625zm1.6051636 -10.0l0 -1.890625l1.640625 0l0 1.890625l-1.640625 0zm0 11.46875l0 -9.671875l1.640625 0l0 9.671875l-1.640625 0zm3.5354614 -4.84375q0 -2.6875 1.484375 -3.96875q1.25 -1.078125 3.046875 -1.078125q2.0 0 3.265625 1.3125q1.265625 1.296875 1.265625 3.609375q0 1.859375 -0.5625 2.9375q-0.5625 1.0625 -1.640625 1.65625q-1.0625 0.59375 -2.328125 0.59375q-2.03125 0 -3.28125 -1.296875q-1.25 -1.3125 -1.25 -3.765625zm1.6875 0q0 1.859375 0.796875 2.796875q0.8125 0.921875 2.046875 0.921875q1.21875 0 2.03125 -0.921875q0.8125 -0.9375 0.8125 -2.84375q0 -1.796875 -0.8125 -2.71875q-0.8125 -0.921875 -2.03125 -0.921875q-1.234375 0 -2.046875 0.921875q-0.796875 0.90625 -0.796875 2.765625zm9.297607 4.84375l0 -9.671875l1.46875 0l0 1.375q1.0625 -1.59375 3.078125 -1.59375q0.875 0 1.609375 0.3125q0.734375 0.3125 1.09375 0.828125q0.375 0.5 0.515625 1.203125q0.09375 0.453125 0.09375 1.59375l0 5.953125l-1.640625 0l0 -5.890625q0 -1.0 -0.203125 -1.484375q-0.1875 -0.5 -0.671875 -0.796875q-0.484375 -0.296875 -1.140625 -0.296875q-1.046875 0 -1.8125 0.671875q-0.75 0.65625 -0.75 2.515625l0 5.28125l-1.640625 0z" fill-rule="nonzero"/><path fill="#cc0000" d="m615.8455 169.20108l11.712524 -11.712524l12.441956 12.441971l12.441956 -12.441971l11.712524 11.712524l-12.441956 12.441971l12.441956 12.441956l-11.712524 11.712524l-12.441956 -12.441971l-12.441956 12.441971l-11.712524 -11.712524l12.441956 -12.441956z" fill-rule="evenodd"/><path stroke="#000000" stroke-width="1.0" stroke-linejoin="round" stroke-linecap="butt" d="m615.8455 169.20108l11.712524 -11.712524l12.441956 12.441971l12.441956 -12.441971l11.712524 11.712524l-12.441956 12.441971l12.441956 12.441956l-11.712524 11.712524l-12.441956 -12.441971l-12.441956 12.441971l-11.712524 -11.712524l12.441956 -12.441956z" fill-rule="evenodd"/><path fill="#000000" fill-opacity="0.0" d="m403.8399 6.0l382.99213 0l0 64.97638l-382.99213 0z" fill-rule="evenodd"/><path fill="#000000" d="m433.75198 52.888187l0 -28.640625l3.78125 0l0 14.203125l14.21875 -14.203125l5.140625 0l-12.015625 11.609375l12.546875 17.03125l-5.0 0l-10.203125 -14.5l-4.6875 4.578125l0 9.921875l-3.78125 0zm26.335938 0l0 -20.75l3.171875 0l0 3.15625q1.203125 -2.21875 2.234375 -2.921875q1.03125 -0.703125 2.25 -0.703125q1.78125 0 3.625 1.140625l-1.21875 3.265625q-1.28125 -0.765625 -2.578125 -0.765625q-1.15625 0 -2.078125 0.703125q-0.90625 0.6875 -1.296875 1.90625q-0.59375 1.875 -0.59375 4.109375l0 10.859375l-3.515625 0zm27.570312 -6.6875l3.625 0.453125q-0.859375 3.1875 -3.1875 4.953125q-2.3125 1.75 -5.9375 1.75q-4.546875 0 -7.21875 -2.796875q-2.65625 -2.8125 -2.65625 -7.875q0 -5.234375 2.6875 -8.125q2.703125 -2.890625 7.0 -2.890625q4.15625 0 6.796875 2.84375q2.640625 2.828125 2.640625 7.96875q0 0.3125 -0.03125 0.9375l-15.46875 0q0.203125 3.40625 1.9375 5.234375q1.734375 1.8125 4.34375 1.8125q1.921875 0 3.28125 -1.015625q1.375 -1.015625 2.1875 -3.25zm-11.546875 -5.671875l11.578125 0q-0.234375 -2.625 -1.328125 -3.9375q-1.671875 -2.03125 -4.359375 -2.03125q-2.421875 0 -4.078125 1.625q-1.640625 1.625 -1.8125 4.34375zm23.417969 12.359375l-6.34375 -20.75l3.625 0l3.296875 11.984375l1.234375 4.453125q0.078125 -0.34375 1.078125 -4.28125l3.296875 -12.15625l3.609375 0l3.1093445 12.03125l1.03125 3.96875l1.203125 -4.0l3.546875 -12.0l3.421875 0l-6.484375 20.75l-3.6562195 0l-3.296875 -12.421875l-0.796875 -3.53125l-4.203125 15.953125l-3.671875 0zm34.765594 -6.1875l3.46875 -0.546875q0.296875 2.078125 1.625 3.203125q1.34375 1.109375 3.75 1.109375q2.421875 0 3.59375 -0.984375q1.171875 -0.984375 1.171875 -2.3125q0 -1.203125 -1.03125 -1.875q-0.71875 -0.46875 -3.59375 -1.203125q-3.875 -0.96875 -5.375 -1.671875q-1.484375 -0.71875 -2.265625 -1.984375q-0.765625 -1.265625 -0.765625 -2.78125q0 -1.390625 0.640625 -2.5625q0.640625 -1.1875 1.734375 -1.96875q0.8125 -0.609375 2.21875 -1.03125q1.421875 -0.421875 3.046875 -0.421875q2.4375 0 4.28125 0.703125q1.859375 0.703125 2.734375 1.90625q0.875 1.203125 1.203125 3.21875l-3.4375 0.46875q-0.234375 -1.609375 -1.359375 -2.5q-1.109375 -0.90625 -3.171875 -0.90625q-2.421875 0 -3.453125 0.8125q-1.03125 0.796875 -1.03125 1.875q0 0.671875 0.421875 1.21875q0.4375 0.578125 1.359375 0.9375q0.515625 0.203125 3.09375 0.90625q3.734375 1.0 5.203125 1.640625q1.484375 0.625 2.3125 1.84375q0.84375 1.203125 0.84375 3.0q0 1.75 -1.03125 3.3125q-1.015625 1.546875 -2.953125 2.40625q-1.921875 0.84375 -4.375 0.84375q-4.03125 0 -6.15625 -1.671875q-2.125 -1.6875 -2.703125 -4.984375zm35.609375 -0.5l3.625 0.453125q-0.859375 3.1875 -3.1875 4.953125q-2.3125 1.75 -5.9375 1.75q-4.546875 0 -7.21875 -2.796875q-2.65625 -2.8125 -2.65625 -7.875q0 -5.234375 2.6875 -8.125q2.703125 -2.890625 7.0 -2.890625q4.15625 0 6.796875 2.84375q2.640625 2.828125 2.640625 7.96875q0 0.3125 -0.03125 0.9375l-15.46875 0q0.203125 3.40625 1.9375 5.234375q1.734375 1.8125 4.34375 1.8125q1.921875 0 3.28125 -1.015625q1.375 -1.015625 2.1875 -3.25zm-11.546875 -5.671875l11.578125 0q-0.234375 -2.625 -1.328125 -3.9375q-1.671875 -2.03125 -4.359375 -2.03125q-2.421875 0 -4.078125 1.625q-1.640625 1.625 -1.8125 4.34375zm19.511719 12.359375l0 -28.640625l3.515625 0l0 28.640625l-3.515625 0zm9.808594 0l0 -18.015625l-3.109375 0l0 -2.734375l3.109375 0l0 -2.203125q0 -2.09375 0.359375 -3.109375q0.515625 -1.359375 1.796875 -2.203125q1.28125 -0.859375 3.578125 -0.859375q1.484375 0 3.28125 0.359375l-0.53125 3.0625q-1.09375 -0.203125 -2.0625 -0.203125q-1.609375 0 -2.28125 0.6875q-0.65625 0.6875 -0.65625 2.5625l0 1.90625l4.046875 0l0 2.734375l-4.046875 0l0 18.015625l-3.484375 0zm40.617188 -28.640625l3.796875 0l0 16.546875q0 4.3125 -0.984375 6.859375q-0.96875 2.53125 -3.53125 4.125q-2.546875 1.59375 -6.6875 1.59375q-4.015625 0 -6.578125 -1.375q-2.5625 -1.390625 -3.65625 -4.015625q-1.09375 -2.640625 -1.09375 -7.1875l0 -16.546875l3.796875 0l0 16.53125q0 3.734375 0.6875 5.5q0.703125 1.765625 2.390625 2.71875q1.6875 0.953125 4.125 0.953125q4.1875 0 5.953125 -1.890625q1.78125 -1.890625 1.78125 -7.28125l0 -16.53125zm9.652344 36.59375l0 -28.703125l3.203125 0l0 2.703125q1.125 -1.578125 2.546875 -2.375q1.4375 -0.796875 3.46875 -0.796875q2.65625 0 4.6875 1.375q2.03125 1.359375 3.0625 3.859375q1.03125 2.484375 1.03125 5.453125q0 3.1875 -1.140625 5.734375q-1.140625 2.546875 -3.328125 3.90625q-2.171875 1.359375 -4.5625 1.359375q-1.765625 0 -3.171875 -0.734375q-1.390625 -0.75 -2.28125 -1.890625l0 10.109375l-3.515625 0zm3.1875 -18.203125q0 4.0 1.609375 5.921875q1.625 1.90625 3.9375 1.90625q2.34375 0 4.0 -1.984375q1.671875 -1.984375 1.671875 -6.140625q0 -3.96875 -1.625 -5.9375q-1.625 -1.96875 -3.890625 -1.96875q-2.25 0 -3.984375 2.09375q-1.71875 2.09375 -1.71875 6.109375zm18.417969 11.96875l3.40625 0.515625q0.21875 1.578125 1.203125 2.296875q1.296875 0.984375 3.5625 0.984375q2.453125 0 3.78125 -0.984375q1.328125 -0.96875 1.796875 -2.734375q0.265625 -1.078125 0.25 -4.515625q-2.3125 2.71875 -5.75 2.71875q-4.265625 0 -6.609375 -3.078125q-2.34375 -3.09375 -2.34375 -7.40625q0 -2.96875 1.0625 -5.484375q1.078125 -2.515625 3.109375 -3.875q2.046875 -1.375 4.8125 -1.375q3.671875 0 6.046875 2.96875l0 -2.5l3.25 0l0 17.9375q0 4.84375 -1.0 6.859375q-0.984375 2.03125 -3.125 3.203125q-2.125 1.171875 -5.25 1.171875q-3.71875 0 -6.0 -1.671875q-2.28125 -1.671875 -2.203125 -5.03125zm2.90625 -12.46875q0 4.09375 1.609375 5.96875q1.625 1.875 4.078125 1.875q2.421875 0 4.0625 -1.859375q1.640625 -1.875 1.640625 -5.859375q0 -3.8125 -1.703125 -5.734375q-1.6875 -1.9375 -4.0625 -1.9375q-2.34375 0 -3.984375 1.90625q-1.640625 1.890625 -1.640625 5.640625zm19.933594 10.75l0 -20.75l3.171875 0l0 3.15625q1.203125 -2.21875 2.234375 -2.921875q1.03125 -0.703125 2.25 -0.703125q1.78125 0 3.625 1.140625l-1.21875 3.265625q-1.28125 -0.765625 -2.578125 -0.765625q-1.15625 0 -2.078125 0.703125q-0.90625 0.6875 -1.296875 1.90625q-0.59375 1.875 -0.59375 4.109375l0 10.859375l-3.515625 0zm26.898438 -2.5625q-1.953125 1.65625 -3.765625 2.34375q-1.796875 0.6875 -3.875 0.6875q-3.40625 0 -5.25 -1.671875q-1.828125 -1.671875 -1.828125 -4.265625q0 -1.53125 0.6875 -2.78125q0.6875 -1.265625 1.8125 -2.015625q1.125 -0.765625 2.53125 -1.15625q1.03125 -0.28125 3.125 -0.53125q4.265625 -0.515625 6.265625 -1.21875q0.03125 -0.71875 0.03125 -0.90625q0 -2.15625 -1.0 -3.03125q-1.34375 -1.1875 -4.0 -1.1875q-2.484375 0 -3.671875 0.875q-1.171875 0.859375 -1.75 3.0625l-3.4375 -0.46875q0.46875 -2.203125 1.546875 -3.5625q1.078125 -1.359375 3.109375 -2.09375q2.03125 -0.734375 4.703125 -0.734375q2.65625 0 4.3125 0.625q1.671875 0.625 2.453125 1.578125q0.78125 0.953125 1.09375 2.390625q0.171875 0.90625 0.171875 3.25l0 4.6875q0 4.890625 0.21875 6.203125q0.234375 1.296875 0.890625 2.484375l-3.671875 0q-0.546875 -1.09375 -0.703125 -2.5625zm-0.296875 -7.84375q-1.90625 0.78125 -5.734375 1.328125q-2.171875 0.3125 -3.078125 0.703125q-0.890625 0.390625 -1.375 1.140625q-0.484375 0.75 -0.484375 1.671875q0 1.40625 1.0625 2.34375q1.0625 0.9375 3.109375 0.9375q2.03125 0 3.609375 -0.890625q1.59375 -0.890625 2.328125 -2.4375q0.5625 -1.1875 0.5625 -3.515625l0 -1.28125zm22.464844 10.40625l0 -2.625q-1.96875 3.09375 -5.796875 3.09375q-2.484375 0 -4.5625 -1.359375q-2.078125 -1.375 -3.21875 -3.828125q-1.140625 -2.453125 -1.140625 -5.640625q0 -3.09375 1.03125 -5.625q1.03125 -2.53125 3.09375 -3.875q2.078125 -1.359375 4.640625 -1.359375q1.875 0 3.328125 0.796875q1.46875 0.796875 2.390625 2.0625l0 -10.28125l3.5 0l0 28.640625l-3.265625 0zm-11.109375 -10.359375q0 3.984375 1.671875 5.96875q1.6875 1.96875 3.96875 1.96875q2.3125 0 3.921875 -1.875q1.609375 -1.890625 1.609375 -5.765625q0 -4.25 -1.640625 -6.234375q-1.640625 -2.0 -4.046875 -2.0q-2.34375 0 -3.921875 1.921875q-1.5625 1.90625 -1.5625 6.015625zm34.10547 3.671875l3.625 0.453125q-0.859375 3.1875 -3.1875 4.953125q-2.3125 1.75 -5.9375 1.75q-4.546875 0 -7.21875 -2.796875q-2.65625 -2.8125 -2.65625 -7.875q0 -5.234375 2.6875 -8.125q2.703125 -2.890625 7.0 -2.890625q4.15625 0 6.796875 2.84375q2.640625 2.828125 2.640625 7.96875q0 0.3125 -0.03125 0.9375l-15.46875 0q0.203125 3.40625 1.9375 5.234375q1.734375 1.8125 4.34375 1.8125q1.921875 0 3.28125 -1.015625q1.375 -1.015625 2.1875 -3.25zm-11.546875 -5.671875l11.578125 0q-0.234375 -2.625 -1.328125 -3.9375q-1.671875 -2.03125 -4.359375 -2.03125q-2.421875 0 -4.078125 1.625q-1.640625 1.625 -1.8125 4.34375z" fill-rule="nonzero"/></g></svg>