<svg version="1.1" viewBox="0.0 0.0 1280.0 235.0" fill="none" stroke="none" stroke-linecap="square" stroke-miterlimit="10" xmlns:xlink="http://www.w3.org/1999/xlink" xmlns="http://www.w3.org/2000/svg"><clipPath id="p.0"><path d="m0 0l1280.0 0l0 960.0l-1280.0 0l0 -960.0z" clip-rule="nonzero"/></clipPath><g clip-path="url(#p.0)"><path fill="#000000" fill-opacity="0.0" d="m0 0l1280.0 0l0 960.0l-1280.0 0z" fill-rule="evenodd"/><path fill="#ffe599" d="m339.25067 83.17625l0 0c0 -10.860367 8.804047 -19.664436 19.664429 -19.664436l231.66327 0c5.215332 0 10.217041 2.071785 13.904846 5.7595825c3.6878052 3.6877975 5.7595825 8.689522 5.7595825 13.904854l0 78.65539c0 10.860367 -8.804077 19.664429 -19.664429 19.664429l-231.66327 0c-10.860382 0 -19.664429 -8.804062 -19.664429 -19.664429z" fill-rule="evenodd"/><path stroke="#000000" stroke-width="1.0" stroke-linejoin="round" stroke-linecap="butt" d="m339.25067 83.17625l0 0c0 -10.860367 8.804047 -19.664436 19.664429 -19.664436l231.66327 0c5.215332 0 10.217041 2.071785 13.904846 5.7595825c3.6878052 3.6877975 5.7595825 8.689522 5.7595825 13.904854l0 78.65539c0 10.860367 -8.804077 19.664429 -19.664429 19.664429l-231.66327 0c-10.860382 0 -19.664429 -8.804062 -19.664429 -19.664429z" fill-rule="evenodd"/><path fill="#000000" d="m361.80704 92.76945q0 -0.828125 -0.59375 -1.40625q-0.578125 -0.578125 -1.96875 -1.03125q-1.953125 -0.59375 -2.84375 -1.546875q-0.875 -0.953125 -0.875 -2.421875q0 -1.5 0.859375 -2.453125q0.875 -0.953125 2.390625 -1.140625l0 -1.984375l1.359375 0l0 2.0q1.53125 0.203125 2.375 1.28125q0.859375 1.078125 0.859375 2.9375l-1.671875 0q0 -1.28125 -0.609375 -2.03125q-0.609375 -0.765625 -1.65625 -0.765625q-1.078125 0 -1.65625 0.5625q-0.5625 0.5625 -0.5625 1.5625q0 0.9375 0.59375 1.484375q0.609375 0.546875 2.0 1.0q1.390625 0.453125 2.171875 1.0q0.78125 0.53125 1.140625 1.25q0.375 0.71875 0.375 1.6875q0 1.546875 -0.921875 2.484375q-0.921875 0.9375 -2.59375 1.109375l0 1.734375l-1.34375 0l0 -1.734375q-1.703125 -0.15625 -2.671875 -1.203125q-0.953125 -1.0625 -0.953125 -2.859375l1.6875 0q0 1.265625 0.65625 1.953125q0.671875 0.671875 1.890625 0.671875q1.203125 0 1.875 -0.5625q0.6875 -0.578125 0.6875 -1.578125zm13.382172 -8.40625l-4.265625 0l0 11.828125l-1.734375 0l0 -11.828125l-4.25 0l0 -1.4375l10.25 0l0 1.4375zm4.2255554 -1.4375l4.34375 10.828125l4.328125 -10.828125l2.265625 0l0 13.265625l-1.75 0l0 -5.171875l0.171875 -5.5625l-4.359375 10.734375l-1.34375 0l-4.34375 -10.71875l0.171875 5.546875l0 5.171875l-1.734375 0l0 -13.265625l2.25 0zm15.772156 8.078125l0 5.1875l-1.734375 0l0 -13.265625l4.890625 0q2.171875 0 3.40625 1.109375q1.234375 1.109375 1.234375 2.953125q0 1.921875 -1.21875 2.96875q-1.203125 1.046875 -3.453125 1.046875l-3.125 0zm0 -1.4375l3.15625 0q1.390625 0 2.140625 -0.65625q0.75 -0.65625 0.75 -1.90625q0 -1.1875 -0.75 -1.890625q-0.75 -0.71875 -2.046875 -0.75l-3.25 0l0 5.203125zm10.097595 7.765625l-1.453125 0l5.546875 -14.40625l1.4375 0l-5.53125 14.40625zm10.110291 -5.703125l-1.0625 1.09375l0 3.46875l-1.6875 0l0 -14.0l1.6875 0l0 8.46875l0.90625 -1.078125l3.0625 -3.25l2.046875 0l-3.828125 4.125l4.28125 5.734375l-1.984375 0l-3.421875 -4.5625zm11.471283 -3.78125q-0.390625 -0.0625 -0.84375 -0.0625q-1.65625 0 -2.25 1.40625l0 7.0l-1.671875 0l0 -9.859375l1.640625 0l0.015625 1.140625q0.828125 -1.3125 2.359375 -1.3125q0.484375 0 0.75 0.125l0 1.5625zm5.6253967 8.53125q-2.0 0 -3.265625 -1.3125q-1.25 -1.328125 -1.25 -3.53125l0 -0.3125q0 -1.46875 0.5625 -2.609375q0.5625 -1.15625 1.5625 -1.796875q1.015625 -0.65625 2.1875 -0.65625q1.921875 0 2.984375 1.265625q1.0625 1.265625 1.0625 3.625l0 0.6875l-6.671875 0q0.03125 1.46875 0.84375 2.375q0.828125 0.890625 2.078125 0.890625q0.890625 0 1.515625 -0.359375q0.625 -0.375 1.078125 -0.96875l1.03125 0.796875q-1.234375 1.90625 -3.71875 1.90625zm-0.203125 -8.84375q-1.015625 0 -1.71875 0.75q-0.6875 0.734375 -0.84375 2.078125l4.9375 0l0 -0.125q-0.078125 -1.28125 -0.703125 -1.984375q-0.609375 -0.71875 -1.671875 -0.71875zm14.727539 6.328125l1.890625 -7.53125l1.6875 0l-2.859375 9.859375l-1.375 0l-2.390625 -7.46875l-2.328125 7.46875l-1.375 0l-2.859375 -9.859375l1.671875 0l1.953125 7.375l2.28125 -7.375l1.359375 0l2.34375 7.53125zm5.6289062 3.46875l-1.453125 0l5.546875 -14.40625l1.4375 0l-5.53125 14.40625z" fill-rule="nonzero"/><path fill="#f1c232" d="m397.25198 127.38079l0 0c0 -5.9810257 4.848572 -10.829613 10.82959 -10.829613l145.33292 0c2.8721924 0 5.626709 1.140976 7.657715 3.1719208c2.0309448 2.0309525 3.171875 4.7854996 3.171875 7.657692l0 43.31716c0 5.981018 -4.848572 10.829605 -10.82959 10.829605l-145.33292 0l0 0c-5.981018 0 -10.82959 -4.848587 -10.82959 -10.829605z" fill-rule="evenodd"/><path stroke="#000000" stroke-width="1.0" stroke-linejoin="round" stroke-linecap="butt" d="m397.25198 127.38079l0 0c0 -5.9810257 4.848572 -10.829613 10.82959 -10.829613l145.33292 0c2.8721924 0 5.626709 1.140976 7.657715 3.1719208c2.0309448 2.0309525 3.171875 4.7854996 3.171875 7.657692l0 43.31716c0 5.981018 -4.848572 10.829605 -10.82959 10.829605l-145.33292 0l0 0c-5.981018 0 -10.82959 -4.848587 -10.82959 -10.829605z" fill-rule="evenodd"/><path fill="#000000" d="m413.4551 140.39687l-1.0625 1.09375l0 3.46875l-1.6875 0l0 -14.0l1.6875 0l0 8.46875l0.90625 -1.078125l3.0625 -3.25l2.046875 0l-3.828125 4.125l4.28125 5.734375l-1.984375 0l-3.421875 -4.5625zm11.471283 -3.78125q-0.390625 -0.0625 -0.84375 -0.0625q-1.65625 0 -2.25 1.40625l0 7.0l-1.671875 0l0 -9.859375l1.640625 0l0.015625 1.140625q0.828125 -1.3125 2.359375 -1.3125q0.484375 0 0.75 0.125l0 1.5625zm5.625366 8.53125q-2.0 0 -3.265625 -1.3125q-1.25 -1.328125 -1.25 -3.53125l0 -0.3125q0 -1.46875 0.5625 -2.609375q0.5625 -1.15625 1.5625 -1.796875q1.015625 -0.65625 2.1875 -0.65625q1.921875 0 2.984375 1.265625q1.0625 1.265625 1.0625 3.625l0 0.6875l-6.671875 0q0.03125 1.46875 0.84375 2.375q0.828125 0.890625 2.078125 0.890625q0.890625 0 1.515625 -0.359375q0.625 -0.375 1.078125 -0.96875l1.03125 0.796875q-1.234375 1.90625 -3.71875 1.90625zm-0.203125 -8.84375q-1.015625 0 -1.71875 0.75q-0.6875 0.734375 -0.84375 2.078125l4.9375 0l0 -0.125q-0.078125 -1.28125 -0.703125 -1.984375q-0.609375 -0.71875 -1.671875 -0.71875zm14.72757 6.328125l1.890625 -7.53125l1.6875 0l-2.859375 9.859375l-1.375 0l-2.390625 -7.46875l-2.328125 7.46875l-1.375 0l-2.859375 -9.859375l1.671875 0l1.953125 7.375l2.28125 -7.375l1.359375 0l2.34375 7.53125z" fill-rule="nonzero"/><path fill="#000000" d="m414.65823 165.77187q0.890625 0 1.5625 -0.546875q0.6875 -0.546875 0.75 -1.375l1.59375 0q-0.046875 0.84375 -0.578125 1.609375q-0.53125 0.765625 -1.4375 1.234375q-0.890625 0.453125 -1.890625 0.453125q-2.015625 0 -3.203125 -1.34375q-1.1875 -1.34375 -1.1875 -3.6875l0 -0.28125q0 -1.4375 0.515625 -2.546875q0.53125 -1.125 1.515625 -1.734375q1.0 -0.625 2.34375 -0.625q1.65625 0 2.75 1.0q1.109375 0.984375 1.171875 2.5625l-1.59375 0q-0.0625 -0.953125 -0.71875 -1.5625q-0.65625 -0.625 -1.609375 -0.625q-1.28125 0 -2.0 0.921875q-0.703125 0.921875 -0.703125 2.671875l0 0.328125q0 1.703125 0.703125 2.625q0.703125 0.921875 2.015625 0.921875zm5.359131 -3.828125q0 -1.453125 0.5625 -2.609375q0.578125 -1.15625 1.59375 -1.78125q1.015625 -0.625 2.3125 -0.625q2.015625 0 3.25 1.390625q1.25 1.390625 1.25 3.703125l0 0.125q0 1.4375 -0.546875 2.578125q-0.546875 1.140625 -1.578125 1.78125q-1.015625 0.640625 -2.359375 0.640625q-2.0 0 -3.25 -1.390625q-1.234375 -1.40625 -1.234375 -3.703125l0 -0.109375zm1.6875 0.203125q0 1.640625 0.765625 2.640625q0.765625 0.984375 2.03125 0.984375q1.296875 0 2.046875 -1.0q0.75 -1.015625 0.75 -2.828125q0 -1.625 -0.765625 -2.625q-0.765625 -1.015625 -2.046875 -1.015625q-1.25 0 -2.015625 1.0q-0.765625 0.984375 -0.765625 2.84375zm10.983643 -5.046875l0.046875 1.09375q1.078125 -1.265625 2.921875 -1.265625q2.0625 0 2.8125 1.578125q0.5 -0.71875 1.28125 -1.140625q0.796875 -0.4375 1.859375 -0.4375q3.25 0 3.296875 3.421875l0 6.609375l-1.671875 0l0 -6.5q0 -1.0625 -0.484375 -1.578125q-0.484375 -0.53125 -1.625 -0.53125q-0.9375 0 -1.5625 0.5625q-0.609375 0.5625 -0.71875 1.5l0 6.546875l-1.6875 0l0 -6.453125q0 -2.15625 -2.109375 -2.15625q-1.65625 0 -2.265625 1.40625l0 7.203125l-1.6875 0l0 -9.859375l1.59375 0zm16.351532 0l0.046875 1.09375q1.078125 -1.265625 2.921875 -1.265625q2.0625 0 2.8125 1.578125q0.5 -0.71875 1.28125 -1.140625q0.796875 -0.4375 1.859375 -0.4375q3.25 0 3.296875 3.421875l0 6.609375l-1.671875 0l0 -6.5q0 -1.0625 -0.484375 -1.578125q-0.484375 -0.53125 -1.625 -0.53125q-0.9375 0 -1.5625 0.5625q-0.609375 0.5625 -0.71875 1.5l0 6.546875l-1.6875 0l0 -6.453125q0 -2.15625 -2.109375 -2.15625q-1.65625 0 -2.265625 1.40625l0 7.203125l-1.6875 0l0 -9.859375l1.59375 0zm20.851562 9.859375q-0.140625 -0.296875 -0.234375 -1.03125q-1.171875 1.21875 -2.8125 1.21875q-1.453125 0 -2.390625 -0.828125q-0.921875 -0.828125 -0.921875 -2.09375q0 -1.53125 1.15625 -2.375q1.171875 -0.859375 3.296875 -0.859375l1.640625 0l0 -0.78125q0 -0.890625 -0.53125 -1.40625q-0.515625 -0.53125 -1.546875 -0.53125q-0.90625 0 -1.515625 0.46875q-0.609375 0.453125 -0.609375 1.09375l-1.703125 0q0 -0.734375 0.515625 -1.421875q0.53125 -0.6875 1.421875 -1.078125q0.90625 -0.40625 1.984375 -0.40625q1.703125 0 2.671875 0.859375q0.96875 0.84375 1.0 2.328125l0 4.53125q0 1.359375 0.34375 2.171875l0 0.140625l-1.765625 0zm-2.796875 -1.28125q0.796875 0 1.5 -0.40625q0.71875 -0.421875 1.03125 -1.078125l0 -2.015625l-1.3125 0q-3.109375 0 -3.109375 1.8125q0 0.796875 0.53125 1.25q0.53125 0.4375 1.359375 0.4375zm8.46048 -8.578125l0.046875 1.234375q1.125 -1.40625 2.953125 -1.40625q3.125 0 3.15625 3.515625l0 6.515625l-1.6875 0l0 -6.515625q-0.015625 -1.078125 -0.5 -1.578125q-0.46875 -0.515625 -1.484375 -0.515625q-0.8125 0 -1.4375 0.4375q-0.609375 0.4375 -0.96875 1.15625l0 7.015625l-1.671875 0l0 -9.859375l1.59375 0zm8.278107 4.84375q0 -2.265625 1.078125 -3.640625q1.078125 -1.375 2.8125 -1.375q1.734375 0 2.75 1.171875l0 -5.140625l1.6875 0l0 14.0l-1.546875 0l-0.09375 -1.0625q-1.0 1.25 -2.8125 1.25q-1.703125 0 -2.796875 -1.40625q-1.078125 -1.40625 -1.078125 -3.65625l0 -0.140625zm1.6875 0.203125q0 1.671875 0.6875 2.625q0.703125 0.9375 1.921875 0.9375q1.609375 0 2.34375 -1.4375l0 -4.53125q-0.765625 -1.390625 -2.328125 -1.390625q-1.234375 0 -1.9375 0.953125q-0.6875 0.953125 -0.6875 2.84375zm14.990204 2.203125q0 -0.6875 -0.515625 -1.0625q-0.515625 -0.375 -1.796875 -0.640625q-1.28125 -0.28125 -2.03125 -0.65625q-0.75 -0.390625 -1.109375 -0.921875q-0.359375 -0.53125 -0.359375 -1.265625q0 -1.203125 1.015625 -2.03125q1.03125 -0.84375 2.625 -0.84375q1.671875 0 2.71875 0.859375q1.046875 0.859375 1.046875 2.21875l-1.6875 0q0 -0.703125 -0.59375 -1.203125q-0.59375 -0.5 -1.484375 -0.5q-0.921875 0 -1.4375 0.40625q-0.515625 0.390625 -0.515625 1.046875q0 0.609375 0.484375 0.921875q0.484375 0.3125 1.734375 0.59375q1.265625 0.28125 2.046875 0.671875q0.78125 0.390625 1.15625 0.9375q0.390625 0.546875 0.390625 1.34375q0 1.328125 -1.0625 2.125q-1.046875 0.796875 -2.734375 0.796875q-1.1875 0 -2.109375 -0.421875q-0.90625 -0.421875 -1.421875 -1.171875q-0.515625 -0.75 -0.515625 -1.625l1.6875 0q0.046875 0.84375 0.671875 1.34375q0.640625 0.5 1.6875 0.5q0.953125 0 1.53125 -0.390625q0.578125 -0.390625 0.578125 -1.03125zm4.213379 3.75l-1.453125 0l5.546875 -14.40625l1.4375 0l-5.53125 14.40625z" fill-rule="nonzero"/><path fill="#ffe599" d="m746.0 49.664597l0 0c0 -15.278736 12.385864 -27.664597 27.664612 -27.664597l415.6629 0c7.337158 0 14.373779 2.9146538 19.56189 8.102772c5.1881104 5.188118 8.102661 12.224716 8.102661 19.561825l0 110.65506c0 15.278732 -12.385742 27.664597 -27.66455 27.664597l-415.6629 0c-15.278748 0 -27.664612 -12.385864 -27.664612 -27.664597z" fill-rule="evenodd"/><path stroke="#000000" stroke-width="1.0" stroke-linejoin="round" stroke-linecap="butt" d="m746.0 49.664597l0 0c0 -15.278736 12.385864 -27.664597 27.664612 -27.664597l415.6629 0c7.337158 0 14.373779 2.9146538 19.56189 8.102772c5.1881104 5.188118 8.102661 12.224716 8.102661 19.561825l0 110.65506c0 15.278732 -12.385742 27.664597 -27.66455 27.664597l-415.6629 0c-15.278748 0 -27.664612 -12.385864 -27.664612 -27.664597z" fill-rule="evenodd"/><path fill="#000000" d="m774.60266 49.944557q0 1.4375 -0.859375 2.4375q-0.84375 0.984375 -2.09375 0.984375q-0.65625 0 -1.234375 -0.234375q-0.578125 -0.25 -1.359375 -0.921875q-0.765625 -0.6875 -1.109375 -0.84375q-0.328125 -0.171875 -0.703125 -0.171875q-0.71875 0 -1.109375 0.5q-0.375 0.484375 -0.375 1.34375l-1.46875 0.015625q0 -1.453125 0.84375 -2.390625q0.84375 -0.953125 2.109375 -0.953125q0.6875 0 1.328125 0.296875q0.640625 0.296875 1.4375 1.03125q0.796875 0.734375 1.390625 0.8125l0.25 0.03125q0.703125 0 1.125 -0.53125q0.4375 -0.53125 0.4375 -1.390625l1.390625 -0.015625zm2.7989502 8.21875l-1.453125 0l5.546875 -14.40625l1.4375 0l-5.53125 14.40625zm7.3915405 -2.03125q0 -0.4375 0.25 -0.71875q0.265625 -0.296875 0.78125 -0.296875q0.53125 0 0.796875 0.296875q0.265625 0.28125 0.265625 0.71875q0 0.421875 -0.265625 0.703125q-0.265625 0.28125 -0.796875 0.28125q-0.515625 0 -0.78125 -0.28125q-0.25 -0.28125 -0.25 -0.703125zm7.628723 -3.671875l-1.0625 1.09375l0 3.46875l-1.6875 0l0 -14.0l1.6875 0l0 8.46875l0.90625 -1.078125l3.0625 -3.25l2.046875 0l-3.828125 4.125l4.28125 5.734375l-1.984375 0l-3.421875 -4.5625zm12.783813 3.59375q-0.984375 1.15625 -2.890625 1.15625q-1.578125 0 -2.40625 -0.921875q-0.8125 -0.921875 -0.828125 -2.703125l0 -6.421875l1.6875 0l0 6.375q0 2.234375 1.828125 2.234375q1.921875 0 2.5625 -1.4375l0 -7.171875l1.6875 0l0 9.859375l-1.609375 0l-0.03125 -0.96875zm12.550232 -3.84375q0 2.25 -1.046875 3.625q-1.03125 1.375 -2.78125 1.375q-1.875 0 -2.890625 -1.328125l-0.078125 1.140625l-1.546875 0l0 -14.0l1.671875 0l0 5.234375q1.03125 -1.265625 2.8125 -1.265625q1.796875 0 2.828125 1.359375q1.03125 1.34375 1.03125 3.703125l0 0.15625zm-1.6875 -0.203125q0 -1.71875 -0.671875 -2.65625q-0.65625 -0.9375 -1.90625 -0.9375q-1.671875 0 -2.40625 1.546875l0 4.265625q0.78125 1.546875 2.421875 1.546875q1.21875 0 1.890625 -0.9375q0.671875 -0.9375 0.671875 -2.828125zm7.888672 5.203125q-2.0 0 -3.265625 -1.3125q-1.25 -1.328125 -1.25 -3.53125l0 -0.3125q0 -1.46875 0.5625 -2.609375q0.5625 -1.15625 1.5625 -1.796875q1.015625 -0.65625 2.1875 -0.65625q1.921875 0 2.984375 1.265625q1.0625 1.265625 1.0625 3.625l0 0.6875l-6.671875 0q0.03125 1.46875 0.84375 2.375q0.828125 0.890625 2.078125 0.890625q0.890625 0 1.515625 -0.359375q0.625 -0.375 1.078125 -0.96875l1.03125 0.796875q-1.234375 1.90625 -3.71875 1.90625zm-0.203125 -8.84375q-1.015625 0 -1.71875 0.75q-0.6875 0.734375 -0.84375 2.078125l4.9375 0l0 -0.125q-0.078125 -1.28125 -0.703125 -1.984375q-0.609375 -0.71875 -1.671875 -0.71875zm6.336975 9.796875l-1.453125 0l5.546875 -14.40625l1.4375 0l-5.53125 14.40625zm15.672791 -5.953125q0 2.25 -1.03125 3.625q-1.015625 1.375 -2.78125 1.375q-1.796875 0 -2.828125 -1.140625l0 4.75l-1.671875 0l0 -13.65625l1.53125 0l0.078125 1.09375q1.03125 -1.265625 2.859375 -1.265625q1.78125 0 2.8125 1.34375q1.03125 1.328125 1.03125 3.71875l0 0.15625zm-1.671875 -0.203125q0 -1.65625 -0.71875 -2.625q-0.703125 -0.96875 -1.953125 -0.96875q-1.53125 0 -2.296875 1.359375l0 4.703125q0.765625 1.359375 2.328125 1.359375q1.203125 0 1.921875 -0.953125q0.71875 -0.96875 0.71875 -2.875zm5.654297 5.015625l-1.6875 0l0 -14.0l1.6875 0l0 14.0zm8.777405 -0.96875q-0.984375 1.15625 -2.890625 1.15625q-1.578125 0 -2.40625 -0.921875q-0.8125 -0.921875 -0.828125 -2.703125l0 -6.421875l1.6875 0l0 6.375q0 2.234375 1.828125 2.234375q1.921875 0 2.5625 -1.4375l0 -7.171875l1.6875 0l0 9.859375l-1.609375 0l-0.03125 -0.96875zm3.800232 -4.046875q0 -2.296875 1.0625 -3.65625q1.0625 -1.359375 2.828125 -1.359375q1.796875 0 2.8125 1.265625l0.078125 -1.09375l1.546875 0l0 9.625q0 1.90625 -1.140625 3.0q-1.125 1.109375 -3.046875 1.109375q-1.0625 0 -2.09375 -0.453125q-1.015625 -0.453125 -1.546875 -1.25l0.875 -1.0q1.078125 1.328125 2.65625 1.328125q1.21875 0 1.90625 -0.6875q0.6875 -0.6875 0.6875 -1.953125l0 -0.84375q-1.0 1.171875 -2.75 1.171875q-1.734375 0 -2.8125 -1.390625q-1.0625 -1.40625 -1.0625 -3.8125zm1.6875 0.203125q0 1.65625 0.6875 2.609375q0.6875 0.953125 1.921875 0.953125q1.59375 0 2.328125 -1.453125l0 -4.5q-0.765625 -1.40625 -2.3125 -1.40625q-1.234375 0 -1.9375 0.953125q-0.6875 0.953125 -0.6875 2.84375zm11.013733 4.8125l-1.6875 0l0 -9.859375l1.6875 0l0 9.859375zm-1.828125 -12.46875q0 -0.40625 0.25 -0.6875q0.25 -0.296875 0.734375 -0.296875q0.5 0 0.75 0.296875q0.265625 0.28125 0.265625 0.6875q0 0.40625 -0.265625 0.6875q-0.25 0.265625 -0.75 0.265625q-0.484375 0 -0.734375 -0.265625q-0.25 -0.28125 -0.25 -0.6875zm6.121155 2.609375l0.046875 1.234375q1.125 -1.40625 2.953125 -1.40625q3.125 0 3.15625 3.515625l0 6.515625l-1.6875 0l0 -6.515625q-0.015625 -1.078125 -0.5 -1.578125q-0.46875 -0.515625 -1.484375 -0.515625q-0.8125 0 -1.4375 0.4375q-0.609375 0.4375 -0.96875 1.15625l0 7.015625l-1.671875 0l0 -9.859375l1.59375 0zm14.434326 7.25q0 -0.6875 -0.515625 -1.0625q-0.515625 -0.375 -1.796875 -0.640625q-1.28125 -0.28125 -2.03125 -0.65625q-0.75 -0.390625 -1.109375 -0.921875q-0.359375 -0.53125 -0.359375 -1.265625q0 -1.203125 1.015625 -2.03125q1.03125 -0.84375 2.625 -0.84375q1.671875 0 2.71875 0.859375q1.046875 0.859375 1.046875 2.21875l-1.6875 0q0 -0.703125 -0.59375 -1.203125q-0.59375 -0.5 -1.484375 -0.5q-0.921875 0 -1.4375 0.40625q-0.515625 0.390625 -0.515625 1.046875q0 0.609375 0.484375 0.921875q0.484375 0.3125 1.734375 0.59375q1.265625 0.28125 2.046875 0.671875q0.78125 0.390625 1.15625 0.9375q0.390625 0.546875 0.390625 1.34375q0 1.328125 -1.0625 2.125q-1.046875 0.796875 -2.734375 0.796875q-1.1875 0 -2.109375 -0.421875q-0.90625 -0.421875 -1.421875 -1.171875q-0.515625 -0.75 -0.515625 -1.625l1.6875 0q0.046875 0.84375 0.671875 1.34375q0.640625 0.5 1.6875 0.5q0.953125 0 1.53125 -0.390625q0.578125 -0.390625 0.578125 -1.03125zm4.213379 3.75l-1.453125 0l5.546875 -14.40625l1.4375 0l-5.53125 14.40625zm10.110291 -5.703125l-1.0625 1.09375l0 3.46875l-1.6875 0l0 -14.0l1.6875 0l0 8.46875l0.90625 -1.078125l3.0625 -3.25l2.046875 0l-3.828125 4.125l4.28125 5.734375l-1.984375 0l-3.421875 -4.5625zm11.471313 -3.78125q-0.390625 -0.0625 -0.84375 -0.0625q-1.65625 0 -2.25 1.40625l0 7.0l-1.671875 0l0 -9.859375l1.640625 0l0.015625 1.140625q0.828125 -1.3125 2.359375 -1.3125q0.484375 0 0.75 0.125l0 1.5625zm5.625366 8.53125q-2.0 0 -3.265625 -1.3125q-1.25 -1.328125 -1.25 -3.53125l0 -0.3125q0 -1.46875 0.5625 -2.609375q0.5625 -1.15625 1.5625 -1.796875q1.015625 -0.65625 2.1875 -0.65625q1.921875 0 2.984375 1.265625q1.0625 1.265625 1.0625 3.625l0 0.6875l-6.671875 0q0.03125 1.46875 0.84375 2.375q0.828125 0.890625 2.078125 0.890625q0.890625 0 1.515625 -0.359375q0.625 -0.375 1.078125 -0.96875l1.03125 0.796875q-1.234375 1.90625 -3.71875 1.90625zm-0.203125 -8.84375q-1.015625 0 -1.71875 0.75q-0.6875 0.734375 -0.84375 2.078125l4.9375 0l0 -0.125q-0.078125 -1.28125 -0.703125 -1.984375q-0.609375 -0.71875 -1.671875 -0.71875zm14.727539 6.328125l1.890625 -7.53125l1.6875 0l-2.859375 9.859375l-1.375 0l-2.390625 -7.46875l-2.328125 7.46875l-1.375 0l-2.859375 -9.859375l1.671875 0l1.953125 7.375l2.28125 -7.375l1.359375 0l2.34375 7.53125z" fill-rule="nonzero"/><path fill="#f1c232" d="m746.0 82.82961l0 0c0 -5.9810333 4.848572 -10.829613 10.82959 -10.829613l87.663635 0c2.8721924 0 5.62677 1.140976 7.657715 3.1719208c2.0309448 2.0309448 3.171875 4.7854996 3.171875 7.657692l0 43.317154c0 5.9810257 -4.848572 10.829613 -10.82959 10.829613l-87.663635 0c-5.981018 0 -10.82959 -4.848587 -10.82959 -10.829613z" fill-rule="evenodd"/><path stroke="#000000" stroke-width="1.0" stroke-linejoin="round" stroke-linecap="butt" d="m746.0 82.82961l0 0c0 -5.9810333 4.848572 -10.829613 10.82959 -10.829613l87.663635 0c2.8721924 0 5.62677 1.140976 7.657715 3.1719208c2.0309448 2.0309448 3.171875 4.7854996 3.171875 7.657692l0 43.317154c0 5.9810257 -4.848572 10.829613 -10.82959 10.829613l-87.663635 0c-5.981018 0 -10.82959 -4.848587 -10.82959 -10.829613z" fill-rule="evenodd"/><path fill="#000000" d="m761.28125 102.09188l-1.6875 0l0 -9.859375l1.6875 0l0 9.859375zm-1.828125 -12.46875q0 -0.40625 0.25 -0.6875q0.25 -0.296875 0.734375 -0.296875q0.5 0 0.75 0.296875q0.265625 0.28125 0.265625 0.6875q0 0.40625 -0.265625 0.6875q-0.25 0.265625 -0.75 0.265625q-0.484375 0 -0.734375 -0.265625q-0.25 -0.28125 -0.25 -0.6875zm6.121155 2.609375l0.046875 1.234375q1.125 -1.40625 2.953125 -1.40625q3.125 0 3.15625 3.515625l0 6.515625l-1.6875 0l0 -6.515625q-0.015625 -1.078125 -0.5 -1.578125q-0.46875 -0.515625 -1.484375 -0.515625q-0.8125 0 -1.4375 0.4375q-0.609375 0.4375 -0.96875 1.15625l0 7.015625l-1.671875 0l0 -9.859375l1.59375 0zm8.278137 4.84375q0 -2.265625 1.078125 -3.640625q1.078125 -1.375 2.8125 -1.375q1.734375 0 2.75 1.171875l0 -5.140625l1.6875 0l0 14.0l-1.546875 0l-0.09375 -1.0625q-1.0 1.25 -2.8125 1.25q-1.703125 0 -2.796875 -1.40625q-1.078125 -1.40625 -1.078125 -3.65625l0 -0.140625zm1.6875 0.203125q0 1.671875 0.6875 2.625q0.703125 0.9375 1.921875 0.9375q1.609375 0 2.34375 -1.4375l0 -4.53125q-0.765625 -1.390625 -2.328125 -1.390625q-1.234375 0 -1.9375 0.953125q-0.6875 0.953125 -0.6875 2.84375zm13.333984 5.0q-2.0 0 -3.265625 -1.3125q-1.25 -1.328125 -1.25 -3.53125l0 -0.3125q0 -1.46875 0.5625 -2.609375q0.5625 -1.15625 1.5625 -1.796875q1.015625 -0.65625 2.1875 -0.65625q1.921875 0 2.984375 1.265625q1.0625 1.265625 1.0625 3.625l0 0.6875l-6.671875 0q0.03125 1.46875 0.84375 2.375q0.828125 0.890625 2.078125 0.890625q0.890625 0 1.515625 -0.359375q0.625 -0.375 1.078125 -0.96875l1.03125 0.796875q-1.234375 1.90625 -3.71875 1.90625zm-0.203125 -8.84375q-1.015625 0 -1.71875 0.75q-0.6875 0.734375 -0.84375 2.078125l4.9375 0l0 -0.125q-0.078125 -1.28125 -0.703125 -1.984375q-0.609375 -0.71875 -1.671875 -0.71875zm9.305664 2.390625l2.1875 -3.59375l1.96875 0l-3.21875 4.875l3.328125 4.984375l-1.953125 0l-2.28125 -3.6875l-2.28125 3.6875l-1.953125 0l3.328125 -4.984375l-3.234375 -4.875l1.953125 0l2.15625 3.59375zm6.277405 7.40625l-1.453125 0l5.546875 -14.40625l1.4375 0l-5.53125 14.40625z" fill-rule="nonzero"/><path fill="#000000" d="m759.4844 123.201256q0 -0.4375 0.25 -0.71875q0.265625 -0.296875 0.78125 -0.296875q0.53125 0 0.796875 0.296875q0.265625 0.28125 0.265625 0.71875q0 0.421875 -0.265625 0.703125q-0.265625 0.28125 -0.796875 0.28125q-0.515625 0 -0.78125 -0.28125q-0.25 -0.28125 -0.25 -0.703125zm4.910034 0q0 -0.4375 0.25 -0.71875q0.265625 -0.296875 0.78125 -0.296875q0.53125 0 0.796875 0.296875q0.265625 0.28125 0.265625 0.71875q0 0.421875 -0.265625 0.703125q-0.265625 0.28125 -0.796875 0.28125q-0.515625 0 -0.78125 -0.28125q-0.25 -0.28125 -0.25 -0.703125zm4.910034 0q0 -0.4375 0.25 -0.71875q0.265625 -0.296875 0.78125 -0.296875q0.53125 0 0.796875 0.296875q0.265625 0.28125 0.265625 0.71875q0 0.421875 -0.265625 0.703125q-0.265625 0.28125 -0.796875 0.28125q-0.515625 0 -0.78125 -0.28125q-0.25 -0.28125 -0.25 -0.703125z" fill-rule="nonzero"/><path fill="#cfe2f3" d="m24.07113 183.71654c1.6961384 0 3.0711288 -1.375 3.0711288 -3.0711365l-3.0711288 0c0.84806824 0 1.5355644 -0.68748474 1.5355644 -1.5355682c0 -0.84806824 -0.6874962 -1.535553 -1.5355644 -1.535553l3.0711288 0l0 -108.77087l0 0c0 -1.6961365 1.3749924 -3.0711288 3.0711308 -3.0711288l269.69974 0c1.6961365 0 3.0711365 1.3749924 3.0711365 3.0711288c0 1.6961365 -1.375 3.0711288 -3.0711365 3.0711288l-3.0711365 0l0 108.77086c0 1.6961365 -1.3749695 3.0711365 -3.071106 3.0711365zm9.213388 -114.913124l0 0c0 1.6961365 -1.3749905 3.0711288 -3.0711288 3.0711288c-0.84807014 0 -1.5355644 -0.6874924 -1.5355644 -1.5355606c0 -0.84807587 0.6874943 -1.5355682 1.5355644 -1.5355682z" fill-rule="evenodd"/><path fill="#a5b4c2" d="m33.28452 68.80341l0 0c0 1.6961365 -1.3749905 3.0711288 -3.0711288 3.0711288c-0.84807014 0 -1.5355644 -0.6874924 -1.5355644 -1.5355606c0 -0.84807587 0.6874943 -1.5355682 1.5355644 -1.5355682zm-6.1422596 111.84199c0 1.6961365 -1.3749905 3.0711365 -3.0711288 3.0711365c-1.6961384 0 -3.0711308 -1.375 -3.0711308 -3.0711365c0 -1.6961365 1.3749924 -3.0711212 3.0711308 -3.0711212l0 0c0.84806824 0 1.5355644 0.68748474 1.5355644 1.535553c0 0.8480835 -0.6874962 1.5355682 -1.5355644 1.5355682z" fill-rule="evenodd"/><path fill="#000000" fill-opacity="0.0" d="m27.14226 177.57428l0 -108.77087l0 0c0 -1.6961365 1.3749924 -3.0711288 3.0711308 -3.0711288l269.69974 0c1.6961365 0 3.0711365 1.3749924 3.0711365 3.0711288c0 1.6961365 -1.375 3.0711288 -3.0711365 3.0711288l-3.0711365 0l0 108.77086c0 1.6961365 -1.3749695 3.0711365 -3.071106 3.0711365l-269.69974 0c-1.6961384 0 -3.0711308 -1.375 -3.0711308 -3.0711365c0 -1.6961365 1.3749924 -3.0711212 3.0711308 -3.0711212zm3.0711308 -111.841995l0 0c1.6961384 0 3.0711288 1.3749924 3.0711288 3.0711288c0 1.6961365 -1.3749905 3.0711288 -3.0711288 3.0711288c-0.84807014 0 -1.5355644 -0.6874924 -1.5355644 -1.5355606c0 -0.84807587 0.6874943 -1.5355682 1.5355644 -1.5355682l3.0711288 0m263.55746 3.0711288l-266.6286 0m-6.1422596 105.69974l0 0c0.84806824 0 1.5355644 0.68748474 1.5355644 1.535553c0 0.8480835 -0.6874962 1.5355682 -1.5355644 1.5355682l3.0711288 0m-3.0711288 3.0711365c1.6961384 0 3.0711288 -1.375 3.0711288 -3.0711365l0 -3.0711212" fill-rule="evenodd"/><path stroke="#000000" stroke-width="1.0" stroke-linejoin="round" stroke-linecap="butt" d="m27.14226 177.57428l0 -108.77087l0 0c0 -1.6961365 1.3749924 -3.0711288 3.0711308 -3.0711288l269.69974 0c1.6961365 0 3.0711365 1.3749924 3.0711365 3.0711288c0 1.6961365 -1.375 3.0711288 -3.0711365 3.0711288l-3.0711365 0l0 108.77086c0 1.6961365 -1.3749695 3.0711365 -3.071106 3.0711365l-269.69974 0c-1.6961384 0 -3.0711308 -1.375 -3.0711308 -3.0711365c0 -1.6961365 1.3749924 -3.0711212 3.0711308 -3.0711212zm3.0711308 -111.841995l0 0c1.6961384 0 3.0711288 1.3749924 3.0711288 3.0711288c0 1.6961365 -1.3749905 3.0711288 -3.0711288 3.0711288c-0.84807014 0 -1.5355644 -0.6874924 -1.5355644 -1.5355606c0 -0.84807587 0.6874943 -1.5355682 1.5355644 -1.5355682l3.0711288 0m263.55746 3.0711288l-266.6286 0m-6.1422596 105.69974l0 0c0.84806824 0 1.5355644 0.68748474 1.5355644 1.535553c0 0.8480835 -0.6874962 1.5355682 -1.5355644 1.5355682l3.0711288 0m-3.0711288 3.0711365c1.6961384 0 3.0711288 -1.375 3.0711288 -3.0711365l0 -3.0711212" fill-rule="evenodd"/><path fill="#000000" d="m44.797993 98.79454l-1.6875 0l0 -11.109375l-3.46875 1.3125l0 -1.53125l5.03125 -1.9375l0.125 0l0 13.265625zm8.664322 -1.09375q0 -0.265625 0.078125 -0.5q0.09375 -0.25 0.25 -0.421875q0.171875 -0.1875 0.421875 -0.28125q0.25 -0.09375 0.578125 -0.09375q0.328125 0 0.578125 0.09375q0.25 0.09375 0.40625 0.28125q0.171875 0.171875 0.25 0.421875q0.09375 0.234375 0.09375 0.5q0 0.265625 -0.09375 0.5q-0.078125 0.234375 -0.25 0.40625q-0.15625 0.171875 -0.40625 0.265625q-0.25 0.09375 -0.578125 0.09375q-0.328125 0 -0.578125 -0.09375q-0.25 -0.09375 -0.421875 -0.265625q-0.15625 -0.171875 -0.25 -0.40625q-0.078125 -0.234375 -0.078125 -0.5z" fill-rule="nonzero"/><path fill="#000000" d="m85.54851 98.79454l0 -13.265625l3.078125 0q1.375 0.015625 2.46875 0.46875q1.09375 0.453125 1.84375 1.265625q0.75 0.796875 1.140625 1.921875q0.40625 1.125 0.40625 2.5l0 0.96875q0 1.375 -0.40625 2.5q-0.390625 1.125 -1.140625 1.9375q-0.75 0.796875 -1.84375 1.25q-1.09375 0.4375 -2.46875 0.453125l-3.078125 0zm1.71875 -11.875l0 10.5l1.359375 0q1.078125 -0.015625 1.859375 -0.375q0.78125 -0.375 1.296875 -1.0q0.515625 -0.640625 0.765625 -1.5q0.25 -0.875 0.25 -1.890625l0 -0.984375q0 -1.015625 -0.265625 -1.875q-0.25 -0.859375 -0.765625 -1.484375q-0.5 -0.640625 -1.28125 -1.0q-0.78125 -0.375 -1.859375 -0.390625l-1.359375 0zm9.179947 6.859375q0 -1.0625 0.3125 -1.984375q0.3125 -0.921875 0.890625 -1.59375q0.578125 -0.671875 1.40625 -1.046875q0.828125 -0.390625 1.859375 -0.390625q1.046875 0 1.875 0.390625q0.84375 0.375 1.421875 1.046875q0.578125 0.671875 0.890625 1.59375q0.3125 0.921875 0.3125 1.984375l0 0.203125q0 1.0625 -0.3125 1.96875q-0.3125 0.90625 -0.890625 1.59375q-0.578125 0.671875 -1.40625 1.0625q-0.828125 0.375 -1.859375 0.375q-1.046875 0 -1.890625 -0.375q-0.828125 -0.390625 -1.40625 -1.0625q-0.578125 -0.6875 -0.890625 -1.59375q-0.3125 -0.90625 -0.3125 -1.96875l0 -0.203125zm1.6875 0.203125q0 0.71875 0.171875 1.390625q0.171875 0.65625 0.515625 1.15625q0.359375 0.5 0.890625 0.796875q0.53125 0.28125 1.234375 0.28125q0.6875 0 1.203125 -0.28125q0.53125 -0.296875 0.875 -0.796875q0.359375 -0.5 0.53125 -1.15625q0.171875 -0.671875 0.171875 -1.390625l0 -0.203125q0 -0.71875 -0.1875 -1.375q-0.171875 -0.671875 -0.53125 -1.171875q-0.34375 -0.5 -0.875 -0.796875q-0.515625 -0.296875 -1.21875 -0.296875q-0.703125 0 -1.21875 0.296875q-0.515625 0.296875 -0.875 0.796875q-0.34375 0.5 -0.515625 1.171875q-0.171875 0.65625 -0.171875 1.375l0 0.203125zm11.476822 1.234375l0.203125 1.421875l0.25 -1.421875l1.5625 -6.28125l1.09375 0l1.5625 6.28125l0.265625 1.5625l0.25 -1.5625l1.09375 -6.28125l1.484375 0l-2.09375 9.859375l-1.328125 0l-1.53125 -6.046875l-0.265625 -1.515625l-0.234375 1.515625l-1.53125 6.046875l-1.328125 0l-2.09375 -9.859375l1.5 0l1.140625 6.28125zm11.211197 -6.28125l0.125 1.453125q0.53125 -0.765625 1.3125 -1.1875q0.78125 -0.4375 1.75 -0.4375q0.78125 0 1.40625 0.21875q0.640625 0.21875 1.078125 0.6875q0.453125 0.453125 0.6875 1.171875q0.25 0.71875 0.25 1.6875l0 6.265625l-1.6875 0l0 -6.21875q0 -0.65625 -0.15625 -1.109375q-0.140625 -0.453125 -0.421875 -0.734375q-0.28125 -0.296875 -0.703125 -0.421875q-0.40625 -0.125 -0.953125 -0.125q-0.84375 0 -1.484375 0.421875q-0.640625 0.421875 -1.03125 1.125l0 7.0625l-1.6875 0l0 -9.859375l1.515625 0zm9.945572 -4.140625l5.046875 0l0 12.546875l3.21875 0l0 1.453125l-8.265625 0l0 -1.453125l3.359375 0l0 -11.078125l-3.359375 0l0 -1.46875zm10.461197 8.984375q0 -1.0625 0.3125 -1.984375q0.3125 -0.921875 0.890625 -1.59375q0.578125 -0.671875 1.40625 -1.046875q0.828125 -0.390625 1.859375 -0.390625q1.046875 0 1.875 0.390625q0.84375 0.375 1.421875 1.046875q0.578125 0.671875 0.890625 1.59375q0.3125 0.921875 0.3125 1.984375l0 0.203125q0 1.0625 -0.3125 1.96875q-0.3125 0.90625 -0.890625 1.59375q-0.578125 0.671875 -1.40625 1.0625q-0.828125 0.375 -1.859375 0.375q-1.046875 0 -1.890625 -0.375q-0.828125 -0.390625 -1.40625 -1.0625q-0.578125 -0.6875 -0.890625 -1.59375q-0.3125 -0.90625 -0.3125 -1.96875l0 -0.203125zm1.6875 0.203125q0 0.71875 0.171875 1.390625q0.171875 0.65625 0.515625 1.15625q0.359375 0.5 0.890625 0.796875q0.53125 0.28125 1.234375 0.28125q0.6875 0 1.203125 -0.28125q0.53125 -0.296875 0.875 -0.796875q0.359375 -0.5 0.53125 -1.15625q0.171875 -0.671875 0.171875 -1.390625l0 -0.203125q0 -0.71875 -0.1875 -1.375q-0.171875 -0.671875 -0.53125 -1.171875q-0.34375 -0.5 -0.875 -0.796875q-0.515625 -0.296875 -1.21875 -0.296875q-0.703125 0 -1.21875 0.296875q-0.515625 0.296875 -0.875 0.796875q-0.34375 0.5 -0.515625 1.171875q-0.171875 0.65625 -0.171875 1.375l0 0.203125zm16.461197 4.8125q-0.09375 -0.1875 -0.15625 -0.46875q-0.0625 -0.296875 -0.09375 -0.609375q-0.25 0.265625 -0.5625 0.5q-0.3125 0.21875 -0.703125 0.390625q-0.375 0.171875 -0.8125 0.265625q-0.421875 0.109375 -0.890625 0.109375q-0.796875 0 -1.4375 -0.21875q-0.625 -0.234375 -1.0625 -0.625q-0.4375 -0.390625 -0.6875 -0.921875q-0.234375 -0.53125 -0.234375 -1.15625q0 -0.8125 0.3125 -1.421875q0.328125 -0.609375 0.921875 -1.015625q0.59375 -0.40625 1.421875 -0.59375q0.84375 -0.203125 1.875 -0.203125l1.828125 0l0 -0.78125q0 -0.453125 -0.171875 -0.796875q-0.15625 -0.359375 -0.453125 -0.609375q-0.296875 -0.25 -0.734375 -0.390625q-0.421875 -0.140625 -0.96875 -0.140625q-0.5 0 -0.90625 0.140625q-0.390625 0.125 -0.671875 0.34375q-0.265625 0.203125 -0.421875 0.484375q-0.140625 0.28125 -0.140625 0.59375l-1.6875 0q0 -0.53125 0.265625 -1.046875q0.28125 -0.53125 0.78125 -0.9375q0.5 -0.421875 1.21875 -0.671875q0.734375 -0.25 1.65625 -0.25q0.84375 0 1.5625 0.203125q0.71875 0.203125 1.234375 0.625q0.53125 0.40625 0.828125 1.03125q0.296875 0.609375 0.296875 1.4375l0 4.578125q0 0.5 0.09375 1.046875q0.09375 0.546875 0.25 0.96875l0 0.140625l-1.75 0zm-2.984375 -1.28125q0.5 0 0.921875 -0.125q0.4375 -0.140625 0.78125 -0.34375q0.34375 -0.203125 0.59375 -0.46875q0.265625 -0.28125 0.40625 -0.5625l0 -2.0l-1.5625 0q-1.46875 0 -2.296875 0.4375q-0.8125 0.4375 -0.8125 1.375q0 0.359375 0.125 0.671875q0.125 0.3125 0.359375 0.53125q0.25 0.21875 0.625 0.359375q0.375 0.125 0.859375 0.125zm7.383072 -3.734375q0 -1.09375 0.28125 -2.015625q0.28125 -0.9375 0.78125 -1.59375q0.515625 -0.671875 1.25 -1.03125q0.734375 -0.375 1.625 -0.375q0.890625 0 1.546875 0.296875q0.671875 0.28125 1.140625 0.859375l0 -5.125l1.6875 0l0 14.0l-1.546875 0l-0.0625 -1.03125q-0.5 0.59375 -1.1875 0.90625q-0.671875 0.3125 -1.59375 0.3125q-0.890625 0 -1.625 -0.375q-0.71875 -0.390625 -1.234375 -1.0625q-0.5 -0.6875 -0.78125 -1.59375q-0.28125 -0.921875 -0.28125 -1.96875l0 -0.203125zm1.6875 0.203125q0 0.71875 0.15625 1.359375q0.15625 0.640625 0.46875 1.140625q0.328125 0.484375 0.828125 0.78125q0.5 0.28125 1.203125 0.28125q0.4375 0 0.78125 -0.09375q0.34375 -0.109375 0.625 -0.296875q0.28125 -0.1875 0.5 -0.4375q0.21875 -0.265625 0.375 -0.578125l0 -4.578125q-0.328125 -0.59375 -0.890625 -0.984375q-0.546875 -0.390625 -1.375 -0.390625q-0.703125 0 -1.21875 0.296875q-0.5 0.28125 -0.828125 0.78125q-0.3125 0.5 -0.46875 1.15625q-0.15625 0.640625 -0.15625 1.359375l0 0.203125zm25.016144 -7.4375l0 2.390625l3.75 0l0 1.3125l-3.75 0l0 5.34375q0 0.578125 0.140625 0.953125q0.140625 0.375 0.390625 0.59375q0.265625 0.21875 0.59375 0.3125q0.34375 0.09375 0.71875 0.09375q0.265625 0 0.546875 -0.03125q0.296875 -0.03125 0.578125 -0.078125q0.28125 -0.046875 0.515625 -0.09375q0.25 -0.046875 0.40625 -0.09375l0.234375 1.203125q-0.21875 0.125 -0.515625 0.21875q-0.296875 0.09375 -0.65625 0.15625q-0.34375 0.078125 -0.75 0.109375q-0.390625 0.046875 -0.78125 0.046875q-0.65625 0 -1.234375 -0.1875q-0.5625 -0.1875 -0.984375 -0.59375q-0.421875 -0.40625 -0.671875 -1.046875q-0.234375 -0.640625 -0.234375 -1.5625l0 -5.34375l-2.578125 0l0 -1.3125l2.578125 0l0 -2.390625l1.703125 0zm6.726822 7.234375q0 -1.0625 0.3125 -1.984375q0.3125 -0.921875 0.890625 -1.59375q0.578125 -0.671875 1.40625 -1.046875q0.828125 -0.390625 1.859375 -0.390625q1.046875 0 1.875 0.390625q0.84375 0.375 1.421875 1.046875q0.578125 0.671875 0.890625 1.59375q0.3125 0.921875 0.3125 1.984375l0 0.203125q0 1.0625 -0.3125 1.96875q-0.3125 0.90625 -0.890625 1.59375q-0.578125 0.671875 -1.40625 1.0625q-0.828125 0.375 -1.859375 0.375q-1.046875 0 -1.890625 -0.375q-0.828125 -0.390625 -1.40625 -1.0625q-0.578125 -0.6875 -0.890625 -1.59375q-0.3125 -0.90625 -0.3125 -1.96875l0 -0.203125zm1.6875 0.203125q0 0.71875 0.171875 1.390625q0.171875 0.65625 0.515625 1.15625q0.359375 0.5 0.890625 0.796875q0.53125 0.28125 1.234375 0.28125q0.6875 0 1.203125 -0.28125q0.53125 -0.296875 0.875 -0.796875q0.359375 -0.5 0.53125 -1.15625q0.171875 -0.671875 0.171875 -1.390625l0 -0.203125q0 -0.71875 -0.1875 -1.375q-0.171875 -0.671875 -0.53125 -1.171875q-0.34375 -0.5 -0.875 -0.796875q-0.515625 -0.296875 -1.21875 -0.296875q-0.703125 0 -1.21875 0.296875q-0.515625 0.296875 -0.875 0.796875q-0.34375 0.5 -0.515625 1.171875q-0.171875 0.65625 -0.171875 1.375l0 0.203125zm27.859894 1.390625q0 -0.828125 -0.609375 -1.40625q-0.609375 -0.59375 -1.953125 -1.03125q-0.84375 -0.265625 -1.53125 -0.609375q-0.6875 -0.359375 -1.171875 -0.828125q-0.484375 -0.484375 -0.75 -1.09375q-0.265625 -0.625 -0.265625 -1.4375q0 -0.765625 0.234375 -1.375q0.234375 -0.625 0.65625 -1.078125q0.421875 -0.46875 1.03125 -0.75q0.609375 -0.28125 1.34375 -0.375l0 -2.0l1.359375 0l0 2.0q1.53125 0.203125 2.375 1.28125q0.84375 1.078125 0.859375 2.9375l-1.6875 0q0 -0.609375 -0.15625 -1.125q-0.140625 -0.515625 -0.4375 -0.875q-0.28125 -0.375 -0.703125 -0.578125q-0.40625 -0.21875 -0.953125 -0.21875q-1.09375 0 -1.65625 0.578125q-0.5625 0.578125 -0.578125 1.546875q0 0.453125 0.140625 0.8125q0.15625 0.359375 0.46875 0.65625q0.3125 0.28125 0.796875 0.53125q0.5 0.25 1.203125 0.484375q0.859375 0.28125 1.546875 0.640625q0.6875 0.34375 1.15625 0.8125q0.46875 0.453125 0.71875 1.0625q0.25 0.609375 0.25 1.421875q0 0.796875 -0.25 1.421875q-0.25 0.625 -0.703125 1.078125q-0.453125 0.453125 -1.109375 0.734375q-0.65625 0.265625 -1.4375 0.34375l0 1.75l-1.359375 0l0 -1.734375q-0.71875 -0.078125 -1.375 -0.328125q-0.640625 -0.25 -1.140625 -0.734375q-0.5 -0.5 -0.8125 -1.234375q-0.296875 -0.734375 -0.296875 -1.765625l1.6875 0q0 0.765625 0.21875 1.28125q0.234375 0.5 0.59375 0.796875q0.375 0.296875 0.828125 0.421875q0.453125 0.125 0.921875 0.125q0.578125 0 1.046875 -0.140625q0.484375 -0.140625 0.8125 -0.421875q0.328125 -0.28125 0.5 -0.671875q0.1875 -0.40625 0.1875 -0.90625zm13.461197 -8.40625l-4.09375 0l0 11.828125l-1.640625 0l0 -11.828125l-4.109375 0l0 -1.4375l9.84375 0l0 1.4375zm4.101822 -1.4375l2.15625 6.640625l2.328125 -6.640625l2.09375 0l0 13.265625l-1.640625 0l0 -5.296875l0.140625 -5.53125l-2.453125 7.140625l-0.96875 0l-2.25 -6.953125l0.140625 5.34375l0 5.296875l-1.640625 0l0 -13.265625l2.09375 0zm11.179947 7.953125l0 5.3125l-1.6875 0l0 -13.265625l4.3125 0q0.890625 0.015625 1.6875 0.28125q0.796875 0.265625 1.390625 0.765625q0.609375 0.5 0.953125 1.25q0.359375 0.734375 0.359375 1.6875q0 0.953125 -0.359375 1.6875q-0.34375 0.734375 -0.953125 1.234375q-0.59375 0.5 -1.390625 0.765625q-0.796875 0.265625 -1.6875 0.28125l-2.625 0zm0 -1.390625l2.625 0q0.578125 -0.015625 1.0625 -0.1875q0.5 -0.171875 0.859375 -0.5q0.359375 -0.328125 0.5625 -0.796875q0.21875 -0.46875 0.21875 -1.078125q0 -0.59375 -0.21875 -1.078125q-0.203125 -0.484375 -0.5625 -0.8125q-0.359375 -0.34375 -0.859375 -0.53125q-0.484375 -0.1875 -1.0625 -0.1875l-2.625 0l0 5.171875z" fill-rule="nonzero"/><path fill="#000000" d="m47.469868 120.79454l-8.6875 0l0 -1.21875l4.34375 -4.828125q0.578125 -0.640625 0.96875 -1.140625q0.390625 -0.5 0.625 -0.921875q0.25 -0.421875 0.34375 -0.796875q0.109375 -0.390625 0.109375 -0.78125q0 -0.5 -0.171875 -0.921875q-0.15625 -0.4375 -0.46875 -0.75q-0.296875 -0.328125 -0.734375 -0.515625q-0.421875 -0.1875 -0.96875 -0.1875q-0.671875 0 -1.15625 0.203125q-0.484375 0.1875 -0.8125 0.53125q-0.328125 0.34375 -0.484375 0.859375q-0.15625 0.5 -0.15625 1.109375l-1.6875 0q0 -0.828125 0.28125 -1.5625q0.296875 -0.75 0.84375 -1.3125q0.546875 -0.5625 1.34375 -0.890625q0.796875 -0.328125 1.828125 -0.328125q0.9375 0 1.6875 0.28125q0.75 0.28125 1.265625 0.78125q0.515625 0.484375 0.796875 1.15625q0.28125 0.671875 0.28125 1.46875q0 0.59375 -0.203125 1.171875q-0.203125 0.578125 -0.546875 1.140625q-0.328125 0.5625 -0.78125 1.125q-0.453125 0.546875 -0.953125 1.09375l-3.5625 3.859375l6.65625 0l0 1.375zm5.992447 -1.09375q0 -0.265625 0.078125 -0.5q0.09375 -0.25 0.25 -0.421875q0.171875 -0.1875 0.421875 -0.28125q0.25 -0.09375 0.578125 -0.09375q0.328125 0 0.578125 0.09375q0.25 0.09375 0.40625 0.28125q0.171875 0.171875 0.25 0.421875q0.09375 0.234375 0.09375 0.5q0 0.265625 -0.09375 0.5q-0.078125 0.234375 -0.25 0.40625q-0.15625 0.171875 -0.40625 0.265625q-0.25 0.09375 -0.578125 0.09375q-0.328125 0 -0.578125 -0.09375q-0.25 -0.09375 -0.421875 -0.265625q-0.15625 -0.171875 -0.25 -0.40625q-0.078125 -0.234375 -0.078125 -0.5z" fill-rule="nonzero"/><path fill="#000000" d="m88.67351 116.20079l-1.234375 1.1875l0 3.40625l-1.6875 0l0 -14.0l1.6875 0l0 8.578125l1.109375 -1.1875l3.234375 -3.25l2.046875 0l-4.0 4.109375l4.609375 5.75l-2.140625 0l-3.625 -4.59375zm14.711197 -5.4375q0.234375 0 0.484375 0.015625q0.265625 0 0.484375 0.03125q0.234375 0.03125 0.421875 0.078125q0.203125 0.046875 0.34375 0.109375l-0.234375 1.640625q-0.484375 -0.109375 -0.9375 -0.15625q-0.4375 -0.046875 -0.921875 -0.046875q-1.1875 0 -1.921875 0.546875q-0.734375 0.53125 -1.078125 1.484375l0 6.328125l-1.6875 0l0 -9.859375l1.59375 0l0.09375 1.5625q0.59375 -0.796875 1.4375 -1.265625q0.84375 -0.46875 1.921875 -0.46875zm9.086197 10.21875q-1.03125 0 -1.90625 -0.359375q-0.875 -0.359375 -1.5 -0.984375q-0.609375 -0.640625 -0.953125 -1.515625q-0.34375 -0.875 -0.34375 -1.90625l0 -0.390625q0 -1.1875 0.375 -2.125q0.390625 -0.953125 1.015625 -1.59375q0.640625 -0.65625 1.4375 -1.0q0.8125 -0.34375 1.65625 -0.34375q1.0625 0 1.859375 0.375q0.796875 0.359375 1.328125 1.015625q0.53125 0.640625 0.78125 1.53125q0.265625 0.875 0.265625 1.90625l0 0.75l-7.03125 0q0.015625 0.6875 0.25 1.28125q0.234375 0.578125 0.640625 1.03125q0.40625 0.4375 0.96875 0.703125q0.5625 0.25 1.25 0.25q0.90625 0 1.59375 -0.359375q0.703125 -0.375 1.171875 -0.96875l1.03125 0.796875q-0.25 0.375 -0.625 0.71875q-0.359375 0.328125 -0.84375 0.59375q-0.484375 0.265625 -1.09375 0.421875q-0.609375 0.171875 -1.328125 0.171875zm-0.21875 -8.84375q-0.515625 0 -0.96875 0.1875q-0.453125 0.1875 -0.8125 0.546875q-0.359375 0.359375 -0.625 0.890625q-0.25 0.515625 -0.34375 1.203125l5.296875 0l0 -0.125q-0.015625 -0.5 -0.1875 -0.984375q-0.15625 -0.484375 -0.46875 -0.859375q-0.296875 -0.390625 -0.765625 -0.625q-0.46875 -0.234375 -1.125 -0.234375zm8.554947 5.078125l0.203125 1.421875l0.25 -1.421875l1.5625 -6.28125l1.09375 0l1.5625 6.28125l0.265625 1.5625l0.25 -1.5625l1.09375 -6.28125l1.484375 0l-2.09375 9.859375l-1.328125 0l-1.53125 -6.046875l-0.265625 -1.515625l-0.234375 1.515625l-1.53125 6.046875l-1.328125 0l-2.09375 -9.859375l1.5 0l1.140625 6.28125zm17.070572 -1.53125l-6.96875 0l0 -1.390625l6.96875 0l0 1.390625zm10.235931 3.75q-0.5 0.734375 -1.234375 1.140625q-0.734375 0.40625 -1.703125 0.40625q-0.78125 0 -1.40625 -0.234375q-0.625 -0.25 -1.078125 -0.765625q-0.4375 -0.515625 -0.6875 -1.296875q-0.234375 -0.78125 -0.234375 -1.890625l0 -5.859375l1.6875 0l0 5.875q0 0.8125 0.125 1.34375q0.125 0.515625 0.375 0.828125q0.265625 0.3125 0.625 0.453125q0.375 0.125 0.859375 0.125q1.03125 0 1.65625 -0.421875q0.640625 -0.421875 0.953125 -1.125l0 -7.078125l1.6875 0l0 9.859375l-1.53125 0l-0.09375 -1.359375zm13.117447 -3.453125q0 1.046875 -0.265625 1.96875q-0.25 0.90625 -0.75 1.59375q-0.484375 0.671875 -1.21875 1.0625q-0.71875 0.375 -1.640625 0.375q-0.90625 0 -1.59375 -0.296875q-0.6875 -0.296875 -1.171875 -0.84375l0 4.75l-1.6875 0l0 -13.65625l1.53125 0l0.09375 1.078125q0.484375 -0.609375 1.171875 -0.921875q0.703125 -0.328125 1.625 -0.328125q0.953125 0 1.671875 0.375q0.734375 0.359375 1.21875 1.03125q0.5 0.65625 0.75 1.59375q0.265625 0.921875 0.265625 2.015625l0 0.203125zm-1.6875 -0.203125q0 -0.71875 -0.171875 -1.359375q-0.15625 -0.65625 -0.484375 -1.15625q-0.328125 -0.5 -0.84375 -0.78125q-0.5 -0.296875 -1.21875 -0.296875q-0.8125 0 -1.359375 0.375q-0.546875 0.375 -0.875 0.96875l0 4.75q0.328125 0.578125 0.875 0.953125q0.546875 0.375 1.375 0.375q0.703125 0 1.203125 -0.296875q0.515625 -0.296875 0.84375 -0.796875q0.328125 -0.5 0.484375 -1.15625q0.171875 -0.65625 0.171875 -1.375l0 -0.203125zm4.242447 0q0 -1.09375 0.28125 -2.015625q0.28125 -0.9375 0.78125 -1.59375q0.515625 -0.671875 1.25 -1.03125q0.734375 -0.375 1.625 -0.375q0.890625 0 1.546875 0.296875q0.671875 0.28125 1.140625 0.859375l0 -5.125l1.6875 0l0 14.0l-1.546875 0l-0.0625 -1.03125q-0.5 0.59375 -1.1875 0.90625q-0.671875 0.3125 -1.59375 0.3125q-0.890625 0 -1.625 -0.375q-0.71875 -0.390625 -1.234375 -1.0625q-0.5 -0.6875 -0.78125 -1.59375q-0.28125 -0.921875 -0.28125 -1.96875l0 -0.203125zm1.6875 0.203125q0 0.71875 0.15625 1.359375q0.15625 0.640625 0.46875 1.140625q0.328125 0.484375 0.828125 0.78125q0.5 0.28125 1.203125 0.28125q0.4375 0 0.78125 -0.09375q0.34375 -0.109375 0.625 -0.296875q0.28125 -0.1875 0.5 -0.4375q0.21875 -0.265625 0.375 -0.578125l0 -4.578125q-0.328125 -0.59375 -0.890625 -0.984375q-0.546875 -0.390625 -1.375 -0.390625q-0.703125 0 -1.21875 0.296875q-0.5 0.28125 -0.828125 0.78125q-0.3125 0.5 -0.46875 1.15625q-0.15625 0.640625 -0.15625 1.359375l0 0.203125zm16.304947 4.8125q-0.09375 -0.1875 -0.15625 -0.46875q-0.0625 -0.296875 -0.09375 -0.609375q-0.25 0.265625 -0.5625 0.5q-0.3125 0.21875 -0.703125 0.390625q-0.375 0.171875 -0.8125 0.265625q-0.421875 0.109375 -0.890625 0.109375q-0.796875 0 -1.4375 -0.21875q-0.625 -0.234375 -1.0625 -0.625q-0.4375 -0.390625 -0.6875 -0.921875q-0.234375 -0.53125 -0.234375 -1.15625q0 -0.8125 0.3125 -1.421875q0.328125 -0.609375 0.921875 -1.015625q0.59375 -0.40625 1.421875 -0.59375q0.84375 -0.203125 1.875 -0.203125l1.828125 0l0 -0.78125q0 -0.453125 -0.171875 -0.796875q-0.15625 -0.359375 -0.453125 -0.609375q-0.296875 -0.25 -0.734375 -0.390625q-0.421875 -0.140625 -0.96875 -0.140625q-0.5 0 -0.90625 0.140625q-0.390625 0.125 -0.671875 0.34375q-0.265625 0.203125 -0.421875 0.484375q-0.140625 0.28125 -0.140625 0.59375l-1.6875 0q0 -0.53125 0.265625 -1.046875q0.28125 -0.53125 0.78125 -0.9375q0.5 -0.421875 1.21875 -0.671875q0.734375 -0.25 1.65625 -0.25q0.84375 0 1.5625 0.203125q0.71875 0.203125 1.234375 0.625q0.53125 0.40625 0.828125 1.03125q0.296875 0.609375 0.296875 1.4375l0 4.578125q0 0.5 0.09375 1.046875q0.09375 0.546875 0.25 0.96875l0 0.140625l-1.75 0zm-2.984375 -1.28125q0.5 0 0.921875 -0.125q0.4375 -0.140625 0.78125 -0.34375q0.34375 -0.203125 0.59375 -0.46875q0.265625 -0.28125 0.40625 -0.5625l0 -2.0l-1.5625 0q-1.46875 0 -2.296875 0.4375q-0.8125 0.4375 -0.8125 1.375q0 0.359375 0.125 0.671875q0.125 0.3125 0.359375 0.53125q0.25 0.21875 0.625 0.359375q0.375 0.125 0.859375 0.125zm11.695572 -10.96875l0 2.390625l3.75 0l0 1.3125l-3.75 0l0 5.34375q0 0.578125 0.140625 0.953125q0.140625 0.375 0.390625 0.59375q0.265625 0.21875 0.59375 0.3125q0.34375 0.09375 0.71875 0.09375q0.265625 0 0.546875 -0.03125q0.296875 -0.03125 0.578125 -0.078125q0.28125 -0.046875 0.515625 -0.09375q0.25 -0.046875 0.40625 -0.09375l0.234375 1.203125q-0.21875 0.125 -0.515625 0.21875q-0.296875 0.09375 -0.65625 0.15625q-0.34375 0.078125 -0.75 0.109375q-0.390625 0.046875 -0.78125 0.046875q-0.65625 0 -1.234375 -0.1875q-0.5625 -0.1875 -0.984375 -0.59375q-0.421875 -0.40625 -0.671875 -1.046875q-0.234375 -0.640625 -0.234375 -1.5625l0 -5.34375l-2.578125 0l0 -1.3125l2.578125 0l0 -2.390625l1.703125 0zm11.554947 12.4375q-1.03125 0 -1.90625 -0.359375q-0.875 -0.359375 -1.5 -0.984375q-0.609375 -0.640625 -0.953125 -1.515625q-0.34375 -0.875 -0.34375 -1.90625l0 -0.390625q0 -1.1875 0.375 -2.125q0.390625 -0.953125 1.015625 -1.59375q0.640625 -0.65625 1.4375 -1.0q0.8125 -0.34375 1.65625 -0.34375q1.0625 0 1.859375 0.375q0.796875 0.359375 1.328125 1.015625q0.53125 0.640625 0.78125 1.53125q0.265625 0.875 0.265625 1.90625l0 0.75l-7.03125 0q0.015625 0.6875 0.25 1.28125q0.234375 0.578125 0.640625 1.03125q0.40625 0.4375 0.96875 0.703125q0.5625 0.25 1.25 0.25q0.90625 0 1.59375 -0.359375q0.703125 -0.375 1.171875 -0.96875l1.03125 0.796875q-0.25 0.375 -0.625 0.71875q-0.359375 0.328125 -0.84375 0.59375q-0.484375 0.265625 -1.09375 0.421875q-0.609375 0.171875 -1.328125 0.171875zm-0.21875 -8.84375q-0.515625 0 -0.96875 0.1875q-0.453125 0.1875 -0.8125 0.546875q-0.359375 0.359375 -0.625 0.890625q-0.25 0.515625 -0.34375 1.203125l5.296875 0l0 -0.125q-0.015625 -0.5 -0.1875 -0.984375q-0.15625 -0.484375 -0.46875 -0.859375q-0.296875 -0.390625 -0.765625 -0.625q-0.46875 -0.234375 -1.125 -0.234375z" fill-rule="nonzero"/><path fill="#000000" d="m41.297993 135.35704l1.203125 0q0.640625 0 1.125 -0.171875q0.5 -0.171875 0.828125 -0.46875q0.328125 -0.3125 0.5 -0.734375q0.171875 -0.421875 0.171875 -0.921875q0 -1.15625 -0.59375 -1.734375q-0.59375 -0.59375 -1.71875 -0.59375q-0.546875 0 -0.984375 0.171875q-0.4375 0.15625 -0.765625 0.453125q-0.3125 0.296875 -0.484375 0.71875q-0.171875 0.421875 -0.171875 0.9375l-1.6875 0q0 -0.765625 0.296875 -1.421875q0.296875 -0.671875 0.828125 -1.171875q0.53125 -0.5 1.28125 -0.78125q0.765625 -0.296875 1.6875 -0.296875q0.890625 0 1.625 0.25q0.734375 0.234375 1.265625 0.71875q0.53125 0.46875 0.8125 1.171875q0.296875 0.703125 0.296875 1.625q0 0.375 -0.125 0.796875q-0.109375 0.40625 -0.359375 0.796875q-0.25 0.375 -0.640625 0.71875q-0.375 0.34375 -0.921875 0.5625q0.65625 0.21875 1.078125 0.5625q0.4375 0.328125 0.703125 0.75q0.265625 0.421875 0.359375 0.890625q0.109375 0.453125 0.109375 0.90625q0 0.9375 -0.328125 1.65625q-0.3125 0.71875 -0.875 1.21875q-0.5625 0.484375 -1.34375 0.75q-0.765625 0.265625 -1.65625 0.265625q-0.875 0 -1.640625 -0.25q-0.765625 -0.25 -1.34375 -0.71875q-0.5625 -0.46875 -0.890625 -1.15625q-0.328125 -0.6875 -0.328125 -1.5625l1.6875 0q0 0.515625 0.171875 0.953125q0.171875 0.421875 0.5 0.734375q0.328125 0.296875 0.796875 0.46875q0.46875 0.15625 1.046875 0.15625q0.578125 0 1.03125 -0.15625q0.46875 -0.15625 0.796875 -0.453125q0.328125 -0.3125 0.5 -0.765625q0.1875 -0.46875 0.1875 -1.09375q0 -0.625 -0.203125 -1.078125q-0.203125 -0.453125 -0.578125 -0.75q-0.359375 -0.296875 -0.890625 -0.4375q-0.515625 -0.15625 -1.15625 -0.15625l-1.203125 0l0 -1.359375zm12.164322 6.34375q0 -0.265625 0.078125 -0.5q0.09375 -0.25 0.25 -0.421875q0.171875 -0.1875 0.421875 -0.28125q0.25 -0.09375 0.578125 -0.09375q0.328125 0 0.578125 0.09375q0.25 0.09375 0.40625 0.28125q0.171875 0.171875 0.25 0.421875q0.09375 0.234375 0.09375 0.5q0 0.265625 -0.09375 0.5q-0.078125 0.234375 -0.25 0.40625q-0.15625 0.171875 -0.40625 0.265625q-0.25 0.09375 -0.578125 0.09375q-0.328125 0 -0.578125 -0.09375q-0.25 -0.09375 -0.421875 -0.265625q-0.15625 -0.171875 -0.25 -0.40625q-0.078125 -0.234375 -0.078125 -0.5z" fill-rule="nonzero"/><path fill="#000000" d="m88.67351 138.20079l-1.234375 1.1875l0 3.40625l-1.6875 0l0 -14.0l1.6875 0l0 8.578125l1.109375 -1.1875l3.234375 -3.25l2.046875 0l-4.0 4.109375l4.609375 5.75l-2.140625 0l-3.625 -4.59375zm14.711197 -5.4375q0.234375 0 0.484375 0.015625q0.265625 0 0.484375 0.03125q0.234375 0.03125 0.421875 0.078125q0.203125 0.046875 0.34375 0.109375l-0.234375 1.640625q-0.484375 -0.109375 -0.9375 -0.15625q-0.4375 -0.046875 -0.921875 -0.046875q-1.1875 0 -1.921875 0.546875q-0.734375 0.53125 -1.078125 1.484375l0 6.328125l-1.6875 0l0 -9.859375l1.59375 0l0.09375 1.5625q0.59375 -0.796875 1.4375 -1.265625q0.84375 -0.46875 1.921875 -0.46875zm9.086197 10.21875q-1.03125 0 -1.90625 -0.359375q-0.875 -0.359375 -1.5 -0.984375q-0.609375 -0.640625 -0.953125 -1.515625q-0.34375 -0.875 -0.34375 -1.90625l0 -0.390625q0 -1.1875 0.375 -2.125q0.390625 -0.953125 1.015625 -1.59375q0.640625 -0.65625 1.4375 -1.0q0.8125 -0.34375 1.65625 -0.34375q1.0625 0 1.859375 0.375q0.796875 0.359375 1.328125 1.015625q0.53125 0.640625 0.78125 1.53125q0.265625 0.875 0.265625 1.90625l0 0.75l-7.03125 0q0.015625 0.6875 0.25 1.28125q0.234375 0.578125 0.640625 1.03125q0.40625 0.4375 0.96875 0.703125q0.5625 0.25 1.25 0.25q0.90625 0 1.59375 -0.359375q0.703125 -0.375 1.171875 -0.96875l1.03125 0.796875q-0.25 0.375 -0.625 0.71875q-0.359375 0.328125 -0.84375 0.59375q-0.484375 0.265625 -1.09375 0.421875q-0.609375 0.171875 -1.328125 0.171875zm-0.21875 -8.84375q-0.515625 0 -0.96875 0.1875q-0.453125 0.1875 -0.8125 0.546875q-0.359375 0.359375 -0.625 0.890625q-0.25 0.515625 -0.34375 1.203125l5.296875 0l0 -0.125q-0.015625 -0.5 -0.1875 -0.984375q-0.15625 -0.484375 -0.46875 -0.859375q-0.296875 -0.390625 -0.765625 -0.625q-0.46875 -0.234375 -1.125 -0.234375zm8.554947 5.078125l0.203125 1.421875l0.25 -1.421875l1.5625 -6.28125l1.09375 0l1.5625 6.28125l0.265625 1.5625l0.25 -1.5625l1.09375 -6.28125l1.484375 0l-2.09375 9.859375l-1.328125 0l-1.53125 -6.046875l-0.265625 -1.515625l-0.234375 1.515625l-1.53125 6.046875l-1.328125 0l-2.09375 -9.859375l1.5 0l1.140625 6.28125zm17.070572 -1.53125l-6.96875 0l0 -1.390625l6.96875 0l0 1.390625zm10.235931 3.75q-0.5 0.734375 -1.234375 1.140625q-0.734375 0.40625 -1.703125 0.40625q-0.78125 0 -1.40625 -0.234375q-0.625 -0.25 -1.078125 -0.765625q-0.4375 -0.515625 -0.6875 -1.296875q-0.234375 -0.78125 -0.234375 -1.890625l0 -5.859375l1.6875 0l0 5.875q0 0.8125 0.125 1.34375q0.125 0.515625 0.375 0.828125q0.265625 0.3125 0.625 0.453125q0.375 0.125 0.859375 0.125q1.03125 0 1.65625 -0.421875q0.640625 -0.421875 0.953125 -1.125l0 -7.078125l1.6875 0l0 9.859375l-1.53125 0l-0.09375 -1.359375zm13.117447 -3.453125q0 1.046875 -0.265625 1.96875q-0.25 0.90625 -0.75 1.59375q-0.484375 0.671875 -1.21875 1.0625q-0.71875 0.375 -1.640625 0.375q-0.90625 0 -1.59375 -0.296875q-0.6875 -0.296875 -1.171875 -0.84375l0 4.75l-1.6875 0l0 -13.65625l1.53125 0l0.09375 1.078125q0.484375 -0.609375 1.171875 -0.921875q0.703125 -0.328125 1.625 -0.328125q0.953125 0 1.671875 0.375q0.734375 0.359375 1.21875 1.03125q0.5 0.65625 0.75 1.59375q0.265625 0.921875 0.265625 2.015625l0 0.203125zm-1.6875 -0.203125q0 -0.71875 -0.171875 -1.359375q-0.15625 -0.65625 -0.484375 -1.15625q-0.328125 -0.5 -0.84375 -0.78125q-0.5 -0.296875 -1.21875 -0.296875q-0.8125 0 -1.359375 0.375q-0.546875 0.375 -0.875 0.96875l0 4.75q0.328125 0.578125 0.875 0.953125q0.546875 0.375 1.375 0.375q0.703125 0 1.203125 -0.296875q0.515625 -0.296875 0.84375 -0.796875q0.328125 -0.5 0.484375 -1.15625q0.171875 -0.65625 0.171875 -1.375l0 -0.203125zm4.258072 0q0 -1.09375 0.265625 -2.015625q0.265625 -0.9375 0.765625 -1.59375q0.515625 -0.671875 1.25 -1.03125q0.734375 -0.375 1.640625 -0.375q0.921875 0 1.609375 0.328125q0.6875 0.3125 1.171875 0.921875l0.078125 -1.078125l1.53125 0l0 9.65625q0 0.96875 -0.3125 1.71875q-0.296875 0.765625 -0.859375 1.28125q-0.546875 0.53125 -1.3125 0.796875q-0.765625 0.28125 -1.6875 0.28125q-0.390625 0 -0.890625 -0.09375q-0.484375 -0.078125 -0.984375 -0.28125q-0.5 -0.1875 -0.96875 -0.515625q-0.46875 -0.328125 -0.8125 -0.8125l0.875 -1.0q0.3125 0.375 0.640625 0.625q0.328125 0.265625 0.65625 0.421875q0.34375 0.15625 0.671875 0.21875q0.34375 0.0625 0.6875 0.0625q0.59375 0 1.078125 -0.171875q0.484375 -0.171875 0.828125 -0.5q0.34375 -0.328125 0.515625 -0.828125q0.1875 -0.484375 0.1875 -1.125l0 -0.84375q-0.484375 0.5625 -1.15625 0.859375q-0.671875 0.296875 -1.5625 0.296875q-0.890625 0 -1.625 -0.375q-0.734375 -0.390625 -1.234375 -1.0625q-0.5 -0.6875 -0.78125 -1.59375q-0.265625 -0.921875 -0.265625 -1.96875l0 -0.203125zm1.671875 0.203125q0 0.71875 0.15625 1.359375q0.15625 0.640625 0.46875 1.140625q0.328125 0.484375 0.828125 0.78125q0.5 0.28125 1.203125 0.28125q0.4375 0 0.78125 -0.09375q0.359375 -0.109375 0.640625 -0.296875q0.28125 -0.203125 0.5 -0.46875q0.21875 -0.265625 0.375 -0.578125l0 -4.515625q-0.15625 -0.3125 -0.375 -0.5625q-0.21875 -0.265625 -0.515625 -0.453125q-0.28125 -0.1875 -0.625 -0.28125q-0.34375 -0.109375 -0.765625 -0.109375q-0.703125 0 -1.21875 0.296875q-0.5 0.28125 -0.828125 0.78125q-0.3125 0.5 -0.46875 1.15625q-0.15625 0.640625 -0.15625 1.359375l0 0.203125zm16.289322 -5.21875q0.234375 0 0.484375 0.015625q0.265625 0 0.484375 0.03125q0.234375 0.03125 0.421875 0.078125q0.203125 0.046875 0.34375 0.109375l-0.234375 1.640625q-0.484375 -0.109375 -0.9375 -0.15625q-0.4375 -0.046875 -0.921875 -0.046875q-1.1875 0 -1.921875 0.546875q-0.734375 0.53125 -1.078125 1.484375l0 6.328125l-1.6875 0l0 -9.859375l1.59375 0l0.09375 1.5625q0.59375 -0.796875 1.4375 -1.265625q0.84375 -0.46875 1.921875 -0.46875zm11.211197 10.03125q-0.09375 -0.1875 -0.15625 -0.46875q-0.0625 -0.296875 -0.09375 -0.609375q-0.25 0.265625 -0.5625 0.5q-0.3125 0.21875 -0.703125 0.390625q-0.375 0.171875 -0.8125 0.265625q-0.421875 0.109375 -0.890625 0.109375q-0.796875 0 -1.4375 -0.21875q-0.625 -0.234375 -1.0625 -0.625q-0.4375 -0.390625 -0.6875 -0.921875q-0.234375 -0.53125 -0.234375 -1.15625q0 -0.8125 0.3125 -1.421875q0.328125 -0.609375 0.921875 -1.015625q0.59375 -0.40625 1.421875 -0.59375q0.84375 -0.203125 1.875 -0.203125l1.828125 0l0 -0.78125q0 -0.453125 -0.171875 -0.796875q-0.15625 -0.359375 -0.453125 -0.609375q-0.296875 -0.25 -0.734375 -0.390625q-0.421875 -0.140625 -0.96875 -0.140625q-0.5 0 -0.90625 0.140625q-0.390625 0.125 -0.671875 0.34375q-0.265625 0.203125 -0.421875 0.484375q-0.140625 0.28125 -0.140625 0.59375l-1.6875 0q0 -0.53125 0.265625 -1.046875q0.28125 -0.53125 0.78125 -0.9375q0.5 -0.421875 1.21875 -0.671875q0.734375 -0.25 1.65625 -0.25q0.84375 0 1.5625 0.203125q0.71875 0.203125 1.234375 0.625q0.53125 0.40625 0.828125 1.03125q0.296875 0.609375 0.296875 1.4375l0 4.578125q0 0.5 0.09375 1.046875q0.09375 0.546875 0.25 0.96875l0 0.140625l-1.75 0zm-2.984375 -1.28125q0.5 0 0.921875 -0.125q0.4375 -0.140625 0.78125 -0.34375q0.34375 -0.203125 0.59375 -0.46875q0.265625 -0.28125 0.40625 -0.5625l0 -2.0l-1.5625 0q-1.46875 0 -2.296875 0.4375q-0.8125 0.4375 -0.8125 1.375q0 0.359375 0.125 0.671875q0.125 0.3125 0.359375 0.53125q0.25 0.21875 0.625 0.359375q0.375 0.125 0.859375 0.125zm7.383072 -3.734375q0 -1.09375 0.28125 -2.015625q0.28125 -0.9375 0.78125 -1.59375q0.515625 -0.671875 1.25 -1.03125q0.734375 -0.375 1.625 -0.375q0.890625 0 1.546875 0.296875q0.671875 0.28125 1.140625 0.859375l0 -5.125l1.6875 0l0 14.0l-1.546875 0l-0.0625 -1.03125q-0.5 0.59375 -1.1875 0.90625q-0.671875 0.3125 -1.59375 0.3125q-0.890625 0 -1.625 -0.375q-0.71875 -0.390625 -1.234375 -1.0625q-0.5 -0.6875 -0.78125 -1.59375q-0.28125 -0.921875 -0.28125 -1.96875l0 -0.203125zm1.6875 0.203125q0 0.71875 0.15625 1.359375q0.15625 0.640625 0.46875 1.140625q0.328125 0.484375 0.828125 0.78125q0.5 0.28125 1.203125 0.28125q0.4375 0 0.78125 -0.09375q0.34375 -0.109375 0.625 -0.296875q0.28125 -0.1875 0.5 -0.4375q0.21875 -0.265625 0.375 -0.578125l0 -4.578125q-0.328125 -0.59375 -0.890625 -0.984375q-0.546875 -0.390625 -1.375 -0.390625q-0.703125 0 -1.21875 0.296875q-0.5 0.28125 -0.828125 0.78125q-0.3125 0.5 -0.46875 1.15625q-0.15625 0.640625 -0.15625 1.359375l0 0.203125zm14.179947 5.0q-1.03125 0 -1.90625 -0.359375q-0.875 -0.359375 -1.5 -0.984375q-0.609375 -0.640625 -0.953125 -1.515625q-0.34375 -0.875 -0.34375 -1.90625l0 -0.390625q0 -1.1875 0.375 -2.125q0.390625 -0.953125 1.015625 -1.59375q0.640625 -0.65625 1.4375 -1.0q0.8125 -0.34375 1.65625 -0.34375q1.0625 0 1.859375 0.375q0.796875 0.359375 1.328125 1.015625q0.53125 0.640625 0.78125 1.53125q0.265625 0.875 0.265625 1.90625l0 0.75l-7.03125 0q0.015625 0.6875 0.25 1.28125q0.234375 0.578125 0.640625 1.03125q0.40625 0.4375 0.96875 0.703125q0.5625 0.25 1.25 0.25q0.90625 0 1.59375 -0.359375q0.703125 -0.375 1.171875 -0.96875l1.03125 0.796875q-0.25 0.375 -0.625 0.71875q-0.359375 0.328125 -0.84375 0.59375q-0.484375 0.265625 -1.09375 0.421875q-0.609375 0.171875 -1.328125 0.171875zm-0.21875 -8.84375q-0.515625 0 -0.96875 0.1875q-0.453125 0.1875 -0.8125 0.546875q-0.359375 0.359375 -0.625 0.890625q-0.25 0.515625 -0.34375 1.203125l5.296875 0l0 -0.125q-0.015625 -0.5 -0.1875 -0.984375q-0.15625 -0.484375 -0.46875 -0.859375q-0.296875 -0.390625 -0.765625 -0.625q-0.46875 -0.234375 -1.125 -0.234375zm21.203644 4.0625l-1.234375 1.1875l0 3.40625l-1.6875 0l0 -14.0l1.6875 0l0 8.578125l1.109375 -1.1875l3.234375 -3.25l2.046875 0l-4.0 4.109375l4.609375 5.75l-2.140625 0l-3.625 -4.59375zm14.711197 -5.4375q0.234375 0 0.484375 0.015625q0.265625 0 0.484375 0.03125q0.234375 0.03125 0.421875 0.078125q0.203125 0.046875 0.34375 0.109375l-0.234375 1.640625q-0.484375 -0.109375 -0.9375 -0.15625q-0.4375 -0.046875 -0.921875 -0.046875q-1.1875 0 -1.921875 0.546875q-0.734375 0.53125 -1.078125 1.484375l0 6.328125l-1.6875 0l0 -9.859375l1.59375 0l0.09375 1.5625q0.59375 -0.796875 1.4375 -1.265625q0.84375 -0.46875 1.921875 -0.46875zm9.086212 10.21875q-1.03125 0 -1.90625 -0.359375q-0.87501526 -0.359375 -1.5000153 -0.984375q-0.609375 -0.640625 -0.953125 -1.515625q-0.34375 -0.875 -0.34375 -1.90625l0 -0.390625q0 -1.1875 0.375 -2.125q0.390625 -0.953125 1.015625 -1.59375q0.640625 -0.65625 1.4375153 -1.0q0.8125 -0.34375 1.65625 -0.34375q1.0625 0 1.859375 0.375q0.796875 0.359375 1.328125 1.015625q0.53125 0.640625 0.78125 1.53125q0.265625 0.875 0.265625 1.90625l0 0.75l-7.0312653 0q0.015625 0.6875 0.25 1.28125q0.234375 0.578125 0.640625 1.03125q0.40626526 0.4375 0.96876526 0.703125q0.5625 0.25 1.25 0.25q0.90625 0 1.59375 -0.359375q0.703125 -0.375 1.171875 -0.96875l1.03125 0.796875q-0.25 0.375 -0.625 0.71875q-0.359375 0.328125 -0.84375 0.59375q-0.484375 0.265625 -1.09375 0.421875q-0.609375 0.171875 -1.328125 0.171875zm-0.21875 -8.84375q-0.515625 0 -0.96875 0.1875q-0.453125 0.1875 -0.8125 0.546875q-0.35939026 0.359375 -0.62501526 0.890625q-0.25 0.515625 -0.34375 1.203125l5.2968903 0l0 -0.125q-0.015625 -0.5 -0.1875 -0.984375q-0.15625 -0.484375 -0.46875 -0.859375q-0.296875 -0.390625 -0.765625 -0.625q-0.46875 -0.234375 -1.125 -0.234375zm8.554932 5.078125l0.203125 1.421875l0.25 -1.421875l1.5625 -6.28125l1.09375 0l1.5625 6.28125l0.265625 1.5625l0.25 -1.5625l1.09375 -6.28125l1.484375 0l-2.09375 9.859375l-1.328125 0l-1.53125 -6.046875l-0.265625 -1.515625l-0.234375 1.515625l-1.53125 6.046875l-1.328125 0l-2.09375 -9.859375l1.5 0l1.140625 6.28125z" fill-rule="nonzero"/><path fill="#000000" fill-opacity="0.0" d="m564.2441 149.03937l181.7638 -44.566925" fill-rule="evenodd"/><path stroke="#000000" stroke-width="1.0" stroke-linejoin="round" stroke-linecap="butt" d="m564.2441 149.03937l175.93634 -43.1381" fill-rule="evenodd"/><path fill="#000000" stroke="#000000" stroke-width="1.0" stroke-linecap="butt" d="m740.57385 107.50548l4.01416 -2.684906l-4.8008423 -0.5235214z" fill-rule="evenodd"/><path fill="#f1c232" d="m992.68506 84.82434l0 0c0 -5.4301834 4.4020386 -9.832214 9.832214 -9.832214l204.65045 0c2.607666 0 5.1086426 1.0358887 6.9525146 2.8797913c1.8438721 1.843895 2.8797607 4.344757 2.8797607 6.952423l0 39.32769c0 5.4301834 -4.4019775 9.832222 -9.832275 9.832222l-204.65045 0c-5.430176 0 -9.832214 -4.4020386 -9.832214 -9.832222z" fill-rule="evenodd"/><path stroke="#000000" stroke-width="1.0" stroke-linejoin="round" stroke-linecap="butt" d="m992.68506 84.82434l0 0c0 -5.4301834 4.4020386 -9.832214 9.832214 -9.832214l204.65045 0c2.607666 0 5.1086426 1.0358887 6.9525146 2.8797913c1.8438721 1.843895 2.8797607 4.344757 2.8797607 6.952423l0 39.32769c0 5.4301834 -4.4019775 9.832222 -9.832275 9.832222l-204.65045 0c-5.430176 0 -9.832214 -4.4020386 -9.832214 -9.832222z" fill-rule="evenodd"/><path fill="#000000" d="m1006.1742 105.93251l-1.453125 0l5.546875 -14.40625l1.4375 0l-5.53125 14.40625zm13.094666 -3.75q0 -0.6875 -0.515625 -1.0625q-0.515625 -0.375 -1.796875 -0.640625q-1.28125 -0.28125 -2.03125 -0.65625q-0.75 -0.390625 -1.109375 -0.921875q-0.359375 -0.53125 -0.359375 -1.265625q0 -1.203125 1.015625 -2.03125q1.03125 -0.84375 2.625 -0.84375q1.671875 0 2.71875 0.859375q1.046875 0.859375 1.046875 2.21875l-1.6875 0q0 -0.703125 -0.59375 -1.203125q-0.59375 -0.5 -1.484375 -0.5q-0.921875 0 -1.4375 0.40625q-0.515625 0.390625 -0.515625 1.046875q0 0.609375 0.484375 0.921875q0.484375 0.3125 1.734375 0.59375q1.265625 0.28125 2.046875 0.671875q0.78125 0.390625 1.15625 0.9375q0.390625 0.546875 0.390625 1.34375q0 1.328125 -1.0625 2.125q-1.046875 0.796875 -2.734375 0.796875q-1.1875 0 -2.109375 -0.421875q-0.90625 -0.421875 -1.421875 -1.171875q-0.515625 -0.75 -0.515625 -1.625l1.6875 0q0.046875 0.84375 0.671875 1.34375q0.640625 0.5 1.6875 0.5q0.953125 0 1.53125 -0.390625q0.578125 -0.390625 0.578125 -1.03125zm6.166443 -9.640625l0 2.390625l1.84375 0l0 1.3125l-1.84375 0l0 6.109375q0 0.59375 0.234375 0.890625q0.25 0.296875 0.84375 0.296875q0.296875 0 0.8125 -0.109375l0 1.359375q-0.671875 0.1875 -1.296875 0.1875q-1.125 0 -1.703125 -0.6875q-0.57806396 -0.6875 -0.57806396 -1.9375l0 -6.109375l-1.796875 0l0 -1.3125l1.796875 0l0 -2.390625l1.687439 0zm3.3598633 7.234375q0 -1.453125 0.5625 -2.609375q0.578125 -1.15625 1.59375 -1.78125q1.015625 -0.625 2.3125 -0.625q2.015625 0 3.25 1.390625q1.25 1.390625 1.25 3.703125l0 0.125q0 1.4375 -0.546875 2.578125q-0.546875 1.140625 -1.578125 1.78125q-1.015625 0.640625 -2.359375 0.640625q-2.0 0 -3.25 -1.390625q-1.234375 -1.40625 -1.234375 -3.703125l0 -0.109375zm1.6875 0.203125q0 1.640625 0.765625 2.640625q0.765625 0.984375 2.03125 0.984375q1.296875 0 2.046875 -1.0q0.75 -1.015625 0.75 -2.828125q0 -1.625 -0.765625 -2.625q-0.765625 -1.015625 -2.046875 -1.015625q-1.25 0 -2.015625 1.0q-0.765625 0.984375 -0.765625 2.84375zm14.171143 -3.53125q-0.390625 -0.0625 -0.84375 -0.0625q-1.65625 0 -2.25 1.40625l0 7.0l-1.671875 0l0 -9.859375l1.640625 0l0.015625 1.140625q0.828125 -1.3125 2.359375 -1.3125q0.484375 0 0.75 0.125l0 1.5625zm5.6254883 8.53125q-2.0 0 -3.265625 -1.3125q-1.25 -1.328125 -1.25 -3.53125l0 -0.3125q0 -1.46875 0.5625 -2.609375q0.5625 -1.15625 1.5625 -1.796875q1.015625 -0.65625 2.1875 -0.65625q1.921875 0 2.984375 1.265625q1.0625 1.265625 1.0625 3.625l0 0.6875l-6.671875 0q0.03125 1.46875 0.84375 2.375q0.828125 0.890625 2.078125 0.890625q0.890625 0 1.515625 -0.359375q0.625 -0.375 1.078125 -0.96875l1.03125 0.796875q-1.234375 1.90625 -3.71875 1.90625zm-0.203125 -8.84375q-1.015625 0 -1.71875 0.75q-0.6875 0.734375 -0.84375 2.078125l4.9375 0l0 -0.125q-0.078125 -1.28125 -0.703125 -1.984375q-0.609375 -0.71875 -1.671875 -0.71875zm6.336914 9.796875l-1.453125 0l5.546875 -14.40625l1.4375 0l-5.53125 14.40625zm10.1102295 -5.703125l-1.0625 1.09375l0 3.46875l-1.6875 0l0 -14.0l1.6875 0l0 8.46875l0.90625 -1.078125l3.0625 -3.25l2.046875 0l-3.828125 4.125l4.28125 5.734375l-1.984375 0l-3.421875 -4.5625zm11.471313 -3.78125q-0.390625 -0.0625 -0.84375 -0.0625q-1.65625 0 -2.25 1.40625l0 7.0l-1.671875 0l0 -9.859375l1.640625 0l0.015625 1.140625q0.828125 -1.3125 2.359375 -1.3125q0.484375 0 0.75 0.125l0 1.5625zm5.625366 8.53125q-2.0 0 -3.265625 -1.3125q-1.25 -1.328125 -1.25 -3.53125l0 -0.3125q0 -1.46875 0.5625 -2.609375q0.5625 -1.15625 1.5625 -1.796875q1.015625 -0.65625 2.1875 -0.65625q1.921875 0 2.984375 1.265625q1.0625 1.265625 1.0625 3.625l0 0.6875l-6.671875 0q0.03125 1.46875 0.84375 2.375q0.828125 0.890625 2.078125 0.890625q0.890625 0 1.515625 -0.359375q0.625 -0.375 1.078125 -0.96875l1.03125 0.796875q-1.234375 1.90625 -3.71875 1.90625zm-0.203125 -8.84375q-1.015625 0 -1.71875 0.75q-0.6875 0.734375 -0.84375 2.078125l4.9375 0l0 -0.125q-0.078125 -1.28125 -0.703125 -1.984375q-0.609375 -0.71875 -1.671875 -0.71875zm14.727539 6.328125l1.890625 -7.53125l1.6875 0l-2.859375 9.859375l-1.375 0l-2.390625 -7.46875l-2.328125 7.46875l-1.375 0l-2.859375 -9.859375l1.671875 0l1.953125 7.375l2.28125 -7.375l1.359375 0l2.34375 7.53125zm5.6289062 3.46875l-1.453125 0l5.546875 -14.40625l1.4375 0l-5.53125 14.40625zm8.485352 -7.0l5.703125 2.296875l0 1.78125l-7.453125 -3.453125l0 -1.328125l7.453125 -3.4375l0 1.78125l-5.703125 2.359375zm14.092285 3.25q0 -0.6875 -0.515625 -1.0625q-0.515625 -0.375 -1.796875 -0.640625q-1.28125 -0.28125 -2.03125 -0.65625q-0.75 -0.390625 -1.109375 -0.921875q-0.359375 -0.53125 -0.359375 -1.265625q0 -1.203125 1.015625 -2.03125q1.03125 -0.84375 2.625 -0.84375q1.671875 0 2.71875 0.859375q1.046875 0.859375 1.046875 2.21875l-1.6875 0q0 -0.703125 -0.59375 -1.203125q-0.59375 -0.5 -1.484375 -0.5q-0.921875 0 -1.4375 0.40625q-0.515625 0.390625 -0.515625 1.046875q0 0.609375 0.484375 0.921875q0.484375 0.3125 1.734375 0.59375q1.265625 0.28125 2.046875 0.671875q0.78125 0.390625 1.15625 0.9375q0.390625 0.546875 0.390625 1.34375q0 1.328125 -1.0625 2.125q-1.046875 0.796875 -2.734375 0.796875q-1.1875 0 -2.109375 -0.421875q-0.90625 -0.421875 -1.421875 -1.171875q-0.515625 -0.75 -0.515625 -1.625l1.6875 0q0.046875 0.84375 0.671875 1.34375q0.640625 0.5 1.6875 0.5q0.953125 0 1.53125 -0.390625q0.578125 -0.390625 0.578125 -1.03125zm5.557129 -6.046875q1.125 -1.375 2.921875 -1.375q3.125 0 3.15625 3.515625l0 6.515625l-1.6875 0l0 -6.515625q-0.015625 -1.078125 -0.5 -1.578125q-0.46875 -0.515625 -1.484375 -0.515625q-0.8125 0 -1.4375 0.4375q-0.609375 0.4375 -0.96875 1.15625l0 7.015625l-1.671875 0l0 -14.0l1.671875 0l0 5.34375zm14.681763 8.65625q-0.140625 -0.296875 -0.234375 -1.03125q-1.171875 1.21875 -2.8125 1.21875q-1.453125 0 -2.390625 -0.828125q-0.921875 -0.828125 -0.921875 -2.09375q0 -1.53125 1.15625 -2.375q1.171875 -0.859375 3.296875 -0.859375l1.640625 0l0 -0.78125q0 -0.890625 -0.53125 -1.40625q-0.515625 -0.53125 -1.546875 -0.53125q-0.90625 0 -1.515625 0.46875q-0.609375 0.453125 -0.609375 1.09375l-1.703125 0q0 -0.734375 0.515625 -1.421875q0.53125 -0.6875 1.421875 -1.078125q0.90625 -0.40625 1.984375 -0.40625q1.703125 0 2.671875 0.859375q0.96875 0.84375 1.0 2.328125l0 4.53125q0 1.359375 0.34375 2.171875l0 0.140625l-1.765625 0zm-2.796875 -1.28125q0.796875 0 1.5 -0.40625q0.71875 -0.421875 1.03125 -1.078125l0 -2.015625l-1.3125 0q-3.109375 0 -3.109375 1.8125q0 0.796875 0.53125 1.25q0.53125 0.4375 1.359375 0.4375zm15.382324 1.28125l-8.6875 0l0 -1.21875l4.578125 -5.09375q1.03125 -1.15625 1.40625 -1.875q0.390625 -0.734375 0.390625 -1.5q0 -1.046875 -0.625 -1.703125q-0.625 -0.671875 -1.671875 -0.671875q-1.265625 0 -1.96875 0.71875q-0.6875 0.71875 -0.6875 1.984375l-1.6875 0q0 -1.828125 1.171875 -2.953125q1.1875 -1.140625 3.171875 -1.140625q1.84375 0 2.921875 0.984375q1.078125 0.96875 1.078125 2.578125q0 1.953125 -2.5 4.65625l-3.546875 3.859375l6.65625 0l0 1.375zm2.5540771 -6.65625l0.671875 -6.609375l6.796875 0l0 1.5625l-5.359375 0l-0.40625 3.609375q0.984375 -0.5625 2.21875 -0.5625q1.8125 0 2.875 1.203125q1.0625 1.1875 1.0625 3.21875q0 2.0625 -1.109375 3.25q-1.09375 1.171875 -3.09375 1.171875q-1.75 0 -2.859375 -0.96875q-1.109375 -0.984375 -1.265625 -2.703125l1.59375 0q0.15625 1.140625 0.8125 1.71875q0.65625 0.578125 1.71875 0.578125q1.1875 0 1.84375 -0.796875q0.671875 -0.8125 0.671875 -2.21875q0 -1.328125 -0.71875 -2.140625q-0.71875 -0.8125 -1.921875 -0.8125q-1.109375 0 -1.734375 0.484375l-0.453125 0.375l-1.34375 -0.359375zm16.319702 -6.609375l0 1.421875l-0.3125 0q-1.96875 0.03125 -3.140625 1.171875q-1.15625 1.125 -1.34375 3.171875q1.046875 -1.203125 2.859375 -1.203125q1.734375 0 2.765625 1.21875q1.03125 1.21875 1.03125 3.15625q0 2.046875 -1.125 3.28125q-1.109375 1.234375 -2.984375 1.234375q-1.890625 0 -3.078125 -1.453125q-1.1875 -1.46875 -1.1875 -3.78125l0 -0.640625q0 -3.671875 1.5625 -5.609375q1.5625 -1.9375 4.65625 -1.96875l0.296875 0zm-2.21875 5.96875q-0.859375 0 -1.59375 0.515625q-0.734375 0.515625 -1.015625 1.3125l0 0.609375q0 1.640625 0.734375 2.640625q0.75 1.0 1.84375 1.0q1.140625 0 1.796875 -0.828125q0.65625 -0.84375 0.65625 -2.203125q0 -1.359375 -0.671875 -2.203125q-0.65625 -0.84375 -1.75 -0.84375zm12.210327 1.375l-6.015625 -2.359375l0 -1.734375l7.78125 3.453125l0 1.328125l-7.78125 3.453125l0 -1.75l6.015625 -2.390625zm4.1220703 7.0625l-1.453125 0l5.546875 -14.40625l1.4375 0l-5.53125 14.40625z" fill-rule="nonzero"/><path fill="#000000" d="m1005.8773 125.90126q0 -0.4375 0.25 -0.71875q0.265625 -0.296875 0.78125 -0.296875q0.53125 0 0.796875 0.296875q0.265625 0.28125 0.265625 0.71875q0 0.421875 -0.265625 0.703125q-0.265625 0.28125 -0.796875 0.28125q-0.515625 0 -0.78125 -0.28125q-0.25 -0.28125 -0.25 -0.703125zm4.909973 0q0 -0.4375 0.25 -0.71875q0.265625 -0.296875 0.78125 -0.296875q0.53125 0 0.796875 0.296875q0.265625 0.28125 0.265625 0.71875q0 0.421875 -0.265625 0.703125q-0.265625 0.28125 -0.796875 0.28125q-0.515625 0 -0.78125 -0.28125q-0.25 -0.28125 -0.25 -0.703125zm4.910034 0q0 -0.4375 0.25 -0.71875q0.265625 -0.296875 0.78125 -0.296875q0.53125 0 0.796875 0.296875q0.265625 0.28125 0.265625 0.71875q0 0.421875 -0.265625 0.703125q-0.265625 0.28125 -0.796875 0.28125q-0.515625 0 -0.78125 -0.28125q-0.25 -0.28125 -0.25 -0.703125z" fill-rule="nonzero"/><path fill="#000000" fill-opacity="0.0" d="m855.3228 104.48819l137.35437 0" fill-rule="evenodd"/><path stroke="#000000" stroke-width="1.0" stroke-linejoin="round" stroke-linecap="butt" d="m855.3228 104.48819l131.35437 0" fill-rule="evenodd"/><path fill="#000000" stroke="#000000" stroke-width="1.0" stroke-linecap="butt" d="m986.6772 106.13992l4.538086 -1.6517334l-4.538086 -1.6517334z" fill-rule="evenodd"/><path fill="#b6d7a8" d="m888.3779 127.98425l94.01575 0l0 34.015747l-94.01575 0z" fill-rule="evenodd"/><path stroke="#000000" stroke-width="1.0" stroke-linejoin="round" stroke-linecap="butt" d="m888.3779 127.98425l94.01575 0l0 34.015747l-94.01575 0z" fill-rule="evenodd"/><path fill="#000000" d="m908.71484 151.91212l0 -1.421875q-1.125 1.640625 -3.0625 1.640625q-0.859375 0 -1.609375 -0.328125q-0.734375 -0.328125 -1.09375 -0.828125q-0.359375 -0.5 -0.5 -1.21875q-0.109375 -0.46875 -0.109375 -1.53125l0 -5.984375l1.640625 0l0 5.359375q0 1.28125 0.109375 1.734375q0.15625 0.640625 0.65625 1.015625q0.5 0.375 1.234375 0.375q0.734375 0 1.375 -0.375q0.65625 -0.390625 0.921875 -1.03125q0.265625 -0.65625 0.265625 -1.890625l0 -5.1875l1.640625 0l0 9.671875l-1.46875 0zm4.0476074 3.703125l0 -13.375l1.484375 0l0 1.25q0.53125 -0.734375 1.1875 -1.09375q0.671875 -0.375 1.625 -0.375q1.234375 0 2.171875 0.640625q0.953125 0.625 1.4375 1.796875q0.484375 1.15625 0.484375 2.546875q0 1.484375 -0.53125 2.671875q-0.53125 1.1875 -1.546875 1.828125q-1.015625 0.625 -2.140625 0.625q-0.8125 0 -1.46875 -0.34375q-0.65625 -0.34375 -1.0625 -0.875l0 4.703125l-1.640625 0zm1.484375 -8.484375q0 1.859375 0.75 2.765625q0.765625 0.890625 1.828125 0.890625q1.09375 0 1.875 -0.921875q0.78125 -0.9375 0.78125 -2.875q0 -1.84375 -0.765625 -2.765625q-0.75 -0.921875 -1.8125 -0.921875q-1.046875 0 -1.859375 0.984375q-0.796875 0.96875 -0.796875 2.84375zm8.578796 5.578125l1.59375 0.234375q0.109375 0.75 0.5625 1.078125q0.609375 0.453125 1.671875 0.453125q1.140625 0 1.75 -0.453125q0.625 -0.453125 0.84375 -1.265625q0.125 -0.5 0.109375 -2.109375q-1.0625 1.265625 -2.671875 1.265625q-2.0 0 -3.09375 -1.4375q-1.09375 -1.4375 -1.09375 -3.453125q0 -1.390625 0.5 -2.5625q0.515625 -1.171875 1.453125 -1.796875q0.953125 -0.640625 2.25 -0.640625q1.703125 0 2.8125 1.375l0 -1.15625l1.515625 0l0 8.359375q0 2.265625 -0.46875 3.203125q-0.453125 0.9375 -1.453125 1.484375q-0.984375 0.546875 -2.453125 0.546875q-1.71875 0 -2.796875 -0.78125q-1.0625 -0.765625 -1.03125 -2.34375zm1.359375 -5.8125q0 1.90625 0.75 2.78125q0.765625 0.875 1.90625 0.875q1.125 0 1.890625 -0.859375q0.765625 -0.875 0.765625 -2.734375q0 -1.78125 -0.796875 -2.671875q-0.78125 -0.90625 -1.890625 -0.90625q-1.09375 0 -1.859375 0.890625q-0.765625 0.875 -0.765625 2.625zm9.313232 5.015625l0 -9.671875l1.46875 0l0 1.46875q0.5625 -1.03125 1.03125 -1.359375q0.484375 -0.328125 1.0625 -0.328125q0.828125 0 1.6875 0.53125l-0.5625 1.515625q-0.609375 -0.359375 -1.203125 -0.359375q-0.546875 0 -0.96875 0.328125q-0.421875 0.328125 -0.609375 0.890625q-0.28125 0.875 -0.28125 1.921875l0 5.0625l-1.625 0zm12.5408325 -1.1875q-0.921875 0.765625 -1.765625 1.09375q-0.828125 0.3125 -1.796875 0.3125q-1.59375 0 -2.453125 -0.78125q-0.859375 -0.78125 -0.859375 -1.984375q0 -0.71875 0.328125 -1.296875q0.328125 -0.59375 0.84375 -0.9375q0.53125 -0.359375 1.1875 -0.546875q0.46875 -0.125 1.453125 -0.25q1.984375 -0.234375 2.921875 -0.5625q0.015625 -0.34375 0.015625 -0.421875q0 -1.0 -0.46875 -1.421875q-0.625 -0.546875 -1.875 -0.546875q-1.15625 0 -1.703125 0.40625q-0.546875 0.40625 -0.8125 1.421875l-1.609375 -0.21875q0.21875 -1.015625 0.71875 -1.640625q0.5 -0.640625 1.453125 -0.984375q0.953125 -0.34375 2.1875 -0.34375q1.25 0 2.015625 0.296875q0.78125 0.28125 1.140625 0.734375q0.375 0.4375 0.515625 1.109375q0.078125 0.421875 0.078125 1.515625l0 2.1875q0 2.28125 0.109375 2.890625q0.109375 0.59375 0.40625 1.15625l-1.703125 0q-0.265625 -0.515625 -0.328125 -1.1875zm-0.140625 -3.671875q-0.890625 0.375 -2.671875 0.625q-1.015625 0.140625 -1.4375 0.328125q-0.421875 0.1875 -0.65625 0.53125q-0.21875 0.34375 -0.21875 0.78125q0 0.65625 0.5 1.09375q0.5 0.4375 1.453125 0.4375q0.9375 0 1.671875 -0.40625q0.75 -0.421875 1.09375 -1.140625q0.265625 -0.5625 0.265625 -1.640625l0 -0.609375zm10.469421 4.859375l0 -1.21875q-0.90625 1.4375 -2.703125 1.4375q-1.15625 0 -2.125 -0.640625q-0.96875 -0.640625 -1.5 -1.78125q-0.53125 -1.140625 -0.53125 -2.625q0 -1.453125 0.484375 -2.625q0.484375 -1.1875 1.4375 -1.8125q0.96875 -0.625 2.171875 -0.625q0.875 0 1.546875 0.375q0.6875 0.359375 1.109375 0.953125l0 -4.796875l1.640625 0l0 13.359375l-1.53125 0zm-5.171875 -4.828125q0 1.859375 0.78125 2.78125q0.78125 0.921875 1.84375 0.921875q1.078125 0 1.828125 -0.875q0.75 -0.890625 0.75 -2.6875q0 -1.984375 -0.765625 -2.90625q-0.765625 -0.9375 -1.890625 -0.9375q-1.078125 0 -1.8125 0.890625q-0.734375 0.890625 -0.734375 2.8125zm15.906982 1.71875l1.6875 0.203125q-0.40625 1.484375 -1.484375 2.3125q-1.078125 0.8125 -2.765625 0.8125q-2.125 0 -3.375 -1.296875q-1.234375 -1.3125 -1.234375 -3.671875q0 -2.453125 1.25 -3.796875q1.265625 -1.34375 3.265625 -1.34375q1.9375 0 3.15625 1.328125q1.234375 1.3125 1.234375 3.703125q0 0.15625 0 0.4375l-7.21875 0q0.09375 1.59375 0.90625 2.453125q0.8125 0.84375 2.015625 0.84375q0.90625 0 1.546875 -0.46875q0.640625 -0.484375 1.015625 -1.515625zm-5.390625 -2.65625l5.40625 0q-0.109375 -1.21875 -0.625 -1.828125q-0.78125 -0.953125 -2.03125 -0.953125q-1.125 0 -1.90625 0.765625q-0.765625 0.75 -0.84375 2.015625z" fill-rule="nonzero"/><path fill="#000000" fill-opacity="0.0" d="m564.2441 149.03937l324.12598 -4.031494" fill-rule="evenodd"/><path stroke="#000000" stroke-width="1.0" stroke-linejoin="round" stroke-linecap="butt" d="m564.2441 149.03937l318.12646 -3.9568787" fill-rule="evenodd"/><path fill="#000000" stroke="#000000" stroke-width="1.0" stroke-linecap="butt" d="m882.3911 146.7341l4.517151 -1.7080383l-4.5582886 -1.5951691z" fill-rule="evenodd"/><path fill="#b6d7a8" d="m624.98816 99.968506l94.01581 0l0 34.015747l-94.01581 0z" fill-rule="evenodd"/><path stroke="#000000" stroke-width="1.0" stroke-linejoin="round" stroke-linecap="butt" d="m624.98816 99.968506l94.01581 0l0 34.015747l-94.01581 0z" fill-rule="evenodd"/><path fill="#000000" d="m651.0276 123.89638l0 -1.421875q-1.125 1.640625 -3.0625 1.640625q-0.859375 0 -1.609375 -0.328125q-0.734375 -0.328125 -1.09375 -0.828125q-0.359375 -0.5 -0.5 -1.21875q-0.109375 -0.46875 -0.109375 -1.53125l0 -5.984375l1.640625 0l0 5.359375q0 1.28125 0.109375 1.734375q0.15625 0.640625 0.65625 1.015625q0.5 0.375 1.234375 0.375q0.734375 0 1.375 -0.375q0.65625 -0.390625 0.921875 -1.03125q0.265625 -0.65625 0.265625 -1.890625l0 -5.1875l1.640625 0l0 9.671875l-1.46875 0zm4.0476074 3.703125l0 -13.375l1.484375 0l0 1.25q0.53125 -0.734375 1.1875 -1.09375q0.671875 -0.375 1.625 -0.375q1.234375 0 2.171875 0.640625q0.953125 0.625 1.4375 1.796875q0.484375 1.15625 0.484375 2.546875q0 1.484375 -0.53125 2.671875q-0.53125 1.1875 -1.546875 1.828125q-1.015625 0.625 -2.140625 0.625q-0.8125 0 -1.46875 -0.34375q-0.65625 -0.34375 -1.0625 -0.875l0 4.703125l-1.640625 0zm1.484375 -8.484375q0 1.859375 0.75 2.765625q0.765625 0.890625 1.828125 0.890625q1.09375 0 1.875 -0.921875q0.78125 -0.9375 0.78125 -2.875q0 -1.84375 -0.765625 -2.765625q-0.75 -0.921875 -1.8125 -0.921875q-1.046875 0 -1.859375 0.984375q-0.796875 0.96875 -0.796875 2.84375zm15.156982 4.78125l0 -1.21875q-0.90625 1.4375 -2.703125 1.4375q-1.15625 0 -2.125 -0.640625q-0.96875 -0.640625 -1.5 -1.78125q-0.53125 -1.140625 -0.53125 -2.625q0 -1.453125 0.484375 -2.625q0.484375 -1.1875 1.4375 -1.8125q0.96875 -0.625 2.171875 -0.625q0.875 0 1.546875 0.375q0.6875 0.359375 1.109375 0.953125l0 -4.796875l1.640625 0l0 13.359375l-1.53125 0zm-5.171875 -4.828125q0 1.859375 0.78125 2.78125q0.78125 0.921875 1.84375 0.921875q1.078125 0 1.828125 -0.875q0.75 -0.890625 0.75 -2.6875q0 -1.984375 -0.765625 -2.90625q-0.765625 -0.9375 -1.890625 -0.9375q-1.078125 0 -1.8125 0.890625q-0.734375 0.890625 -0.734375 2.8125zm15.594482 3.640625q-0.921875 0.765625 -1.765625 1.09375q-0.828125 0.3125 -1.796875 0.3125q-1.59375 0 -2.453125 -0.78125q-0.859375 -0.78125 -0.859375 -1.984375q0 -0.71875 0.328125 -1.296875q0.328125 -0.59375 0.84375 -0.9375q0.53125 -0.359375 1.1875 -0.546875q0.46875 -0.125 1.453125 -0.25q1.984375 -0.234375 2.921875 -0.5625q0.015625 -0.34375 0.015625 -0.421875q0 -1.0 -0.46875 -1.421875q-0.625 -0.546875 -1.875 -0.546875q-1.15625 0 -1.703125 0.40625q-0.546875 0.40625 -0.8125 1.421875l-1.609375 -0.21875q0.21875 -1.015625 0.71875 -1.640625q0.5 -0.640625 1.453125 -0.984375q0.953125 -0.34375 2.1875 -0.34375q1.25 0 2.015625 0.296875q0.78125 0.28125 1.140625 0.734375q0.375 0.4375 0.515625 1.109375q0.078125 0.421875 0.078125 1.515625l0 2.1875q0 2.28125 0.109375 2.890625q0.109375 0.59375 0.40625 1.15625l-1.703125 0q-0.265625 -0.515625 -0.328125 -1.1875zm-0.140625 -3.671875q-0.890625 0.375 -2.671875 0.625q-1.015625 0.140625 -1.4375 0.328125q-0.421875 0.1875 -0.65625 0.53125q-0.21875 0.34375 -0.21875 0.78125q0 0.65625 0.5 1.09375q0.5 0.4375 1.453125 0.4375q0.9375 0 1.671875 -0.40625q0.75 -0.421875 1.09375 -1.140625q0.265625 -0.5625 0.265625 -1.640625l0 -0.609375zm7.7819214 3.390625l0.234375 1.453125q-0.6875 0.140625 -1.234375 0.140625q-0.890625 0 -1.390625 -0.28125q-0.484375 -0.28125 -0.6875 -0.734375q-0.203125 -0.46875 -0.203125 -1.9375l0 -5.578125l-1.203125 0l0 -1.265625l1.203125 0l0 -2.390625l1.625 -0.984375l0 3.375l1.65625 0l0 1.265625l-1.65625 0l0 5.671875q0 0.6875 0.078125 0.890625q0.09375 0.203125 0.28125 0.328125q0.203125 0.109375 0.578125 0.109375q0.265625 0 0.71875 -0.0625zm8.230225 -1.640625l1.6875 0.203125q-0.40625 1.484375 -1.484375 2.3125q-1.078125 0.8125 -2.765625 0.8125q-2.125 0 -3.375 -1.296875q-1.234375 -1.3125 -1.234375 -3.671875q0 -2.453125 1.25 -3.796875q1.265625 -1.34375 3.265625 -1.34375q1.9375 0 3.15625 1.328125q1.234375 1.3125 1.234375 3.703125q0 0.15625 0 0.4375l-7.21875 0q0.09375 1.59375 0.90625 2.453125q0.8125 0.84375 2.015625 0.84375q0.90625 0 1.546875 -0.46875q0.640625 -0.484375 1.015625 -1.515625zm-5.390625 -2.65625l5.40625 0q-0.109375 -1.21875 -0.625 -1.828125q-0.78125 -0.953125 -2.03125 -0.953125q-1.125 0 -1.90625 0.765625q-0.765625 0.75 -0.84375 2.015625z" fill-rule="nonzero"/><path fill="#000000" fill-opacity="0.0" d="m296.84198 124.72441l100.409454 24.314957" fill-rule="evenodd"/><path stroke="#000000" stroke-width="1.0" stroke-linejoin="round" stroke-linecap="butt" d="m296.84198 124.72441l94.578 22.902817" fill-rule="evenodd"/><path fill="#000000" stroke="#000000" stroke-width="1.0" stroke-linecap="butt" d="m391.03125 149.23257l4.799347 -0.5372772l-4.021881 -2.6734009z" fill-rule="evenodd"/></g></svg>