<svg xmlns="http://www.w3.org/2000/svg" version="1.1" id="Layer_1" x="0" y="0" width="759.34833" height="258.53601" viewBox="0 0 759.34833 258.53602" xml:space="preserve"><style type="text/css" id="style11942">.st0{fill:none;stroke:#000;stroke-width:4;stroke-miterlimit:10}.st1,.st3{fill-rule:evenodd;clip-rule:evenodd}.st3{fill:#fff}</style><g id="g11952" transform="translate(-130.00065 -26.192)"><path d="M442.716 166.438h-16.033v67.464H409.4V88.146h17.282v64.966h15.616l46.851-64.966h19.989l-51.431 69.338 57.886 76.418H493.73z" id="path11944"/><path d="M530.376 233.902v-13.951h28.11v-76.209h-28.11v-13.951h38.938l3.332 13.535h1.041c4.718-4.301 9.994-7.981 15.825-11.036 5.83-3.052 12.77-4.581 20.822-4.581 4.717 0 8.501.904 11.348 2.707 2.844 1.806 5.065 4.444 6.663 7.912 1.595 3.472 2.671 7.672 3.228 12.598.554 4.929.833 10.515.833 16.762l-14.575.208c0-8.811-.869-15.282-2.604-19.414-1.737-4.132-4.893-6.198-9.474-6.198-4.305 0-8.192.625-11.661 1.871-3.471 1.246-6.49 2.769-9.058 4.568-2.57 1.799-4.756 3.599-6.559 5.397-1.806 1.803-3.123 3.325-3.956 4.568v61.263h39.979v13.951z" id="path11946"/><path d="M751.716 220.784c-2.499 2.222-5.45 4.305-8.85 6.247-3.403 1.946-7.115 3.612-11.141 4.998-4.027 1.389-8.225 2.463-12.597 3.228-4.373.761-8.781 1.145-13.223 1.145-8.329 0-15.688-1.285-22.071-3.852-6.387-2.567-11.732-6.247-16.033-11.036-4.305-4.789-7.568-10.516-9.787-17.179-2.222-6.663-3.331-14.159-3.331-22.488 0-8.746 1.213-16.518 3.644-23.321 2.427-6.8 5.935-12.493 10.516-17.074 4.581-4.581 10.131-8.085 16.657-10.515 6.523-2.427 13.812-3.644 21.864-3.644 5.83 0 11.589.765 17.282 2.291 5.69 1.529 10.724 4.408 15.096 8.641 4.373 4.236 7.737 10.066 10.1 17.491 2.358 7.428 3.191 17.042 2.498 28.839h-80.374c0 12.494 3.357 21.831 10.073 28.006 6.715 6.178 15.678 9.266 26.893 9.266 3.738 0 7.441-.449 11.111-1.353 3.67-.901 7.164-1.979 10.489-3.228 3.321-1.25 6.263-2.635 8.826-4.165 2.561-1.526 4.532-2.915 5.918-4.165zm-43.841-79.749c-4.568 0-8.893.488-12.972 1.458-4.084.973-7.682 2.603-10.796 4.894-3.113 2.29-5.674 5.277-7.678 8.953-2.008 3.68-3.286 8.225-3.839 13.639h64.549c-.693-9.162-3.634-16.274-8.823-21.343-5.189-5.067-12.002-7.601-20.441-7.601z" id="path11948"/><path d="M837.086 152.695l20.822 57.886h1.457l14.784-80.791h15.2l-20.405 104.112h-18.532l-19.989-57.47h-.625l-20.822 57.47h-18.532L768.58 129.791h16.033l16.866 81.207h1.249l20.198-58.302h14.16z" id="path11950"/></g><g id="Black_1_" transform="translate(-130.00065 -26.192)"><g id="g11985"><g id="g11958"><g id="g11956"><path d="M367.327 174.257c-.679 0-1.364-.138-2.01-.422-1.821-.8-2.995-2.604-2.989-4.592l.073-26.501c.006-1.868 1.053-3.578 2.714-4.432.72-.37 1.504-.553 2.285-.553 1.021 0 2.036.312 2.898.925 3.995 2.841 7.219 6.74 9.584 11.588.384.787.554 1.66.495 2.533-.542 7.936-3.791 14.707-9.657 20.126-.942.871-2.159 1.328-3.393 1.328z" id="path11954"/></g></g><path d="M147.035 139.502c-1.022 0-2.039-.313-2.903-.929-4.147-2.957-7.498-7.009-9.956-12.044-.384-.787-.555-1.66-.495-2.533.561-8.249 3.938-15.287 10.038-20.918.942-.87 2.159-1.326 3.393-1.326.68 0 1.364.138 2.011.423 1.821.8 2.994 2.604 2.988 4.592l-.076 27.75c-.005 1.87-1.053 3.58-2.716 4.434-.721.369-1.504.551-2.284.551z" id="path11960"/><path d="M148.721 211.884c-1.233 0-2.449-.456-3.392-1.325-7.096-6.547-11.029-14.731-11.69-24.325-.06-.87.109-1.741.489-2.525 2.836-5.849 6.726-10.566 11.562-14.021.864-.617 1.883-.932 2.907-.932.778 0 1.559.181 2.277.549 1.664.852 2.714 2.56 2.722 4.429.048 10.993.085 22.002.123 32.999v.133c.007 1.989-1.166 3.792-2.986 4.594-.647.285-1.332.424-2.012.424z" id="path11962"/><g id="Cube_13_"><path d="M360.776 141.771c-.341 0-.686-.035-1.029-.107-1.964-.413-3.491-1.959-3.878-3.929l-.12-.609c-.277-1.443.094-2.935 1.016-4.079.922-1.145 2.3-1.826 3.769-1.862.218-.005.435-.006.656-.006 1.876 0 3.595 1.051 4.45 2.721.855 1.67.704 3.679-.393 5.202l-.369.527c-.946 1.359-2.488 2.142-4.102 2.142z" id="path11964"/><path d="M255.457 284.483c-4.293 0-8.632-1.236-12.896-3.675-28.66-16.396-57.465-32.91-85.618-49.084-10.236-5.886-15.678-15.304-15.74-27.237-.116-21.856-.205-43.714-.293-65.571l-.133-31.965c-.027-6.081 1.443-11.539 4.371-16.223.941-1.506 2.567-2.351 4.243-2.351.731 0 1.472.161 2.17.498l.288.135c.378.175.754.354 1.118.558l16.936 9.552c21.772 12.279 43.544 24.559 65.308 36.853 5.491 3.1 10.962 6.237 16.434 9.374l7.048 4.037c.58.332 1.088.776 1.493 1.307.151.198.303.402.447.599.591.802.929 1.762.97 2.757l.03.61c.029.551.057 1.103.058 1.655l.509 120.442c0 .515-.019 1.017-.041 1.521-.01.233-.021.467-.027.702-.026.995-.349 1.958-.927 2.769-.072.101-.335.494-.335.494-.86 1.271-2.255 2.077-3.786 2.186-.546.038-1.089.057-1.627.057z" id="path11966"/><path d="M258.293 284.728c-.611 0-1.23-.025-1.84-.074-2.271-.182-4.131-1.875-4.525-4.119l-.107-.59c-.061-.343-.085-.692-.073-1.041l.033-.775c.018-.375.037-.748.037-1.122.002-40.15.002-80.301 0-120.448 0-.388-.021-.776-.04-1.163l-.032-.721c-.019-.505.039-1.009.17-1.493.248-1.46 1.137-2.756 2.456-3.507l106.983-60.921c.779-.444 1.63-.656 2.471-.656 1.642 0 3.245.809 4.198 2.279 2.985 4.601 4.504 10.064 4.516 16.241.046 33.124.081 65.527-.014 97.82-.033 11.805-5.429 21.165-15.604 27.067-27.294 15.852-55.076 31.917-81.942 47.453l-3.01 1.741c-4.689 2.711-9.162 4.029-13.677 4.029z" id="path11968"/><path d="M256.845 159.02c-.294 0-.589-.026-.881-.078-.743-.058-1.466-.28-2.116-.655l-7.086-4.098c-5.425-3.141-10.85-6.281-16.294-9.386-21.333-12.17-42.675-24.325-64.016-36.479l-18.014-10.26c-.132-.075-.275-.136-.416-.202l-.444-.212c-1.218-.597-2.141-1.663-2.557-2.953-.416-1.29-.291-2.695.348-3.891 2.451-4.59 6.13-8.262 11.246-11.226 10.239-5.93 20.48-11.856 30.721-17.783 17.891-10.354 35.781-20.707 53.662-31.079 5.175-3.003 10.492-4.526 15.8-4.526 5.357 0 10.753 1.553 16.036 4.614l10.65 6.172c24.041 13.931 48.083 27.863 72.138 41.773 4.135 2.392 9.305 5.912 12.597 11.956 1.304 2.393.451 5.389-1.916 6.737l-106.984 60.921c-.76.433-1.614.655-2.474.655z" id="path11970"/></g><path d="M256.742 284.587c-2.761 0-5-2.239-5-5v-125.28c0-2.761 2.239-5 5-5s5 2.239 5 5v125.281c0 2.761-2.239 4.999-5 4.999z" id="path11973"/><path d="M256.537 159.308c-1.734 0-3.419-.903-4.343-2.514-1.373-2.396-.544-5.451 1.851-6.825l107.087-61.39c2.397-1.373 5.452-.543 6.825 1.851 1.373 2.396.544 5.451-1.851 6.825l-107.087 61.39c-.785.449-1.639.663-2.482.663z" id="path11975"/><path d="M256.737 159.308c-.842 0-1.696-.213-2.479-.662l-106.75-61.125c-2.396-1.372-3.227-4.427-1.854-6.823 1.373-2.396 4.428-3.226 6.823-1.854l106.75 61.125c2.396 1.372 3.227 4.427 1.854 6.823-.923 1.612-2.609 2.516-4.344 2.516z" id="path11977"/><path d="M138.667 129.336c-1.939 0-3.74-1.132-4.558-2.949-3.678-8.177-4.455-17-2.308-26.223 1.676-7.186 5.379-13.75 11.651-20.657.161-.177.333-.341.517-.493 8.995-7.431 18.222-11.044 28.209-11.044 14.645 0 28.189 7.93 41.289 15.6 2.051 1.2 4.062 2.437 6.008 3.633 9.523 5.858 18.519 11.391 29.442 11.391 1.121-.003 2.314-.158 3.577-.322.681-.088 1.363-.176 2.044-.246.173-.018.345-.026.515-.026 2.119 0 4.034 1.346 4.73 3.388.751 2.206-.12 4.638-2.102 5.864-.606.375-1.201.774-1.795 1.172-1.429.958-3.049 2.042-4.888 2.882-6.49 2.958-13.278 4.457-20.179 4.457-9.167 0-18.659-2.508-29.873-7.893-9.622-4.623-18.038-6.87-25.73-6.87-9.028 0-17.142 3.109-24.8 9.505-4.164 3.878-6.375 8.514-6.76 14.17-.155 2.289-1.848 4.177-4.106 4.582-.295.054-.591.079-.883.079z" id="path11979"/><path d="M178.647 252.179c-11.673-.001-22.478-4.229-33.031-12.928-.186-.153-.361-.32-.523-.499-7.375-8.128-11.726-15.823-13.693-24.215-2.526-10.794-1.629-21.12 2.665-30.693.816-1.82 2.619-2.954 4.56-2.954.291 0 .585.025.879.078 2.258.403 3.953 2.29 4.111 4.579.483 7.021 3.234 12.773 8.407 17.582 9.328 7.774 19.214 11.553 30.22 11.553 9.346 0 19.544-2.722 31.177-8.321 13.259-6.388 24.471-9.363 35.281-9.363 8.083 0 16.039 1.754 23.647 5.215 2.113.963 3.925 2.17 5.677 3.338.726.483 1.451.968 2.191 1.424 1.986 1.222 2.864 3.655 2.115 5.863-.693 2.045-2.61 3.396-4.732 3.396-.169 0-.34-.008-.511-.026-.805-.082-1.609-.185-2.413-.288-1.542-.198-2.999-.386-4.341-.391-13.347 0-24.216 6.702-35.723 13.796-2.309 1.423-4.696 2.896-7.087 4.298-15.576 9.135-31.639 18.556-48.874 18.556h-.002z" id="path11981"/><path d="M343.387 206.519c-14.048 0-27.014-7.591-39.554-14.933-1.953-1.143-3.873-2.323-5.729-3.465-9.068-5.578-17.634-10.847-28.001-10.847-1.06.003-2.192.149-3.391.304-.651.084-1.303.168-1.955.235-.172.018-.343.026-.513.026-2.119 0-4.034-1.346-4.729-3.387-.751-2.204.118-4.636 2.098-5.863.571-.354 1.131-.73 1.692-1.106 1.377-.922 2.937-1.967 4.712-2.778 6.229-2.839 12.744-4.277 19.367-4.277 8.789 0 17.886 2.402 28.627 7.559 9.159 4.4 17.165 6.539 24.476 6.539 8.564 0 16.264-2.95 23.533-9.019 3.928-3.665 6.016-8.043 6.381-13.383.156-2.289 1.85-4.177 4.108-4.581.295-.053.59-.079.882-.079 1.94 0 3.742 1.133 4.559 2.952 3.531 7.861 4.276 16.334 2.214 25.185-1.606 6.894-5.157 13.194-11.176 19.826-.161.177-.333.342-.518.495-8.631 7.13-17.491 10.597-27.083 10.597z" id="path11983"/></g><g id="g12018"><g id="g11991"><g id="g11989"><path class="st1" d="M375.39 152.463c-.456 6.67-3.154 12.26-8.062 16.794.026-8.833.046-17.67.073-26.5 3.534 2.514 6.1 5.835 7.989 9.706z" id="path11987" clip-rule="evenodd" fill-rule="evenodd"/></g></g><path class="st1" d="M138.669 124.336c.475-6.985 3.302-12.839 8.441-17.583-.028 9.247-.049 18.5-.076 27.75-3.7-2.638-6.386-6.113-8.365-10.167z" id="path11993" clip-rule="evenodd" fill-rule="evenodd"/><path class="st1" d="M138.627 185.89c.575 8.349 3.954 15.33 10.092 20.994-.038-11.04-.075-22.092-.123-33.128-4.408 3.15-7.621 7.294-9.969 12.134z" id="path11995" clip-rule="evenodd" fill-rule="evenodd"/><g id="Cube_12_"><path d="M360.776 136.771c-.039-.196-.078-.392-.116-.588.176-.004.352-.004.531-.004-.142.197-.278.396-.415.592z" id="path11997" clip-rule="evenodd" fill="#003054" fill-rule="evenodd"/><path class="st3" d="M256.729 279.438c-4.213.3-8.087-.911-11.687-2.97-28.55-16.333-57.088-32.693-85.609-49.079-8.738-5.025-13.178-12.73-13.231-22.927-.173-32.511-.285-65.022-.426-97.532-.022-4.859 1.025-9.415 3.61-13.551.38.184.769.347 1.137.553 27.411 15.461 54.825 30.917 82.227 46.396 7.841 4.427 15.642 8.928 23.459 13.397.134.175.268.356.396.531.029.69.082 1.38.084 2.071.17 40.147.34 80.298.509 120.449.001.687-.047 1.375-.065 2.068-.134.19-.269.394-.404.594z" id="path11999" clip-rule="evenodd" fill="#fff" fill-rule="evenodd"/><path class="st3" d="M256.744 279.077c.024-.694.073-1.381.073-2.069.002-40.15.002-80.301 0-120.449 0-.691-.049-1.381-.075-2.071.077-.146.11-.304.103-.468 35.663-20.309 71.325-40.614 106.983-60.921 2.663 4.104 3.701 8.712 3.71 13.529.046 32.6.082 65.199-.014 97.795-.028 10.054-4.497 17.758-13.113 22.756-28.295 16.433-56.622 32.811-84.946 49.19-3.898 2.255-8.038 3.667-12.613 3.3-.035-.199-.074-.401-.108-.592z" id="path12001" clip-rule="evenodd" fill="#fff" fill-rule="evenodd"/><path class="st3" d="M363.829 93.099c-35.659 20.308-71.32 40.612-106.983 60.921l-.243-.069-.254.005c-7.8-4.503-15.582-9.037-23.403-13.498-27.336-15.595-54.686-31.164-82.032-46.74-.365-.208-.754-.373-1.133-.559 2.172-4.067 5.445-6.997 9.342-9.254 28.127-16.29 56.269-32.554 84.385-48.863 8.985-5.214 17.893-5.085 26.82.089 27.593 15.989 55.184 31.982 82.793 47.947 4.343 2.514 8.229 5.471 10.708 10.021z" id="path12003" clip-rule="evenodd" fill="#fff" fill-rule="evenodd"/></g><path id="line12006" fill="#369" stroke="#000" stroke-width="4" stroke-miterlimit="10" d="M256.742 154.30701v125.28"/><path class="st0" id="line12008" fill="none" stroke="#000" stroke-width="4" stroke-miterlimit="10" d="M256.53201 154.30701L363.61899 92.917"/><path class="st0" id="line12010" fill="none" stroke="#000" stroke-width="4" stroke-miterlimit="10" d="M256.742 154.30701l-106.75-61.125011"/><path class="st1" d="M147.154 82.869c22.914-18.93 43.271-6.995 63.821 5.036 11.906 6.963 23.187 15.717 38.011 15.689 2.019-.006 4.039-.386 6.064-.594-2.042 1.264-3.961 2.769-6.128 3.758-15.871 7.232-30.83 3.799-45.812-3.395-19.123-9.188-38.177-11.565-56.001 3.39-5.14 4.745-7.966 10.598-8.441 17.583-3.35-7.447-3.843-15.113-1.998-23.038 1.682-7.205 5.618-13.07 10.484-18.429z" id="path12012" clip-rule="evenodd" fill-rule="evenodd"/><path class="st1" d="M148.797 235.393c27.38 22.567 51.671 8.303 76.198-6.082 14.208-8.335 27.675-18.794 45.358-18.782 2.413.009 4.825.458 7.243.705-2.443-1.503-4.736-3.293-7.318-4.469-18.957-8.622-36.811-4.511-54.69 4.102-22.821 10.983-45.566 13.841-66.869-3.982-6.138-5.664-9.517-12.645-10.092-20.994-3.99 8.895-4.572 18.051-2.359 27.506 2.016 8.597 6.724 15.598 12.529 21.996z" id="path12014" clip-rule="evenodd" fill-rule="evenodd"/><path class="st1" d="M367.286 192.065c-21.882 18.08-41.325 6.682-60.953-4.81-11.368-6.65-22.142-15.008-36.295-14.982-1.931.005-3.861.367-5.79.565 1.943-1.205 3.78-2.642 5.847-3.586 15.156-6.907 29.443-3.629 43.752 3.241 18.263 8.774 36.458 11.045 53.48-3.235 4.908-4.534 7.606-10.124 8.062-16.794 3.196 7.114 3.669 14.434 1.905 22.001-1.602 6.88-5.362 12.481-10.008 17.6z" id="path12016" clip-rule="evenodd" fill-rule="evenodd"/></g></g></svg>