<?xml version="1.0" encoding="utf-8"?>
<!-- Generator: Adobe Illustrator 16.2.1, SVG Export Plug-In . SVG Version: 6.00 Build 0)  -->
<!DOCTYPE svg PUBLIC "-//W3C//DTD SVG 1.1//EN" "http://www.w3.org/Graphics/SVG/1.1/DTD/svg11.dtd">
<svg version="1.1" id="Layer_1" xmlns="http://www.w3.org/2000/svg" xmlns:xlink="http://www.w3.org/1999/xlink" x="0px" y="0px"
	 width="1024px" height="319.791px" viewBox="0 0 1024 319.791" style="enable-background:new 0 0 1024 319.791;"
	 xml:space="preserve">
<style type="text/css">
<![CDATA[
	.st0{fill:none;stroke:#000000;stroke-width:4;stroke-miterlimit:10;}
	.st1{fill-rule:evenodd;clip-rule:evenodd;}
	.st2{fill:#336699;stroke:#000000;stroke-width:4;stroke-miterlimit:10;}
	.st3{fill-rule:evenodd;clip-rule:evenodd;fill:#FFFFFF;}
	.st4{fill-rule:evenodd;clip-rule:evenodd;fill:#003054;}
]]>
</style>
<g>
	<path d="M442.716,166.438h-16.033v67.464H409.4V88.146h17.282v64.966h15.616l46.851-64.966h19.989l-51.431,69.338l57.886,76.418
		H493.73L442.716,166.438z"/>
	<path d="M530.376,233.902v-13.951h28.11v-76.209h-28.11v-13.951h38.938l3.332,13.535h1.041c4.718-4.301,9.994-7.981,15.825-11.036
		c5.83-3.052,12.77-4.581,20.822-4.581c4.717,0,8.501,0.904,11.348,2.707c2.844,1.806,5.065,4.444,6.663,7.912
		c1.595,3.472,2.671,7.672,3.228,12.598c0.554,4.929,0.833,10.515,0.833,16.762l-14.575,0.208c0-8.811-0.869-15.282-2.604-19.414
		c-1.737-4.132-4.893-6.198-9.474-6.198c-4.305,0-8.192,0.625-11.661,1.871c-3.471,1.246-6.49,2.769-9.058,4.568
		c-2.57,1.799-4.756,3.599-6.559,5.397c-1.806,1.803-3.123,3.325-3.956,4.568v61.263h39.979v13.951H530.376z"/>
	<path d="M751.716,220.784c-2.499,2.222-5.45,4.305-8.85,6.247c-3.403,1.946-7.115,3.612-11.141,4.998
		c-4.027,1.389-8.225,2.463-12.597,3.228c-4.373,0.761-8.781,1.145-13.223,1.145c-8.329,0-15.688-1.285-22.071-3.852
		c-6.387-2.567-11.732-6.247-16.033-11.036c-4.305-4.789-7.568-10.516-9.787-17.179c-2.222-6.663-3.331-14.159-3.331-22.488
		c0-8.746,1.213-16.518,3.644-23.321c2.427-6.8,5.935-12.493,10.516-17.074s10.131-8.085,16.657-10.515
		c6.523-2.427,13.812-3.644,21.864-3.644c5.83,0,11.589,0.765,17.282,2.291c5.69,1.529,10.724,4.408,15.096,8.641
		c4.373,4.236,7.737,10.066,10.1,17.491c2.358,7.428,3.191,17.042,2.498,28.839h-80.374c0,12.494,3.357,21.831,10.073,28.006
		c6.715,6.178,15.678,9.266,26.893,9.266c3.738,0,7.441-0.449,11.111-1.353c3.67-0.901,7.164-1.979,10.489-3.228
		c3.321-1.25,6.263-2.635,8.826-4.165c2.561-1.526,4.532-2.915,5.918-4.165L751.716,220.784z M707.875,141.035
		c-4.568,0-8.893,0.488-12.972,1.458c-4.084,0.973-7.682,2.603-10.796,4.894c-3.113,2.29-5.674,5.277-7.678,8.953
		c-2.008,3.68-3.286,8.225-3.839,13.639h64.549c-0.693-9.162-3.634-16.274-8.823-21.343
		C723.127,143.569,716.314,141.035,707.875,141.035z"/>
	<path d="M837.086,152.695l20.822,57.886h1.457l14.784-80.791h15.2l-20.405,104.112h-18.532l-19.989-57.47h-0.625l-20.822,57.47
		h-18.532L768.58,129.791h16.033l16.866,81.207h1.249l20.198-58.302H837.086z"/>
</g>
<g id="Black_1_">
	<g>
		<g>
			<g>
				<path d="M367.327,174.257c-0.679,0-1.364-0.138-2.01-0.422c-1.821-0.8-2.995-2.604-2.989-4.592l0.073-26.501
					c0.006-1.868,1.053-3.578,2.714-4.432c0.72-0.37,1.504-0.553,2.285-0.553c1.021,0,2.036,0.312,2.898,0.925
					c3.995,2.841,7.219,6.74,9.584,11.588c0.384,0.787,0.554,1.66,0.495,2.533c-0.542,7.936-3.791,14.707-9.657,20.126
					C369.778,173.8,368.561,174.257,367.327,174.257z"/>
			</g>
		</g>
		<path d="M147.035,139.502c-1.022,0-2.039-0.313-2.903-0.929c-4.147-2.957-7.498-7.009-9.956-12.044
			c-0.384-0.787-0.555-1.66-0.495-2.533c0.561-8.249,3.938-15.287,10.038-20.918c0.942-0.87,2.159-1.326,3.393-1.326
			c0.68,0,1.364,0.138,2.011,0.423c1.821,0.8,2.994,2.604,2.988,4.592l-0.076,27.75c-0.005,1.87-1.053,3.58-2.716,4.434
			C148.598,139.32,147.815,139.502,147.035,139.502z"/>
		<path d="M148.721,211.884c-1.233,0-2.449-0.456-3.392-1.325c-7.096-6.547-11.029-14.731-11.69-24.325
			c-0.06-0.87,0.109-1.741,0.489-2.525c2.836-5.849,6.726-10.566,11.562-14.021c0.864-0.617,1.883-0.932,2.907-0.932
			c0.778,0,1.559,0.181,2.277,0.549c1.664,0.852,2.714,2.56,2.722,4.429c0.048,10.993,0.085,22.002,0.123,32.999l0,0.133
			c0.007,1.989-1.166,3.792-2.986,4.594C150.086,211.745,149.401,211.884,148.721,211.884z"/>
		<g id="Cube_13_">
			<path d="M360.776,141.771c-0.341,0-0.686-0.035-1.029-0.107c-1.964-0.413-3.491-1.959-3.878-3.929l-0.12-0.609
				c-0.277-1.443,0.094-2.935,1.016-4.079c0.922-1.145,2.3-1.826,3.769-1.862c0.218-0.005,0.435-0.006,0.656-0.006
				c1.876,0,3.595,1.051,4.45,2.721c0.855,1.67,0.704,3.679-0.393,5.202l-0.369,0.527
				C363.932,140.988,362.39,141.771,360.776,141.771z"/>
			<path d="M255.457,284.483c-4.293,0-8.632-1.236-12.896-3.675c-28.66-16.396-57.465-32.91-85.618-49.084
				c-10.236-5.886-15.678-15.304-15.74-27.237c-0.116-21.856-0.205-43.714-0.293-65.571l-0.133-31.965
				c-0.027-6.081,1.443-11.539,4.371-16.223c0.941-1.506,2.567-2.351,4.243-2.351c0.731,0,1.472,0.161,2.17,0.498l0.288,0.135
				c0.378,0.175,0.754,0.354,1.118,0.558l16.936,9.552c21.772,12.279,43.544,24.559,65.308,36.853
				c5.491,3.1,10.962,6.237,16.434,9.374l7.048,4.037c0.58,0.332,1.088,0.776,1.493,1.307c0.151,0.198,0.303,0.402,0.447,0.599
				c0.591,0.802,0.929,1.762,0.97,2.757l0.03,0.61c0.029,0.551,0.057,1.103,0.058,1.655l0.509,120.442
				c0,0.515-0.019,1.017-0.041,1.521c-0.01,0.233-0.021,0.467-0.027,0.702c-0.026,0.995-0.349,1.958-0.927,2.769
				c-0.072,0.101-0.335,0.494-0.335,0.494c-0.86,1.271-2.255,2.077-3.786,2.186C256.538,284.464,255.995,284.483,255.457,284.483z"
				/>
			<path d="M258.293,284.728c-0.611,0-1.23-0.025-1.84-0.074c-2.271-0.182-4.131-1.875-4.525-4.119l-0.107-0.59
				c-0.061-0.343-0.085-0.692-0.073-1.041l0.033-0.775c0.018-0.375,0.037-0.748,0.037-1.122c0.002-40.15,0.002-80.301,0-120.448
				c0-0.388-0.021-0.776-0.04-1.163l-0.032-0.721c-0.019-0.505,0.039-1.009,0.17-1.493c0.248-1.46,1.137-2.756,2.456-3.507
				l106.983-60.921c0.779-0.444,1.63-0.656,2.471-0.656c1.642,0,3.245,0.809,4.198,2.279c2.985,4.601,4.504,10.064,4.516,16.241
				c0.046,33.124,0.081,65.527-0.014,97.82c-0.033,11.805-5.429,21.165-15.604,27.067c-27.294,15.852-55.076,31.917-81.942,47.453
				l-3.01,1.741C267.281,283.41,262.808,284.728,258.293,284.728z"/>
			<path d="M256.845,159.02c-0.294,0-0.589-0.026-0.881-0.078c-0.743-0.058-1.466-0.28-2.116-0.655l-7.086-4.098
				c-5.425-3.141-10.85-6.281-16.294-9.386c-21.333-12.17-42.675-24.325-64.016-36.479l-18.014-10.26
				c-0.132-0.075-0.275-0.136-0.416-0.202l-0.444-0.212c-1.218-0.597-2.141-1.663-2.557-2.953s-0.291-2.695,0.348-3.891
				c2.451-4.59,6.13-8.262,11.246-11.226c10.239-5.93,20.48-11.856,30.721-17.783c17.891-10.354,35.781-20.707,53.662-31.079
				c5.175-3.003,10.492-4.526,15.8-4.526c5.357,0,10.753,1.553,16.036,4.614l10.65,6.172c24.041,13.931,48.083,27.863,72.138,41.773
				c4.135,2.392,9.305,5.912,12.597,11.956c1.304,2.393,0.451,5.389-1.916,6.737l-106.984,60.921
				C258.559,158.798,257.705,159.02,256.845,159.02z"/>
		</g>
		<path d="M256.742,284.587c-2.761,0-5-2.239-5-5V154.307c0-2.761,2.239-5,5-5s5,2.239,5,5v125.281
			C261.742,282.349,259.503,284.587,256.742,284.587z"/>
		<path d="M256.537,159.308c-1.734,0-3.419-0.903-4.343-2.514c-1.373-2.396-0.544-5.451,1.851-6.825l107.087-61.39
			c2.397-1.373,5.452-0.543,6.825,1.851c1.373,2.396,0.544,5.451-1.851,6.825l-107.087,61.39
			C258.234,159.094,257.38,159.308,256.537,159.308z"/>
		<path d="M256.737,159.308c-0.842,0-1.696-0.213-2.479-0.662l-106.75-61.125c-2.396-1.372-3.227-4.427-1.854-6.823
			s4.428-3.226,6.823-1.854l106.75,61.125c2.396,1.372,3.227,4.427,1.854,6.823C260.158,158.404,258.472,159.308,256.737,159.308z"
			/>
		<path d="M138.667,129.336c-1.939,0-3.74-1.132-4.558-2.949c-3.678-8.177-4.455-17-2.308-26.223
			c1.676-7.186,5.379-13.75,11.651-20.657c0.161-0.177,0.333-0.341,0.517-0.493c8.995-7.431,18.222-11.044,28.209-11.044
			c14.645,0,28.189,7.93,41.289,15.6c2.051,1.2,4.062,2.437,6.008,3.633c9.523,5.858,18.519,11.391,29.442,11.391
			c1.121-0.003,2.314-0.158,3.577-0.322c0.681-0.088,1.363-0.176,2.044-0.246c0.173-0.018,0.345-0.026,0.515-0.026
			c2.119,0,4.034,1.346,4.73,3.388c0.751,2.206-0.12,4.638-2.102,5.864c-0.606,0.375-1.201,0.774-1.795,1.172
			c-1.429,0.958-3.049,2.042-4.888,2.882c-6.49,2.958-13.278,4.457-20.179,4.457c-9.167,0-18.659-2.508-29.873-7.893
			c-9.622-4.623-18.038-6.87-25.73-6.87c-9.028,0-17.142,3.109-24.8,9.505c-4.164,3.878-6.375,8.514-6.76,14.17
			c-0.155,2.289-1.848,4.177-4.106,4.582C139.255,129.311,138.959,129.336,138.667,129.336z"/>
		<path d="M178.647,252.179c-11.673-0.001-22.478-4.229-33.031-12.928c-0.186-0.153-0.361-0.32-0.523-0.499
			c-7.375-8.128-11.726-15.823-13.693-24.215c-2.526-10.794-1.629-21.12,2.665-30.693c0.816-1.82,2.619-2.954,4.56-2.954
			c0.291,0,0.585,0.025,0.879,0.078c2.258,0.403,3.953,2.29,4.111,4.579c0.483,7.021,3.234,12.773,8.407,17.582
			c9.328,7.774,19.214,11.553,30.22,11.553c9.346,0,19.544-2.722,31.177-8.321c13.259-6.388,24.471-9.363,35.281-9.363
			c8.083,0,16.039,1.754,23.647,5.215c2.113,0.963,3.925,2.17,5.677,3.338c0.726,0.483,1.451,0.968,2.191,1.424
			c1.986,1.222,2.864,3.655,2.115,5.863c-0.693,2.045-2.61,3.396-4.732,3.396c-0.169,0-0.34-0.008-0.511-0.026
			c-0.805-0.082-1.609-0.185-2.413-0.288c-1.542-0.198-2.999-0.386-4.341-0.391c-13.347,0-24.216,6.702-35.723,13.796
			c-2.309,1.423-4.696,2.896-7.087,4.298c-15.576,9.135-31.639,18.556-48.874,18.556
			C178.649,252.179,178.649,252.179,178.647,252.179z"/>
		<path d="M343.387,206.519c-14.048,0-27.014-7.591-39.554-14.933c-1.953-1.143-3.873-2.323-5.729-3.465
			c-9.068-5.578-17.634-10.847-28.001-10.847c-1.06,0.003-2.192,0.149-3.391,0.304c-0.651,0.084-1.303,0.168-1.955,0.235
			c-0.172,0.018-0.343,0.026-0.513,0.026c-2.119,0-4.034-1.346-4.729-3.387c-0.751-2.204,0.118-4.636,2.098-5.863
			c0.571-0.354,1.131-0.73,1.692-1.106c1.377-0.922,2.937-1.967,4.712-2.778c6.229-2.839,12.744-4.277,19.367-4.277
			c8.789,0,17.886,2.402,28.627,7.559c9.159,4.4,17.165,6.539,24.476,6.539c8.564,0,16.264-2.95,23.533-9.019
			c3.928-3.665,6.016-8.043,6.381-13.383c0.156-2.289,1.85-4.177,4.108-4.581c0.295-0.053,0.59-0.079,0.882-0.079
			c1.94,0,3.742,1.133,4.559,2.952c3.531,7.861,4.276,16.334,2.214,25.185c-1.606,6.894-5.157,13.194-11.176,19.826
			c-0.161,0.177-0.333,0.342-0.518,0.495C361.839,203.052,352.979,206.519,343.387,206.519z"/>
	</g>
	<g>
		<g>
			<g>
				<path class="st1" d="M375.39,152.463c-0.456,6.67-3.154,12.26-8.062,16.794c0.026-8.833,0.046-17.67,0.073-26.5
					C370.935,145.271,373.501,148.592,375.39,152.463z"/>
			</g>
		</g>
		<path class="st1" d="M138.669,124.336c0.475-6.985,3.302-12.839,8.441-17.583c-0.028,9.247-0.049,18.5-0.076,27.75
			C143.334,131.865,140.648,128.39,138.669,124.336z"/>
		<path class="st1" d="M138.627,185.89c0.575,8.349,3.954,15.33,10.092,20.994c-0.038-11.04-0.075-22.092-0.123-33.128
			C144.188,176.906,140.975,181.05,138.627,185.89z"/>
		<g id="Cube_12_">
			<path class="st4" d="M360.776,136.771c-0.039-0.196-0.078-0.392-0.116-0.588c0.176-0.004,0.352-0.004,0.531-0.004
				C361.049,136.376,360.913,136.575,360.776,136.771z"/>
			<path class="st3" d="M256.729,279.438c-4.213,0.3-8.087-0.911-11.687-2.97c-28.55-16.333-57.088-32.693-85.609-49.079
				c-8.738-5.025-13.178-12.73-13.231-22.927c-0.173-32.511-0.285-65.022-0.426-97.532c-0.022-4.859,1.025-9.415,3.61-13.551
				c0.38,0.184,0.769,0.347,1.137,0.553c27.411,15.461,54.825,30.917,82.227,46.396c7.841,4.427,15.642,8.928,23.459,13.397
				c0.134,0.175,0.268,0.356,0.396,0.531c0.029,0.69,0.082,1.38,0.084,2.071c0.17,40.147,0.34,80.298,0.509,120.449
				c0.001,0.687-0.047,1.375-0.065,2.068C256.999,279.034,256.864,279.238,256.729,279.438z"/>
			<path class="st3" d="M256.744,279.077c0.024-0.694,0.073-1.381,0.073-2.069c0.002-40.15,0.002-80.301,0-120.449
				c0-0.691-0.049-1.381-0.075-2.071c0.077-0.146,0.11-0.304,0.103-0.468c35.663-20.309,71.325-40.614,106.983-60.921
				c2.663,4.104,3.701,8.712,3.71,13.529c0.046,32.6,0.082,65.199-0.014,97.795c-0.028,10.054-4.497,17.758-13.113,22.756
				c-28.295,16.433-56.622,32.811-84.946,49.19c-3.898,2.255-8.038,3.667-12.613,3.3
				C256.817,279.47,256.778,279.268,256.744,279.077z"/>
			<path class="st3" d="M363.829,93.099c-35.659,20.308-71.32,40.612-106.983,60.921l-0.243-0.069l-0.254,0.005
				c-7.8-4.503-15.582-9.037-23.403-13.498c-27.336-15.595-54.686-31.164-82.032-46.74c-0.365-0.208-0.754-0.373-1.133-0.559
				c2.172-4.067,5.445-6.997,9.342-9.254c28.127-16.29,56.269-32.554,84.385-48.863c8.985-5.214,17.893-5.085,26.82,0.089
				c27.593,15.989,55.184,31.982,82.793,47.947C357.464,85.592,361.35,88.549,363.829,93.099z"/>
		</g>
		<line class="st2" x1="256.742" y1="154.307" x2="256.742" y2="279.587"/>
		<line class="st0" x1="256.532" y1="154.307" x2="363.619" y2="92.917"/>
		<line class="st0" x1="256.742" y1="154.307" x2="149.992" y2="93.182"/>
		<path class="st1" d="M147.154,82.869c22.914-18.93,43.271-6.995,63.821,5.036c11.906,6.963,23.187,15.717,38.011,15.689
			c2.019-0.006,4.039-0.386,6.064-0.594c-2.042,1.264-3.961,2.769-6.128,3.758c-15.871,7.232-30.83,3.799-45.812-3.395
			c-19.123-9.188-38.177-11.565-56.001,3.39c-5.14,4.745-7.966,10.598-8.441,17.583c-3.35-7.447-3.843-15.113-1.998-23.038
			C138.352,94.093,142.288,88.228,147.154,82.869z"/>
		<path class="st1" d="M148.797,235.393c27.38,22.567,51.671,8.303,76.198-6.082c14.208-8.335,27.675-18.794,45.358-18.782
			c2.413,0.009,4.825,0.458,7.243,0.705c-2.443-1.503-4.736-3.293-7.318-4.469c-18.957-8.622-36.811-4.511-54.69,4.102
			c-22.821,10.983-45.566,13.841-66.869-3.982c-6.138-5.664-9.517-12.645-10.092-20.994c-3.99,8.895-4.572,18.051-2.359,27.506
			C138.284,221.994,142.992,228.995,148.797,235.393z"/>
		<path class="st1" d="M367.286,192.065c-21.882,18.08-41.325,6.682-60.953-4.81c-11.368-6.65-22.142-15.008-36.295-14.982
			c-1.931,0.005-3.861,0.367-5.79,0.565c1.943-1.205,3.78-2.642,5.847-3.586c15.156-6.907,29.443-3.629,43.752,3.241
			c18.263,8.774,36.458,11.045,53.48-3.235c4.908-4.534,7.606-10.124,8.062-16.794c3.196,7.114,3.669,14.434,1.905,22.001
			C375.692,181.345,371.932,186.946,367.286,192.065z"/>
	</g>
</g>
<g>
</g>
<g>
</g>
<g>
</g>
<g>
</g>
<g>
</g>
<g>
</g>
<g>
</g>
<g>
</g>
<g>
</g>
<g>
</g>
<g>
</g>
<g>
</g>
<g>
</g>
<g>
</g>
<g>
</g>
</svg>
