<svg xmlns="http://www.w3.org/2000/svg" version="1.1" id="Layer_1" x="0" y="0" width="498.09232" height="647.14001" xml:space="preserve"><style type="text/css" id="style1669">.st1{fill:none;stroke:#000;stroke-width:4;stroke-miterlimit:10}.st2{fill:#9cf}.st3{fill-rule:evenodd;clip-rule:evenodd}.st4{display:inline}.st5{fill:none;stroke:#fff;stroke-width:4;stroke-miterlimit:10}.st6,.st8{fill-rule:evenodd;clip-rule:evenodd}.st6{stroke:#fff;stroke-width:4;stroke-miterlimit:10;fill:none}.st8{fill:#fff}.st9{fill:none;stroke:#369;stroke-width:.5;stroke-miterlimit:10}.st11{display:none}.st16,.st17{fill-rule:evenodd;clip-rule:evenodd;fill:#0091fc}.st17{fill:#0256d1}</style><g id="g1794" transform="translate(-255.77308 -23.225)"><path d="M299.735 600.37h-16.041v67.495h-17.291V522.042h17.291v64.995h15.624l46.872-64.995h19.999l-51.455 69.37 57.913 76.453h-21.874z" id="path1786"/><path d="M387.436 667.865v-13.957h28.123v-76.245h-28.123v-13.957h38.956l3.333 13.54h1.042c4.72-4.303 9.999-7.984 15.832-11.041 5.833-3.053 12.776-4.583 20.832-4.583 4.72 0 8.505.905 11.354 2.709 2.845 1.806 5.068 4.446 6.666 7.916 1.595 3.473 2.672 7.675 3.229 12.603.553 4.932.833 10.521.833 16.771l-14.583.208c0-8.814-.869-15.289-2.604-19.423-1.738-4.134-4.896-6.2-9.479-6.2-4.306 0-8.196.625-11.666 1.871-3.473 1.247-6.494 2.771-9.062 4.57-2.571 1.8-4.759 3.6-6.562 5.4-1.806 1.803-3.125 3.326-3.958 4.569v61.292h39.998v13.957z" id="path1788"/><path d="M608.877 654.741c-2.5 2.223-5.452 4.307-8.854 6.249-3.405 1.947-7.119 3.613-11.146 5-4.029 1.39-8.229 2.464-12.604 3.229-4.374.762-8.785 1.146-13.228 1.146-8.333 0-15.696-1.286-22.082-3.854-6.39-2.567-11.737-6.249-16.041-11.04-4.307-4.792-7.571-10.521-9.791-17.187-2.223-6.666-3.333-14.166-3.333-22.499 0-8.749 1.214-16.525 3.646-23.331 2.429-6.804 5.938-12.5 10.521-17.083 4.583-4.583 10.136-8.088 16.665-10.52 6.526-2.429 13.817-3.646 21.874-3.646 5.833 0 11.594.765 17.29 2.291 5.693 1.53 10.729 4.411 15.104 8.646 4.375 4.238 7.74 10.071 10.104 17.499 2.359 7.431 3.193 17.05 2.5 28.852h-80.411c0 12.5 3.358 21.842 10.077 28.02 6.718 6.181 15.686 9.271 26.905 9.271 3.74 0 7.444-.449 11.116-1.354 3.672-.901 7.167-1.979 10.494-3.229 3.323-1.249 6.266-2.636 8.831-4.166 2.562-1.526 4.534-2.916 5.92-4.166zm-43.861-79.786c-4.57 0-8.896.488-12.978 1.458-4.085.974-7.686 2.604-10.8 4.896-3.115 2.292-5.677 5.279-7.682 8.958-2.009 3.681-3.288 8.229-3.841 13.645h64.578c-.693-9.166-3.636-16.281-8.827-21.353-5.191-5.069-12.007-7.604-20.45-7.604z" id="path1790"/><path d="M694.286 586.621l20.832 57.912h1.458l14.791-80.827h15.207l-20.415 104.159h-18.541l-19.998-57.496h-.625l-20.832 57.496h-18.54l-21.874-104.159h16.041l16.874 81.244h1.249l20.207-58.329z" id="path1792"/></g><g id="Black" transform="translate(-255.77308 -23.225)"><g id="g1859"><g id="g1832"><g id="g1830"><path d="M726.852 310.208c-.68 0-1.364-.138-2.011-.422-1.82-.8-2.994-2.604-2.988-4.592 0 0 .119-43.955.147-53.165.006-1.869 1.053-3.578 2.715-4.432.721-.37 1.504-.553 2.285-.553 1.021 0 2.036.312 2.898.926 7.425 5.283 13.188 12.267 17.621 21.353.383.787.554 1.66.494 2.533-.996 14.6-6.975 27.058-17.769 37.026-.941.87-2.159 1.326-3.392 1.326z" id="path1828"/></g></g><path d="M284.909 240.484c-1.021 0-2.038-.312-2.901-.927-7.74-5.512-13.75-12.797-18.374-22.272-.384-.786-.555-1.659-.495-2.532 1.036-15.227 7.271-28.217 18.53-38.611.942-.87 2.159-1.326 3.393-1.326.68 0 1.364.139 2.011.423 1.821.8 2.994 2.604 2.988 4.592-.03 9.766-.152 55.668-.152 55.668-.005 1.869-1.053 3.579-2.716 4.433-.72.369-1.504.552-2.284.552z" id="path1834"/><path d="M288.292 385.694c-1.233 0-2.45-.456-3.392-1.326-13.26-12.236-20.609-27.527-21.844-45.447-.06-.87.109-1.74.489-2.525 5.319-10.972 12.584-19.797 21.592-26.229.864-.617 1.883-.931 2.906-.931.778 0 1.56.182 2.278.549 1.664.852 2.713 2.56 2.721 4.429.084 19.655.153 39.338.222 59.005l.026 7.457c.007 1.989-1.166 3.793-2.986 4.594-.647.285-1.332.424-2.012.424z" id="path1836"/><g id="Cube_15_"><path d="M713.71 245.039c-.341 0-.685-.035-1.026-.106-1.967-.412-3.496-1.962-3.882-3.935l-.238-1.218c-.271-1.444.106-2.935 1.032-4.076.927-1.141 2.309-1.816 3.777-1.847.387-.008.774-.008 1.168-.008 1.877 0 3.596 1.051 4.451 2.722.854 1.67.702 3.68-.396 5.202-.208.289-.409.58-.609.87l-.169.244c-.945 1.365-2.491 2.152-4.108 2.152z" id="path1838"/><path d="M502.416 531.34c-7.833 0-15.477-2.194-23.37-6.709-57.899-33.124-115.685-66.252-171.754-98.465-19.161-11.021-28.935-27.945-29.052-50.305-.232-43.547-.412-87.821-.585-130.638-.088-21.678-.176-43.355-.271-65.032-.051-11.394 2.567-21.161 8.006-29.859.942-1.506 2.567-2.35 4.243-2.35.735 0 1.48.162 2.181.503.22.106.441.209.662.312.568.264 1.211.563 1.876.936l35.149 19.824c43.282 24.41 86.563 48.82 129.829 73.261 11.034 6.23 22.206 12.635 33.01 18.83 4.691 2.689 9.382 5.379 14.076 8.062.583.334 1.094.782 1.5 1.317.286.377.577.766.852 1.143.582.798.914 1.75.955 2.737.018.435.042.87.065 1.305.052.975.106 1.982.11 3.035l1.02 241.641c.002.959-.037 1.907-.078 2.859-.021.482-.042.966-.056 1.451-.028.987-.348 1.945-.919 2.752-.166.233-.33.479-.495.724l-.259.384c-.86 1.267-2.253 2.069-3.781 2.179-.967.068-1.947.103-2.914.103z" id="path1840"/><path d="M508.114 531.831c-1.092 0-2.199-.045-3.292-.132-2.268-.183-4.127-1.872-4.523-4.112 0 0-.182-.981-.222-1.22-.057-.332-.08-.669-.068-1.007.017-.515.041-1.027.064-1.538.038-.817.078-1.632.078-2.447.003-80.549.003-161.098 0-241.641 0-.815-.042-1.665-.085-2.564-.023-.467-.045-.935-.063-1.401-.022-.589.061-1.174.241-1.731.188-1.555 1.101-2.952 2.49-3.742 0 0 167.628-95.452 214.625-122.217.779-.444 1.63-.656 2.471-.656 1.642 0 3.244.809 4.198 2.278 5.453 8.402 8.229 18.447 8.249 29.854.094 66.337.163 131.26-.027 196.217-.062 21.795-10.021 39.071-28.8 49.963-55.464 32.212-111.918 64.857-166.513 96.429l-3.909 2.26c-8.62 4.984-16.769 7.407-24.914 7.407z" id="path1842"/><path d="M505.208 279.64c-.377 0-.755-.042-1.127-.128-.833-.021-1.647-.25-2.371-.668-4.72-2.725-9.437-5.455-14.153-8.186-10.732-6.212-21.829-12.637-32.775-18.879-43.055-24.562-86.124-49.092-129.193-73.622l-35.373-20.147c-.374-.212-.78-.396-1.183-.586-.273-.128-.547-.257-.818-.39-1.218-.597-2.141-1.663-2.557-2.954-.416-1.291-.291-2.695.348-3.891 4.463-8.356 11.216-15.074 20.646-20.537 20.701-11.989 41.405-23.97 62.108-35.952 35.734-20.68 71.467-41.359 107.178-62.074 9.608-5.575 19.424-8.401 29.174-8.401 9.851 0 19.824 2.886 29.646 8.578l19.416 11.251c48.064 27.854 97.765 56.655 146.677 84.936 7.728 4.47 17.368 11.014 23.372 22.039 1.304 2.393.451 5.388-1.916 6.736-47.054 26.798-214.625 122.217-214.625 122.217-.761.436-1.614.658-2.474.658z" id="path1844"/></g><path d="M505 531.551c-2.761 0-5-2.238-5-5V275.216c0-2.761 2.239-5 5-5s5 2.239 5 5V526.55c0 2.762-2.239 5.001-5 5.001z" id="path1847"/><path d="M504.583 280.217c-1.733 0-3.418-.903-4.342-2.514-1.373-2.396-.544-5.451 1.851-6.825L716.927 147.72c2.394-1.374 5.451-.544 6.824 1.851 1.373 2.396.545 5.451-1.852 6.825L507.065 279.554c-.784.449-1.639.663-2.482.663z" id="path1849"/><path d="M504.996 280.217c-.843 0-1.697-.213-2.48-.662L288.359 156.929c-2.396-1.372-3.227-4.427-1.854-6.823 1.372-2.396 4.428-3.227 6.823-1.854l214.156 122.626c2.396 1.372 3.227 4.427 1.854 6.823-.922 1.612-2.609 2.516-4.342 2.516z" id="path1851"/><path d="M268.125 220.092c-1.939 0-3.74-1.132-4.558-2.949-6.917-15.379-8.371-32.001-4.32-49.404 3.161-13.546 10.215-26.001 22.201-39.201.16-.176.333-.341.517-.493 17.106-14.133 34.568-21.003 53.386-21.003 28.015 0 54.59 15.559 80.291 30.605 4.066 2.379 8.076 4.845 11.954 7.23 19.731 12.137 38.368 23.601 61.708 23.601h.129c2.458-.007 5.007-.337 7.707-.688 1.316-.171 2.634-.341 3.953-.477.173-.018.345-.026.516-.026 2.119 0 4.034 1.346 4.729 3.387.752 2.206-.12 4.638-2.101 5.865-1.241.768-2.459 1.584-3.75 2.448-2.841 1.904-5.779 3.872-9.096 5.386-12.532 5.71-25.09 8.486-38.396 8.486-17.608 0-35.96-4.874-57.753-15.337-19.997-9.608-37.593-14.278-53.796-14.278-19.381 0-36.746 6.648-53.081 20.324-9.395 8.708-14.384 19.132-15.25 31.862-.155 2.289-1.848 4.177-4.106 4.582-.295.054-.591.08-.884.08z" id="path1853"/><path d="M348.33 466.532c-22.203-.002-42.832-8.109-63.065-24.787-.186-.153-.36-.32-.522-.498-14.197-15.645-22.553-30.372-26.299-46.348-4.812-20.553-3.116-40.191 5.04-58.369.816-1.82 2.619-2.954 4.56-2.954.291 0 .585.025.88.078 2.258.403 3.953 2.291 4.11 4.579 1.065 15.465 7.137 28.126 18.561 38.704 19.685 16.439 40.605 24.43 63.952 24.43 19.521-.001 40.693-5.624 64.726-17.19 25.895-12.476 47.691-18.286 68.595-18.286 15.711 0 30.549 3.275 45.36 10.012 3.869 1.762 7.334 4.071 10.685 6.304 1.561 1.041 3.035 2.023 4.546 2.953 1.986 1.223 2.864 3.655 2.115 5.863-.693 2.046-2.61 3.396-4.732 3.396-.169 0-.34-.009-.512-.026-1.568-.16-3.135-.36-4.7-.562-3.256-.418-6.331-.813-9.34-.824-28.224 0-50.618 13.808-74.326 28.425-4.608 2.842-9.374 5.78-14.123 8.565l-.089.053c-30.579 17.935-62.205 36.481-95.414 36.481-.006.001-.005.001-.008.001z" id="path1855"/><path d="M678.823 374.933c-26.817 0-52.231-14.879-76.809-29.269-3.872-2.265-7.7-4.62-11.402-6.897-18.815-11.574-36.587-22.506-58.805-22.506h-.126c-2.333.006-4.756.319-7.319.65-1.266.164-2.531.327-3.797.456-.172.018-.342.026-.512.026-2.119 0-4.034-1.346-4.729-3.387-.752-2.205.119-4.636 2.099-5.863 1.17-.725 2.322-1.498 3.543-2.315 2.73-1.829 5.554-3.72 8.745-5.177 11.999-5.468 24.022-8.125 36.763-8.125 16.85 0 34.406 4.661 55.251 14.667 19.068 9.161 35.842 13.614 51.281 13.614 18.452 0 34.984-6.33 50.541-19.351 8.925-8.277 13.665-18.184 14.49-30.28.156-2.289 1.85-4.177 4.107-4.582.296-.053.591-.079.883-.079 1.94 0 3.741 1.133 4.559 2.951 6.625 14.743 8.016 30.665 4.134 47.325-3.021 12.965-9.773 24.892-21.25 37.536-.16.177-.333.342-.518.494-16.378 13.533-33.102 20.112-51.129 20.112z" id="path1857"/></g><g id="g1892"><g id="g1865"><g id="g1863"><path class="st3" d="M743.025 271.515c-.913 13.385-6.325 24.599-16.173 33.693.053-17.719.094-35.447.147-53.165 7.091 5.046 12.238 11.707 16.026 19.472z" id="path1861" clip-rule="evenodd" fill-rule="evenodd"/></g></g><path class="st3" d="M268.127 215.091c.954-14.015 6.622-25.758 16.933-35.276-.056 18.552-.098 37.115-.152 55.669-7.425-5.288-12.812-12.261-16.781-20.393z" id="path1867" clip-rule="evenodd" fill-rule="evenodd"/><path class="st3" d="M268.044 338.578c1.154 16.748 7.932 30.752 20.247 42.116-.078-22.146-.153-44.32-.248-66.458-8.846 6.316-15.291 14.631-19.999 24.342z" id="path1869" clip-rule="evenodd" fill-rule="evenodd"/><g id="Cube_14_"><path d="M713.709 240.039c-.077-.395-.157-.788-.231-1.183.352-.007.705-.007 1.063-.007-.285.396-.559.796-.832 1.19z" id="path1871" clip-rule="evenodd" fill="#003054" fill-rule="evenodd"/><path class="st8" d="M504.975 526.248c-8.451.604-16.224-1.826-23.446-5.957C424.253 487.523 367 454.703 309.782 421.83c-17.529-10.082-26.436-25.539-26.542-45.995-.347-65.223-.571-130.445-.856-195.666-.044-9.748 2.058-18.89 7.246-27.187.761.37 1.542.699 2.279 1.112 54.991 31.018 109.99 62.021 164.962 93.077 15.73 8.881 31.379 17.912 47.064 26.879.267.351.537.713.793 1.064.058 1.383.165 2.768.171 4.152.341 80.543.68 161.09 1.02 241.641.003 1.379-.093 2.758-.132 4.148-.272.384-.542.795-.812 1.193z" id="path1873" clip-rule="evenodd" fill="#fff" fill-rule="evenodd"/><path class="st8" d="M505.006 525.525c.046-1.393.146-2.77.146-4.15.003-80.549.003-161.098 0-241.641 0-1.385-.1-2.77-.151-4.153.154-.295.223-.61.208-.941 71.546-40.742 143.09-81.476 214.625-122.217 5.344 8.234 7.426 17.478 7.443 27.142.093 65.398.164 130.798-.027 196.193-.058 20.17-9.022 35.627-26.309 45.652-56.764 32.967-113.593 65.826-170.416 98.686-7.819 4.521-16.125 7.355-25.302 6.619-.072-.403-.152-.807-.217-1.19z" id="path1875" clip-rule="evenodd" fill="#fff" fill-rule="evenodd"/><path class="st8" d="M719.833 152.423c-71.535 40.742-143.079 81.476-214.625 122.217l-.489-.137-.509.01c-15.648-9.033-31.259-18.129-46.952-27.078-54.841-31.286-109.707-62.521-164.568-93.77-.734-.416-1.516-.748-2.274-1.12 4.359-8.161 10.923-14.036 18.742-18.565 56.428-32.681 112.886-65.31 169.289-98.027 18.027-10.459 35.895-10.202 53.805.178 55.354 32.076 110.707 64.163 166.097 96.19 8.715 5.041 16.513 10.975 21.484 20.102z" id="path1877" clip-rule="evenodd" fill="#fff" fill-rule="evenodd"/></g><path id="line1880" fill="#369" stroke="#000" stroke-width="4" stroke-miterlimit="10" d="M505 275.216v251.33503"/><path class="st1" id="line1882" fill="none" stroke="#000" stroke-width="4" stroke-miterlimit="10" d="M504.578 275.216l214.83502-123.15699"/><path class="st1" id="line1884" fill="none" stroke="#000" stroke-width="4" stroke-miterlimit="10" d="M505 275.216L290.84399 152.59"/><path class="st3" d="M285.15 131.899c45.966-37.977 86.808-14.034 128.035 10.103 23.885 13.971 46.516 31.531 76.258 31.477 4.05-.011 8.102-.772 12.163-1.191-4.095 2.535-7.945 5.554-12.29 7.538-31.841 14.509-61.851 7.622-91.908-6.81-38.362-18.432-76.589-23.202-112.347 6.8-10.311 9.518-15.979 21.261-16.933 35.276-6.721-14.941-7.711-30.321-4.011-46.219 3.373-14.456 11.27-26.222 21.033-36.974z" id="path1886" clip-rule="evenodd" fill-rule="evenodd"/><path class="st3" d="M288.444 437.887c54.928 45.275 103.662 16.656 152.866-12.201 28.504-16.721 55.521-37.705 90.997-37.678 4.841.018 9.679.916 14.53 1.412-4.901-3.016-9.501-6.606-14.681-8.964-38.032-17.299-73.848-9.053-109.716 8.228-45.783 22.033-91.413 27.766-134.149-7.99-12.315-11.364-19.093-25.368-20.247-42.116-8.006 17.844-9.174 36.213-4.733 55.18 4.044 17.25 13.487 31.295 25.133 44.129z" id="path1888" clip-rule="evenodd" fill-rule="evenodd"/><path class="st3" d="M726.768 350.967c-43.896 36.27-82.901 13.406-122.28-9.649-22.807-13.341-44.422-30.111-72.815-30.058-3.874.01-7.744.736-11.615 1.132 3.898-2.417 7.584-5.3 11.731-7.194 30.406-13.857 59.066-7.28 87.772 6.501 36.639 17.603 73.143 22.158 107.292-6.491 9.848-9.094 15.26-20.309 16.173-33.693 6.413 14.272 7.362 28.958 3.825 44.142-3.217 13.802-10.761 25.039-20.083 35.31z" id="path1890" clip-rule="evenodd" fill-rule="evenodd"/></g></g></svg>