<?xml version="1.0" encoding="utf-8"?>
<!-- Generator: Adobe Illustrator 16.2.1, SVG Export Plug-In . SVG Version: 6.00 Build 0)  -->
<!DOCTYPE svg PUBLIC "-//W3C//DTD SVG 1.1//EN" "http://www.w3.org/Graphics/SVG/1.1/DTD/svg11.dtd">
<svg version="1.1" id="Layer_1" xmlns="http://www.w3.org/2000/svg" xmlns:xlink="http://www.w3.org/1999/xlink" x="0px" y="0px"
	 width="1024px" height="768px" viewBox="0 0 1024 768" style="enable-background:new 0 0 1024 768;" xml:space="preserve">
<style type="text/css">
<![CDATA[
	.st0{fill:#CC9966;stroke:#FFFFFF;stroke-width:4;stroke-miterlimit:10;}
	.st1{fill:none;stroke:#000000;stroke-width:4;stroke-miterlimit:10;}
	.st2{fill:#99CCFF;}
	.st3{fill-rule:evenodd;clip-rule:evenodd;}
	.st4{display:inline;}
	.st5{fill:none;stroke:#FFFFFF;stroke-width:4;stroke-miterlimit:10;}
	.st6{fill-rule:evenodd;clip-rule:evenodd;fill:none;stroke:#FFFFFF;stroke-width:4;stroke-miterlimit:10;}
	.st7{fill:#336699;stroke:#000000;stroke-width:4;stroke-miterlimit:10;}
	.st8{fill-rule:evenodd;clip-rule:evenodd;fill:#FFFFFF;}
	.st9{fill:none;stroke:#336699;stroke-width:0.5;stroke-miterlimit:10;}
	.st10{fill-rule:evenodd;clip-rule:evenodd;fill:#683DFE;}
	.st11{display:none;}
	.st12{fill-rule:evenodd;clip-rule:evenodd;fill:url(#SVGID_1_);}
	.st13{fill-rule:evenodd;clip-rule:evenodd;fill:url(#SVGID_2_);}
	.st14{fill-rule:evenodd;clip-rule:evenodd;fill:url(#SVGID_3_);}
	.st15{fill-rule:evenodd;clip-rule:evenodd;fill:#003054;}
	.st16{fill-rule:evenodd;clip-rule:evenodd;fill:#0091FC;}
	.st17{fill-rule:evenodd;clip-rule:evenodd;fill:#0256D1;}
]]>
</style>
<g class="st11">
	<g class="st4">
		<g>
			<g>
				<g>
					<path class="st2" d="M714.271,326.675c-1.36,0-2.729-0.277-4.023-0.846c-3.642-1.601-5.987-5.208-5.975-9.185
						c0.03-9.555,0.056-19.113,0.081-28.67l0.062-22.065c0.011-3.737,2.104-7.156,5.428-8.864c1.441-0.741,3.01-1.106,4.571-1.106
						c2.041,0,4.071,0.624,5.797,1.851c7.702,5.478,13.921,12.996,18.484,22.347c0.768,1.572,1.109,3.319,0.99,5.064
						c-1.041,15.315-7.31,28.377-18.632,38.825C719.17,325.763,716.736,326.675,714.271,326.675z"/>
				</g>
			</g>
			<path class="st2" d="M292.451,260.131c-2.044,0-4.077-0.625-5.804-1.856c-8.004-5.703-14.464-13.516-19.202-23.223
				c-0.767-1.572-1.109-3.318-0.99-5.064c1.081-15.913,7.594-29.485,19.358-40.34c1.884-1.738,4.317-2.65,6.783-2.65
				c1.36,0,2.729,0.277,4.023,0.846c3.641,1.601,5.987,5.207,5.975,9.184c0,0-0.117,43.762-0.145,53.135
				c-0.011,3.738-2.107,7.158-5.433,8.866C295.578,259.766,294.012,260.131,292.451,260.131z"/>
			<path class="st2" d="M295.679,398.729c-2.467,0-4.9-0.912-6.784-2.651c-13.671-12.618-21.248-28.384-22.518-46.861
				c-0.12-1.739,0.218-3.479,0.978-5.048c5.46-11.265,12.954-20.353,22.271-27.01c1.729-1.235,3.767-1.863,5.814-1.863
				c1.556,0,3.118,0.363,4.555,1.098c3.328,1.703,5.428,5.12,5.444,8.858c0.077,17.43,0.138,34.887,0.199,52.329l0.039,11.113
				c0.014,3.979-2.332,7.586-5.973,9.188C298.41,398.451,297.04,398.729,295.679,398.729z"/>
			<g id="Cube_7_">
				<path class="st2" d="M701.734,264.477c-0.654,0-1.314-0.064-1.973-0.197c-3.919-0.788-6.992-3.835-7.814-7.748
					c-0.096-0.454-0.185-0.907-0.27-1.363c-0.539-2.904,0.233-5.898,2.11-8.179s4.667-3.615,7.62-3.645
					c0.371-0.004,0.74-0.004,1.117-0.004c3.761,0,7.204,2.11,8.911,5.462c1.707,3.352,1.389,7.378-0.823,10.419
					c-0.162,0.222-0.315,0.448-0.469,0.671l-0.181,0.262C708.075,262.894,704.979,264.477,701.734,264.477z"/>
				<path class="st2" d="M499.444,538.179c-8.363,0-16.794-2.425-25.059-7.207c-56.306-32.528-111.332-64.382-163.542-94.672
					c-19.689-11.426-30.108-29.63-30.132-52.644c-0.045-41.583-0.039-83.857-0.033-124.74c0.003-20.676,0.006-41.352,0.003-62.027
					c-0.004-11.729,2.878-22.248,8.568-31.262c1.889-2.992,5.127-4.664,8.463-4.664c1.497,0,3.012,0.336,4.435,1.042
					c0.189,0.094,0.38,0.183,0.571,0.273c0.575,0.271,1.291,0.608,2.071,1.048l35.419,20.174
					c40.573,23.108,81.144,46.215,121.701,69.351c10.46,5.963,21.046,12.092,31.283,18.02c4.524,2.619,9.049,5.239,13.575,7.852
					c1.171,0.676,2.193,1.583,3.004,2.666c0.275,0.368,0.553,0.746,0.821,1.113c1.169,1.601,1.837,3.513,1.917,5.494l0.051,1.086
					c0.049,0.987,0.104,2.106,0.104,3.283c0.007,76.88,0.007,153.761,0,230.646c0,1.112-0.05,2.17-0.094,3.104
					c-0.019,0.401-0.038,0.804-0.052,1.208c-0.069,1.963-0.715,3.862-1.856,5.46c-0.127,0.179-0.251,0.362-0.375,0.546l-0.303,0.443
					c-1.731,2.518-4.519,4.104-7.567,4.31C501.431,538.146,500.43,538.179,499.444,538.179z"/>
				<path class="st2" d="M505.508,538.213c-1.186,0-2.388-0.048-3.573-0.144c-4.476-0.361-8.162-3.661-9.014-8.069
					c-0.082-0.422-0.163-0.852-0.237-1.263c-0.126-0.7-0.177-1.411-0.151-2.122c0.017-0.482,0.039-0.963,0.062-1.441
					c0.034-0.724,0.071-1.444,0.071-2.166c0.007-76.884,0.007-153.764,0-230.644c0-0.684-0.039-1.468-0.08-2.297
					c-0.021-0.42-0.042-0.84-0.059-1.26c-0.042-1.026,0.075-2.049,0.342-3.031c0.509-2.895,2.278-5.466,4.901-6.959l204.857-116.653
					c1.559-0.888,3.26-1.312,4.94-1.312c3.283,0,6.488,1.618,8.396,4.557c5.763,8.88,8.695,19.42,8.717,31.329
					c0.093,69.453,0.149,127.342-0.026,187.311c-0.063,22.767-10.47,40.817-30.094,52.2
					c-54.859,31.853-109.669,63.545-162.674,94.194C522.853,535.67,514.223,538.213,505.508,538.213z"/>
				<path class="st2" d="M502.719,297.505c-0.588,0-1.177-0.052-1.762-0.156c-1.471-0.12-2.903-0.564-4.188-1.307
					c-4.533-2.617-9.063-5.24-13.594-7.863c-10.21-5.911-20.768-12.024-31.173-17.956c-40.552-23.133-81.116-46.236-121.682-69.34
					l-35.393-20.159c-0.21-0.119-0.472-0.231-0.729-0.353c-0.312-0.146-0.624-0.294-0.933-0.447
					c-2.424-1.202-4.257-3.333-5.083-5.91c-0.825-2.576-0.571-5.377,0.704-7.763c4.731-8.854,11.828-15.938,21.694-21.658
					c19.893-11.521,39.787-23.035,59.682-34.548c33.972-19.66,67.944-39.32,101.895-59.014c9.98-5.789,20.233-8.724,30.473-8.724
					c10.335,0,20.737,2.992,30.917,8.892l23.602,13.677c44.216,25.623,89.937,52.119,134.926,78.131
					c7.968,4.607,17.931,11.392,24.284,23.062c2.605,4.785,0.901,10.775-3.834,13.471L507.668,296.195
					C506.146,297.062,504.439,297.505,502.719,297.505z"/>
			</g>
			<path class="st2" d="M502.52,537.949c-5.523,0-10-4.478-10-10V288.055c0-5.523,4.477-10,10-10s10,4.477,10,10v239.895
				C512.52,533.472,508.042,537.949,502.52,537.949z"/>
			<path class="st2" d="M502.129,298.056c-3.467,0-6.837-1.805-8.685-5.028c-2.747-4.792-1.089-10.902,3.702-13.649l205.053-117.553
				c4.793-2.747,10.903-1.089,13.649,3.702c2.746,4.792,1.089,10.902-3.702,13.649L507.094,296.73
				C505.525,297.629,503.816,298.056,502.129,298.056z"/>
			<path class="st2" d="M502.51,298.057c-1.685,0-3.393-0.427-4.96-1.324L293.145,179.689c-4.792-2.745-6.453-8.854-3.709-13.647
				c2.744-4.792,8.853-6.453,13.647-3.709l204.405,117.044c4.792,2.745,6.453,8.854,3.709,13.647
				C509.351,296.25,505.979,298.057,502.51,298.057z"/>
			<path class="st2" d="M276.428,240.666c-3.879,0-7.481-2.263-9.116-5.899c-7.083-15.75-8.579-32.734-4.448-50.482
				c3.226-13.829,10.347-26.457,22.411-39.746c0.321-0.354,0.667-0.684,1.035-0.987c17.302-14.295,35.058-21.244,54.284-21.244
				c28.16,0,54.15,15.217,79.285,29.933c3.925,2.296,7.779,4.666,11.506,6.958c18.182,11.184,35.356,21.747,56.15,21.747h0.117
				c2.033-0.005,4.324-0.302,6.749-0.616c1.281-0.166,2.563-0.331,3.846-0.464c0.349-0.036,0.696-0.054,1.041-0.054
				c4.234,0,8.063,2.688,9.457,6.767c1.507,4.411-0.233,9.278-4.195,11.733c-1.1,0.682-2.22,1.433-3.406,2.227
				c-2.755,1.846-5.879,3.938-9.436,5.563c-12.485,5.689-25.545,8.572-38.823,8.573c-17.618,0.001-35.853-4.814-57.386-15.152
				c-18.365-8.823-34.419-13.112-49.083-13.112c-17.181,0-32.626,5.919-47.208,18.094c-7.883,7.343-12.07,16.125-12.798,26.84
				c-0.311,4.577-3.697,8.356-8.212,9.166C277.605,240.615,277.013,240.666,276.428,240.666z"/>
			<path class="st2" d="M352.984,475.889c-22.457-0.002-43.234-8.131-63.521-24.852c-0.372-0.307-0.722-0.641-1.046-0.998
				c-14.169-15.618-22.532-30.412-26.318-46.558c-4.862-20.76-3.136-40.625,5.13-59.045c1.633-3.64,5.238-5.907,9.119-5.907
				c0.583,0,1.171,0.051,1.761,0.156c4.516,0.806,7.905,4.582,8.22,9.158c0.916,13.321,6.135,24.24,15.955,33.374
				c17.781,14.816,36.619,22.019,57.585,22.018c17.83-0.001,37.297-5.199,59.513-15.893c25.446-12.259,46.971-17.969,67.737-17.969
				c15.541,0,30.837,3.374,45.463,10.027c4.077,1.854,7.563,4.179,10.935,6.426c1.449,0.967,2.818,1.879,4.179,2.716
				c3.972,2.444,5.728,7.308,4.231,11.725c-1.386,4.092-5.221,6.793-9.466,6.793c-0.337,0-0.677-0.017-1.019-0.052
				c-1.556-0.158-3.11-0.356-4.663-0.556c-2.932-0.377-5.7-0.732-8.239-0.743c-25.432,0-46.195,12.805-68.177,26.361
				c-4.419,2.726-8.989,5.544-13.569,8.23c-29.874,17.521-60.684,35.588-93.803,35.588
				C352.988,475.889,352.988,475.889,352.984,475.889z"/>
			<path class="st2" d="M668.434,388.457c-27.013,0-51.887-14.562-75.941-28.645c-3.761-2.199-7.442-4.464-11.003-6.655
				c-17.31-10.648-33.659-20.707-53.384-20.707h-0.11c-1.893,0.005-4.052,0.286-6.337,0.583c-1.245,0.162-2.491,0.323-3.737,0.452
				c-0.347,0.036-0.692,0.054-1.035,0.054c-4.234,0-8.062-2.688-9.457-6.765c-1.507-4.408,0.229-9.272,4.187-11.73
				c1.033-0.642,2.09-1.35,3.209-2.1c2.659-1.782,5.673-3.801,9.117-5.373c11.977-5.458,24.509-8.224,37.251-8.224
				c16.896,0,34.373,4.612,55.002,14.515c17.478,8.397,32.746,12.479,46.682,12.479c16.294,0,30.946-5.618,44.782-17.17
				c7.437-6.93,11.386-15.217,12.073-25.327c0.311-4.577,3.695-8.355,8.211-9.165c0.592-0.106,1.185-0.158,1.77-0.158
				c3.878,0,7.479,2.263,9.115,5.897c6.808,15.128,8.247,31.445,4.277,48.499c-3.099,13.281-9.933,25.405-21.508,38.161
				c-0.321,0.354-0.667,0.685-1.036,0.989C703.954,381.787,686.902,388.457,668.434,388.457z"/>
		</g>
	</g>
	<g class="st4">
		<g>
			<g>
				<g>
					<path class="st17" d="M729.709,284.521c-0.868,12.772-6.034,23.478-15.437,32.154c0.053-16.91,0.093-33.828,0.143-50.737
						C721.183,270.75,726.093,277.112,729.709,284.521z"/>
				</g>
			</g>
			<path class="st17" d="M276.433,230.666c0.909-13.377,6.32-24.586,16.163-33.668c-0.052,17.706-0.092,35.425-0.145,53.134
				C285.362,245.081,280.221,238.427,276.433,230.666z"/>
			<path class="st17" d="M276.354,348.53c1.099,15.986,7.57,29.35,19.324,40.198c-0.075-21.135-0.145-42.304-0.238-63.434
				C286.998,331.327,280.846,339.262,276.354,348.53z"/>
			<g id="Cube_6_">
				<path class="st10" d="M701.733,254.477c-0.079-0.376-0.153-0.753-0.224-1.132c0.337-0.003,0.673-0.003,1.016-0.003
					C702.252,253.717,701.993,254.1,701.733,254.477z"/>
				<linearGradient id="SVGID_1_" gradientUnits="userSpaceOnUse" x1="396.6729" y1="170.9644" x2="396.6728" y2="528.1792">
					<stop  offset="0" style="stop-color:#00223D"/>
					<stop  offset="0.1241" style="stop-color:#002542"/>
					<stop  offset="0.5866" style="stop-color:#002D4F"/>
					<stop  offset="1" style="stop-color:#003054"/>
					<stop  offset="1" style="stop-color:#00355E"/>
					<stop  offset="1" style="stop-color:#004174"/>
					<stop  offset="1" style="stop-color:#004B85"/>
					<stop  offset="1" style="stop-color:#005190"/>
					<stop  offset="1" style="stop-color:#005597"/>
					<stop  offset="1" style="stop-color:#005699"/>
				</linearGradient>
				<path class="st12" d="M501.747,528.102c-8.07,0.543-15.476-1.806-22.353-5.785c-54.537-31.506-109.05-63.058-163.532-94.666
					c-16.693-9.688-25.13-24.482-25.15-44.004c-0.068-62.256-0.02-124.509-0.03-186.758c-0.003-9.305,2.038-18.022,7.025-25.923
					c0.725,0.359,1.469,0.675,2.171,1.071c52.365,29.829,104.733,59.641,157.077,89.5c14.978,8.539,29.881,17.226,44.813,25.846
					c0.252,0.336,0.506,0.683,0.751,1.018c0.054,1.321,0.146,2.642,0.146,3.963c0.007,76.881,0.007,153.761,0,230.645
					c0,1.318-0.093,2.632-0.14,3.96C502.263,527.337,502.008,527.723,501.747,528.102z"/>
				<linearGradient id="SVGID_2_" gradientUnits="userSpaceOnUse" x1="552.7383" y1="258.6274" x2="660.2241" y2="444.7984">
					<stop  offset="0" style="stop-color:#003366"/>
					<stop  offset="0.4667" style="stop-color:#003468"/>
					<stop  offset="0.6674" style="stop-color:#00396F"/>
					<stop  offset="0.8171" style="stop-color:#00427C"/>
					<stop  offset="0.9406" style="stop-color:#004E8D"/>
					<stop  offset="1" style="stop-color:#005699"/>
				</linearGradient>
				<path class="st13" d="M502.526,526.968c0.047-1.328,0.14-2.642,0.14-3.96c0.007-76.884,0.007-153.764,0-230.645
					c0-1.321-0.093-2.642-0.146-3.963c0.153-0.282,0.22-0.583,0.2-0.895c68.287-38.888,136.575-77.769,204.856-116.654
					c5.1,7.858,7.089,16.68,7.105,25.903c0.083,62.426,0.156,124.845-0.026,187.263c-0.054,19.25-8.61,34.008-25.111,43.579
					c-54.182,31.459-108.424,62.825-162.662,94.188c-7.461,4.318-15.387,7.023-24.143,6.317
					C502.666,527.723,502.593,527.337,502.526,526.968z"/>
				<linearGradient id="SVGID_3_" gradientUnits="userSpaceOnUse" x1="502.6411" y1="52.3081" x2="502.6411" y2="287.5054">
					<stop  offset="0" style="stop-color:#003366"/>
					<stop  offset="0.3992" style="stop-color:#004580"/>
					<stop  offset="0.644" style="stop-color:#004D8C"/>
					<stop  offset="1" style="stop-color:#005699"/>
				</linearGradient>
				<path class="st14" d="M707.576,170.852c-68.281,38.885-136.569,77.766-204.856,116.654l-0.467-0.133l-0.484,0.01
					c-14.932-8.62-29.836-17.307-44.813-25.846c-52.344-29.859-104.712-59.672-157.077-89.5c-0.702-0.396-1.446-0.712-2.171-1.071
					c4.162-7.788,10.428-13.394,17.889-17.719c53.857-31.193,107.745-62.336,161.58-93.564c17.21-9.982,34.267-9.736,51.357,0.17
					c52.835,30.616,105.672,61.247,158.536,91.813C695.39,156.476,702.832,162.138,707.576,170.852z"/>
			</g>
			<line class="st9" x1="502.52" y1="288.055" x2="502.52" y2="527.949"/>
			<line class="st9" x1="502.12" y1="288.055" x2="707.173" y2="170.502"/>
			<line class="st9" x1="502.52" y1="288.055" x2="298.114" y2="171.011"/>
			<path class="st16" d="M292.68,151.26c43.872-36.247,82.856-13.395,122.207,9.645c22.799,13.334,44.397,30.095,72.786,30.041
				c3.87-0.01,7.735-0.731,11.61-1.134c-3.908,2.422-7.581,5.3-11.727,7.193c-30.395,13.85-59.039,7.276-87.728-6.498
				c-36.616-17.592-73.102-22.144-107.232,6.491c-9.843,9.082-15.254,20.292-16.163,33.668c-6.414-14.262-7.36-28.94-3.829-44.114
				C275.823,172.754,283.363,161.523,292.68,151.26z"/>
			<path class="st16" d="M295.824,443.32c52.428,43.213,98.947,15.898,145.911-11.645c27.204-15.962,52.987-35.99,86.851-35.967
				c4.622,0.021,9.236,0.879,13.871,1.351c-4.678-2.878-9.069-6.308-14.014-8.557c-36.299-16.512-70.486-8.644-104.723,7.851
				c-43.697,21.033-87.249,26.506-128.042-7.625c-11.754-10.848-18.225-24.212-19.324-40.198
				c-7.642,17.031-8.758,34.562-4.518,52.668C275.696,417.662,284.707,431.066,295.824,443.32z"/>
			<path class="st16" d="M714.192,360.357c-41.898,34.617-79.126,12.792-116.713-9.212c-21.766-12.732-42.402-28.745-69.503-28.694
				c-3.692,0.01-7.386,0.705-11.085,1.087c3.723-2.312,7.242-5.063,11.201-6.87c29.021-13.225,56.378-6.944,83.775,6.208
				c34.968,16.8,69.813,21.149,102.404-6.202c9.402-8.676,14.568-19.382,15.437-32.154c6.129,13.62,7.03,27.636,3.657,42.128
				C730.291,339.827,723.092,350.55,714.192,360.357z"/>
		</g>
	</g>
</g>
<g id="Color_1_" class="st11">
	<g class="st4">
		<g>
			<g>
				<path class="st8" d="M735.81,282.198c-0.89,13.039-6.161,23.964-15.755,32.824c0.051-17.262,0.091-34.533,0.144-51.793
					C727.104,268.144,732.119,274.633,735.81,282.198z"/>
			</g>
		</g>
		<path class="st8" d="M271.908,227.479c0.928-13.654,6.451-25.094,16.496-34.367c-0.054,18.073-0.094,36.158-0.148,54.233
			C281.023,242.193,275.774,235.4,271.908,227.479z"/>
		<path class="st8" d="M269.93,347.53c1.124,16.316,7.727,29.96,19.724,41.03c-0.075-21.575-0.148-43.177-0.241-64.744
			C280.796,329.97,274.517,338.07,269.93,347.53z"/>
		<g id="Cube_3_">
			<path class="st6" d="M503.897,530.363c-8.233,0.587-15.806-1.779-22.841-5.807c-55.799-31.923-111.576-63.896-167.318-95.92
				c-17.077-9.82-25.754-24.881-25.858-44.81c-0.338-63.541-0.556-127.081-0.834-190.62c-0.042-9.497,2.006-18.402,7.06-26.485
				c0.741,0.36,1.502,0.68,2.22,1.083c53.573,30.217,107.155,60.422,160.709,90.676c15.324,8.653,30.57,17.45,45.85,26.187
				c0.261,0.342,0.523,0.695,0.773,1.037c0.057,1.347,0.161,2.696,0.167,4.046c0.332,78.465,0.662,156.936,0.991,235.409
				c0.005,1.344-0.088,2.688-0.127,4.042C504.425,529.576,504.161,529.974,503.897,530.363z"/>
			<path class="st6" d="M503.928,529.657c0.045-1.354,0.143-2.699,0.143-4.043c0.002-78.473,0.002-156.943,0-235.41
				c0-1.349-0.098-2.698-0.147-4.046c0.149-0.287,0.218-0.594,0.202-0.917c69.701-39.691,139.399-79.375,209.091-119.065
				c5.207,8.021,7.234,17.026,7.25,26.441c0.091,63.712,0.161,127.425-0.024,191.134c-0.057,19.648-8.791,34.709-25.63,44.476
				c-55.302,32.117-110.664,64.128-166.023,96.141c-7.616,4.404-15.708,7.166-24.647,6.446
				C504.07,530.426,503.991,530.032,503.928,529.657z"/>
			<path class="st6" d="M713.216,166.176c-69.691,39.69-139.39,79.375-209.091,119.065l-0.477-0.134l-0.496,0.01
				c-15.244-8.8-30.453-17.662-45.74-26.379c-53.427-30.479-106.878-60.909-160.325-91.352c-0.716-0.405-1.477-0.729-2.216-1.091
				c4.247-7.95,10.642-13.674,18.259-18.087c54.973-31.839,109.974-63.625,164.924-95.5c17.562-10.189,34.97-9.938,52.417,0.174
				c53.927,31.248,107.853,62.509,161.813,93.71C700.777,151.503,708.373,157.284,713.216,166.176z"/>
		</g>
		<line class="st0" x1="503.923" y1="285.803" x2="503.923" y2="530.657"/>
		<line class="st5" x1="503.512" y1="285.803" x2="712.807" y2="165.821"/>
		<line class="st5" x1="503.923" y1="285.803" x2="295.289" y2="166.338"/>
		<path class="st8" d="M288.491,146.432c44.78-36.998,84.569-13.672,124.733,9.843c23.27,13.61,45.316,30.717,74.292,30.665
			c3.945-0.012,7.893-0.752,11.85-1.16c-3.99,2.469-7.74,5.411-11.973,7.342c-31.02,14.136-60.256,7.425-89.538-6.634
			c-37.373-17.957-74.614-22.603-109.45,6.625c-10.045,9.273-15.568,20.713-16.496,34.367c-6.547-14.556-7.513-29.539-3.907-45.028
			C271.286,168.369,278.98,156.906,288.491,146.432z"/>
		<path class="st8" d="M289.951,444.28c53.512,44.107,100.989,16.227,148.924-11.887c27.77-16.291,54.088-36.733,88.65-36.706
			c4.716,0.015,9.428,0.892,14.155,1.374c-4.775-2.938-9.257-6.436-14.302-8.733c-37.052-16.853-71.944-8.819-106.888,8.015
			c-44.602,21.465-89.056,27.052-130.691-7.782c-11.997-11.07-18.6-24.714-19.724-41.03c-7.8,17.384-8.937,35.28-4.612,53.758
			C269.405,418.094,278.605,431.776,289.951,444.28z"/>
		<path class="st8" d="M719.973,359.6c-42.766,35.333-80.764,13.061-119.128-9.4c-22.219-12.996-43.275-29.334-70.938-29.283
			c-3.774,0.01-7.544,0.718-11.315,1.104c3.799-2.355,7.389-5.164,11.43-7.009c29.621-13.5,57.543-7.092,85.509,6.333
			c35.693,17.149,71.256,21.586,104.525-6.324c9.594-8.86,14.865-19.785,15.755-32.824c6.248,13.904,7.174,28.211,3.729,43.002
			C736.403,338.647,729.054,349.594,719.973,359.6z"/>
	</g>
</g>
<g id="Black_1_">
	<g>
		<g>
			<g>
				<path d="M815.31,410.295c-0.68,0-1.363-0.139-2.01-0.422c-1.821-0.801-2.995-2.604-2.989-4.594l0.087-32.057
					c0.033-12.698,0.066-25.396,0.105-38.087c0.006-1.869,1.053-3.578,2.715-4.432c0.72-0.37,1.504-0.553,2.285-0.553
					c1.021,0,2.035,0.312,2.898,0.925c9.572,6.809,17.012,15.828,22.742,27.574c0.384,0.786,0.555,1.66,0.495,2.533
					c-1.286,18.836-9.003,34.914-22.936,47.785C817.761,409.838,816.544,410.295,815.31,410.295z"/>
			</g>
		</g>
		<path d="M232.204,318.299c-1.022,0-2.039-0.313-2.902-0.928c-9.989-7.119-17.752-16.536-23.734-28.789
			c-0.384-0.787-0.555-1.66-0.495-2.533c1.338-19.667,9.393-36.448,23.941-49.876c0.942-0.87,2.159-1.326,3.393-1.326
			c0.68,0,1.365,0.139,2.011,0.423c1.821,0.8,2.994,2.604,2.988,4.592c-0.041,13.227-0.075,26.459-0.11,39.692
			c-0.029,11.254-0.059,22.508-0.092,33.76c-0.005,1.869-1.053,3.58-2.716,4.433C233.767,318.117,232.984,318.299,232.204,318.299z"
			/>
		<path d="M236.665,509.891c-1.233,0-2.45-0.457-3.392-1.326c-17.185-15.855-26.711-35.674-28.312-58.9
			c-0.06-0.869,0.109-1.74,0.489-2.525c6.9-14.229,16.314-25.67,27.982-34.004c0.864-0.617,1.883-0.932,2.907-0.932
			c0.778,0,1.559,0.182,2.278,0.549c1.664,0.852,2.713,2.561,2.722,4.43c0.126,29.098,0.225,58.24,0.324,87.35l0.001,0.342
			c0.007,1.988-1.166,3.793-2.986,4.594C238.031,509.752,237.345,509.891,236.665,509.891z"/>
		<g id="Cube_18_">
			<path d="M797.969,324.306c-0.341,0-0.685-0.035-1.026-0.106c-1.964-0.411-3.491-1.957-3.88-3.924c0,0-0.242-1.217-0.313-1.591
				c-0.274-1.442,0.099-2.931,1.021-4.074c0.922-1.142,2.299-1.822,3.766-1.859c0.508-0.013,1.016-0.013,1.531-0.013
				c1.877,0,3.596,1.051,4.451,2.722c0.854,1.67,0.702,3.68-0.396,5.202c-0.27,0.374-0.53,0.751-0.79,1.125l-0.261,0.375
				C801.125,323.522,799.583,324.306,797.969,324.306z"/>
			<path d="M519.191,702.057c-10.053,0-19.882-2.826-30.047-8.641c-75.257-43.053-151.5-86.762-226.612-129.914
				c-24.753-14.236-37.38-36.104-37.53-64.996c-0.307-57.66-0.545-116.284-0.775-172.977c-0.115-28.397-0.23-56.794-0.354-85.191
				c-0.066-14.72,3.309-27.326,10.317-38.54c0.941-1.506,2.567-2.351,4.243-2.351c0.73,0,1.471,0.16,2.168,0.497
				c0.289,0.139,0.58,0.273,0.871,0.408c0.737,0.341,1.573,0.728,2.415,1.2l45.438,25.628
				c56.454,31.84,114.831,64.764,172.226,97.186c14.56,8.22,29.304,16.673,43.562,24.847c6.185,3.545,12.368,7.092,18.557,10.629
				c0.579,0.331,1.086,0.774,1.49,1.305c0.372,0.486,0.747,0.991,1.104,1.476c0.589,0.801,0.927,1.759,0.968,2.753
				c0.024,0.563,0.055,1.127,0.084,1.69c0.069,1.286,0.14,2.616,0.144,3.989l1.348,318.815c0.001,1.26-0.051,2.473-0.102,3.645
				c-0.028,0.66-0.057,1.322-0.075,1.986c-0.026,0.988-0.346,1.945-0.917,2.752c-0.238,0.336-0.476,0.691-0.713,1.045l-0.297,0.441
				c-0.86,1.27-2.256,2.076-3.786,2.186C521.681,702.012,520.427,702.057,519.191,702.057z"/>
			<path d="M526.702,702.705c-1.397,0-2.815-0.059-4.214-0.17c-2.266-0.182-4.123-1.867-4.522-4.105c0,0-0.239-1.293-0.291-1.592
				c-0.06-0.34-0.083-0.686-0.071-1.029c0.022-0.645,0.052-1.285,0.082-1.926c0.056-1.18,0.107-2.293,0.107-3.377
				c0.006-106.275,0.006-212.553,0-318.823c0-1.131-0.056-2.286-0.115-3.51c-0.028-0.595-0.057-1.189-0.079-1.783
				c-0.024-0.642,0.074-1.279,0.29-1.879c0.146-1.615,1.071-3.077,2.505-3.894c0,0,230.212-131.091,283.181-161.257
				c0.779-0.444,1.631-0.656,2.471-0.656c1.643,0,3.244,0.809,4.198,2.279c7.022,10.823,10.598,23.784,10.627,38.522
				c0.123,87.632,0.213,173.371-0.039,258.884c-0.078,28.156-12.942,50.475-37.201,64.545
				c-72.304,41.994-145.896,84.551-217.067,125.705l-7.787,4.504C547.657,699.576,537.165,702.705,526.702,702.705z"/>
			<path d="M522.868,369.962c-0.432,0-0.865-0.056-1.289-0.169c-0.009,0-0.019,0-0.027,0c-0.877,0-1.739-0.23-2.5-0.669
				c-6.321-3.649-12.638-7.307-18.955-10.963c-14.069-8.145-28.618-16.566-42.97-24.752
				c-55.677-31.763-112.309-64.016-167.075-95.207l-50.058-28.51c-0.485-0.276-1.068-0.549-1.686-0.839
				c-0.348-0.163-0.695-0.326-1.04-0.495c-1.218-0.597-2.141-1.663-2.558-2.954c-0.417-1.291-0.291-2.695,0.348-3.892
				c5.745-10.756,14.457-19.413,26.632-26.467c27.376-15.855,54.758-31.701,82.14-47.547
				c46.295-26.791,94.166-54.494,141.221-81.789c12.429-7.213,25.109-10.87,37.689-10.87c12.712,0,25.604,3.736,38.317,11.104
				l27.614,16.002c62.764,36.37,127.663,73.979,191.53,110.909c10.015,5.792,22.501,14.261,30.236,28.458
				c1.304,2.393,0.451,5.389-1.916,6.737c-52.86,30.104-283.181,161.257-283.181,161.257
				C524.582,369.741,523.728,369.962,522.868,369.962z"/>
		</g>
		<path d="M522.595,702.332c-2.762,0-5-2.238-5-5V365.72c0-2.761,2.238-5,5-5s5,2.239,5,5v331.612
			C527.595,700.094,525.356,702.332,522.595,702.332z"/>
		<path d="M522.043,370.722c-1.733,0-3.419-0.903-4.343-2.515c-1.373-2.396-0.545-5.451,1.852-6.825l283.456-162.495
			c2.395-1.373,5.451-0.543,6.824,1.851c1.373,2.396,0.545,5.451-1.852,6.825L524.524,370.058
			C523.741,370.507,522.886,370.722,522.043,370.722z"/>
		<path d="M522.59,370.722c-0.842,0-1.696-0.214-2.479-0.662L237.548,208.265c-2.396-1.372-3.227-4.427-1.854-6.823
			c1.372-2.397,4.428-3.226,6.823-1.854l282.562,161.795c2.396,1.371,3.227,4.427,1.854,6.822
			C526.01,369.818,524.324,370.722,522.59,370.722z"/>
		<path d="M210.059,291.39c-1.939,0-3.74-1.132-4.558-2.949c-8.979-19.962-10.863-41.55-5.599-64.165
			c4.106-17.598,13.294-33.806,28.917-51.01c0.161-0.177,0.333-0.341,0.517-0.493c22.272-18.4,44.981-27.345,69.422-27.345
			c36.53,0,71.404,20.417,105.129,40.163l0.091,0.053c5.262,3.078,10.546,6.328,15.656,9.471
			c26.232,16.134,51.009,31.374,82.252,31.374h0.172c3.338-0.011,6.745-0.452,10.354-0.92c1.69-0.219,3.439-0.446,5.194-0.626
			c0.172-0.018,0.345-0.026,0.515-0.026c2.119,0,4.034,1.346,4.73,3.388c0.751,2.206-0.121,4.638-2.103,5.864
			c-1.664,1.029-3.285,2.115-5.002,3.265c-3.694,2.475-7.515,5.034-11.772,6.978c-16.32,7.437-32.673,11.052-49.994,11.052
			c-22.984,0-46.978-6.38-75.507-20.079c-26.605-12.783-50.048-18.996-71.672-18.996c-25.974,0-49.23,8.903-71.09,27.214
			c-12.729,11.786-19.488,25.895-20.661,43.127c-0.156,2.289-1.848,4.177-4.106,4.582
			C210.647,291.364,210.351,291.39,210.059,291.39z"/>
		<path d="M315.882,616.549c-28.909-0.002-55.795-10.58-82.194-32.338c-0.186-0.154-0.361-0.32-0.523-0.5
			c-18.543-20.438-29.45-39.645-34.327-60.441c-6.266-26.77-4.062-52.338,6.549-75.994c0.816-1.82,2.619-2.955,4.56-2.955
			c0.291,0,0.585,0.025,0.879,0.078c2.258,0.402,3.953,2.291,4.111,4.578c1.437,20.844,9.625,37.906,25.027,52.156
			c26.281,21.959,54.227,32.633,85.435,32.633c26.001-0.002,54.164-7.473,86.096-22.84c33.943-16.352,62.483-23.969,89.816-23.969
			c20.495,0,39.854,4.273,59.184,13.064c4.988,2.273,9.505,5.285,13.873,8.197c1.981,1.32,4.029,2.686,6.047,3.928
			c1.985,1.221,2.862,3.654,2.114,5.863c-0.693,2.045-2.61,3.395-4.732,3.395c-0.17,0-0.34-0.01-0.512-0.027
			c-2.08-0.211-4.16-0.479-6.172-0.738c-4.343-0.559-8.445-1.084-12.51-1.102c-37.691,0-67.425,18.334-98.904,37.742
			c-6.074,3.746-12.355,7.619-18.607,11.285l-0.116,0.068c-40.164,23.557-81.702,47.916-125.085,47.916
			C315.885,616.549,315.887,616.549,315.882,616.549z"/>
		<path d="M751.94,495.691c-34.95,0-68.292-19.521-100.535-38.398c-5.096-2.982-10.138-6.084-15.015-9.084
			c-25.022-15.393-48.656-29.93-78.426-29.93h-0.168c-3.187,0.008-6.438,0.428-9.88,0.873c-1.648,0.213-3.296,0.426-4.944,0.596
			c-0.172,0.018-0.344,0.025-0.514,0.025c-2.118,0-4.033-1.344-4.729-3.385c-0.752-2.205,0.118-4.637,2.097-5.863
			c1.566-0.971,3.097-1.996,4.717-3.082c3.552-2.379,7.224-4.84,11.319-6.711c15.617-7.117,31.265-10.576,47.841-10.576
			c21.985,0,44.931,6.1,72.209,19.195c25.38,12.191,47.737,18.119,68.354,18.119c24.747,0,46.905-8.482,67.739-25.93
			c12.107-11.221,18.537-24.647,19.657-41.041c0.156-2.288,1.85-4.177,4.108-4.581c0.295-0.053,0.59-0.078,0.882-0.078
			c1.94,0,3.742,1.133,4.559,2.951c8.592,19.125,10.393,39.792,5.352,61.42c-3.92,16.824-12.709,32.336-27.659,48.814
			c-0.161,0.178-0.334,0.342-0.519,0.494C797.072,487.131,775.338,495.691,751.94,495.691z"/>
	</g>
	<g>
		<g>
			<g>
				<path class="st3" d="M836.65,360.841c-1.206,17.656-8.35,32.452-21.34,44.454c0.068-23.378,0.121-46.772,0.192-70.145
					C824.858,341.804,831.65,350.594,836.65,360.841z"/>
			</g>
		</g>
		<path class="st3" d="M210.061,286.389c1.258-18.49,8.74-33.984,22.344-46.542c-0.075,24.477-0.13,48.97-0.202,73.452
			C222.409,306.32,215.299,297.121,210.061,286.389z"/>
		<path class="st3" d="M209.95,449.32c1.523,22.1,10.467,40.578,26.714,55.57c-0.099-29.223-0.198-58.479-0.325-87.688
			C224.669,425.539,216.163,436.508,209.95,449.32z"/>
		<g id="Cube_17_">
			<path class="st15" d="M797.968,319.306c-0.103-0.519-0.208-1.038-0.307-1.556c0.466-0.012,0.932-0.012,1.405-0.012
				C798.69,318.26,798.329,318.787,797.968,319.306z"/>
			<path class="st8" d="M522.562,696.936c-11.151,0.795-21.405-2.41-30.935-7.859c-75.572-43.234-151.11-86.539-226.604-129.91
				c-23.128-13.301-34.88-33.697-35.021-60.688c-0.458-86.055-0.753-172.11-1.129-258.163c-0.058-12.862,2.715-24.921,9.557-35.868
				c1.007,0.485,2.036,0.918,3.01,1.465c72.556,40.926,145.12,81.834,217.651,122.806c20.755,11.717,41.403,23.633,62.097,35.463
				c0.354,0.462,0.71,0.942,1.049,1.403c0.077,1.826,0.218,3.653,0.223,5.482c0.45,106.266,0.9,212.545,1.348,318.823
				c0.002,1.816-0.125,3.639-0.175,5.473C523.274,695.869,522.917,696.41,522.562,696.936z"/>
			<path class="st8" d="M522.601,695.98c0.063-1.836,0.192-3.656,0.192-5.475c0.006-106.275,0.006-212.553,0-318.823
				c0-1.829-0.129-3.656-0.198-5.482c0.204-0.386,0.293-0.803,0.273-1.238c94.397-53.757,188.793-107.503,283.181-161.257
				c7.049,10.864,9.796,23.062,9.821,35.811c0.121,86.289,0.215,172.58-0.039,258.861c-0.074,26.613-11.902,47.006-34.71,60.234
				c-74.895,43.498-149.876,86.85-224.849,130.205c-10.318,5.969-21.276,9.705-33.385,8.734
				C522.793,697.021,522.688,696.486,522.601,695.98z"/>
			<path class="st8" d="M806.049,203.706c-94.388,53.754-188.783,107.5-283.181,161.257l-0.643-0.183l-0.674,0.014
				c-20.647-11.918-41.245-23.919-61.948-35.727c-72.357-41.278-144.75-82.487-217.135-123.719
				c-0.966-0.549-1.997-0.988-2.999-1.479c5.75-10.765,14.413-18.52,24.728-24.496c74.451-43.119,148.941-86.168,223.363-129.337
				c23.784-13.803,47.36-13.46,70.991,0.235c73.036,42.321,146.069,84.656,219.148,126.914
				C789.202,183.836,799.487,191.663,806.049,203.706z"/>
		</g>
		<line class="st7" x1="522.595" y1="365.72" x2="522.595" y2="697.332"/>
		<line class="st1" x1="522.038" y1="365.72" x2="805.494" y2="203.226"/>
		<line class="st1" x1="522.595" y1="365.72" x2="240.033" y2="203.926"/>
		<path class="st3" d="M232.521,176.627c60.651-50.107,114.538-18.515,168.931,13.331c31.515,18.432,61.375,41.601,100.615,41.529
			c5.344-0.017,10.69-1.021,16.051-1.573c-5.404,3.344-10.483,7.328-16.22,9.946c-42.009,19.144-81.605,10.056-121.261-8.985
			c-50.617-24.32-101.052-30.613-148.231,8.972c-13.604,12.558-21.086,28.052-22.344,46.542
			c-8.867-19.712-10.172-40.003-5.289-60.979C209.222,206.338,219.639,190.813,232.521,176.627z"/>
		<path class="st3" d="M236.868,580.352c72.474,59.734,136.771,21.977,201.694-16.1c37.61-22.061,73.254-49.748,120.061-49.715
			c6.387,0.025,12.771,1.213,19.171,1.867c-6.466-3.98-12.536-8.717-19.369-11.832c-50.179-22.82-97.436-11.939-144.761,10.859
			c-60.406,29.07-120.613,36.637-177-10.541c-16.247-14.992-25.191-33.471-26.714-55.57c-10.561,23.545-12.101,47.781-6.243,72.807
			C209.042,544.885,221.504,563.418,236.868,580.352z"/>
		<path class="st3" d="M815.2,465.668c-57.921,47.855-109.385,17.688-161.341-12.732c-30.091-17.604-58.609-39.727-96.072-39.656
			c-5.111,0.014-10.219,0.971-15.325,1.494c5.143-3.189,10.006-6.992,15.478-9.492c40.116-18.283,77.933-9.605,115.809,8.578
			c48.341,23.223,96.504,29.234,141.562-8.564c12.99-12.002,20.134-26.797,21.34-44.454c8.458,18.828,9.711,38.206,5.043,58.237
			C837.45,437.289,827.495,452.115,815.2,465.668z"/>
	</g>
</g>
<g>
</g>
<g>
</g>
<g>
</g>
<g>
</g>
<g>
</g>
<g>
</g>
<g>
</g>
<g>
</g>
<g>
</g>
<g>
</g>
<g>
</g>
<g>
</g>
<g>
</g>
<g>
</g>
<g>
</g>
</svg>
