<svg xmlns="http://www.w3.org/2000/svg" version="1.1" id="Layer_1" x="0" y="0" width="653.99292" height="667.86603" xml:space="preserve"><style type="text/css" id="style9080">.st1{fill:none;stroke:#000;stroke-width:4;stroke-miterlimit:10}.st2{fill:#9cf}.st3{fill-rule:evenodd;clip-rule:evenodd}.st4{display:inline}.st5{fill:none;stroke:#fff;stroke-width:4;stroke-miterlimit:10}.st6,.st8{fill-rule:evenodd;clip-rule:evenodd}.st6{stroke:#fff;stroke-width:4;stroke-miterlimit:10;fill:none}.st8{fill:#fff}.st9{fill:none;stroke:#369;stroke-width:.5;stroke-miterlimit:10}.st11{display:none}.st16,.st17{fill-rule:evenodd;clip-rule:evenodd;fill:#0091fc}.st17{fill:#0256d1}</style><g id="Black_1_" transform="translate(-195.35817 -34.839)"><g id="g9260"><g id="g9233"><g id="g9231"><path d="M815.31 410.295c-.68 0-1.363-.139-2.01-.422-1.821-.801-2.995-2.604-2.989-4.594l.087-32.057c.033-12.698.066-25.396.105-38.087.006-1.869 1.053-3.578 2.715-4.432.72-.37 1.504-.553 2.285-.553 1.021 0 2.035.312 2.898.925 9.572 6.809 17.012 15.828 22.742 27.574.384.786.555 1.66.495 2.533-1.286 18.836-9.003 34.914-22.936 47.785-.941.871-2.158 1.328-3.392 1.328z" id="path9229"/></g></g><path d="M232.204 318.299c-1.022 0-2.039-.313-2.902-.928-9.989-7.119-17.752-16.536-23.734-28.789-.384-.787-.555-1.66-.495-2.533 1.338-19.667 9.393-36.448 23.941-49.876.942-.87 2.159-1.326 3.393-1.326.68 0 1.365.139 2.011.423 1.821.8 2.994 2.604 2.988 4.592-.041 13.227-.075 26.459-.11 39.692-.029 11.254-.059 22.508-.092 33.76-.005 1.869-1.053 3.58-2.716 4.433-.721.37-1.504.552-2.284.552z" id="path9235"/><path d="M236.665 509.891c-1.233 0-2.45-.457-3.392-1.326-17.185-15.855-26.711-35.674-28.312-58.9-.06-.869.109-1.74.489-2.525 6.9-14.229 16.314-25.67 27.982-34.004.864-.617 1.883-.932 2.907-.932.778 0 1.559.182 2.278.549 1.664.852 2.713 2.561 2.722 4.43.126 29.098.225 58.24.324 87.35l.001.342c.007 1.988-1.166 3.793-2.986 4.594-.647.283-1.333.422-2.013.422z" id="path9237"/><g id="Cube_18_"><path d="M797.969 324.306c-.341 0-.685-.035-1.026-.106-1.964-.411-3.491-1.957-3.88-3.924 0 0-.242-1.217-.313-1.591-.274-1.442.099-2.931 1.021-4.074.922-1.142 2.299-1.822 3.766-1.859.508-.013 1.016-.013 1.531-.013 1.877 0 3.596 1.051 4.451 2.722.854 1.67.702 3.68-.396 5.202-.27.374-.53.751-.79 1.125l-.261.375c-.947 1.359-2.489 2.143-4.103 2.143z" id="path9239"/><path d="M519.191 702.057c-10.053 0-19.882-2.826-30.047-8.641-75.257-43.053-151.5-86.762-226.612-129.914-24.753-14.236-37.38-36.104-37.53-64.996-.307-57.66-.545-116.284-.775-172.977-.115-28.397-.23-56.794-.354-85.191-.066-14.72 3.309-27.326 10.317-38.54.941-1.506 2.567-2.351 4.243-2.351.73 0 1.471.16 2.168.497.289.139.58.273.871.408.737.341 1.573.728 2.415 1.2l45.438 25.628c56.454 31.84 114.831 64.764 172.226 97.186 14.56 8.22 29.304 16.673 43.562 24.847 6.185 3.545 12.368 7.092 18.557 10.629.579.331 1.086.774 1.49 1.305.372.486.747.991 1.104 1.476.589.801.927 1.759.968 2.753.024.563.055 1.127.084 1.69.069 1.286.14 2.616.144 3.989l1.348 318.815c.001 1.26-.051 2.473-.102 3.645-.028.66-.057 1.322-.075 1.986-.026.988-.346 1.945-.917 2.752-.238.336-.476.691-.713 1.045l-.297.441c-.86 1.27-2.256 2.076-3.786 2.186-1.237.087-2.491.132-3.727.132z" id="path9241"/><path d="M526.702 702.705c-1.397 0-2.815-.059-4.214-.17-2.266-.182-4.123-1.867-4.522-4.105 0 0-.239-1.293-.291-1.592-.06-.34-.083-.686-.071-1.029.022-.645.052-1.285.082-1.926.056-1.18.107-2.293.107-3.377.006-106.275.006-212.553 0-318.823 0-1.131-.056-2.286-.115-3.51-.028-.595-.057-1.189-.079-1.783-.024-.642.074-1.279.29-1.879.146-1.615 1.071-3.077 2.505-3.894 0 0 230.212-131.091 283.181-161.257.779-.444 1.631-.656 2.471-.656 1.643 0 3.244.809 4.198 2.279 7.022 10.823 10.598 23.784 10.627 38.522.123 87.632.213 173.371-.039 258.884-.078 28.156-12.942 50.475-37.201 64.545-72.304 41.994-145.896 84.551-217.067 125.705l-7.787 4.504c-11.12 6.433-21.612 9.562-32.075 9.562z" id="path9243"/><path d="M522.868 369.962c-.432 0-.865-.056-1.289-.169h-.027c-.877 0-1.739-.23-2.5-.669-6.321-3.649-12.638-7.307-18.955-10.963-14.069-8.145-28.618-16.566-42.97-24.752-55.677-31.763-112.309-64.016-167.075-95.207l-50.058-28.51c-.485-.276-1.068-.549-1.686-.839-.348-.163-.695-.326-1.04-.495-1.218-.597-2.141-1.663-2.558-2.954-.417-1.291-.291-2.695.348-3.892 5.745-10.756 14.457-19.413 26.632-26.467 27.376-15.855 54.758-31.701 82.14-47.547 46.295-26.791 94.166-54.494 141.221-81.789 12.429-7.213 25.109-10.87 37.689-10.87 12.712 0 25.604 3.736 38.317 11.104l27.614 16.002c62.764 36.37 127.663 73.979 191.53 110.909 10.015 5.792 22.501 14.261 30.236 28.458 1.304 2.393.451 5.389-1.916 6.737-52.86 30.104-283.181 161.257-283.181 161.257-.758.435-1.612.656-2.472.656z" id="path9245"/></g><path d="M522.595 702.332c-2.762 0-5-2.238-5-5V365.72c0-2.761 2.238-5 5-5s5 2.239 5 5v331.612c0 2.762-2.239 5-5 5z" id="path9248"/><path d="M522.043 370.722c-1.733 0-3.419-.903-4.343-2.515-1.373-2.396-.545-5.451 1.852-6.825l283.456-162.495c2.395-1.373 5.451-.543 6.824 1.851 1.373 2.396.545 5.451-1.852 6.825L524.524 370.058c-.783.449-1.638.664-2.481.664z" id="path9250"/><path d="M522.59 370.722c-.842 0-1.696-.214-2.479-.662L237.548 208.265c-2.396-1.372-3.227-4.427-1.854-6.823 1.372-2.397 4.428-3.226 6.823-1.854l282.562 161.795c2.396 1.371 3.227 4.427 1.854 6.822-.923 1.613-2.609 2.517-4.343 2.517z" id="path9252"/><path d="M210.059 291.39c-1.939 0-3.74-1.132-4.558-2.949-8.979-19.962-10.863-41.55-5.599-64.165 4.106-17.598 13.294-33.806 28.917-51.01.161-.177.333-.341.517-.493 22.272-18.4 44.981-27.345 69.422-27.345 36.53 0 71.404 20.417 105.129 40.163l.091.053c5.262 3.078 10.546 6.328 15.656 9.471 26.232 16.134 51.009 31.374 82.252 31.374h.172c3.338-.011 6.745-.452 10.354-.92 1.69-.219 3.439-.446 5.194-.626.172-.018.345-.026.515-.026 2.119 0 4.034 1.346 4.73 3.388.751 2.206-.121 4.638-2.103 5.864-1.664 1.029-3.285 2.115-5.002 3.265-3.694 2.475-7.515 5.034-11.772 6.978-16.32 7.437-32.673 11.052-49.994 11.052-22.984 0-46.978-6.38-75.507-20.079-26.605-12.783-50.048-18.996-71.672-18.996-25.974 0-49.23 8.903-71.09 27.214-12.729 11.786-19.488 25.895-20.661 43.127-.156 2.289-1.848 4.177-4.106 4.582-.297.052-.593.078-.885.078z" id="path9254"/><path d="M315.882 616.549c-28.909-.002-55.795-10.58-82.194-32.338-.186-.154-.361-.32-.523-.5-18.543-20.438-29.45-39.645-34.327-60.441-6.266-26.77-4.062-52.338 6.549-75.994.816-1.82 2.619-2.955 4.56-2.955.291 0 .585.025.879.078 2.258.402 3.953 2.291 4.111 4.578 1.437 20.844 9.625 37.906 25.027 52.156 26.281 21.959 54.227 32.633 85.435 32.633 26.001-.002 54.164-7.473 86.096-22.84 33.943-16.352 62.483-23.969 89.816-23.969 20.495 0 39.854 4.273 59.184 13.064 4.988 2.273 9.505 5.285 13.873 8.197 1.981 1.32 4.029 2.686 6.047 3.928 1.985 1.221 2.862 3.654 2.114 5.863-.693 2.045-2.61 3.395-4.732 3.395-.17 0-.34-.01-.512-.027-2.08-.211-4.16-.479-6.172-.738-4.343-.559-8.445-1.084-12.51-1.102-37.691 0-67.425 18.334-98.904 37.742-6.074 3.746-12.355 7.619-18.607 11.285l-.116.068c-40.164 23.557-81.702 47.916-125.085 47.916-.006.001-.004.001-.009.001z" id="path9256"/><path d="M751.94 495.691c-34.95 0-68.292-19.521-100.535-38.398-5.096-2.982-10.138-6.084-15.015-9.084-25.022-15.393-48.656-29.93-78.426-29.93h-.168c-3.187.008-6.438.428-9.88.873-1.648.213-3.296.426-4.944.596-.172.018-.344.025-.514.025-2.118 0-4.033-1.344-4.729-3.385-.752-2.205.118-4.637 2.097-5.863 1.566-.971 3.097-1.996 4.717-3.082 3.552-2.379 7.224-4.84 11.319-6.711 15.617-7.117 31.265-10.576 47.841-10.576 21.985 0 44.931 6.1 72.209 19.195 25.38 12.191 47.737 18.119 68.354 18.119 24.747 0 46.905-8.482 67.739-25.93 12.107-11.221 18.537-24.647 19.657-41.041.156-2.288 1.85-4.177 4.108-4.581.295-.053.59-.078.882-.078 1.94 0 3.742 1.133 4.559 2.951 8.592 19.125 10.393 39.792 5.352 61.42-3.92 16.824-12.709 32.336-27.659 48.814-.161.178-.334.342-.519.494-21.313 17.612-43.047 26.172-66.445 26.172z" id="path9258"/></g><g id="g9293"><g id="g9266"><g id="g9264"><path class="st3" d="M836.65 360.841c-1.206 17.656-8.35 32.452-21.34 44.454.068-23.378.121-46.772.192-70.145 9.356 6.654 16.148 15.444 21.148 25.691z" id="path9262" clip-rule="evenodd" fill-rule="evenodd"/></g></g><path class="st3" d="M210.061 286.389c1.258-18.49 8.74-33.984 22.344-46.542-.075 24.477-.13 48.97-.202 73.452-9.794-6.979-16.904-16.178-22.142-26.91z" id="path9268" clip-rule="evenodd" fill-rule="evenodd"/><path class="st3" d="M209.95 449.32c1.523 22.1 10.467 40.578 26.714 55.57-.099-29.223-.198-58.479-.325-87.688-11.67 8.337-20.176 19.306-26.389 32.118z" id="path9270" clip-rule="evenodd" fill-rule="evenodd"/><g id="Cube_17_"><path d="M797.968 319.306c-.103-.519-.208-1.038-.307-1.556.466-.012.932-.012 1.405-.012-.376.522-.737 1.049-1.098 1.568z" id="path9272" clip-rule="evenodd" fill="#003054" fill-rule="evenodd"/><path class="st8" d="M522.562 696.936c-11.151.795-21.405-2.41-30.935-7.859-75.572-43.234-151.11-86.539-226.604-129.91-23.128-13.301-34.88-33.697-35.021-60.688-.458-86.055-.753-172.11-1.129-258.163-.058-12.862 2.715-24.921 9.557-35.868 1.007.485 2.036.918 3.01 1.465 72.556 40.926 145.12 81.834 217.651 122.806 20.755 11.717 41.403 23.633 62.097 35.463.354.462.71.942 1.049 1.403.077 1.826.218 3.653.223 5.482.45 106.266.9 212.545 1.348 318.823.002 1.816-.125 3.639-.175 5.473-.359.506-.716 1.047-1.071 1.573z" id="path9274" clip-rule="evenodd" fill="#fff" fill-rule="evenodd"/><path class="st8" d="M522.601 695.98c.063-1.836.192-3.656.192-5.475.006-106.275.006-212.553 0-318.823 0-1.829-.129-3.656-.198-5.482.204-.386.293-.803.273-1.238 94.397-53.757 188.793-107.503 283.181-161.257 7.049 10.864 9.796 23.062 9.821 35.811.121 86.289.215 172.58-.039 258.861-.074 26.613-11.902 47.006-34.71 60.234-74.895 43.498-149.876 86.85-224.849 130.205-10.318 5.969-21.276 9.705-33.385 8.734-.094-.529-.199-1.064-.286-1.57z" id="path9276" clip-rule="evenodd" fill="#fff" fill-rule="evenodd"/><path class="st8" d="M806.049 203.706c-94.388 53.754-188.783 107.5-283.181 161.257l-.643-.183-.674.014c-20.647-11.918-41.245-23.919-61.948-35.727-72.357-41.278-144.75-82.487-217.135-123.719-.966-.549-1.997-.988-2.999-1.479 5.75-10.765 14.413-18.52 24.728-24.496 74.451-43.119 148.941-86.168 223.363-129.337 23.784-13.803 47.36-13.46 70.991.235 73.036 42.321 146.069 84.656 219.148 126.914 11.503 6.651 21.788 14.478 28.35 26.521z" id="path9278" clip-rule="evenodd" fill="#fff" fill-rule="evenodd"/></g><path id="line9281" fill="#369" stroke="#000" stroke-width="4" stroke-miterlimit="10" d="M522.59497 365.72v331.61197"/><path class="st1" id="line9283" fill="none" stroke="#000" stroke-width="4" stroke-miterlimit="10" d="M522.03802 365.72l283.456-162.494"/><path class="st1" id="line9285" fill="none" stroke="#000" stroke-width="4" stroke-miterlimit="10" d="M522.59497 365.72L240.033 203.92599"/><path class="st3" d="M232.521 176.627c60.651-50.107 114.538-18.515 168.931 13.331 31.515 18.432 61.375 41.601 100.615 41.529 5.344-.017 10.69-1.021 16.051-1.573-5.404 3.344-10.483 7.328-16.22 9.946-42.009 19.144-81.605 10.056-121.261-8.985-50.617-24.32-101.052-30.613-148.231 8.972-13.604 12.558-21.086 28.052-22.344 46.542-8.867-19.712-10.172-40.003-5.289-60.979 4.449-19.072 14.866-34.597 27.748-48.783z" id="path9287" clip-rule="evenodd" fill-rule="evenodd"/><path class="st3" d="M236.868 580.352c72.474 59.734 136.771 21.977 201.694-16.1 37.61-22.061 73.254-49.748 120.061-49.715 6.387.025 12.771 1.213 19.171 1.867-6.466-3.98-12.536-8.717-19.369-11.832-50.179-22.82-97.436-11.939-144.761 10.859-60.406 29.07-120.613 36.637-177-10.541-16.247-14.992-25.191-33.471-26.714-55.57-10.561 23.545-12.101 47.781-6.243 72.807 5.335 22.758 17.797 41.291 33.161 58.225z" id="path9289" clip-rule="evenodd" fill-rule="evenodd"/><path class="st3" d="M815.2 465.668c-57.921 47.855-109.385 17.688-161.341-12.732-30.091-17.604-58.609-39.727-96.072-39.656-5.111.014-10.219.971-15.325 1.494 5.143-3.189 10.006-6.992 15.478-9.492 40.116-18.283 77.933-9.605 115.809 8.578 48.341 23.223 96.504 29.234 141.562-8.564 12.99-12.002 20.134-26.797 21.34-44.454 8.458 18.828 9.711 38.206 5.043 58.237-4.244 18.21-14.199 33.036-26.494 46.589z" id="path9291" clip-rule="evenodd" fill-rule="evenodd"/></g></g></svg>