<?xml version="1.0" encoding="utf-8"?>
<!-- Generator: Adobe Illustrator 16.2.1, SVG Export Plug-In . SVG Version: 6.00 Build 0)  -->
<!DOCTYPE svg PUBLIC "-//W3C//DTD SVG 1.1//EN" "http://www.w3.org/Graphics/SVG/1.1/DTD/svg11.dtd">
<svg version="1.1" id="Layer_1" xmlns="http://www.w3.org/2000/svg" xmlns:xlink="http://www.w3.org/1999/xlink" x="0px" y="0px"
	 width="1024px" height="319.791px" viewBox="0 0 1024 319.791" style="enable-background:new 0 0 1024 319.791;"
	 xml:space="preserve">
<style type="text/css">
<![CDATA[
	.st0{fill:#99CCFF;}
	.st1{fill:#003366;}
	.st2{fill:none;stroke:#336699;stroke-width:0.5;stroke-miterlimit:10;}
	.st3{fill-rule:evenodd;clip-rule:evenodd;fill:#683DFE;}
	.st4{fill-rule:evenodd;clip-rule:evenodd;fill:url(#SVGID_1_);}
	.st5{fill-rule:evenodd;clip-rule:evenodd;fill:url(#SVGID_2_);}
	.st6{fill-rule:evenodd;clip-rule:evenodd;fill:url(#SVGID_3_);}
	.st7{fill-rule:evenodd;clip-rule:evenodd;fill:#0091FC;}
	.st8{fill-rule:evenodd;clip-rule:evenodd;fill:#0256D1;}
]]>
</style>
<g id="Dark">
	<g>
		<g>
			<g>
				<g>
					<path class="st0" d="M366.574,174.085c-0.68,0-1.364-0.138-2.011-0.422c-1.82-0.8-2.994-2.604-2.988-4.592l0.072-26.203
						c0.006-1.869,1.053-3.578,2.715-4.432c0.72-0.37,1.504-0.553,2.285-0.553c1.021,0,2.036,0.312,2.898,0.926
						c3.957,2.815,7.151,6.677,9.494,11.479c0.383,0.786,0.554,1.659,0.494,2.532c-0.535,7.863-3.754,14.572-9.567,19.939
						C369.025,173.629,367.807,174.085,366.574,174.085z"/>
				</g>
			</g>
			<path class="st0" d="M148.754,139.721c-1.021,0-2.038-0.312-2.901-0.927c-4.111-2.928-7.43-6.942-9.863-11.931
				c-0.383-0.786-0.554-1.659-0.495-2.531c0.555-8.172,3.9-15.145,9.943-20.722c0.942-0.87,2.159-1.326,3.392-1.326
				c0.68,0,1.364,0.139,2.011,0.423c1.821,0.8,2.994,2.604,2.988,4.592l-0.076,27.438c-0.005,1.869-1.053,3.579-2.716,4.433
				C150.318,139.539,149.535,139.721,148.754,139.721z"/>
			<path class="st0" d="M150.422,211.291c-1.233,0-2.449-0.456-3.392-1.325c-7.029-6.485-10.923-14.59-11.576-24.09
				c-0.06-0.87,0.109-1.739,0.489-2.523c2.808-5.793,6.66-10.465,11.448-13.885c0.864-0.617,1.883-0.931,2.907-0.931
				c0.778,0,1.559,0.181,2.278,0.549c1.664,0.852,2.713,2.56,2.722,4.429c0.04,9.078,0.072,18.169,0.104,27.253l0.02,5.506
				c0.007,1.989-1.166,3.793-2.986,4.594C151.788,211.152,151.102,211.291,150.422,211.291z"/>
			<g id="Cube_8_">
				<path class="st0" d="M360.098,141.966c-0.337,0-0.676-0.034-1.014-0.104c-1.964-0.406-3.494-1.946-3.89-3.911l-0.128-0.654
					c-0.269-1.444,0.111-2.933,1.04-4.072c0.928-1.139,2.309-1.812,3.777-1.841c0.207-0.004,0.412-0.004,0.623-0.004
					c1.877,0,3.597,1.052,4.451,2.723c0.855,1.671,0.702,3.681-0.397,5.203l-0.355,0.509
					C363.26,141.18,361.715,141.966,360.098,141.966z"/>
				<path class="st0" d="M255.645,283.301c-4.289,0-8.615-1.244-12.859-3.697c-28.955-16.729-57.37-33.177-84.451-48.889
					c-10.114-5.873-15.465-15.225-15.478-27.044c-0.023-21.553-0.02-43.105-0.017-64.656l0.001-31.786
					c-0.002-6.025,1.479-11.427,4.399-16.054c0.944-1.495,2.563-2.332,4.231-2.332c0.741,0,1.491,0.165,2.196,0.51l0.286,0.136
					c0.372,0.174,0.74,0.353,1.097,0.555l16.908,9.63c21.41,12.193,42.819,24.387,64.219,36.596
					c5.429,3.095,10.839,6.227,16.249,9.359l6.915,4c0.587,0.339,1.1,0.794,1.505,1.337l0.422,0.571
					c0.586,0.803,0.92,1.762,0.958,2.755l0.027,0.592c0.026,0.549,0.052,1.099,0.052,1.647c0.003,39.698,0.003,79.397,0,119.101
					c0,0.523-0.022,1.047-0.048,1.573l-0.027,0.642c-0.033,0.98-0.354,1.928-0.923,2.728l-0.348,0.508
					c-0.865,1.267-2.264,2.066-3.795,2.168C256.655,283.284,256.148,283.301,255.645,283.301z"/>
				<path class="st0" d="M258.767,283.318c-0.605,0-1.221-0.024-1.826-0.073c-2.257-0.181-4.109-1.856-4.518-4.083l-0.12-0.648
					c-0.057-0.333-0.079-0.671-0.067-1.009l0.033-0.771c0.017-0.368,0.036-0.735,0.036-1.103c0.003-39.703,0.003-79.402,0-119.1
					c0-0.386-0.021-0.771-0.04-1.157l-0.031-0.696c-0.02-0.512,0.039-1.021,0.173-1.512c0.252-1.453,1.139-2.742,2.452-3.49
					L360.64,89.438c0.779-0.444,1.631-0.656,2.471-0.656c1.642,0,3.243,0.809,4.197,2.278c2.959,4.557,4.465,9.971,4.477,16.09
					c0.046,34.523,0.077,65.628-0.014,96.722c-0.034,11.694-5.38,20.966-15.458,26.812c-27.204,15.798-54.893,31.811-81.67,47.296
					l-2.33,1.347C267.672,282.013,263.242,283.318,258.767,283.318z"/>
				<path class="st0" d="M257.333,159.02c-0.292,0-0.585-0.025-0.875-0.077c-0.744-0.057-1.468-0.28-2.117-0.655l-6.923-4.004
					c-5.392-3.121-10.783-6.242-16.195-9.328c-21.42-12.221-42.849-24.425-64.277-36.629l-16.831-9.586
					c-0.123-0.07-0.268-0.132-0.41-0.199l-0.435-0.207c-1.218-0.597-2.142-1.663-2.559-2.954c-0.417-1.291-0.292-2.696,0.348-3.893
					c2.429-4.546,6.073-8.184,11.141-11.12c10.273-5.95,20.548-11.896,30.822-17.842c17.541-10.151,35.082-20.302,52.613-30.471
					c5.128-2.975,10.394-4.483,15.652-4.483c5.307,0,10.65,1.538,15.882,4.57l10.817,6.268c23.676,13.72,47.354,27.44,71.043,41.139
					c4.097,2.369,9.217,5.856,12.478,11.846c1.303,2.392,0.45,5.387-1.917,6.735l-105.781,60.237
					C259.047,158.798,258.194,159.02,257.333,159.02z"/>
			</g>
			<path class="st0" d="M257.23,283.181c-2.762,0-5-2.239-5-5V154.304c0-2.761,2.238-5,5-5s5,2.239,5,5v123.877
				C262.23,280.942,259.992,283.181,257.23,283.181z"/>
			<path class="st0" d="M257.028,159.305c-1.733,0-3.419-0.903-4.343-2.514c-1.373-2.396-0.545-5.451,1.852-6.825l105.885-60.701
				c2.395-1.373,5.451-0.543,6.824,1.851c1.373,2.396,0.545,5.451-1.852,6.825l-105.885,60.701
				C258.726,159.091,257.871,159.305,257.028,159.305z"/>
			<path class="st0" d="M257.225,159.305c-0.842,0-1.696-0.213-2.479-0.662L149.195,98.204c-2.396-1.372-3.227-4.427-1.854-6.823
				c1.372-2.396,4.429-3.226,6.823-1.854l105.551,60.439c2.396,1.372,3.227,4.427,1.854,6.823
				C260.645,158.401,258.959,159.305,257.225,159.305z"/>
			<path class="st0" d="M140.482,129.671c-1.939,0-3.74-1.132-4.558-2.949c-3.643-8.1-4.413-16.836-2.287-25.965
				c1.659-7.112,5.324-13.61,11.534-20.45c0.161-0.177,0.333-0.342,0.518-0.494c8.904-7.356,18.039-10.933,27.927-10.933
				c14.496,0,27.897,7.846,40.858,15.435c2.024,1.184,4.012,2.407,5.935,3.589c9.41,5.789,18.299,11.256,29.084,11.256
				c1.109-0.003,2.289-0.156,3.539-0.318c0.67-0.087,1.34-0.173,2.011-0.243c0.173-0.018,0.346-0.026,0.517-0.026
				c2.118,0,4.033,1.345,4.729,3.386c0.752,2.205-0.118,4.637-2.099,5.865c-0.596,0.369-1.181,0.762-1.765,1.153
				c-1.418,0.95-3.024,2.027-4.85,2.859c-6.425,2.928-13.145,4.412-19.977,4.412c-9.073,0-18.467-2.481-29.562-7.809
				c-9.506-4.567-17.819-6.787-25.417-6.787c-8.913,0-16.923,3.07-24.484,9.384c-4.105,3.824-6.285,8.396-6.664,13.972
				c-0.155,2.289-1.848,4.178-4.105,4.583C141.071,129.645,140.774,129.671,140.482,129.671z"/>
			<path class="st0" d="M180.013,251.135c-11.556-0.001-22.251-4.187-32.696-12.796c-0.186-0.153-0.36-0.32-0.522-0.498
				c-7.297-8.04-11.604-15.656-13.553-23.969c-2.501-10.685-1.613-20.907,2.641-30.386c0.816-1.82,2.619-2.954,4.56-2.954
				c0.291,0,0.585,0.026,0.88,0.078c2.258,0.403,3.953,2.291,4.11,4.58c0.476,6.924,3.189,12.6,8.293,17.345
				c9.213,7.678,18.977,11.41,29.845,11.41c9.231,0,19.307-2.69,30.801-8.222c13.117-6.32,24.21-9.264,34.908-9.264
				c8.001,0,15.876,1.737,23.406,5.163c2.094,0.953,3.887,2.148,5.622,3.305c0.716,0.478,1.433,0.956,2.164,1.406
				c1.986,1.222,2.863,3.654,2.115,5.863c-0.692,2.046-2.61,3.396-4.732,3.396c-0.169,0-0.339-0.008-0.511-0.026
				c-0.798-0.082-1.596-0.184-2.393-0.286c-1.521-0.196-2.956-0.38-4.278-0.385c-13.186,0-23.927,6.624-35.298,13.636
				c-2.281,1.407-4.64,2.862-7.003,4.248c-15.409,9.037-31.297,18.355-48.354,18.355
				C180.015,251.135,180.015,251.135,180.013,251.135z"/>
			<path class="st0" d="M342.903,205.987c-13.905,0-26.732-7.51-39.138-14.773c-1.933-1.13-3.832-2.299-5.669-3.429
				c-8.96-5.512-17.423-10.718-27.655-10.718c-1.045,0.002-2.166,0.148-3.353,0.302c-0.641,0.083-1.282,0.166-1.924,0.232
				c-0.173,0.018-0.346,0.026-0.517,0.026c-2.117,0-4.031-1.344-4.729-3.382c-0.753-2.204,0.114-4.636,2.093-5.865
				c0.561-0.348,1.11-0.718,1.661-1.086c1.367-0.917,2.917-1.955,4.682-2.761c6.167-2.81,12.616-4.233,19.174-4.233
				c8.699,0,17.701,2.376,28.329,7.479c9.048,4.347,16.956,6.46,24.177,6.46c8.455,0,16.056-2.913,23.233-8.905
				c3.873-3.611,5.931-7.928,6.289-13.193c0.155-2.288,1.849-4.177,4.106-4.582c0.296-0.053,0.592-0.079,0.884-0.079
				c1.939,0,3.741,1.132,4.559,2.95c3.499,7.783,4.238,16.174,2.195,24.94c-1.593,6.831-5.109,13.068-11.066,19.631
				c-0.16,0.177-0.333,0.342-0.518,0.494C361.171,202.554,352.401,205.987,342.903,205.987z"/>
		</g>
	</g>
	<g>
		<g>
			<g>
				<g>
					<path class="st8" d="M374.545,152.48c-0.449,6.597-3.117,12.124-7.971,16.605c0.025-8.733,0.046-17.47,0.072-26.202
						C370.142,145.37,372.678,148.653,374.545,152.48z"/>
				</g>
			</g>
			<path class="st8" d="M140.484,124.67c0.469-6.908,3.263-12.695,8.346-17.387c-0.027,9.144-0.048,18.293-0.076,27.438
				C145.094,132.115,142.439,128.678,140.484,124.67z"/>
			<path class="st8" d="M140.443,185.533c0.567,8.255,3.908,15.157,9.978,20.758c-0.039-10.915-0.075-21.844-0.123-32.755
				C145.939,176.649,142.763,180.747,140.443,185.533z"/>
			<g id="Cube_7_">
				<path class="st3" d="M360.097,136.966c-0.039-0.194-0.078-0.389-0.114-0.583c0.174-0.003,0.347-0.003,0.524-0.003
					C360.367,136.575,360.232,136.772,360.097,136.966z"/>
				<linearGradient id="SVGID_1_" gradientUnits="userSpaceOnUse" x1="202.5728" y1="93.8433" x2="202.5727" y2="278.3013">
					<stop  offset="0" style="stop-color:#00223D"/>
					<stop  offset="0.1241" style="stop-color:#002542"/>
					<stop  offset="0.5866" style="stop-color:#002D4F"/>
					<stop  offset="1" style="stop-color:#003054"/>
					<stop  offset="1" style="stop-color:#00355E"/>
					<stop  offset="1" style="stop-color:#004174"/>
					<stop  offset="1" style="stop-color:#004B85"/>
					<stop  offset="1" style="stop-color:#005190"/>
					<stop  offset="1" style="stop-color:#005597"/>
					<stop  offset="1" style="stop-color:#005699"/>
				</linearGradient>
				<path class="st4" d="M256.831,278.261c-4.167,0.279-7.991-0.934-11.542-2.986c-28.163-16.271-56.312-32.563-84.445-48.885
					c-8.619-5.005-12.976-12.643-12.986-22.725c-0.035-32.148-0.011-64.293-0.016-96.438c-0.001-4.805,1.053-9.306,3.627-13.384
					c0.375,0.184,0.758,0.347,1.121,0.552c27.04,15.402,54.082,30.796,81.11,46.216c7.735,4.41,15.43,8.894,23.142,13.346
					c0.13,0.174,0.262,0.353,0.389,0.526c0.026,0.682,0.075,1.364,0.075,2.046c0.003,39.698,0.003,79.397,0,119.101
					c0,0.68-0.049,1.359-0.072,2.045C257.098,277.865,256.965,278.064,256.831,278.261z"/>
				<linearGradient id="SVGID_2_" gradientUnits="userSpaceOnUse" x1="283.1602" y1="139.1094" x2="338.665" y2="235.2467">
					<stop  offset="0" style="stop-color:#003366"/>
					<stop  offset="0.4667" style="stop-color:#003468"/>
					<stop  offset="0.6674" style="stop-color:#00396F"/>
					<stop  offset="0.8171" style="stop-color:#00427C"/>
					<stop  offset="0.9406" style="stop-color:#004E8D"/>
					<stop  offset="1" style="stop-color:#005699"/>
				</linearGradient>
				<path class="st5" d="M257.233,277.675c0.023-0.686,0.072-1.365,0.072-2.045c0.003-39.703,0.003-79.402,0-119.101
					c0-0.682-0.049-1.364-0.075-2.046c0.078-0.146,0.111-0.301,0.104-0.464c35.262-20.08,70.523-40.157,105.781-60.237
					c2.635,4.058,3.661,8.614,3.67,13.377c0.043,32.233,0.08,64.466-0.014,96.698c-0.029,9.941-4.447,17.56-12.967,22.502
					c-27.979,16.247-55.986,32.442-83.994,48.64c-3.852,2.229-7.947,3.625-12.469,3.262
					C257.305,278.064,257.265,277.865,257.233,277.675z"/>
				<linearGradient id="SVGID_3_" gradientUnits="userSpaceOnUse" x1="257.2915" y1="32.5708" x2="257.2915" y2="154.02">
					<stop  offset="0" style="stop-color:#003366"/>
					<stop  offset="0.3992" style="stop-color:#004580"/>
					<stop  offset="0.644" style="stop-color:#004D8C"/>
					<stop  offset="1" style="stop-color:#005699"/>
				</linearGradient>
				<path class="st6" d="M363.115,93.783c-35.258,20.08-70.52,40.157-105.781,60.237l-0.241-0.067l-0.251,0.005
					c-7.712-4.452-15.406-8.936-23.142-13.346c-27.028-15.42-54.07-30.814-81.11-46.216c-0.363-0.205-0.746-0.369-1.121-0.552
					c2.149-4.022,5.385-6.918,9.237-9.15c27.811-16.107,55.637-32.189,83.437-48.314c8.886-5.155,17.692-5.028,26.519,0.088
					c27.283,15.809,54.566,31.624,81.864,47.409C356.822,86.36,360.666,89.285,363.115,93.783z"/>
			</g>
			<line class="st2" x1="257.23" y1="154.304" x2="257.23" y2="278.181"/>
			<line class="st2" x1="257.023" y1="154.304" x2="362.908" y2="93.604"/>
			<line class="st2" x1="257.23" y1="154.304" x2="151.679" y2="93.865"/>
			<path class="st7" d="M148.873,83.667c22.655-18.718,42.785-6.917,63.104,4.979c11.772,6.886,22.926,15.541,37.584,15.514
				c1.997-0.006,3.994-0.38,5.995-0.587c-2.017,1.25-3.915,2.737-6.057,3.715c-15.694,7.151-30.486,3.756-45.299-3.356
				c-18.907-9.084-37.748-11.435-55.372,3.352c-5.083,4.691-7.877,10.479-8.346,17.387c-3.312-7.364-3.802-14.944-1.977-22.78
				C140.169,94.766,144.062,88.967,148.873,83.667z"/>
			<path class="st7" d="M150.497,234.48c27.072,22.315,51.093,8.21,75.344-6.013c14.049-8.243,27.362-18.584,44.848-18.571
				c2.387,0.008,4.77,0.452,7.162,0.696c-2.416-1.486-4.683-3.257-7.236-4.419c-18.744-8.526-36.397-4.462-54.076,4.056
				c-22.564,10.859-45.054,13.686-66.118-3.938c-6.07-5.601-9.411-12.503-9.978-20.758c-3.947,8.795-4.523,17.849-2.334,27.197
				C140.103,221.233,144.756,228.155,150.497,234.48z"/>
			<path class="st7" d="M366.533,191.639c-21.636,17.876-40.859,6.607-60.268-4.756c-11.24-6.575-21.895-14.842-35.889-14.816
				c-1.908,0.005-3.816,0.363-5.726,0.561c1.921-1.193,3.739-2.613,5.782-3.547c14.987-6.828,29.113-3.587,43.261,3.205
				c18.058,8.676,36.05,10.921,52.881-3.2c4.854-4.481,7.521-10.009,7.971-16.605c3.163,7.034,3.63,14.272,1.887,21.755
				C374.845,181.039,371.128,186.577,366.533,191.639z"/>
		</g>
	</g>
</g>
<g>
	<path class="st1" d="M442.716,166.438h-16.033v67.464H409.4V88.146h17.282v64.966h15.616l46.851-64.966h19.989l-51.431,69.338
		l57.886,76.418H493.73L442.716,166.438z"/>
	<path class="st1" d="M530.376,233.902v-13.951h28.11v-76.209h-28.11v-13.951h38.938l3.332,13.535h1.041
		c4.718-4.301,9.994-7.981,15.825-11.036c5.83-3.052,12.77-4.581,20.822-4.581c4.717,0,8.501,0.904,11.348,2.707
		c2.844,1.806,5.065,4.444,6.663,7.912c1.595,3.472,2.671,7.672,3.228,12.598c0.554,4.929,0.833,10.515,0.833,16.762l-14.575,0.208
		c0-8.811-0.869-15.282-2.604-19.414c-1.737-4.132-4.893-6.198-9.474-6.198c-4.305,0-8.192,0.625-11.661,1.871
		c-3.471,1.246-6.49,2.769-9.058,4.568c-2.57,1.799-4.756,3.599-6.559,5.397c-1.806,1.803-3.123,3.325-3.956,4.568v61.263h39.979
		v13.951H530.376z"/>
	<path class="st1" d="M751.716,220.784c-2.499,2.222-5.45,4.305-8.85,6.247c-3.403,1.946-7.115,3.612-11.141,4.998
		c-4.027,1.389-8.225,2.463-12.597,3.228c-4.373,0.761-8.781,1.145-13.223,1.145c-8.329,0-15.688-1.285-22.071-3.852
		c-6.387-2.567-11.732-6.247-16.033-11.036c-4.305-4.789-7.568-10.516-9.787-17.179c-2.222-6.663-3.331-14.159-3.331-22.488
		c0-8.746,1.213-16.518,3.644-23.321c2.427-6.8,5.935-12.493,10.516-17.074s10.131-8.085,16.657-10.515
		c6.523-2.427,13.812-3.644,21.864-3.644c5.83,0,11.589,0.765,17.282,2.291c5.69,1.529,10.724,4.408,15.096,8.641
		c4.373,4.236,7.737,10.066,10.1,17.491c2.358,7.428,3.191,17.042,2.498,28.839h-80.374c0,12.494,3.357,21.831,10.073,28.006
		c6.715,6.178,15.678,9.266,26.893,9.266c3.738,0,7.441-0.449,11.111-1.353c3.67-0.901,7.164-1.979,10.489-3.228
		c3.321-1.25,6.263-2.635,8.826-4.165c2.561-1.526,4.532-2.915,5.918-4.165L751.716,220.784z M707.875,141.035
		c-4.568,0-8.893,0.488-12.972,1.458c-4.084,0.973-7.682,2.603-10.796,4.894c-3.113,2.29-5.674,5.277-7.678,8.953
		c-2.008,3.68-3.286,8.225-3.839,13.639h64.549c-0.693-9.162-3.634-16.274-8.823-21.343
		C723.127,143.569,716.314,141.035,707.875,141.035z"/>
	<path class="st1" d="M837.086,152.695l20.822,57.886h1.457l14.784-80.791h15.2l-20.405,104.112h-18.532l-19.989-57.47h-0.625
		l-20.822,57.47h-18.532L768.58,129.791h16.033l16.866,81.207h1.249l20.198-58.302H837.086z"/>
</g>
<g>
</g>
<g>
</g>
<g>
</g>
<g>
</g>
<g>
</g>
<g>
</g>
<g>
</g>
<g>
</g>
<g>
</g>
<g>
</g>
<g>
</g>
<g>
</g>
<g>
</g>
<g>
</g>
<g>
</g>
</svg>
