<svg xmlns="http://www.w3.org/2000/svg" version="1.1" id="Layer_1" x="0" y="0" width="757.49243" height="255.746" viewBox="0 0 757.49243 255.74601" xml:space="preserve"><style type="text/css" id="style10997">.st0{fill:#9cf}.st1{fill:#036}.st2{fill:none;stroke:#369;stroke-width:.5;stroke-miterlimit:10}.st7,.st8{fill-rule:evenodd;clip-rule:evenodd;fill:#0091fc}.st8{fill:#0256d1}</style><g id="Dark" transform="translate(-131.85658 -27.572)"><g id="g11032"><g id="g11030"><g id="g11003"><g id="g11001"><path class="st0" d="M366.574 174.085c-.68 0-1.364-.138-2.011-.422-1.82-.8-2.994-2.604-2.988-4.592l.072-26.203c.006-1.869 1.053-3.578 2.715-4.432.72-.37 1.504-.553 2.285-.553 1.021 0 2.036.312 2.898.926 3.957 2.815 7.151 6.677 9.494 11.479.383.786.554 1.659.494 2.532-.535 7.863-3.754 14.572-9.567 19.939-.941.87-2.159 1.326-3.392 1.326z" id="path10999" fill="#9cf"/></g></g><path class="st0" d="M148.754 139.721c-1.021 0-2.038-.312-2.901-.927-4.111-2.928-7.43-6.942-9.863-11.931-.383-.786-.554-1.659-.495-2.531.555-8.172 3.9-15.145 9.943-20.722.942-.87 2.159-1.326 3.392-1.326.68 0 1.364.139 2.011.423 1.821.8 2.994 2.604 2.988 4.592l-.076 27.438c-.005 1.869-1.053 3.579-2.716 4.433-.719.369-1.502.551-2.283.551z" id="path11005" fill="#9cf"/><path class="st0" d="M150.422 211.291c-1.233 0-2.449-.456-3.392-1.325-7.029-6.485-10.923-14.59-11.576-24.09-.06-.87.109-1.739.489-2.523 2.808-5.793 6.66-10.465 11.448-13.885.864-.617 1.883-.931 2.907-.931.778 0 1.559.181 2.278.549 1.664.852 2.713 2.56 2.722 4.429.04 9.078.072 18.169.104 27.253l.02 5.506c.007 1.989-1.166 3.793-2.986 4.594-.648.284-1.334.423-2.014.423z" id="path11007" fill="#9cf"/><g id="Cube_8_"><path class="st0" d="M360.098 141.966c-.337 0-.676-.034-1.014-.104-1.964-.406-3.494-1.946-3.89-3.911l-.128-.654c-.269-1.444.111-2.933 1.04-4.072.928-1.139 2.309-1.812 3.777-1.841.207-.004.412-.004.623-.004 1.877 0 3.597 1.052 4.451 2.723.855 1.671.702 3.681-.397 5.203l-.355.509c-.945 1.365-2.49 2.151-4.107 2.151z" id="path11009" fill="#9cf"/><path class="st0" d="M255.645 283.301c-4.289 0-8.615-1.244-12.859-3.697-28.955-16.729-57.37-33.177-84.451-48.889-10.114-5.873-15.465-15.225-15.478-27.044-.023-21.553-.02-43.105-.017-64.656l.001-31.786c-.002-6.025 1.479-11.427 4.399-16.054.944-1.495 2.563-2.332 4.231-2.332.741 0 1.491.165 2.196.51l.286.136c.372.174.74.353 1.097.555l16.908 9.63c21.41 12.193 42.819 24.387 64.219 36.596 5.429 3.095 10.839 6.227 16.249 9.359l6.915 4c.587.339 1.1.794 1.505 1.337l.422.571c.586.803.92 1.762.958 2.755l.027.592c.026.549.052 1.099.052 1.647.003 39.698.003 79.397 0 119.101 0 .523-.022 1.047-.048 1.573l-.027.642c-.033.98-.354 1.928-.923 2.728l-.348.508c-.865 1.267-2.264 2.066-3.795 2.168-.509.033-1.016.05-1.519.05z" id="path11011" fill="#9cf"/><path class="st0" d="M258.767 283.318c-.605 0-1.221-.024-1.826-.073-2.257-.181-4.109-1.856-4.518-4.083l-.12-.648c-.057-.333-.079-.671-.067-1.009l.033-.771c.017-.368.036-.735.036-1.103.003-39.703.003-79.402 0-119.1 0-.386-.021-.771-.04-1.157l-.031-.696c-.02-.512.039-1.021.173-1.512.252-1.453 1.139-2.742 2.452-3.49L360.64 89.438c.779-.444 1.631-.656 2.471-.656 1.642 0 3.243.809 4.197 2.278 2.959 4.557 4.465 9.971 4.477 16.09.046 34.523.077 65.628-.014 96.722-.034 11.694-5.38 20.966-15.458 26.812-27.204 15.798-54.893 31.811-81.67 47.296l-2.33 1.347c-4.641 2.686-9.071 3.991-13.546 3.991z" id="path11013" fill="#9cf"/><path class="st0" d="M257.333 159.02c-.292 0-.585-.025-.875-.077-.744-.057-1.468-.28-2.117-.655l-6.923-4.004c-5.392-3.121-10.783-6.242-16.195-9.328-21.42-12.221-42.849-24.425-64.277-36.629l-16.831-9.586c-.123-.07-.268-.132-.41-.199l-.435-.207c-1.218-.597-2.142-1.663-2.559-2.954-.417-1.291-.292-2.696.348-3.893 2.429-4.546 6.073-8.184 11.141-11.12 10.273-5.95 20.548-11.896 30.822-17.842 17.541-10.151 35.082-20.302 52.613-30.471 5.128-2.975 10.394-4.483 15.652-4.483 5.307 0 10.65 1.538 15.882 4.57l10.817 6.268c23.676 13.72 47.354 27.44 71.043 41.139 4.097 2.369 9.217 5.856 12.478 11.846 1.303 2.392.45 5.387-1.917 6.735l-105.781 60.237c-.762.431-1.615.653-2.476.653z" id="path11015" fill="#9cf"/></g><path class="st0" d="M257.23 283.181c-2.762 0-5-2.239-5-5V154.304c0-2.761 2.238-5 5-5s5 2.239 5 5v123.877c0 2.761-2.238 5-5 5z" id="path11018" fill="#9cf"/><path class="st0" d="M257.028 159.305c-1.733 0-3.419-.903-4.343-2.514-1.373-2.396-.545-5.451 1.852-6.825l105.885-60.701c2.395-1.373 5.451-.543 6.824 1.851 1.373 2.396.545 5.451-1.852 6.825l-105.885 60.701c-.783.449-1.638.663-2.481.663z" id="path11020" fill="#9cf"/><path class="st0" d="M257.225 159.305c-.842 0-1.696-.213-2.479-.662L149.195 98.204c-2.396-1.372-3.227-4.427-1.854-6.823 1.372-2.396 4.429-3.226 6.823-1.854l105.551 60.439c2.396 1.372 3.227 4.427 1.854 6.823-.924 1.612-2.61 2.516-4.344 2.516z" id="path11022" fill="#9cf"/><path class="st0" d="M140.482 129.671c-1.939 0-3.74-1.132-4.558-2.949-3.643-8.1-4.413-16.836-2.287-25.965 1.659-7.112 5.324-13.61 11.534-20.45.161-.177.333-.342.518-.494 8.904-7.356 18.039-10.933 27.927-10.933 14.496 0 27.897 7.846 40.858 15.435 2.024 1.184 4.012 2.407 5.935 3.589 9.41 5.789 18.299 11.256 29.084 11.256 1.109-.003 2.289-.156 3.539-.318.67-.087 1.34-.173 2.011-.243.173-.018.346-.026.517-.026 2.118 0 4.033 1.345 4.729 3.386.752 2.205-.118 4.637-2.099 5.865-.596.369-1.181.762-1.765 1.153-1.418.95-3.024 2.027-4.85 2.859-6.425 2.928-13.145 4.412-19.977 4.412-9.073 0-18.467-2.481-29.562-7.809-9.506-4.567-17.819-6.787-25.417-6.787-8.913 0-16.923 3.07-24.484 9.384-4.105 3.824-6.285 8.396-6.664 13.972-.155 2.289-1.848 4.178-4.105 4.583-.295.054-.592.08-.884.08z" id="path11024" fill="#9cf"/><path class="st0" d="M180.013 251.135c-11.556-.001-22.251-4.187-32.696-12.796-.186-.153-.36-.32-.522-.498-7.297-8.04-11.604-15.656-13.553-23.969-2.501-10.685-1.613-20.907 2.641-30.386.816-1.82 2.619-2.954 4.56-2.954.291 0 .585.026.88.078 2.258.403 3.953 2.291 4.11 4.58.476 6.924 3.189 12.6 8.293 17.345 9.213 7.678 18.977 11.41 29.845 11.41 9.231 0 19.307-2.69 30.801-8.222 13.117-6.32 24.21-9.264 34.908-9.264 8.001 0 15.876 1.737 23.406 5.163 2.094.953 3.887 2.148 5.622 3.305.716.478 1.433.956 2.164 1.406 1.986 1.222 2.863 3.654 2.115 5.863-.692 2.046-2.61 3.396-4.732 3.396-.169 0-.339-.008-.511-.026-.798-.082-1.596-.184-2.393-.286-1.521-.196-2.956-.38-4.278-.385-13.186 0-23.927 6.624-35.298 13.636-2.281 1.407-4.64 2.862-7.003 4.248-15.409 9.037-31.297 18.355-48.354 18.355-.003.001-.003.001-.005.001z" id="path11026" fill="#9cf"/><path class="st0" d="M342.903 205.987c-13.905 0-26.732-7.51-39.138-14.773-1.933-1.13-3.832-2.299-5.669-3.429-8.96-5.512-17.423-10.718-27.655-10.718-1.045.002-2.166.148-3.353.302-.641.083-1.282.166-1.924.232-.173.018-.346.026-.517.026-2.117 0-4.031-1.344-4.729-3.382-.753-2.204.114-4.636 2.093-5.865.561-.348 1.11-.718 1.661-1.086 1.367-.917 2.917-1.955 4.682-2.761 6.167-2.81 12.616-4.233 19.174-4.233 8.699 0 17.701 2.376 28.329 7.479 9.048 4.347 16.956 6.46 24.177 6.46 8.455 0 16.056-2.913 23.233-8.905 3.873-3.611 5.931-7.928 6.289-13.193.155-2.288 1.849-4.177 4.106-4.582.296-.053.592-.079.884-.079 1.939 0 3.741 1.132 4.559 2.95 3.499 7.783 4.238 16.174 2.195 24.94-1.593 6.831-5.109 13.068-11.066 19.631-.16.177-.333.342-.518.494-8.545 7.059-17.315 10.492-26.813 10.492z" id="path11028" fill="#9cf"/></g></g><g id="g11110"><g id="g11108"><g id="g11038"><g id="g11036"><path class="st8" d="M374.545 152.48c-.449 6.597-3.117 12.124-7.971 16.605.025-8.733.046-17.47.072-26.202 3.496 2.487 6.032 5.77 7.899 9.597z" id="path11034" clip-rule="evenodd" fill="#0256d1" fill-rule="evenodd"/></g></g><path class="st8" d="M140.484 124.67c.469-6.908 3.263-12.695 8.346-17.387-.027 9.144-.048 18.293-.076 27.438-3.66-2.606-6.315-6.043-8.27-10.051z" id="path11040" clip-rule="evenodd" fill="#0256d1" fill-rule="evenodd"/><path class="st8" d="M140.443 185.533c.567 8.255 3.908 15.157 9.978 20.758-.039-10.915-.075-21.844-.123-32.755-4.359 3.113-7.535 7.211-9.855 11.997z" id="path11042" clip-rule="evenodd" fill="#0256d1" fill-rule="evenodd"/><g id="Cube_7_"><path d="M360.097 136.966c-.039-.194-.078-.389-.114-.583.174-.003.347-.003.524-.003-.14.195-.275.392-.41.586z" id="path11044" clip-rule="evenodd" fill="#683dfe" fill-rule="evenodd"/><linearGradient id="SVGID_1_" gradientUnits="userSpaceOnUse" x1="202.5728" y1="93.8433" x2="202.57269" y2="278.3013"><stop offset="0" id="stop11046" stop-color="#00223d"/><stop offset=".1241" id="stop11048" stop-color="#002542"/><stop offset=".5866" id="stop11050" stop-color="#002d4f"/><stop offset="1" id="stop11052" stop-color="#003054"/><stop offset="1" id="stop11054" stop-color="#00355e"/><stop offset="1" id="stop11056" stop-color="#004174"/><stop offset="1" id="stop11058" stop-color="#004b85"/><stop offset="1" id="stop11060" stop-color="#005190"/><stop offset="1" id="stop11062" stop-color="#005597"/><stop offset="1" id="stop11064" stop-color="#005699"/></linearGradient><path d="M256.831 278.261c-4.167.279-7.991-.934-11.542-2.986-28.163-16.271-56.312-32.563-84.445-48.885-8.619-5.005-12.976-12.643-12.986-22.725-.035-32.148-.011-64.293-.016-96.438-.001-4.805 1.053-9.306 3.627-13.384.375.184.758.347 1.121.552 27.04 15.402 54.082 30.796 81.11 46.216 7.735 4.41 15.43 8.894 23.142 13.346.13.174.262.353.389.526.026.682.075 1.364.075 2.046.003 39.698.003 79.397 0 119.101 0 .68-.049 1.359-.072 2.045-.136.19-.269.389-.403.586z" id="path11067" clip-rule="evenodd" fill="url(#SVGID_1_)" fill-rule="evenodd"/><linearGradient id="SVGID_2_" gradientUnits="userSpaceOnUse" x1="283.16019" y1="139.10941" x2="338.66501" y2="235.2467"><stop offset="0" id="stop11069" stop-color="#036"/><stop offset=".4667" id="stop11071" stop-color="#003468"/><stop offset=".6674" id="stop11073" stop-color="#00396f"/><stop offset=".8171" id="stop11075" stop-color="#00427c"/><stop offset=".9406" id="stop11077" stop-color="#004e8d"/><stop offset="1" id="stop11079" stop-color="#005699"/></linearGradient><path d="M257.233 277.675c.023-.686.072-1.365.072-2.045.003-39.703.003-79.402 0-119.101 0-.682-.049-1.364-.075-2.046.078-.146.111-.301.104-.464 35.262-20.08 70.523-40.157 105.781-60.237 2.635 4.058 3.661 8.614 3.67 13.377.043 32.233.08 64.466-.014 96.698-.029 9.941-4.447 17.56-12.967 22.502-27.979 16.247-55.986 32.442-83.994 48.64-3.852 2.229-7.947 3.625-12.469 3.262-.036-.197-.076-.396-.108-.586z" id="path11082" clip-rule="evenodd" fill="url(#SVGID_2_)" fill-rule="evenodd"/><linearGradient id="SVGID_3_" gradientUnits="userSpaceOnUse" x1="257.2915" y1="32.570801" x2="257.2915" y2="154.02"><stop offset="0" id="stop11084" stop-color="#036"/><stop offset=".3992" id="stop11086" stop-color="#004580"/><stop offset=".644" id="stop11088" stop-color="#004d8c"/><stop offset="1" id="stop11090" stop-color="#005699"/></linearGradient><path d="M363.115 93.783c-35.258 20.08-70.52 40.157-105.781 60.237l-.241-.067-.251.005c-7.712-4.452-15.406-8.936-23.142-13.346-27.028-15.42-54.07-30.814-81.11-46.216-.363-.205-.746-.369-1.121-.552 2.149-4.022 5.385-6.918 9.237-9.15 27.811-16.107 55.637-32.189 83.437-48.314 8.886-5.155 17.692-5.028 26.519.088 27.283 15.809 54.566 31.624 81.864 47.409 4.296 2.483 8.14 5.408 10.589 9.906z" id="path11093" clip-rule="evenodd" fill="url(#SVGID_3_)" fill-rule="evenodd"/></g><path class="st2" id="line11096" fill="none" stroke="#369" stroke-width=".5" stroke-miterlimit="10" d="M257.23001 154.304v123.877"/><path class="st2" id="line11098" fill="none" stroke="#369" stroke-width=".5" stroke-miterlimit="10" d="M257.02301 154.304l105.88498-60.700004"/><path class="st2" id="line11100" fill="none" stroke="#369" stroke-width=".5" stroke-miterlimit="10" d="M257.23001 154.304L151.679 93.864998"/><path class="st7" d="M148.873 83.667c22.655-18.718 42.785-6.917 63.104 4.979 11.772 6.886 22.926 15.541 37.584 15.514 1.997-.006 3.994-.38 5.995-.587-2.017 1.25-3.915 2.737-6.057 3.715-15.694 7.151-30.486 3.756-45.299-3.356-18.907-9.084-37.748-11.435-55.372 3.352-5.083 4.691-7.877 10.479-8.346 17.387-3.312-7.364-3.802-14.944-1.977-22.78 1.664-7.125 5.557-12.924 10.368-18.224z" id="path11102" clip-rule="evenodd" fill="#0091fc" fill-rule="evenodd"/><path class="st7" d="M150.497 234.48c27.072 22.315 51.093 8.21 75.344-6.013 14.049-8.243 27.362-18.584 44.848-18.571 2.387.008 4.77.452 7.162.696-2.416-1.486-4.683-3.257-7.236-4.419-18.744-8.526-36.397-4.462-54.076 4.056-22.564 10.859-45.054 13.686-66.118-3.938-6.07-5.601-9.411-12.503-9.978-20.758-3.947 8.795-4.523 17.849-2.334 27.197 1.994 8.503 6.647 15.425 12.388 21.75z" id="path11104" clip-rule="evenodd" fill="#0091fc" fill-rule="evenodd"/><path class="st7" d="M366.533 191.639c-21.636 17.876-40.859 6.607-60.268-4.756-11.24-6.575-21.895-14.842-35.889-14.816-1.908.005-3.816.363-5.726.561 1.921-1.193 3.739-2.613 5.782-3.547 14.987-6.828 29.113-3.587 43.261 3.205 18.058 8.676 36.05 10.921 52.881-3.2 4.854-4.481 7.521-10.009 7.971-16.605 3.163 7.034 3.63 14.272 1.887 21.755-1.587 6.803-5.304 12.341-9.899 17.403z" id="path11106" clip-rule="evenodd" fill="#0091fc" fill-rule="evenodd"/></g></g></g><g id="g11121" transform="translate(-131.85658 -27.572)"><path class="st1" d="M442.716 166.438h-16.033v67.464H409.4V88.146h17.282v64.966h15.616l46.851-64.966h19.989l-51.431 69.338 57.886 76.418H493.73z" id="path11113" fill="#036"/><path class="st1" d="M530.376 233.902v-13.951h28.11v-76.209h-28.11v-13.951h38.938l3.332 13.535h1.041c4.718-4.301 9.994-7.981 15.825-11.036 5.83-3.052 12.77-4.581 20.822-4.581 4.717 0 8.501.904 11.348 2.707 2.844 1.806 5.065 4.444 6.663 7.912 1.595 3.472 2.671 7.672 3.228 12.598.554 4.929.833 10.515.833 16.762l-14.575.208c0-8.811-.869-15.282-2.604-19.414-1.737-4.132-4.893-6.198-9.474-6.198-4.305 0-8.192.625-11.661 1.871-3.471 1.246-6.49 2.769-9.058 4.568-2.57 1.799-4.756 3.599-6.559 5.397-1.806 1.803-3.123 3.325-3.956 4.568v61.263h39.979v13.951z" id="path11115" fill="#036"/><path class="st1" d="M751.716 220.784c-2.499 2.222-5.45 4.305-8.85 6.247-3.403 1.946-7.115 3.612-11.141 4.998-4.027 1.389-8.225 2.463-12.597 3.228-4.373.761-8.781 1.145-13.223 1.145-8.329 0-15.688-1.285-22.071-3.852-6.387-2.567-11.732-6.247-16.033-11.036-4.305-4.789-7.568-10.516-9.787-17.179-2.222-6.663-3.331-14.159-3.331-22.488 0-8.746 1.213-16.518 3.644-23.321 2.427-6.8 5.935-12.493 10.516-17.074 4.581-4.581 10.131-8.085 16.657-10.515 6.523-2.427 13.812-3.644 21.864-3.644 5.83 0 11.589.765 17.282 2.291 5.69 1.529 10.724 4.408 15.096 8.641 4.373 4.236 7.737 10.066 10.1 17.491 2.358 7.428 3.191 17.042 2.498 28.839h-80.374c0 12.494 3.357 21.831 10.073 28.006 6.715 6.178 15.678 9.266 26.893 9.266 3.738 0 7.441-.449 11.111-1.353 3.67-.901 7.164-1.979 10.489-3.228 3.321-1.25 6.263-2.635 8.826-4.165 2.561-1.526 4.532-2.915 5.918-4.165zm-43.841-79.749c-4.568 0-8.893.488-12.972 1.458-4.084.973-7.682 2.603-10.796 4.894-3.113 2.29-5.674 5.277-7.678 8.953-2.008 3.68-3.286 8.225-3.839 13.639h64.549c-.693-9.162-3.634-16.274-8.823-21.343-5.189-5.067-12.002-7.601-20.441-7.601z" id="path11117" fill="#036"/><path class="st1" d="M837.086 152.695l20.822 57.886h1.457l14.784-80.791h15.2l-20.405 104.112h-18.532l-19.989-57.47h-.625l-20.822 57.47h-18.532L768.58 129.791h16.033l16.866 81.207h1.249l20.198-58.302h14.16z" id="path11119" fill="#036"/></g></svg>