<?xml version="1.0" encoding="utf-8"?>
<!-- Generator: Adobe Illustrator 16.2.1, SVG Export Plug-In . SVG Version: 6.00 Build 0)  -->
<!DOCTYPE svg PUBLIC "-//W3C//DTD SVG 1.1//EN" "http://www.w3.org/Graphics/SVG/1.1/DTD/svg11.dtd">
<svg version="1.1" id="Layer_1" xmlns="http://www.w3.org/2000/svg" xmlns:xlink="http://www.w3.org/1999/xlink" x="0px" y="0px"
	 width="1024px" height="768px" viewBox="0 0 1024 768" style="enable-background:new 0 0 1024 768;" xml:space="preserve">
<style type="text/css">
<![CDATA[
	.st0{fill:#CC9966;stroke:#FFFFFF;stroke-width:4;stroke-miterlimit:10;}
	.st1{fill:#99CCFF;}
	.st2{fill:#FFFFFF;}
	.st3{display:inline;}
	.st4{fill:none;stroke:#FFFFFF;stroke-width:4;stroke-miterlimit:10;}
	.st5{fill-rule:evenodd;clip-rule:evenodd;fill:none;stroke:#FFFFFF;stroke-width:4;stroke-miterlimit:10;}
	.st6{fill-rule:evenodd;clip-rule:evenodd;fill:#FFFFFF;}
	.st7{fill:none;stroke:#336699;stroke-width:0.5;stroke-miterlimit:10;}
	.st8{fill-rule:evenodd;clip-rule:evenodd;fill:#683DFE;}
	.st9{display:none;}
	.st10{fill-rule:evenodd;clip-rule:evenodd;fill:url(#SVGID_1_);}
	.st11{fill-rule:evenodd;clip-rule:evenodd;fill:url(#SVGID_2_);}
	.st12{fill-rule:evenodd;clip-rule:evenodd;fill:url(#SVGID_3_);}
	.st13{fill-rule:evenodd;clip-rule:evenodd;fill:#0091FC;}
	.st14{fill-rule:evenodd;clip-rule:evenodd;fill:#0256D1;}
]]>
</style>
<g class="st9">
	<g class="st3">
		<g>
			<g>
				<g>
					<path class="st1" d="M714.271,326.675c-1.36,0-2.729-0.277-4.023-0.846c-3.642-1.601-5.987-5.208-5.975-9.185
						c0.03-9.555,0.056-19.113,0.081-28.67l0.062-22.065c0.011-3.737,2.104-7.156,5.428-8.864c1.441-0.741,3.01-1.106,4.571-1.106
						c2.041,0,4.071,0.624,5.797,1.851c7.702,5.478,13.921,12.996,18.484,22.347c0.768,1.572,1.109,3.319,0.99,5.064
						c-1.041,15.315-7.31,28.377-18.632,38.825C719.17,325.763,716.736,326.675,714.271,326.675z"/>
				</g>
			</g>
			<path class="st1" d="M292.451,260.131c-2.044,0-4.077-0.625-5.804-1.856c-8.004-5.703-14.464-13.516-19.202-23.223
				c-0.767-1.572-1.109-3.318-0.99-5.064c1.081-15.913,7.594-29.485,19.358-40.34c1.884-1.738,4.317-2.65,6.783-2.65
				c1.36,0,2.729,0.277,4.023,0.846c3.641,1.601,5.987,5.207,5.975,9.184c0,0-0.117,43.762-0.145,53.135
				c-0.011,3.738-2.107,7.158-5.433,8.866C295.578,259.766,294.012,260.131,292.451,260.131z"/>
			<path class="st1" d="M295.679,398.729c-2.467,0-4.9-0.912-6.784-2.651c-13.671-12.618-21.248-28.384-22.518-46.861
				c-0.12-1.739,0.218-3.479,0.978-5.048c5.46-11.265,12.954-20.353,22.271-27.01c1.729-1.235,3.767-1.863,5.814-1.863
				c1.556,0,3.118,0.363,4.555,1.098c3.328,1.703,5.428,5.12,5.444,8.858c0.077,17.43,0.138,34.887,0.199,52.329l0.039,11.113
				c0.014,3.979-2.332,7.586-5.973,9.188C298.41,398.451,297.04,398.729,295.679,398.729z"/>
			<g id="Cube_7_">
				<path class="st1" d="M701.734,264.477c-0.654,0-1.314-0.064-1.973-0.197c-3.919-0.788-6.992-3.835-7.814-7.748
					c-0.096-0.454-0.185-0.907-0.27-1.363c-0.539-2.904,0.233-5.898,2.11-8.179s4.667-3.615,7.62-3.645
					c0.371-0.004,0.74-0.004,1.117-0.004c3.761,0,7.204,2.11,8.911,5.462c1.707,3.352,1.389,7.378-0.823,10.419
					c-0.162,0.222-0.315,0.448-0.469,0.671l-0.181,0.262C708.075,262.894,704.979,264.477,701.734,264.477z"/>
				<path class="st1" d="M499.444,538.179c-8.363,0-16.794-2.425-25.059-7.207c-56.306-32.528-111.332-64.382-163.542-94.672
					c-19.689-11.426-30.108-29.63-30.132-52.644c-0.045-41.583-0.039-83.857-0.033-124.74c0.003-20.676,0.006-41.352,0.003-62.027
					c-0.004-11.729,2.878-22.248,8.568-31.262c1.889-2.992,5.127-4.664,8.463-4.664c1.497,0,3.012,0.336,4.435,1.042
					c0.189,0.094,0.38,0.183,0.571,0.273c0.575,0.271,1.291,0.608,2.071,1.048l35.419,20.174
					c40.573,23.108,81.144,46.215,121.701,69.351c10.46,5.963,21.046,12.092,31.283,18.02c4.524,2.619,9.049,5.239,13.575,7.852
					c1.171,0.676,2.193,1.583,3.004,2.666c0.275,0.368,0.553,0.746,0.821,1.113c1.169,1.601,1.837,3.513,1.917,5.494l0.051,1.086
					c0.049,0.987,0.104,2.106,0.104,3.283c0.007,76.88,0.007,153.761,0,230.646c0,1.112-0.05,2.17-0.094,3.104
					c-0.019,0.401-0.038,0.804-0.052,1.208c-0.069,1.963-0.715,3.862-1.856,5.46c-0.127,0.179-0.251,0.362-0.375,0.546l-0.303,0.443
					c-1.731,2.518-4.519,4.104-7.567,4.31C501.431,538.146,500.43,538.179,499.444,538.179z"/>
				<path class="st1" d="M505.508,538.213c-1.186,0-2.388-0.048-3.573-0.144c-4.476-0.361-8.162-3.661-9.014-8.069
					c-0.082-0.422-0.163-0.852-0.237-1.263c-0.126-0.7-0.177-1.411-0.151-2.122c0.017-0.482,0.039-0.963,0.062-1.441
					c0.034-0.724,0.071-1.444,0.071-2.166c0.007-76.884,0.007-153.764,0-230.644c0-0.684-0.039-1.468-0.08-2.297
					c-0.021-0.42-0.042-0.84-0.059-1.26c-0.042-1.026,0.075-2.049,0.342-3.031c0.509-2.895,2.278-5.466,4.901-6.959l204.857-116.653
					c1.559-0.888,3.26-1.312,4.94-1.312c3.283,0,6.488,1.618,8.396,4.557c5.763,8.88,8.695,19.42,8.717,31.329
					c0.093,69.453,0.149,127.342-0.026,187.311c-0.063,22.767-10.47,40.817-30.094,52.2
					c-54.859,31.853-109.669,63.545-162.674,94.194C522.853,535.67,514.223,538.213,505.508,538.213z"/>
				<path class="st1" d="M502.719,297.505c-0.588,0-1.177-0.052-1.762-0.156c-1.471-0.12-2.903-0.564-4.188-1.307
					c-4.533-2.617-9.063-5.24-13.594-7.863c-10.21-5.911-20.768-12.024-31.173-17.956c-40.552-23.133-81.116-46.236-121.682-69.34
					l-35.393-20.159c-0.21-0.119-0.472-0.231-0.729-0.353c-0.312-0.146-0.624-0.294-0.933-0.447
					c-2.424-1.202-4.257-3.333-5.083-5.91c-0.825-2.576-0.571-5.377,0.704-7.763c4.731-8.854,11.828-15.938,21.694-21.658
					c19.893-11.521,39.787-23.035,59.682-34.548c33.972-19.66,67.944-39.32,101.895-59.014c9.98-5.789,20.233-8.724,30.473-8.724
					c10.335,0,20.737,2.992,30.917,8.892l23.602,13.677c44.216,25.623,89.937,52.119,134.926,78.131
					c7.968,4.607,17.931,11.392,24.284,23.062c2.605,4.785,0.901,10.775-3.834,13.471L507.668,296.195
					C506.146,297.062,504.439,297.505,502.719,297.505z"/>
			</g>
			<path class="st1" d="M502.52,537.949c-5.523,0-10-4.478-10-10V288.055c0-5.523,4.477-10,10-10s10,4.477,10,10v239.895
				C512.52,533.472,508.042,537.949,502.52,537.949z"/>
			<path class="st1" d="M502.129,298.056c-3.467,0-6.837-1.805-8.685-5.028c-2.747-4.792-1.089-10.902,3.702-13.649l205.053-117.553
				c4.793-2.747,10.903-1.089,13.649,3.702c2.746,4.792,1.089,10.902-3.702,13.649L507.094,296.73
				C505.525,297.629,503.816,298.056,502.129,298.056z"/>
			<path class="st1" d="M502.51,298.057c-1.685,0-3.393-0.427-4.96-1.324L293.145,179.689c-4.792-2.745-6.453-8.854-3.709-13.647
				c2.744-4.792,8.853-6.453,13.647-3.709l204.405,117.044c4.792,2.745,6.453,8.854,3.709,13.647
				C509.351,296.25,505.979,298.057,502.51,298.057z"/>
			<path class="st1" d="M276.428,240.666c-3.879,0-7.481-2.263-9.116-5.899c-7.083-15.75-8.579-32.734-4.448-50.482
				c3.226-13.829,10.347-26.457,22.411-39.746c0.321-0.354,0.667-0.684,1.035-0.987c17.302-14.295,35.058-21.244,54.284-21.244
				c28.16,0,54.15,15.217,79.285,29.933c3.925,2.296,7.779,4.666,11.506,6.958c18.182,11.184,35.356,21.747,56.15,21.747h0.117
				c2.033-0.005,4.324-0.302,6.749-0.616c1.281-0.166,2.563-0.331,3.846-0.464c0.349-0.036,0.696-0.054,1.041-0.054
				c4.234,0,8.063,2.688,9.457,6.767c1.507,4.411-0.233,9.278-4.195,11.733c-1.1,0.682-2.22,1.433-3.406,2.227
				c-2.755,1.846-5.879,3.938-9.436,5.563c-12.485,5.689-25.545,8.572-38.823,8.573c-17.618,0.001-35.853-4.814-57.386-15.152
				c-18.365-8.823-34.419-13.112-49.083-13.112c-17.181,0-32.626,5.919-47.208,18.094c-7.883,7.343-12.07,16.125-12.798,26.84
				c-0.311,4.577-3.697,8.356-8.212,9.166C277.605,240.615,277.013,240.666,276.428,240.666z"/>
			<path class="st1" d="M352.984,475.889c-22.457-0.002-43.234-8.131-63.521-24.852c-0.372-0.307-0.722-0.641-1.046-0.998
				c-14.169-15.618-22.532-30.412-26.318-46.558c-4.862-20.76-3.136-40.625,5.13-59.045c1.633-3.64,5.238-5.907,9.119-5.907
				c0.583,0,1.171,0.051,1.761,0.156c4.516,0.806,7.905,4.582,8.22,9.158c0.916,13.321,6.135,24.24,15.955,33.374
				c17.781,14.816,36.619,22.019,57.585,22.018c17.83-0.001,37.297-5.199,59.513-15.893c25.446-12.259,46.971-17.969,67.737-17.969
				c15.541,0,30.837,3.374,45.463,10.027c4.077,1.854,7.563,4.179,10.935,6.426c1.449,0.967,2.818,1.879,4.179,2.716
				c3.972,2.444,5.728,7.308,4.231,11.725c-1.386,4.092-5.221,6.793-9.466,6.793c-0.337,0-0.677-0.017-1.019-0.052
				c-1.556-0.158-3.11-0.356-4.663-0.556c-2.932-0.377-5.7-0.732-8.239-0.743c-25.432,0-46.195,12.805-68.177,26.361
				c-4.419,2.726-8.989,5.544-13.569,8.23c-29.874,17.521-60.684,35.588-93.803,35.588
				C352.988,475.889,352.988,475.889,352.984,475.889z"/>
			<path class="st1" d="M668.434,388.457c-27.013,0-51.887-14.562-75.941-28.645c-3.761-2.199-7.442-4.464-11.003-6.655
				c-17.31-10.648-33.659-20.707-53.384-20.707h-0.11c-1.893,0.005-4.052,0.286-6.337,0.583c-1.245,0.162-2.491,0.323-3.737,0.452
				c-0.347,0.036-0.692,0.054-1.035,0.054c-4.234,0-8.062-2.688-9.457-6.765c-1.507-4.408,0.229-9.272,4.187-11.73
				c1.033-0.642,2.09-1.35,3.209-2.1c2.659-1.782,5.673-3.801,9.117-5.373c11.977-5.458,24.509-8.224,37.251-8.224
				c16.896,0,34.373,4.612,55.002,14.515c17.478,8.397,32.746,12.479,46.682,12.479c16.294,0,30.946-5.618,44.782-17.17
				c7.437-6.93,11.386-15.217,12.073-25.327c0.311-4.577,3.695-8.355,8.211-9.165c0.592-0.106,1.185-0.158,1.77-0.158
				c3.878,0,7.479,2.263,9.115,5.897c6.808,15.128,8.247,31.445,4.277,48.499c-3.099,13.281-9.933,25.405-21.508,38.161
				c-0.321,0.354-0.667,0.685-1.036,0.989C703.954,381.787,686.902,388.457,668.434,388.457z"/>
		</g>
	</g>
	<g class="st3">
		<g>
			<g>
				<g>
					<path class="st14" d="M729.709,284.521c-0.868,12.772-6.034,23.478-15.437,32.154c0.053-16.91,0.093-33.828,0.143-50.737
						C721.183,270.75,726.093,277.112,729.709,284.521z"/>
				</g>
			</g>
			<path class="st14" d="M276.433,230.666c0.909-13.377,6.32-24.586,16.163-33.668c-0.052,17.706-0.092,35.425-0.145,53.134
				C285.362,245.081,280.221,238.427,276.433,230.666z"/>
			<path class="st14" d="M276.354,348.53c1.099,15.986,7.57,29.35,19.324,40.198c-0.075-21.135-0.145-42.304-0.238-63.434
				C286.998,331.327,280.846,339.262,276.354,348.53z"/>
			<g id="Cube_6_">
				<path class="st8" d="M701.733,254.477c-0.079-0.376-0.153-0.753-0.224-1.132c0.337-0.003,0.673-0.003,1.016-0.003
					C702.252,253.717,701.993,254.1,701.733,254.477z"/>
				<linearGradient id="SVGID_1_" gradientUnits="userSpaceOnUse" x1="396.6729" y1="170.9644" x2="396.6728" y2="528.1792">
					<stop  offset="0" style="stop-color:#00223D"/>
					<stop  offset="0.1241" style="stop-color:#002542"/>
					<stop  offset="0.5866" style="stop-color:#002D4F"/>
					<stop  offset="1" style="stop-color:#003054"/>
					<stop  offset="1" style="stop-color:#00355E"/>
					<stop  offset="1" style="stop-color:#004174"/>
					<stop  offset="1" style="stop-color:#004B85"/>
					<stop  offset="1" style="stop-color:#005190"/>
					<stop  offset="1" style="stop-color:#005597"/>
					<stop  offset="1" style="stop-color:#005699"/>
				</linearGradient>
				<path class="st10" d="M501.747,528.102c-8.07,0.543-15.476-1.806-22.353-5.785c-54.537-31.506-109.05-63.058-163.532-94.666
					c-16.693-9.688-25.13-24.482-25.15-44.004c-0.068-62.256-0.02-124.509-0.03-186.758c-0.003-9.305,2.038-18.022,7.025-25.923
					c0.725,0.359,1.469,0.675,2.171,1.071c52.365,29.829,104.733,59.641,157.077,89.5c14.978,8.539,29.881,17.226,44.813,25.846
					c0.252,0.336,0.506,0.683,0.751,1.018c0.054,1.321,0.146,2.642,0.146,3.963c0.007,76.881,0.007,153.761,0,230.645
					c0,1.318-0.093,2.632-0.14,3.96C502.263,527.337,502.008,527.723,501.747,528.102z"/>
				<linearGradient id="SVGID_2_" gradientUnits="userSpaceOnUse" x1="552.7383" y1="258.6274" x2="660.2241" y2="444.7984">
					<stop  offset="0" style="stop-color:#003366"/>
					<stop  offset="0.4667" style="stop-color:#003468"/>
					<stop  offset="0.6674" style="stop-color:#00396F"/>
					<stop  offset="0.8171" style="stop-color:#00427C"/>
					<stop  offset="0.9406" style="stop-color:#004E8D"/>
					<stop  offset="1" style="stop-color:#005699"/>
				</linearGradient>
				<path class="st11" d="M502.526,526.968c0.047-1.328,0.14-2.642,0.14-3.96c0.007-76.884,0.007-153.764,0-230.645
					c0-1.321-0.093-2.642-0.146-3.963c0.153-0.282,0.22-0.583,0.2-0.895c68.287-38.888,136.575-77.769,204.856-116.654
					c5.1,7.858,7.089,16.68,7.105,25.903c0.083,62.426,0.156,124.845-0.026,187.263c-0.054,19.25-8.61,34.008-25.111,43.579
					c-54.182,31.459-108.424,62.825-162.662,94.188c-7.461,4.318-15.387,7.023-24.143,6.317
					C502.666,527.723,502.593,527.337,502.526,526.968z"/>
				<linearGradient id="SVGID_3_" gradientUnits="userSpaceOnUse" x1="502.6411" y1="52.3081" x2="502.6411" y2="287.5054">
					<stop  offset="0" style="stop-color:#003366"/>
					<stop  offset="0.3992" style="stop-color:#004580"/>
					<stop  offset="0.644" style="stop-color:#004D8C"/>
					<stop  offset="1" style="stop-color:#005699"/>
				</linearGradient>
				<path class="st12" d="M707.576,170.852c-68.281,38.885-136.569,77.766-204.856,116.654l-0.467-0.133l-0.484,0.01
					c-14.932-8.62-29.836-17.307-44.813-25.846c-52.344-29.859-104.712-59.672-157.077-89.5c-0.702-0.396-1.446-0.712-2.171-1.071
					c4.162-7.788,10.428-13.394,17.889-17.719c53.857-31.193,107.745-62.336,161.58-93.564c17.21-9.982,34.267-9.736,51.357,0.17
					c52.835,30.616,105.672,61.247,158.536,91.813C695.39,156.476,702.832,162.138,707.576,170.852z"/>
			</g>
			<line class="st7" x1="502.52" y1="288.055" x2="502.52" y2="527.949"/>
			<line class="st7" x1="502.12" y1="288.055" x2="707.173" y2="170.502"/>
			<line class="st7" x1="502.52" y1="288.055" x2="298.114" y2="171.011"/>
			<path class="st13" d="M292.68,151.26c43.872-36.247,82.856-13.395,122.207,9.645c22.799,13.334,44.397,30.095,72.786,30.041
				c3.87-0.01,7.735-0.731,11.61-1.134c-3.908,2.422-7.581,5.3-11.727,7.193c-30.395,13.85-59.039,7.276-87.728-6.498
				c-36.616-17.592-73.102-22.144-107.232,6.491c-9.843,9.082-15.254,20.292-16.163,33.668c-6.414-14.262-7.36-28.94-3.829-44.114
				C275.823,172.754,283.363,161.523,292.68,151.26z"/>
			<path class="st13" d="M295.824,443.32c52.428,43.213,98.947,15.898,145.911-11.645c27.204-15.962,52.987-35.99,86.851-35.967
				c4.622,0.021,9.236,0.879,13.871,1.351c-4.678-2.878-9.069-6.308-14.014-8.557c-36.299-16.512-70.486-8.644-104.723,7.851
				c-43.697,21.033-87.249,26.506-128.042-7.625c-11.754-10.848-18.225-24.212-19.324-40.198
				c-7.642,17.031-8.758,34.562-4.518,52.668C275.696,417.662,284.707,431.066,295.824,443.32z"/>
			<path class="st13" d="M714.192,360.357c-41.898,34.617-79.126,12.792-116.713-9.212c-21.766-12.732-42.402-28.745-69.503-28.694
				c-3.692,0.01-7.386,0.705-11.085,1.087c3.723-2.312,7.242-5.063,11.201-6.87c29.021-13.225,56.378-6.944,83.775,6.208
				c34.968,16.8,69.813,21.149,102.404-6.202c9.402-8.676,14.568-19.382,15.437-32.154c6.129,13.62,7.03,27.636,3.657,42.128
				C730.291,339.827,723.092,350.55,714.192,360.357z"/>
		</g>
	</g>
</g>
<g>
	<path class="st2" d="M299.735,600.37h-16.041v67.495h-17.291V522.042h17.291v64.995h15.624l46.872-64.995h19.999l-51.455,69.37
		l57.913,76.453h-21.874L299.735,600.37z"/>
	<path class="st2" d="M387.436,667.865v-13.957h28.123v-76.245h-28.123v-13.957h38.956l3.333,13.54h1.042
		c4.72-4.303,9.999-7.984,15.832-11.041c5.833-3.053,12.776-4.583,20.832-4.583c4.72,0,8.505,0.905,11.354,2.709
		c2.845,1.806,5.068,4.446,6.666,7.916c1.595,3.473,2.672,7.675,3.229,12.603c0.553,4.932,0.833,10.521,0.833,16.771l-14.583,0.208
		c0-8.814-0.869-15.289-2.604-19.423c-1.738-4.134-4.896-6.2-9.479-6.2c-4.306,0-8.196,0.625-11.666,1.871
		c-3.473,1.247-6.494,2.771-9.062,4.57c-2.571,1.8-4.759,3.6-6.562,5.4c-1.806,1.803-3.125,3.326-3.958,4.569v61.292h39.998v13.957
		H387.436z"/>
	<path class="st2" d="M608.877,654.741c-2.5,2.223-5.452,4.307-8.854,6.249c-3.405,1.947-7.119,3.613-11.146,5
		c-4.029,1.39-8.229,2.464-12.604,3.229c-4.374,0.762-8.785,1.146-13.228,1.146c-8.333,0-15.696-1.286-22.082-3.854
		c-6.39-2.567-11.737-6.249-16.041-11.04c-4.307-4.792-7.571-10.521-9.791-17.187c-2.223-6.666-3.333-14.166-3.333-22.499
		c0-8.749,1.214-16.525,3.646-23.331c2.429-6.804,5.938-12.5,10.521-17.083s10.136-8.088,16.665-10.52
		c6.526-2.429,13.817-3.646,21.874-3.646c5.833,0,11.594,0.765,17.29,2.291c5.693,1.53,10.729,4.411,15.104,8.646
		c4.375,4.238,7.74,10.071,10.104,17.499c2.359,7.431,3.193,17.05,2.5,28.852h-80.411c0,12.5,3.358,21.842,10.077,28.02
		c6.718,6.181,15.686,9.271,26.905,9.271c3.74,0,7.444-0.449,11.116-1.354c3.672-0.901,7.167-1.979,10.494-3.229
		c3.323-1.249,6.266-2.636,8.831-4.166c2.562-1.526,4.534-2.916,5.92-4.166L608.877,654.741z M565.016,574.955
		c-4.57,0-8.896,0.488-12.978,1.458c-4.085,0.974-7.686,2.604-10.8,4.896c-3.115,2.292-5.677,5.279-7.682,8.958
		c-2.009,3.681-3.288,8.229-3.841,13.645h64.578c-0.693-9.166-3.636-16.281-8.827-21.353
		C580.275,577.49,573.459,574.955,565.016,574.955z"/>
	<path class="st2" d="M694.286,586.621l20.832,57.912h1.458l14.791-80.827h15.207l-20.415,104.159h-18.541l-19.998-57.496h-0.625
		l-20.832,57.496h-18.54l-21.874-104.159h16.041l16.874,81.244h1.249l20.207-58.329H694.286z"/>
</g>
<g id="Color_1_">
	<g>
		<g>
			<g>
				<path class="st6" d="M735.81,282.198c-0.89,13.039-6.161,23.964-15.755,32.824c0.051-17.262,0.091-34.533,0.144-51.793
					C727.104,268.144,732.119,274.633,735.81,282.198z"/>
			</g>
		</g>
		<path class="st6" d="M271.908,227.479c0.928-13.654,6.451-25.094,16.496-34.367c-0.054,18.073-0.094,36.158-0.148,54.233
			C281.023,242.193,275.774,235.4,271.908,227.479z"/>
		<path class="st6" d="M269.93,347.53c1.124,16.316,7.727,29.96,19.724,41.03c-0.075-21.575-0.148-43.177-0.241-64.744
			C280.796,329.97,274.517,338.07,269.93,347.53z"/>
		<g id="Cube_3_">
			<path class="st5" d="M503.897,530.363c-8.233,0.587-15.806-1.779-22.841-5.807c-55.799-31.923-111.576-63.896-167.318-95.92
				c-17.077-9.82-25.754-24.881-25.858-44.81c-0.338-63.541-0.556-127.081-0.834-190.62c-0.042-9.497,2.006-18.402,7.06-26.485
				c0.741,0.36,1.502,0.68,2.22,1.083c53.573,30.217,107.155,60.422,160.709,90.676c15.324,8.653,30.57,17.45,45.85,26.187
				c0.261,0.342,0.523,0.695,0.773,1.037c0.057,1.347,0.161,2.696,0.167,4.046c0.332,78.465,0.662,156.936,0.991,235.409
				c0.005,1.344-0.088,2.688-0.127,4.042C504.425,529.576,504.161,529.974,503.897,530.363z"/>
			<path class="st5" d="M503.928,529.657c0.045-1.354,0.143-2.699,0.143-4.043c0.002-78.473,0.002-156.943,0-235.41
				c0-1.349-0.098-2.698-0.147-4.046c0.149-0.287,0.218-0.594,0.202-0.917c69.701-39.691,139.399-79.375,209.091-119.065
				c5.207,8.021,7.234,17.026,7.25,26.441c0.091,63.712,0.161,127.425-0.024,191.134c-0.057,19.648-8.791,34.709-25.63,44.476
				c-55.302,32.117-110.664,64.128-166.023,96.141c-7.616,4.404-15.708,7.166-24.647,6.446
				C504.07,530.426,503.991,530.032,503.928,529.657z"/>
			<path class="st5" d="M713.216,166.176c-69.691,39.69-139.39,79.375-209.091,119.065l-0.477-0.134l-0.496,0.01
				c-15.244-8.8-30.453-17.662-45.74-26.379c-53.427-30.479-106.878-60.909-160.325-91.352c-0.716-0.405-1.477-0.729-2.216-1.091
				c4.247-7.95,10.642-13.674,18.259-18.087c54.973-31.839,109.974-63.625,164.924-95.5c17.562-10.189,34.97-9.938,52.417,0.174
				c53.927,31.248,107.853,62.509,161.813,93.71C700.777,151.503,708.373,157.284,713.216,166.176z"/>
		</g>
		<line class="st0" x1="503.923" y1="285.803" x2="503.923" y2="530.657"/>
		<line class="st4" x1="503.512" y1="285.803" x2="712.807" y2="165.821"/>
		<line class="st4" x1="503.923" y1="285.803" x2="295.289" y2="166.338"/>
		<path class="st6" d="M288.491,146.432c44.78-36.998,84.569-13.672,124.733,9.843c23.27,13.61,45.316,30.717,74.292,30.665
			c3.945-0.012,7.893-0.752,11.85-1.16c-3.99,2.469-7.74,5.411-11.973,7.342c-31.02,14.136-60.256,7.425-89.538-6.634
			c-37.373-17.957-74.614-22.603-109.45,6.625c-10.045,9.273-15.568,20.713-16.496,34.367c-6.547-14.556-7.513-29.539-3.907-45.028
			C271.286,168.369,278.98,156.906,288.491,146.432z"/>
		<path class="st6" d="M289.951,444.28c53.512,44.107,100.989,16.227,148.924-11.887c27.77-16.291,54.088-36.733,88.65-36.706
			c4.716,0.015,9.428,0.892,14.155,1.374c-4.775-2.938-9.257-6.436-14.302-8.733c-37.052-16.853-71.944-8.819-106.888,8.015
			c-44.602,21.465-89.056,27.052-130.691-7.782c-11.997-11.07-18.6-24.714-19.724-41.03c-7.8,17.384-8.937,35.28-4.612,53.758
			C269.405,418.094,278.605,431.776,289.951,444.28z"/>
		<path class="st6" d="M719.973,359.6c-42.766,35.333-80.764,13.061-119.128-9.4c-22.219-12.996-43.275-29.334-70.938-29.283
			c-3.774,0.01-7.544,0.718-11.315,1.104c3.799-2.355,7.389-5.164,11.43-7.009c29.621-13.5,57.543-7.092,85.509,6.333
			c35.693,17.149,71.256,21.586,104.525-6.324c9.594-8.86,14.865-19.785,15.755-32.824c6.248,13.904,7.174,28.211,3.729,43.002
			C736.403,338.647,729.054,349.594,719.973,359.6z"/>
	</g>
</g>
<g>
</g>
<g>
</g>
<g>
</g>
<g>
</g>
<g>
</g>
<g>
</g>
<g>
</g>
<g>
</g>
<g>
</g>
<g>
</g>
<g>
</g>
<g>
</g>
<g>
</g>
<g>
</g>
<g>
</g>
</svg>
