<svg xmlns="http://www.w3.org/2000/svg" version="1.1" id="Layer_1" x="0" y="0" width="483.60947" height="627.13037" xml:space="preserve"><style type="text/css" id="style4752">.st1{fill:#9cf}.st2{fill:#fff}.st3{display:inline}.st4{fill:none;stroke:#fff;stroke-width:4;stroke-miterlimit:10}.st5,.st6{fill-rule:evenodd;clip-rule:evenodd}.st5{stroke:#fff;stroke-width:4;stroke-miterlimit:10;fill:none}.st6{fill:#fff}.st7{fill:none;stroke:#369;stroke-width:.5;stroke-miterlimit:10}.st13,.st14{fill-rule:evenodd;clip-rule:evenodd;fill:#0091fc}.st14{fill:#0256d1}</style><g id="g4877" transform="translate(-262.96454 -43.234648)"><path class="st2" d="M299.735 600.37h-16.041v67.495h-17.291V522.042h17.291v64.995h15.624l46.872-64.995h19.999l-51.455 69.37 57.913 76.453h-21.874z" id="path4869" fill="#fff"/><path class="st2" d="M387.436 667.865v-13.957h28.123v-76.245h-28.123v-13.957h38.956l3.333 13.54h1.042c4.72-4.303 9.999-7.984 15.832-11.041 5.833-3.053 12.776-4.583 20.832-4.583 4.72 0 8.505.905 11.354 2.709 2.845 1.806 5.068 4.446 6.666 7.916 1.595 3.473 2.672 7.675 3.229 12.603.553 4.932.833 10.521.833 16.771l-14.583.208c0-8.814-.869-15.289-2.604-19.423-1.738-4.134-4.896-6.2-9.479-6.2-4.306 0-8.196.625-11.666 1.871-3.473 1.247-6.494 2.771-9.062 4.57-2.571 1.8-4.759 3.6-6.562 5.4-1.806 1.803-3.125 3.326-3.958 4.569v61.292h39.998v13.957z" id="path4871" fill="#fff"/><path class="st2" d="M608.877 654.741c-2.5 2.223-5.452 4.307-8.854 6.249-3.405 1.947-7.119 3.613-11.146 5-4.029 1.39-8.229 2.464-12.604 3.229-4.374.762-8.785 1.146-13.228 1.146-8.333 0-15.696-1.286-22.082-3.854-6.39-2.567-11.737-6.249-16.041-11.04-4.307-4.792-7.571-10.521-9.791-17.187-2.223-6.666-3.333-14.166-3.333-22.499 0-8.749 1.214-16.525 3.646-23.331 2.429-6.804 5.938-12.5 10.521-17.083 4.583-4.583 10.136-8.088 16.665-10.52 6.526-2.429 13.817-3.646 21.874-3.646 5.833 0 11.594.765 17.29 2.291 5.693 1.53 10.729 4.411 15.104 8.646 4.375 4.238 7.74 10.071 10.104 17.499 2.359 7.431 3.193 17.05 2.5 28.852h-80.411c0 12.5 3.358 21.842 10.077 28.02 6.718 6.181 15.686 9.271 26.905 9.271 3.74 0 7.444-.449 11.116-1.354 3.672-.901 7.167-1.979 10.494-3.229 3.323-1.249 6.266-2.636 8.831-4.166 2.562-1.526 4.534-2.916 5.92-4.166zm-43.861-79.786c-4.57 0-8.896.488-12.978 1.458-4.085.974-7.686 2.604-10.8 4.896-3.115 2.292-5.677 5.279-7.682 8.958-2.009 3.681-3.288 8.229-3.841 13.645h64.578c-.693-9.166-3.636-16.281-8.827-21.353-5.191-5.069-12.007-7.604-20.45-7.604z" id="path4873" fill="#fff"/><path class="st2" d="M694.286 586.621l20.832 57.912h1.458l14.791-80.827h15.207l-20.415 104.159h-18.541l-19.998-57.496h-.625l-20.832 57.496h-18.54l-21.874-104.159h16.041l16.874 81.244h1.249l20.207-58.329z" id="path4875" fill="#fff"/></g><g id="Color_1_" transform="translate(-262.96454 -43.234648)"><g id="g4908"><g id="g4883"><g id="g4881"><path class="st6" d="M735.81 282.198c-.89 13.039-6.161 23.964-15.755 32.824.051-17.262.091-34.533.144-51.793 6.905 4.915 11.92 11.404 15.611 18.969z" id="path4879" clip-rule="evenodd" fill="#fff" fill-rule="evenodd"/></g></g><path class="st6" d="M271.908 227.479c.928-13.654 6.451-25.094 16.496-34.367-.054 18.073-.094 36.158-.148 54.233-7.233-5.152-12.482-11.945-16.348-19.866z" id="path4885" clip-rule="evenodd" fill="#fff" fill-rule="evenodd"/><path class="st6" d="M269.93 347.53c1.124 16.316 7.727 29.96 19.724 41.03-.075-21.575-.148-43.177-.241-64.744-8.617 6.154-14.896 14.254-19.483 23.714z" id="path4887" clip-rule="evenodd" fill="#fff" fill-rule="evenodd"/><g id="Cube_3_"><path class="st5" d="M503.897 530.363c-8.233.587-15.806-1.779-22.841-5.807-55.799-31.923-111.576-63.896-167.318-95.92-17.077-9.82-25.754-24.881-25.858-44.81-.338-63.541-.556-127.081-.834-190.62-.042-9.497 2.006-18.402 7.06-26.485.741.36 1.502.68 2.22 1.083 53.573 30.217 107.155 60.422 160.709 90.676 15.324 8.653 30.57 17.45 45.85 26.187.261.342.523.695.773 1.037.057 1.347.161 2.696.167 4.046.332 78.465.662 156.936.991 235.409.005 1.344-.088 2.688-.127 4.042-.264.375-.528.773-.792 1.162z" id="path4889" clip-rule="evenodd" fill="none" fill-rule="evenodd" stroke="#fff" stroke-width="4" stroke-miterlimit="10"/><path class="st5" d="M503.928 529.657c.045-1.354.143-2.699.143-4.043.002-78.473.002-156.943 0-235.41 0-1.349-.098-2.698-.147-4.046.149-.287.218-.594.202-.917 69.701-39.691 139.399-79.375 209.091-119.065 5.207 8.021 7.234 17.026 7.25 26.441.091 63.712.161 127.425-.024 191.134-.057 19.648-8.791 34.709-25.63 44.476-55.302 32.117-110.664 64.128-166.023 96.141-7.616 4.404-15.708 7.166-24.647 6.446-.073-.388-.152-.782-.215-1.157z" id="path4891" clip-rule="evenodd" fill="none" fill-rule="evenodd" stroke="#fff" stroke-width="4" stroke-miterlimit="10"/><path class="st5" d="M713.216 166.176c-69.691 39.69-139.39 79.375-209.091 119.065l-.477-.134-.496.01c-15.244-8.8-30.453-17.662-45.74-26.379-53.427-30.479-106.878-60.909-160.325-91.352-.716-.405-1.477-.729-2.216-1.091 4.247-7.95 10.642-13.674 18.259-18.087 54.973-31.839 109.974-63.625 164.924-95.5 17.562-10.189 34.97-9.938 52.417.174 53.927 31.248 107.853 62.509 161.813 93.71 8.493 4.911 16.089 10.692 20.932 19.584z" id="path4893" clip-rule="evenodd" fill="none" fill-rule="evenodd" stroke="#fff" stroke-width="4" stroke-miterlimit="10"/></g><path id="line4896" fill="#c96" stroke="#fff" stroke-width="4" stroke-miterlimit="10" d="M503.923 285.80301v244.85397"/><path class="st4" id="line4898" fill="none" stroke="#fff" stroke-width="4" stroke-miterlimit="10" d="M503.51199 285.80301L712.80701 165.821"/><path class="st4" id="line4900" fill="none" stroke="#fff" stroke-width="4" stroke-miterlimit="10" d="M503.923 285.80301L295.289 166.338"/><path class="st6" d="M288.491 146.432c44.78-36.998 84.569-13.672 124.733 9.843 23.27 13.61 45.316 30.717 74.292 30.665 3.945-.012 7.893-.752 11.85-1.16-3.99 2.469-7.74 5.411-11.973 7.342-31.02 14.136-60.256 7.425-89.538-6.634-37.373-17.957-74.614-22.603-109.45 6.625-10.045 9.273-15.568 20.713-16.496 34.367-6.547-14.556-7.513-29.539-3.907-45.028 3.284-14.083 10.978-25.546 20.489-36.02z" id="path4902" clip-rule="evenodd" fill="#fff" fill-rule="evenodd"/><path class="st6" d="M289.951 444.28c53.512 44.107 100.989 16.227 148.924-11.887 27.77-16.291 54.088-36.733 88.65-36.706 4.716.015 9.428.892 14.155 1.374-4.775-2.938-9.257-6.436-14.302-8.733-37.052-16.853-71.944-8.819-106.888 8.015-44.602 21.465-89.056 27.052-130.691-7.782-11.997-11.07-18.6-24.714-19.724-41.03-7.8 17.384-8.937 35.28-4.612 53.758 3.942 16.805 13.142 30.487 24.488 42.991z" id="path4904" clip-rule="evenodd" fill="#fff" fill-rule="evenodd"/><path class="st6" d="M719.973 359.6c-42.766 35.333-80.764 13.061-119.128-9.4-22.219-12.996-43.275-29.334-70.938-29.283-3.774.01-7.544.718-11.315 1.104 3.799-2.355 7.389-5.164 11.43-7.009 29.621-13.5 57.543-7.092 85.509 6.333 35.693 17.149 71.256 21.586 104.525-6.324 9.594-8.86 14.865-19.785 15.755-32.824 6.248 13.904 7.174 28.211 3.729 43.002-3.137 13.448-10.486 24.395-19.567 34.401z" id="path4906" clip-rule="evenodd" fill="#fff" fill-rule="evenodd"/></g></g></svg>