<?xml version="1.0" encoding="utf-8"?>
<!-- Generator: Adobe Illustrator 16.2.1, SVG Export Plug-In . SVG Version: 6.00 Build 0)  -->
<!DOCTYPE svg PUBLIC "-//W3C//DTD SVG 1.1//EN" "http://www.w3.org/Graphics/SVG/1.1/DTD/svg11.dtd">
<svg version="1.1" id="Layer_1" xmlns="http://www.w3.org/2000/svg" xmlns:xlink="http://www.w3.org/1999/xlink" x="0px" y="0px"
	 width="1024px" height="768px" viewBox="0 0 1024 768" style="enable-background:new 0 0 1024 768;" xml:space="preserve">
<style type="text/css">
<![CDATA[
	.st0{fill:#CC9966;stroke:#FFFFFF;stroke-width:4;stroke-miterlimit:10;}
	.st1{fill:#99CCFF;}
	.st2{display:inline;}
	.st3{fill:none;stroke:#FFFFFF;stroke-width:4;stroke-miterlimit:10;}
	.st4{fill-rule:evenodd;clip-rule:evenodd;fill:none;stroke:#FFFFFF;stroke-width:4;stroke-miterlimit:10;}
	.st5{fill-rule:evenodd;clip-rule:evenodd;fill:#FFFFFF;}
	.st6{fill:none;stroke:#336699;stroke-width:0.5;stroke-miterlimit:10;}
	.st7{fill-rule:evenodd;clip-rule:evenodd;fill:#683DFE;}
	.st8{display:none;}
	.st9{fill-rule:evenodd;clip-rule:evenodd;fill:url(#SVGID_1_);}
	.st10{fill-rule:evenodd;clip-rule:evenodd;fill:url(#SVGID_2_);}
	.st11{fill-rule:evenodd;clip-rule:evenodd;fill:url(#SVGID_3_);}
	.st12{fill-rule:evenodd;clip-rule:evenodd;fill:url(#SVGID_4_);}
	.st13{fill-rule:evenodd;clip-rule:evenodd;fill:url(#SVGID_5_);}
	.st14{fill-rule:evenodd;clip-rule:evenodd;fill:url(#SVGID_6_);}
	.st15{fill-rule:evenodd;clip-rule:evenodd;fill:#0091FC;}
	.st16{fill-rule:evenodd;clip-rule:evenodd;fill:#0256D1;}
]]>
</style>
<g class="st8">
	<g class="st2">
		<g>
			<g>
				<g>
					<path class="st1" d="M714.271,326.675c-1.36,0-2.729-0.277-4.023-0.846c-3.642-1.601-5.987-5.208-5.975-9.185
						c0.03-9.555,0.056-19.113,0.081-28.67l0.062-22.065c0.011-3.737,2.104-7.156,5.428-8.864c1.441-0.741,3.01-1.106,4.571-1.106
						c2.041,0,4.071,0.624,5.797,1.851c7.702,5.478,13.921,12.996,18.484,22.347c0.768,1.572,1.109,3.319,0.99,5.064
						c-1.041,15.315-7.31,28.377-18.632,38.825C719.17,325.763,716.736,326.675,714.271,326.675z"/>
				</g>
			</g>
			<path class="st1" d="M292.451,260.131c-2.044,0-4.077-0.625-5.804-1.856c-8.004-5.703-14.464-13.516-19.202-23.223
				c-0.767-1.572-1.109-3.318-0.99-5.064c1.081-15.913,7.594-29.485,19.358-40.34c1.884-1.738,4.317-2.65,6.783-2.65
				c1.36,0,2.729,0.277,4.023,0.846c3.641,1.601,5.987,5.207,5.975,9.184c0,0-0.117,43.762-0.145,53.135
				c-0.011,3.738-2.107,7.158-5.433,8.866C295.578,259.766,294.012,260.131,292.451,260.131z"/>
			<path class="st1" d="M295.679,398.729c-2.467,0-4.9-0.912-6.784-2.651c-13.671-12.618-21.248-28.384-22.518-46.861
				c-0.12-1.739,0.218-3.479,0.978-5.048c5.46-11.265,12.954-20.353,22.271-27.01c1.729-1.235,3.767-1.863,5.814-1.863
				c1.556,0,3.118,0.363,4.555,1.098c3.328,1.703,5.428,5.12,5.444,8.858c0.077,17.43,0.138,34.887,0.199,52.329l0.039,11.113
				c0.014,3.979-2.332,7.586-5.973,9.188C298.41,398.451,297.04,398.729,295.679,398.729z"/>
			<g id="Cube_7_">
				<path class="st1" d="M701.734,264.477c-0.654,0-1.314-0.064-1.973-0.197c-3.919-0.788-6.992-3.835-7.814-7.748
					c-0.096-0.454-0.185-0.907-0.27-1.363c-0.539-2.904,0.233-5.898,2.11-8.179s4.667-3.615,7.62-3.645
					c0.371-0.004,0.74-0.004,1.117-0.004c3.761,0,7.204,2.11,8.911,5.462c1.707,3.352,1.389,7.378-0.823,10.419
					c-0.162,0.222-0.315,0.448-0.469,0.671l-0.181,0.262C708.075,262.894,704.979,264.477,701.734,264.477z"/>
				<path class="st1" d="M499.444,538.179c-8.363,0-16.794-2.425-25.059-7.207c-56.306-32.528-111.332-64.382-163.542-94.672
					c-19.689-11.426-30.108-29.63-30.132-52.644c-0.045-41.583-0.039-83.857-0.033-124.74c0.003-20.676,0.006-41.352,0.003-62.027
					c-0.004-11.729,2.878-22.248,8.568-31.262c1.889-2.992,5.127-4.664,8.463-4.664c1.497,0,3.012,0.336,4.435,1.042
					c0.189,0.094,0.38,0.183,0.571,0.273c0.575,0.271,1.291,0.608,2.071,1.048l35.419,20.174
					c40.573,23.108,81.144,46.215,121.701,69.351c10.46,5.963,21.046,12.092,31.283,18.02c4.524,2.619,9.049,5.239,13.575,7.852
					c1.171,0.676,2.193,1.583,3.004,2.666c0.275,0.368,0.553,0.746,0.821,1.113c1.169,1.601,1.837,3.513,1.917,5.494l0.051,1.086
					c0.049,0.987,0.104,2.106,0.104,3.283c0.007,76.88,0.007,153.761,0,230.646c0,1.112-0.05,2.17-0.094,3.104
					c-0.019,0.401-0.038,0.804-0.052,1.208c-0.069,1.963-0.715,3.862-1.856,5.46c-0.127,0.179-0.251,0.362-0.375,0.546l-0.303,0.443
					c-1.731,2.518-4.519,4.104-7.567,4.31C501.431,538.146,500.43,538.179,499.444,538.179z"/>
				<path class="st1" d="M505.508,538.213c-1.186,0-2.388-0.048-3.573-0.144c-4.476-0.361-8.162-3.661-9.014-8.069
					c-0.082-0.422-0.163-0.852-0.237-1.263c-0.126-0.7-0.177-1.411-0.151-2.122c0.017-0.482,0.039-0.963,0.062-1.441
					c0.034-0.724,0.071-1.444,0.071-2.166c0.007-76.884,0.007-153.764,0-230.644c0-0.684-0.039-1.468-0.08-2.297
					c-0.021-0.42-0.042-0.84-0.059-1.26c-0.042-1.026,0.075-2.049,0.342-3.031c0.509-2.895,2.278-5.466,4.901-6.959l204.857-116.653
					c1.559-0.888,3.26-1.312,4.94-1.312c3.283,0,6.488,1.618,8.396,4.557c5.763,8.88,8.695,19.42,8.717,31.329
					c0.093,69.453,0.149,127.342-0.026,187.311c-0.063,22.767-10.47,40.817-30.094,52.2
					c-54.859,31.853-109.669,63.545-162.674,94.194C522.853,535.67,514.223,538.213,505.508,538.213z"/>
				<path class="st1" d="M502.719,297.505c-0.588,0-1.177-0.052-1.762-0.156c-1.471-0.12-2.903-0.564-4.188-1.307
					c-4.533-2.617-9.063-5.24-13.594-7.863c-10.21-5.911-20.768-12.024-31.173-17.956c-40.552-23.133-81.116-46.236-121.682-69.34
					l-35.393-20.159c-0.21-0.119-0.472-0.231-0.729-0.353c-0.312-0.146-0.624-0.294-0.933-0.447
					c-2.424-1.202-4.257-3.333-5.083-5.91c-0.825-2.576-0.571-5.377,0.704-7.763c4.731-8.854,11.828-15.938,21.694-21.658
					c19.893-11.521,39.787-23.035,59.682-34.548c33.972-19.66,67.944-39.32,101.895-59.014c9.98-5.789,20.233-8.724,30.473-8.724
					c10.335,0,20.737,2.992,30.917,8.892l23.602,13.677c44.216,25.623,89.937,52.119,134.926,78.131
					c7.968,4.607,17.931,11.392,24.284,23.062c2.605,4.785,0.901,10.775-3.834,13.471L507.668,296.195
					C506.146,297.062,504.439,297.505,502.719,297.505z"/>
			</g>
			<path class="st1" d="M502.52,537.949c-5.523,0-10-4.478-10-10V288.055c0-5.523,4.477-10,10-10s10,4.477,10,10v239.895
				C512.52,533.472,508.042,537.949,502.52,537.949z"/>
			<path class="st1" d="M502.129,298.056c-3.467,0-6.837-1.805-8.685-5.028c-2.747-4.792-1.089-10.902,3.702-13.649l205.053-117.553
				c4.793-2.747,10.903-1.089,13.649,3.702c2.746,4.792,1.089,10.902-3.702,13.649L507.094,296.73
				C505.525,297.629,503.816,298.056,502.129,298.056z"/>
			<path class="st1" d="M502.51,298.057c-1.685,0-3.393-0.427-4.96-1.324L293.145,179.689c-4.792-2.745-6.453-8.854-3.709-13.647
				c2.744-4.792,8.853-6.453,13.647-3.709l204.405,117.044c4.792,2.745,6.453,8.854,3.709,13.647
				C509.351,296.25,505.979,298.057,502.51,298.057z"/>
			<path class="st1" d="M276.428,240.666c-3.879,0-7.481-2.263-9.116-5.899c-7.083-15.75-8.579-32.734-4.448-50.482
				c3.226-13.829,10.347-26.457,22.411-39.746c0.321-0.354,0.667-0.684,1.035-0.987c17.302-14.295,35.058-21.244,54.284-21.244
				c28.16,0,54.15,15.217,79.285,29.933c3.925,2.296,7.779,4.666,11.506,6.958c18.182,11.184,35.356,21.747,56.15,21.747h0.117
				c2.033-0.005,4.324-0.302,6.749-0.616c1.281-0.166,2.563-0.331,3.846-0.464c0.349-0.036,0.696-0.054,1.041-0.054
				c4.234,0,8.063,2.688,9.457,6.767c1.507,4.411-0.233,9.278-4.195,11.733c-1.1,0.682-2.22,1.433-3.406,2.227
				c-2.755,1.846-5.879,3.938-9.436,5.563c-12.485,5.689-25.545,8.572-38.823,8.573c-17.618,0.001-35.853-4.814-57.386-15.152
				c-18.365-8.823-34.419-13.112-49.083-13.112c-17.181,0-32.626,5.919-47.208,18.094c-7.883,7.343-12.07,16.125-12.798,26.84
				c-0.311,4.577-3.697,8.356-8.212,9.166C277.605,240.615,277.013,240.666,276.428,240.666z"/>
			<path class="st1" d="M352.984,475.889c-22.457-0.002-43.234-8.131-63.521-24.852c-0.372-0.307-0.722-0.641-1.046-0.998
				c-14.169-15.618-22.532-30.412-26.318-46.558c-4.862-20.76-3.136-40.625,5.13-59.045c1.633-3.64,5.238-5.907,9.119-5.907
				c0.583,0,1.171,0.051,1.761,0.156c4.516,0.806,7.905,4.582,8.22,9.158c0.916,13.321,6.135,24.24,15.955,33.374
				c17.781,14.816,36.619,22.019,57.585,22.018c17.83-0.001,37.297-5.199,59.513-15.893c25.446-12.259,46.971-17.969,67.737-17.969
				c15.541,0,30.837,3.374,45.463,10.027c4.077,1.854,7.563,4.179,10.935,6.426c1.449,0.967,2.818,1.879,4.179,2.716
				c3.972,2.444,5.728,7.308,4.231,11.725c-1.386,4.092-5.221,6.793-9.466,6.793c-0.337,0-0.677-0.017-1.019-0.052
				c-1.556-0.158-3.11-0.356-4.663-0.556c-2.932-0.377-5.7-0.732-8.239-0.743c-25.432,0-46.195,12.805-68.177,26.361
				c-4.419,2.726-8.989,5.544-13.569,8.23c-29.874,17.521-60.684,35.588-93.803,35.588
				C352.988,475.889,352.988,475.889,352.984,475.889z"/>
			<path class="st1" d="M668.434,388.457c-27.013,0-51.887-14.562-75.941-28.645c-3.761-2.199-7.442-4.464-11.003-6.655
				c-17.31-10.648-33.659-20.707-53.384-20.707h-0.11c-1.893,0.005-4.052,0.286-6.337,0.583c-1.245,0.162-2.491,0.323-3.737,0.452
				c-0.347,0.036-0.692,0.054-1.035,0.054c-4.234,0-8.062-2.688-9.457-6.765c-1.507-4.408,0.229-9.272,4.187-11.73
				c1.033-0.642,2.09-1.35,3.209-2.1c2.659-1.782,5.673-3.801,9.117-5.373c11.977-5.458,24.509-8.224,37.251-8.224
				c16.896,0,34.373,4.612,55.002,14.515c17.478,8.397,32.746,12.479,46.682,12.479c16.294,0,30.946-5.618,44.782-17.17
				c7.437-6.93,11.386-15.217,12.073-25.327c0.311-4.577,3.695-8.355,8.211-9.165c0.592-0.106,1.185-0.158,1.77-0.158
				c3.878,0,7.479,2.263,9.115,5.897c6.808,15.128,8.247,31.445,4.277,48.499c-3.099,13.281-9.933,25.405-21.508,38.161
				c-0.321,0.354-0.667,0.685-1.036,0.989C703.954,381.787,686.902,388.457,668.434,388.457z"/>
		</g>
	</g>
	<g class="st2">
		<g>
			<g>
				<g>
					<path class="st16" d="M729.709,284.521c-0.868,12.772-6.034,23.478-15.437,32.154c0.053-16.91,0.093-33.828,0.143-50.737
						C721.183,270.75,726.093,277.112,729.709,284.521z"/>
				</g>
			</g>
			<path class="st16" d="M276.433,230.666c0.909-13.377,6.32-24.586,16.163-33.668c-0.052,17.706-0.092,35.425-0.145,53.134
				C285.362,245.081,280.221,238.427,276.433,230.666z"/>
			<path class="st16" d="M276.354,348.53c1.099,15.986,7.57,29.35,19.324,40.198c-0.075-21.135-0.145-42.304-0.238-63.434
				C286.998,331.327,280.846,339.262,276.354,348.53z"/>
			<g id="Cube_6_">
				<path class="st7" d="M701.733,254.477c-0.079-0.376-0.153-0.753-0.224-1.132c0.337-0.003,0.673-0.003,1.016-0.003
					C702.252,253.717,701.993,254.1,701.733,254.477z"/>
				<linearGradient id="SVGID_1_" gradientUnits="userSpaceOnUse" x1="396.6729" y1="170.9644" x2="396.6728" y2="528.1792">
					<stop  offset="0" style="stop-color:#00223D"/>
					<stop  offset="0.1241" style="stop-color:#002542"/>
					<stop  offset="0.5866" style="stop-color:#002D4F"/>
					<stop  offset="1" style="stop-color:#003054"/>
					<stop  offset="1" style="stop-color:#00355E"/>
					<stop  offset="1" style="stop-color:#004174"/>
					<stop  offset="1" style="stop-color:#004B85"/>
					<stop  offset="1" style="stop-color:#005190"/>
					<stop  offset="1" style="stop-color:#005597"/>
					<stop  offset="1" style="stop-color:#005699"/>
				</linearGradient>
				<path class="st9" d="M501.747,528.102c-8.07,0.543-15.476-1.806-22.353-5.785c-54.537-31.506-109.05-63.058-163.532-94.666
					c-16.693-9.688-25.13-24.482-25.15-44.004c-0.068-62.256-0.02-124.509-0.03-186.758c-0.003-9.305,2.038-18.022,7.025-25.923
					c0.725,0.359,1.469,0.675,2.171,1.071c52.365,29.829,104.733,59.641,157.077,89.5c14.978,8.539,29.881,17.226,44.813,25.846
					c0.252,0.336,0.506,0.683,0.751,1.018c0.054,1.321,0.146,2.642,0.146,3.963c0.007,76.881,0.007,153.761,0,230.645
					c0,1.318-0.093,2.632-0.14,3.96C502.263,527.337,502.008,527.723,501.747,528.102z"/>
				<linearGradient id="SVGID_2_" gradientUnits="userSpaceOnUse" x1="552.7383" y1="258.6274" x2="660.2241" y2="444.7984">
					<stop  offset="0" style="stop-color:#003366"/>
					<stop  offset="0.4667" style="stop-color:#003468"/>
					<stop  offset="0.6674" style="stop-color:#00396F"/>
					<stop  offset="0.8171" style="stop-color:#00427C"/>
					<stop  offset="0.9406" style="stop-color:#004E8D"/>
					<stop  offset="1" style="stop-color:#005699"/>
				</linearGradient>
				<path class="st10" d="M502.526,526.968c0.047-1.328,0.14-2.642,0.14-3.96c0.007-76.884,0.007-153.764,0-230.645
					c0-1.321-0.093-2.642-0.146-3.963c0.153-0.282,0.22-0.583,0.2-0.895c68.287-38.888,136.575-77.769,204.856-116.654
					c5.1,7.858,7.089,16.68,7.105,25.903c0.083,62.426,0.156,124.845-0.026,187.263c-0.054,19.25-8.61,34.008-25.111,43.579
					c-54.182,31.459-108.424,62.825-162.662,94.188c-7.461,4.318-15.387,7.023-24.143,6.317
					C502.666,527.723,502.593,527.337,502.526,526.968z"/>
				<linearGradient id="SVGID_3_" gradientUnits="userSpaceOnUse" x1="502.6411" y1="52.3081" x2="502.6411" y2="287.5054">
					<stop  offset="0" style="stop-color:#003366"/>
					<stop  offset="0.3992" style="stop-color:#004580"/>
					<stop  offset="0.644" style="stop-color:#004D8C"/>
					<stop  offset="1" style="stop-color:#005699"/>
				</linearGradient>
				<path class="st11" d="M707.576,170.852c-68.281,38.885-136.569,77.766-204.856,116.654l-0.467-0.133l-0.484,0.01
					c-14.932-8.62-29.836-17.307-44.813-25.846c-52.344-29.859-104.712-59.672-157.077-89.5c-0.702-0.396-1.446-0.712-2.171-1.071
					c4.162-7.788,10.428-13.394,17.889-17.719c53.857-31.193,107.745-62.336,161.58-93.564c17.21-9.982,34.267-9.736,51.357,0.17
					c52.835,30.616,105.672,61.247,158.536,91.813C695.39,156.476,702.832,162.138,707.576,170.852z"/>
			</g>
			<line class="st6" x1="502.52" y1="288.055" x2="502.52" y2="527.949"/>
			<line class="st6" x1="502.12" y1="288.055" x2="707.173" y2="170.502"/>
			<line class="st6" x1="502.52" y1="288.055" x2="298.114" y2="171.011"/>
			<path class="st15" d="M292.68,151.26c43.872-36.247,82.856-13.395,122.207,9.645c22.799,13.334,44.397,30.095,72.786,30.041
				c3.87-0.01,7.735-0.731,11.61-1.134c-3.908,2.422-7.581,5.3-11.727,7.193c-30.395,13.85-59.039,7.276-87.728-6.498
				c-36.616-17.592-73.102-22.144-107.232,6.491c-9.843,9.082-15.254,20.292-16.163,33.668c-6.414-14.262-7.36-28.94-3.829-44.114
				C275.823,172.754,283.363,161.523,292.68,151.26z"/>
			<path class="st15" d="M295.824,443.32c52.428,43.213,98.947,15.898,145.911-11.645c27.204-15.962,52.987-35.99,86.851-35.967
				c4.622,0.021,9.236,0.879,13.871,1.351c-4.678-2.878-9.069-6.308-14.014-8.557c-36.299-16.512-70.486-8.644-104.723,7.851
				c-43.697,21.033-87.249,26.506-128.042-7.625c-11.754-10.848-18.225-24.212-19.324-40.198
				c-7.642,17.031-8.758,34.562-4.518,52.668C275.696,417.662,284.707,431.066,295.824,443.32z"/>
			<path class="st15" d="M714.192,360.357c-41.898,34.617-79.126,12.792-116.713-9.212c-21.766-12.732-42.402-28.745-69.503-28.694
				c-3.692,0.01-7.386,0.705-11.085,1.087c3.723-2.312,7.242-5.063,11.201-6.87c29.021-13.225,56.378-6.944,83.775,6.208
				c34.968,16.8,69.813,21.149,102.404-6.202c9.402-8.676,14.568-19.382,15.437-32.154c6.129,13.62,7.03,27.636,3.657,42.128
				C730.291,339.827,723.092,350.55,714.192,360.357z"/>
		</g>
	</g>
</g>
<g id="Color_1_" class="st8">
	<g class="st2">
		<g>
			<g>
				<path class="st5" d="M735.81,282.198c-0.89,13.039-6.161,23.964-15.755,32.824c0.051-17.262,0.091-34.533,0.144-51.793
					C727.104,268.144,732.119,274.633,735.81,282.198z"/>
			</g>
		</g>
		<path class="st5" d="M271.908,227.479c0.928-13.654,6.451-25.094,16.496-34.367c-0.054,18.073-0.094,36.158-0.148,54.233
			C281.023,242.193,275.774,235.4,271.908,227.479z"/>
		<path class="st5" d="M269.93,347.53c1.124,16.316,7.727,29.96,19.724,41.03c-0.075-21.575-0.148-43.177-0.241-64.744
			C280.796,329.97,274.517,338.07,269.93,347.53z"/>
		<g id="Cube_3_">
			<path class="st4" d="M503.897,530.363c-8.233,0.587-15.806-1.779-22.841-5.807c-55.799-31.923-111.576-63.896-167.318-95.92
				c-17.077-9.82-25.754-24.881-25.858-44.81c-0.338-63.541-0.556-127.081-0.834-190.62c-0.042-9.497,2.006-18.402,7.06-26.485
				c0.741,0.36,1.502,0.68,2.22,1.083c53.573,30.217,107.155,60.422,160.709,90.676c15.324,8.653,30.57,17.45,45.85,26.187
				c0.261,0.342,0.523,0.695,0.773,1.037c0.057,1.347,0.161,2.696,0.167,4.046c0.332,78.465,0.662,156.936,0.991,235.409
				c0.005,1.344-0.088,2.688-0.127,4.042C504.425,529.576,504.161,529.974,503.897,530.363z"/>
			<path class="st4" d="M503.928,529.657c0.045-1.354,0.143-2.699,0.143-4.043c0.002-78.473,0.002-156.943,0-235.41
				c0-1.349-0.098-2.698-0.147-4.046c0.149-0.287,0.218-0.594,0.202-0.917c69.701-39.691,139.399-79.375,209.091-119.065
				c5.207,8.021,7.234,17.026,7.25,26.441c0.091,63.712,0.161,127.425-0.024,191.134c-0.057,19.648-8.791,34.709-25.63,44.476
				c-55.302,32.117-110.664,64.128-166.023,96.141c-7.616,4.404-15.708,7.166-24.647,6.446
				C504.07,530.426,503.991,530.032,503.928,529.657z"/>
			<path class="st4" d="M713.216,166.176c-69.691,39.69-139.39,79.375-209.091,119.065l-0.477-0.134l-0.496,0.01
				c-15.244-8.8-30.453-17.662-45.74-26.379c-53.427-30.479-106.878-60.909-160.325-91.352c-0.716-0.405-1.477-0.729-2.216-1.091
				c4.247-7.95,10.642-13.674,18.259-18.087c54.973-31.839,109.974-63.625,164.924-95.5c17.562-10.189,34.97-9.938,52.417,0.174
				c53.927,31.248,107.853,62.509,161.813,93.71C700.777,151.503,708.373,157.284,713.216,166.176z"/>
		</g>
		<line class="st0" x1="503.923" y1="285.803" x2="503.923" y2="530.657"/>
		<line class="st3" x1="503.512" y1="285.803" x2="712.807" y2="165.821"/>
		<line class="st3" x1="503.923" y1="285.803" x2="295.289" y2="166.338"/>
		<path class="st5" d="M288.491,146.432c44.78-36.998,84.569-13.672,124.733,9.843c23.27,13.61,45.316,30.717,74.292,30.665
			c3.945-0.012,7.893-0.752,11.85-1.16c-3.99,2.469-7.74,5.411-11.973,7.342c-31.02,14.136-60.256,7.425-89.538-6.634
			c-37.373-17.957-74.614-22.603-109.45,6.625c-10.045,9.273-15.568,20.713-16.496,34.367c-6.547-14.556-7.513-29.539-3.907-45.028
			C271.286,168.369,278.98,156.906,288.491,146.432z"/>
		<path class="st5" d="M289.951,444.28c53.512,44.107,100.989,16.227,148.924-11.887c27.77-16.291,54.088-36.733,88.65-36.706
			c4.716,0.015,9.428,0.892,14.155,1.374c-4.775-2.938-9.257-6.436-14.302-8.733c-37.052-16.853-71.944-8.819-106.888,8.015
			c-44.602,21.465-89.056,27.052-130.691-7.782c-11.997-11.07-18.6-24.714-19.724-41.03c-7.8,17.384-8.937,35.28-4.612,53.758
			C269.405,418.094,278.605,431.776,289.951,444.28z"/>
		<path class="st5" d="M719.973,359.6c-42.766,35.333-80.764,13.061-119.128-9.4c-22.219-12.996-43.275-29.334-70.938-29.283
			c-3.774,0.01-7.544,0.718-11.315,1.104c3.799-2.355,7.389-5.164,11.43-7.009c29.621-13.5,57.543-7.092,85.509,6.333
			c35.693,17.149,71.256,21.586,104.525-6.324c9.594-8.86,14.865-19.785,15.755-32.824c6.248,13.904,7.174,28.211,3.729,43.002
			C736.403,338.647,729.054,349.594,719.973,359.6z"/>
	</g>
</g>
<g id="Dark">
	<g>
		<g>
			<g>
				<g>
					<path class="st1" d="M836.674,418.29c-0.68,0-1.364-0.139-2.011-0.423c-1.82-0.8-2.994-2.603-2.988-4.592
						c0,0,0.161-59.837,0.201-73.33c0.006-1.868,1.053-3.578,2.714-4.432c0.721-0.371,1.505-0.553,2.286-0.553
						c1.021,0,2.035,0.312,2.898,0.925c9.974,7.094,17.726,16.495,23.7,28.739c0.383,0.786,0.554,1.659,0.494,2.532
						c-1.337,19.638-9.379,36.395-23.901,49.807C839.125,417.833,837.907,418.29,836.674,418.29z"/>
				</g>
			</g>
			<path class="st1" d="M227.083,322.118c-1.021,0-2.038-0.312-2.901-0.928c-10.415-7.418-18.507-17.234-24.738-30.009
				c-0.383-0.786-0.554-1.658-0.495-2.53c1.391-20.501,9.787-37.995,24.952-51.994c0.942-0.87,2.159-1.326,3.393-1.326
				c0.68,0,1.364,0.138,2.011,0.423c1.82,0.8,2.994,2.604,2.988,4.592c-0.037,12.479-0.07,24.96-0.103,37.443
				c-0.034,13.116-0.068,26.232-0.108,39.345c-0.006,1.869-1.053,3.579-2.716,4.433
				C228.647,321.935,227.864,322.118,227.083,322.118z"/>
			<path class="st1" d="M231.749,522.411c-1.233,0-2.449-0.456-3.392-1.325c-17.926-16.539-27.858-37.205-29.522-61.425
				c-0.06-0.869,0.109-1.739,0.489-2.523c7.296-15.053,16.839-26.653,29.172-35.464c0.864-0.617,1.883-0.932,2.907-0.932
				c0.778,0,1.559,0.182,2.277,0.549c1.664,0.852,2.714,2.56,2.722,4.429c0.114,25.494,0.203,51.023,0.292,76.534l0.053,15.14
				c0.007,1.989-1.166,3.793-2.986,4.594C233.115,522.272,232.429,522.411,231.749,522.411z"/>
			<g id="Cube_16_">
				<path class="st1" d="M818.548,328.4c-0.334,0-0.671-0.033-1.007-0.102c-1.963-0.403-3.496-1.94-3.895-3.904
					c-0.116-0.574-0.232-1.149-0.338-1.724c-0.265-1.442,0.118-2.927,1.045-4.063c0.928-1.136,2.307-1.807,3.772-1.836
					c0.52-0.01,1.037-0.011,1.568-0.011c1.878,0,3.597,1.052,4.452,2.724c0.854,1.672,0.7,3.682-0.398,5.204
					c-0.308,0.426-0.604,0.856-0.899,1.283l-0.189,0.275C821.714,327.611,820.167,328.4,818.548,328.4z"/>
				<path class="st1" d="M526.229,723.938c-10.55,0-20.85-2.99-31.491-9.142c-81.025-46.809-160.539-92.84-236.332-136.812
					c-25.74-14.944-38.805-37.794-38.834-67.915c-0.065-59.803-0.057-120.601-0.048-179.397c0.004-30.166,0.008-60.332,0.003-90.498
					c-0.003-15.351,3.57-28.476,10.924-40.126c0.944-1.495,2.563-2.332,4.231-2.332c0.74,0,1.489,0.165,2.194,0.509
					c0.308,0.151,0.618,0.296,0.929,0.441c0.756,0.355,1.614,0.757,2.473,1.243l49.032,27.927
					c58.341,33.228,118.668,67.586,177.978,101.424c15.262,8.701,30.714,17.647,45.658,26.299c6.374,3.69,12.748,7.38,19.126,11.063
					c0.581,0.335,1.089,0.785,1.493,1.321c0.374,0.496,0.745,1.004,1.107,1.5c0.586,0.801,0.943,1.792,0.983,2.784
					c0.022,0.568,0.051,1.137,0.079,1.706c0.067,1.362,0.138,2.771,0.138,4.218c0.006,111.099,0.006,222.201,0,333.314
					c0,1.356-0.062,2.678-0.122,3.956c-0.03,0.644-0.061,1.288-0.082,1.935c-0.033,0.987-0.358,1.943-0.935,2.746
					c-0.263,0.367-0.522,0.751-0.783,1.137l-0.273,0.403c-0.864,1.27-2.266,2.071-3.799,2.175
					C528.668,723.897,527.439,723.938,526.229,723.938z"/>
				<path class="st1" d="M534.963,723.987c-1.456,0-2.932-0.06-4.389-0.176c-2.256-0.182-4.109-1.855-4.518-4.082l-0.11-0.591
					c-0.069-0.371-0.139-0.739-0.2-1.096c-0.06-0.338-0.083-0.681-0.071-1.023c0.023-0.69,0.056-1.379,0.087-2.066
					c0.058-1.217,0.111-2.366,0.111-3.488c0.006-111.113,0.006-222.216,0-333.314c0-1.199-0.061-2.425-0.125-3.723
					c-0.03-0.602-0.06-1.202-0.084-1.803c-0.026-0.661,0.079-1.318,0.307-1.936c0.143-1.62,1.068-3.088,2.507-3.907l93.582-53.289
					c67.488-38.429,134.975-76.857,202.456-115.29c0.779-0.444,1.63-0.656,2.471-0.656c1.642,0,3.244,0.809,4.197,2.278
					c7.323,11.279,11.05,24.788,11.077,40.15c0.13,96.45,0.216,183.387-0.037,270.642c-0.087,29.347-13.496,52.613-38.779,67.286
					c-75.694,43.95-152.73,88.503-227.23,131.589l-7.839,4.533C556.784,720.729,545.854,723.987,534.963,723.987z"/>
				<path class="st1" d="M530.952,376.127c-0.439,0-0.881-0.059-1.312-0.176c-0.022,0.001-0.045,0.001-0.067,0.001
					c-0.877,0-1.739-0.231-2.5-0.67c-6.383-3.686-12.762-7.378-19.141-11.072c-14.929-8.643-30.365-17.58-45.598-26.264
					c-59.288-33.825-119.592-68.17-177.911-101.386l-49.079-27.954c-0.515-0.291-1.131-0.58-1.785-0.887
					c-0.359-0.168-0.719-0.337-1.075-0.512c-1.219-0.596-2.144-1.662-2.562-2.954c-0.417-1.292-0.292-2.697,0.348-3.894
					c5.985-11.204,15.064-20.225,27.756-27.579c28.727-16.638,57.458-33.266,86.19-49.893
					c48.292-27.947,98.227-56.846,147.312-85.318c12.962-7.519,26.181-11.332,39.292-11.332c13.248,0,26.687,3.895,39.939,11.577
					l29.941,17.35c65.266,37.819,132.752,76.926,199.159,115.326c10.445,6.04,23.467,14.869,31.522,29.666
					c1.303,2.393,0.45,5.387-1.917,6.735c-67.498,38.442-135,76.879-202.505,115.318l-93.534,53.26
					C532.666,375.905,531.812,376.127,530.952,376.127z"/>
			</g>
			<path class="st1" d="M530.66,723.603c-2.762,0-5-2.238-5-5V371.922c0-2.761,2.238-5,5-5s5,2.239,5,5v346.681
				C535.66,721.364,533.422,723.603,530.66,723.603z"/>
			<path class="st1" d="M530.085,376.923c-1.733,0-3.419-0.903-4.343-2.515c-1.373-2.396-0.545-5.451,1.852-6.824l296.331-169.876
				c2.395-1.373,5.451-0.543,6.824,1.851c1.373,2.396,0.545,5.451-1.852,6.825L532.566,376.26
				C531.783,376.709,530.928,376.923,530.085,376.923z"/>
			<path class="st1" d="M530.655,376.923c-0.842,0-1.696-0.214-2.479-0.662L232.785,207.117c-2.396-1.372-3.227-4.427-1.854-6.823
				c1.372-2.396,4.428-3.227,6.823-1.854l295.391,169.144c2.396,1.372,3.227,4.427,1.854,6.823
				C534.075,376.02,532.39,376.923,530.655,376.923z"/>
			<path class="st1" d="M203.936,293.99c-1.939,0-3.74-1.132-4.558-2.949c-9.369-20.831-11.335-43.352-5.842-66.938
				c4.28-18.348,13.869-35.259,30.178-53.224c0.161-0.177,0.333-0.342,0.518-0.494c23.241-19.202,46.933-28.536,72.43-28.536
				c38.129,0,74.566,21.333,109.803,41.963c5.58,3.264,11.103,6.661,16.443,9.946c27.448,16.885,53.375,32.833,86.105,32.833h0.185
				c3.513-0.01,7.09-0.474,10.876-0.964c1.757-0.228,3.574-0.463,5.395-0.651c0.173-0.018,0.346-0.026,0.517-0.026
				c2.118,0,4.033,1.345,4.729,3.386c0.752,2.206-0.119,4.638-2.1,5.865c-1.739,1.077-3.431,2.21-5.223,3.411
				c-3.857,2.585-7.846,5.258-12.285,7.283c-17.031,7.761-34.096,11.533-52.172,11.533c-23.997,0-49.049-6.663-78.84-20.968
				c-27.844-13.378-52.384-19.881-75.025-19.881c-27.212,0-51.573,9.325-74.471,28.506c-13.356,12.364-20.445,27.165-21.672,45.244
				c-0.155,2.289-1.848,4.178-4.105,4.583C204.524,293.964,204.229,293.99,203.936,293.99z"/>
			<path class="st1" d="M314.566,633.92c-30.17-0.003-58.231-11.047-85.786-33.761c-0.186-0.153-0.36-0.319-0.522-0.498
				c-19.354-21.319-30.741-41.366-35.835-63.088c-6.541-27.935-4.24-54.615,6.839-79.302c0.816-1.82,2.619-2.953,4.56-2.953
				c0.292,0,0.585,0.025,0.88,0.078c2.258,0.402,3.953,2.291,4.11,4.579c1.501,21.851,10.084,39.738,26.238,54.679
				c27.519,22.994,56.787,34.174,89.468,34.174c27.215-0.001,56.688-7.818,90.101-23.899c35.449-17.081,65.253-25.037,93.793-25.037
				c21.394,0,41.603,4.461,61.78,13.639c5.2,2.368,9.916,5.513,14.477,8.554c2.071,1.382,4.213,2.81,6.324,4.109
				c1.985,1.222,2.862,3.654,2.114,5.862c-0.693,2.046-2.61,3.396-4.732,3.396c-0.169,0-0.34-0.009-0.511-0.025
				c-2.179-0.223-4.357-0.503-6.464-0.774c-4.54-0.585-8.829-1.137-13.085-1.15c-39.49,0-70.611,19.193-103.559,39.513
				c-6.336,3.907-12.888,7.948-19.409,11.775l-0.129,0.075c-41.958,24.608-85.35,50.056-130.641,50.056
				C314.572,633.92,314.572,633.92,314.566,633.92z"/>
			<path class="st1" d="M770.424,507.568c-36.474,0-71.3-20.391-104.979-40.109c-5.33-3.117-10.604-6.362-15.704-9.499
				c-26.188-16.11-50.923-31.327-82.104-31.327h-0.172c-3.351,0.009-6.762,0.452-10.374,0.92c-1.676,0.218-3.408,0.442-5.145,0.622
				c-0.173,0.018-0.346,0.026-0.517,0.026c-2.117,0-4.031-1.344-4.729-3.383c-0.753-2.203,0.115-4.636,2.093-5.864
				c1.632-1.014,3.226-2.081,4.912-3.212c3.714-2.488,7.555-5.062,11.829-7.015c16.299-7.425,32.626-11.034,49.921-11.034
				c22.951,0,46.907,6.37,75.392,20.045c26.562,12.762,49.966,18.965,71.553,18.965c25.931,0,49.146-8.887,70.97-27.166
				c12.706-11.769,19.451-25.854,20.623-43.06c0.155-2.288,1.849-4.177,4.106-4.582c0.296-0.053,0.592-0.079,0.884-0.079
				c1.939,0,3.74,1.132,4.559,2.95c8.967,19.94,10.848,41.495,5.591,64.067c-4.1,17.567-13.273,33.751-28.874,50.935
				c-0.161,0.176-0.333,0.341-0.518,0.493C817.502,498.636,794.828,507.568,770.424,507.568z"/>
		</g>
	</g>
	<g>
		<g>
			<g>
				<g>
					<path class="st16" d="M858.98,366.817c-1.257,18.462-8.724,33.931-22.306,46.473c0.07-24.442,0.128-48.892,0.201-73.33
						C846.658,346.918,853.755,356.106,858.98,366.817z"/>
				</g>
			</g>
			<path class="st16" d="M203.938,288.989c1.312-19.332,9.131-35.528,23.355-48.659c-0.076,25.59-0.133,51.195-0.21,76.787
				C216.842,309.823,209.409,300.206,203.938,288.989z"/>
			<path class="st16" d="M203.824,459.318c1.587,23.102,10.937,42.419,27.924,58.093c-0.108-30.546-0.209-61.133-0.345-91.669
				C219.204,434.457,210.316,445.924,203.824,459.318z"/>
			<g id="Cube_13_">
				<path class="st7" d="M818.547,323.4c-0.11-0.543-0.221-1.087-0.32-1.631c0.486-0.01,0.971-0.01,1.468-0.01
					C819.301,322.305,818.923,322.857,818.547,323.4z"/>
				<linearGradient id="SVGID_4_" gradientUnits="userSpaceOnUse" x1="377.6978" y1="202.7173" x2="377.6977" y2="718.939">
					<stop  offset="0" style="stop-color:#00223D"/>
					<stop  offset="0.1241" style="stop-color:#002542"/>
					<stop  offset="0.5866" style="stop-color:#002D4F"/>
					<stop  offset="1" style="stop-color:#003054"/>
					<stop  offset="1" style="stop-color:#00355E"/>
					<stop  offset="1" style="stop-color:#004174"/>
					<stop  offset="1" style="stop-color:#004B85"/>
					<stop  offset="1" style="stop-color:#005190"/>
					<stop  offset="1" style="stop-color:#005597"/>
					<stop  offset="1" style="stop-color:#005699"/>
				</linearGradient>
				<path class="st12" d="M529.545,718.827c-11.662,0.781-22.366-2.614-32.304-8.359c-78.814-45.531-157.59-91.128-236.325-136.809
					c-24.121-14.004-36.316-35.382-36.343-63.595c-0.098-89.97-0.03-179.93-0.045-269.891c-0.003-13.446,2.947-26.042,10.152-37.457
					c1.049,0.513,2.123,0.971,3.139,1.545c75.671,43.104,151.352,86.186,226.992,129.34c21.648,12.342,43.183,24.89,64.762,37.349
					c0.367,0.487,0.732,0.987,1.088,1.474c0.076,1.906,0.213,3.818,0.213,5.725c0.006,111.099,0.006,222.201,0,333.314
					c0,1.901-0.137,3.804-0.201,5.723C530.293,717.716,529.922,718.273,529.545,718.827z"/>
				<linearGradient id="SVGID_5_" gradientUnits="userSpaceOnUse" x1="603.2295" y1="329.3979" x2="758.5654" y2="598.4477">
					<stop  offset="0" style="stop-color:#003366"/>
					<stop  offset="0.4667" style="stop-color:#003468"/>
					<stop  offset="0.6674" style="stop-color:#00396F"/>
					<stop  offset="0.8171" style="stop-color:#00427C"/>
					<stop  offset="0.9406" style="stop-color:#004E8D"/>
					<stop  offset="1" style="stop-color:#005699"/>
				</linearGradient>
				<path class="st13" d="M530.672,717.188c0.064-1.919,0.201-3.821,0.201-5.723c0.006-111.113,0.006-222.216,0-333.314
					c0-1.906-0.137-3.818-0.213-5.725c0.219-0.407,0.314-0.842,0.292-1.299c98.685-56.195,197.366-112.382,296.038-168.578
					c7.374,11.357,10.247,24.106,10.271,37.437c0.121,90.207,0.225,180.415-0.037,270.618c-0.082,27.823-12.446,49.14-36.289,62.977
					c-78.302,45.464-156.683,90.788-235.062,136.118c-10.785,6.236-22.242,10.145-34.897,9.129
					C530.873,718.273,530.764,717.716,530.672,717.188z"/>
				<linearGradient id="SVGID_6_" gradientUnits="userSpaceOnUse" x1="530.835" y1="31.2397" x2="530.835" y2="371.127">
					<stop  offset="0" style="stop-color:#003366"/>
					<stop  offset="0.3992" style="stop-color:#004580"/>
					<stop  offset="0.644" style="stop-color:#004D8C"/>
					<stop  offset="1" style="stop-color:#005699"/>
				</linearGradient>
				<path class="st14" d="M826.99,202.549c-98.672,56.196-197.354,112.383-296.038,168.578l-0.675-0.188l-0.705,0.013
					c-21.579-12.459-43.113-25.007-64.762-37.349c-75.641-43.154-151.321-86.237-226.992-129.34
					c-1.016-0.574-2.089-1.032-3.139-1.545c6.013-11.256,15.07-19.361,25.853-25.609c77.831-45.078,155.702-90.083,233.504-135.212
					c24.869-14.426,49.514-14.071,74.215,0.246c76.354,44.243,152.71,88.503,229.104,132.679
					C809.38,181.773,820.137,189.96,826.99,202.549z"/>
			</g>
			<line class="st6" x1="530.66" y1="371.922" x2="530.66" y2="718.603"/>
			<line class="st6" x1="530.08" y1="371.922" x2="826.411" y2="202.046"/>
			<line class="st6" x1="530.66" y1="371.922" x2="235.269" y2="202.778"/>
			<path class="st15" d="M227.416,174.239c63.402-52.383,119.738-19.358,176.603,13.935c32.947,19.271,64.16,43.493,105.188,43.417
				c5.586-0.017,11.175-1.064,16.775-1.642c-5.647,3.497-10.954,7.661-16.95,10.396c-43.918,20.013-85.319,10.512-126.772-9.394
				c-52.917-25.424-105.644-32.002-154.966,9.379c-14.225,13.13-22.043,29.327-23.355,48.659
				c-9.27-20.609-10.64-41.823-5.533-63.752C203.056,205.3,213.952,189.07,227.416,174.239z"/>
			<path class="st15" d="M231.96,596.301c75.764,62.455,142.989,22.979,210.856-16.824c39.316-23.073,76.578-52.01,125.514-51.976
				c6.677,0.021,13.346,1.267,20.041,1.95c-6.76-4.161-13.104-9.116-20.25-12.369c-52.458-23.86-101.862-12.486-151.335,11.353
				c-63.149,30.392-126.088,38.301-185.039-11.023c-16.988-15.674-26.337-34.991-27.924-58.093
				c-11.046,24.613-12.658,49.952-6.532,76.113C202.873,559.229,215.894,578.603,231.96,596.301z"/>
			<path class="st15" d="M836.556,476.407c-60.55,50.029-114.348,18.492-168.663-13.309
				c-31.457-18.401-61.273-41.537-100.438-41.466c-5.345,0.015-10.684,1.017-16.023,1.568c5.377-3.34,10.461-7.312,16.181-9.926
				c41.943-19.109,81.478-10.038,121.07,8.971c50.535,24.279,100.889,30.562,147.992-8.956
				c13.582-12.542,21.049-28.011,22.306-46.473c8.853,19.686,10.158,39.942,5.281,60.883
				C859.819,446.74,849.418,462.24,836.556,476.407z"/>
		</g>
	</g>
</g>
<g>
</g>
<g>
</g>
<g>
</g>
<g>
</g>
<g>
</g>
<g>
</g>
<g>
</g>
<g>
</g>
<g>
</g>
<g>
</g>
<g>
</g>
<g>
</g>
<g>
</g>
<g>
</g>
<g>
</g>
</svg>
