<svg xmlns="http://www.w3.org/2000/svg" version="1.1" id="Layer_1" x="0" y="0" width="683.24872" height="697.75" xml:space="preserve"><style type="text/css" id="style7789">.st1{fill:#9cf}.st2{display:inline}.st3{fill:none;stroke:#fff;stroke-width:4;stroke-miterlimit:10}.st4,.st5{fill-rule:evenodd;clip-rule:evenodd}.st4{stroke:#fff;stroke-width:4;stroke-miterlimit:10;fill:none}.st5{fill:#fff}.st6{fill:none;stroke:#369;stroke-width:.5;stroke-miterlimit:10}.st7{fill-rule:evenodd;clip-rule:evenodd;fill:#683dfe}.st8{display:none}.st15,.st16{fill-rule:evenodd;clip-rule:evenodd;fill:#0091fc}.st16{fill:#0256d1}</style><g id="Dark" transform="translate(-188.79065 -26.237)"><g id="g7971"><g id="g7969"><g id="g7942"><g id="g7940"><path class="st1" d="M836.674 418.29c-.68 0-1.364-.139-2.011-.423-1.82-.8-2.994-2.603-2.988-4.592 0 0 .161-59.837.201-73.33.006-1.868 1.053-3.578 2.714-4.432.721-.371 1.505-.553 2.286-.553 1.021 0 2.035.312 2.898.925 9.974 7.094 17.726 16.495 23.7 28.739.383.786.554 1.659.494 2.532-1.337 19.638-9.379 36.395-23.901 49.807-.942.87-2.16 1.327-3.393 1.327z" id="path7938" fill="#9cf"/></g></g><path class="st1" d="M227.083 322.118c-1.021 0-2.038-.312-2.901-.928-10.415-7.418-18.507-17.234-24.738-30.009-.383-.786-.554-1.658-.495-2.53 1.391-20.501 9.787-37.995 24.952-51.994.942-.87 2.159-1.326 3.393-1.326.68 0 1.364.138 2.011.423 1.82.8 2.994 2.604 2.988 4.592-.037 12.479-.07 24.96-.103 37.443-.034 13.116-.068 26.232-.108 39.345-.006 1.869-1.053 3.579-2.716 4.433-.719.368-1.502.551-2.283.551z" id="path7944" fill="#9cf"/><path class="st1" d="M231.749 522.411c-1.233 0-2.449-.456-3.392-1.325-17.926-16.539-27.858-37.205-29.522-61.425-.06-.869.109-1.739.489-2.523 7.296-15.053 16.839-26.653 29.172-35.464.864-.617 1.883-.932 2.907-.932.778 0 1.559.182 2.277.549 1.664.852 2.714 2.56 2.722 4.429.114 25.494.203 51.023.292 76.534l.053 15.14c.007 1.989-1.166 3.793-2.986 4.594-.646.284-1.332.423-2.012.423z" id="path7946" fill="#9cf"/><g id="Cube_16_"><path class="st1" d="M818.548 328.4c-.334 0-.671-.033-1.007-.102-1.963-.403-3.496-1.94-3.895-3.904-.116-.574-.232-1.149-.338-1.724-.265-1.442.118-2.927 1.045-4.063.928-1.136 2.307-1.807 3.772-1.836.52-.01 1.037-.011 1.568-.011 1.878 0 3.597 1.052 4.452 2.724.854 1.672.7 3.682-.398 5.204-.308.426-.604.856-.899 1.283l-.189.275c-.945 1.365-2.492 2.154-4.111 2.154z" id="path7948" fill="#9cf"/><path class="st1" d="M526.229 723.938c-10.55 0-20.85-2.99-31.491-9.142-81.025-46.809-160.539-92.84-236.332-136.812-25.74-14.944-38.805-37.794-38.834-67.915-.065-59.803-.057-120.601-.048-179.397.004-30.166.008-60.332.003-90.498-.003-15.351 3.57-28.476 10.924-40.126.944-1.495 2.563-2.332 4.231-2.332.74 0 1.489.165 2.194.509.308.151.618.296.929.441.756.355 1.614.757 2.473 1.243l49.032 27.927c58.341 33.228 118.668 67.586 177.978 101.424 15.262 8.701 30.714 17.647 45.658 26.299 6.374 3.69 12.748 7.38 19.126 11.063.581.335 1.089.785 1.493 1.321.374.496.745 1.004 1.107 1.5.586.801.943 1.792.983 2.784.022.568.051 1.137.079 1.706.067 1.362.138 2.771.138 4.218.006 111.099.006 222.201 0 333.314 0 1.356-.062 2.678-.122 3.956-.03.644-.061 1.288-.082 1.935-.033.987-.358 1.943-.935 2.746-.263.367-.522.751-.783 1.137l-.273.403c-.864 1.27-2.266 2.071-3.799 2.175-1.21.08-2.439.121-3.649.121z" id="path7950" fill="#9cf"/><path class="st1" d="M534.963 723.987c-1.456 0-2.932-.06-4.389-.176-2.256-.182-4.109-1.855-4.518-4.082l-.11-.591c-.069-.371-.139-.739-.2-1.096-.06-.338-.083-.681-.071-1.023.023-.69.056-1.379.087-2.066.058-1.217.111-2.366.111-3.488.006-111.113.006-222.216 0-333.314 0-1.199-.061-2.425-.125-3.723-.03-.602-.06-1.202-.084-1.803-.026-.661.079-1.318.307-1.936.143-1.62 1.068-3.088 2.507-3.907l93.582-53.289c67.488-38.429 134.975-76.857 202.456-115.29.779-.444 1.63-.656 2.471-.656 1.642 0 3.244.809 4.197 2.278 7.323 11.279 11.05 24.788 11.077 40.15.13 96.45.216 183.387-.037 270.642-.087 29.347-13.496 52.613-38.779 67.286-75.694 43.95-152.73 88.503-227.23 131.589l-7.839 4.533c-11.592 6.704-22.522 9.962-33.413 9.962z" id="path7952" fill="#9cf"/><path class="st1" d="M530.952 376.127c-.439 0-.881-.059-1.312-.176-.022.001-.045.001-.067.001-.877 0-1.739-.231-2.5-.67-6.383-3.686-12.762-7.378-19.141-11.072-14.929-8.643-30.365-17.58-45.598-26.264-59.288-33.825-119.592-68.17-177.911-101.386l-49.079-27.954c-.515-.291-1.131-.58-1.785-.887-.359-.168-.719-.337-1.075-.512-1.219-.596-2.144-1.662-2.562-2.954-.417-1.292-.292-2.697.348-3.894 5.985-11.204 15.064-20.225 27.756-27.579 28.727-16.638 57.458-33.266 86.19-49.893 48.292-27.947 98.227-56.846 147.312-85.318 12.962-7.519 26.181-11.332 39.292-11.332 13.248 0 26.687 3.895 39.939 11.577l29.941 17.35c65.266 37.819 132.752 76.926 199.159 115.326 10.445 6.04 23.467 14.869 31.522 29.666 1.303 2.393.45 5.387-1.917 6.735-67.498 38.442-135 76.879-202.505 115.318l-93.534 53.26c-.759.436-1.613.658-2.473.658z" id="path7954" fill="#9cf"/></g><path class="st1" d="M530.66 723.603c-2.762 0-5-2.238-5-5V371.922c0-2.761 2.238-5 5-5s5 2.239 5 5v346.681c0 2.761-2.238 5-5 5z" id="path7957" fill="#9cf"/><path class="st1" d="M530.085 376.923c-1.733 0-3.419-.903-4.343-2.515-1.373-2.396-.545-5.451 1.852-6.824l296.331-169.876c2.395-1.373 5.451-.543 6.824 1.851 1.373 2.396.545 5.451-1.852 6.825L532.566 376.26c-.783.449-1.638.663-2.481.663z" id="path7959" fill="#9cf"/><path class="st1" d="M530.655 376.923c-.842 0-1.696-.214-2.479-.662L232.785 207.117c-2.396-1.372-3.227-4.427-1.854-6.823 1.372-2.396 4.428-3.227 6.823-1.854l295.391 169.144c2.396 1.372 3.227 4.427 1.854 6.823-.924 1.613-2.609 2.516-4.344 2.516z" id="path7961" fill="#9cf"/><path class="st1" d="M203.936 293.99c-1.939 0-3.74-1.132-4.558-2.949-9.369-20.831-11.335-43.352-5.842-66.938 4.28-18.348 13.869-35.259 30.178-53.224.161-.177.333-.342.518-.494 23.241-19.202 46.933-28.536 72.43-28.536 38.129 0 74.566 21.333 109.803 41.963 5.58 3.264 11.103 6.661 16.443 9.946 27.448 16.885 53.375 32.833 86.105 32.833h.185c3.513-.01 7.09-.474 10.876-.964 1.757-.228 3.574-.463 5.395-.651.173-.018.346-.026.517-.026 2.118 0 4.033 1.345 4.729 3.386.752 2.206-.119 4.638-2.1 5.865-1.739 1.077-3.431 2.21-5.223 3.411-3.857 2.585-7.846 5.258-12.285 7.283-17.031 7.761-34.096 11.533-52.172 11.533-23.997 0-49.049-6.663-78.84-20.968-27.844-13.378-52.384-19.881-75.025-19.881-27.212 0-51.573 9.325-74.471 28.506-13.356 12.364-20.445 27.165-21.672 45.244-.155 2.289-1.848 4.178-4.105 4.583-.298.052-.593.078-.886.078z" id="path7963" fill="#9cf"/><path class="st1" d="M314.566 633.92c-30.17-.003-58.231-11.047-85.786-33.761-.186-.153-.36-.319-.522-.498-19.354-21.319-30.741-41.366-35.835-63.088-6.541-27.935-4.24-54.615 6.839-79.302.816-1.82 2.619-2.953 4.56-2.953.292 0 .585.025.88.078 2.258.402 3.953 2.291 4.11 4.579 1.501 21.851 10.084 39.738 26.238 54.679 27.519 22.994 56.787 34.174 89.468 34.174 27.215-.001 56.688-7.818 90.101-23.899 35.449-17.081 65.253-25.037 93.793-25.037 21.394 0 41.603 4.461 61.78 13.639 5.2 2.368 9.916 5.513 14.477 8.554 2.071 1.382 4.213 2.81 6.324 4.109 1.985 1.222 2.862 3.654 2.114 5.862-.693 2.046-2.61 3.396-4.732 3.396-.169 0-.34-.009-.511-.025-2.179-.223-4.357-.503-6.464-.774-4.54-.585-8.829-1.137-13.085-1.15-39.49 0-70.611 19.193-103.559 39.513-6.336 3.907-12.888 7.948-19.409 11.775l-.129.075c-41.958 24.608-85.35 50.056-130.641 50.056-.005-.002-.005-.002-.011-.002z" id="path7965" fill="#9cf"/><path class="st1" d="M770.424 507.568c-36.474 0-71.3-20.391-104.979-40.109-5.33-3.117-10.604-6.362-15.704-9.499-26.188-16.11-50.923-31.327-82.104-31.327h-.172c-3.351.009-6.762.452-10.374.92-1.676.218-3.408.442-5.145.622-.173.018-.346.026-.517.026-2.117 0-4.031-1.344-4.729-3.383-.753-2.203.115-4.636 2.093-5.864 1.632-1.014 3.226-2.081 4.912-3.212 3.714-2.488 7.555-5.062 11.829-7.015 16.299-7.425 32.626-11.034 49.921-11.034 22.951 0 46.907 6.37 75.392 20.045 26.562 12.762 49.966 18.965 71.553 18.965 25.931 0 49.146-8.887 70.97-27.166 12.706-11.769 19.451-25.854 20.623-43.06.155-2.288 1.849-4.177 4.106-4.582.296-.053.592-.079.884-.079 1.939 0 3.74 1.132 4.559 2.95 8.967 19.94 10.848 41.495 5.591 64.067-4.1 17.567-13.273 33.751-28.874 50.935-.161.176-.333.341-.518.493-22.239 18.375-44.913 27.307-69.317 27.307z" id="path7967" fill="#9cf"/></g></g><g id="g8049"><g id="g8047"><g id="g7977"><g id="g7975"><path class="st16" d="M858.98 366.817c-1.257 18.462-8.724 33.931-22.306 46.473.07-24.442.128-48.892.201-73.33 9.783 6.958 16.88 16.146 22.105 26.857z" id="path7973" clip-rule="evenodd" fill="#0256d1" fill-rule="evenodd"/></g></g><path class="st16" d="M203.938 288.989c1.312-19.332 9.131-35.528 23.355-48.659-.076 25.59-.133 51.195-.21 76.787-10.241-7.294-17.674-16.911-23.145-28.128z" id="path7979" clip-rule="evenodd" fill="#0256d1" fill-rule="evenodd"/><path class="st16" d="M203.824 459.318c1.587 23.102 10.937 42.419 27.924 58.093-.108-30.546-.209-61.133-.345-91.669-12.199 8.715-21.087 20.182-27.579 33.576z" id="path7981" clip-rule="evenodd" fill="#0256d1" fill-rule="evenodd"/><g id="Cube_13_"><path class="st7" d="M818.547 323.4c-.11-.543-.221-1.087-.32-1.631.486-.01.971-.01 1.468-.01-.394.546-.772 1.098-1.148 1.641z" id="path7983" clip-rule="evenodd" fill="#683dfe" fill-rule="evenodd"/><linearGradient id="SVGID_4_" gradientUnits="userSpaceOnUse" x1="377.69781" y1="202.7173" x2="377.69769" y2="718.93903"><stop offset="0" id="stop7985" stop-color="#00223d"/><stop offset=".1241" id="stop7987" stop-color="#002542"/><stop offset=".5866" id="stop7989" stop-color="#002d4f"/><stop offset="1" id="stop7991" stop-color="#003054"/><stop offset="1" id="stop7993" stop-color="#00355e"/><stop offset="1" id="stop7995" stop-color="#004174"/><stop offset="1" id="stop7997" stop-color="#004b85"/><stop offset="1" id="stop7999" stop-color="#005190"/><stop offset="1" id="stop8001" stop-color="#005597"/><stop offset="1" id="stop8003" stop-color="#005699"/></linearGradient><path d="M529.545 718.827c-11.662.781-22.366-2.614-32.304-8.359-78.814-45.531-157.59-91.128-236.325-136.809-24.121-14.004-36.316-35.382-36.343-63.595-.098-89.97-.03-179.93-.045-269.891-.003-13.446 2.947-26.042 10.152-37.457 1.049.513 2.123.971 3.139 1.545 75.671 43.104 151.352 86.186 226.992 129.34 21.648 12.342 43.183 24.89 64.762 37.349.367.487.732.987 1.088 1.474.076 1.906.213 3.818.213 5.725.006 111.099.006 222.201 0 333.314 0 1.901-.137 3.804-.201 5.723-.38.53-.751 1.087-1.128 1.641z" id="path8006" clip-rule="evenodd" fill="url(#SVGID_4_)" fill-rule="evenodd"/><linearGradient id="SVGID_5_" gradientUnits="userSpaceOnUse" x1="603.22949" y1="329.39789" x2="758.56543" y2="598.44769"><stop offset="0" id="stop8008" stop-color="#036"/><stop offset=".4667" id="stop8010" stop-color="#003468"/><stop offset=".6674" id="stop8012" stop-color="#00396f"/><stop offset=".8171" id="stop8014" stop-color="#00427c"/><stop offset=".9406" id="stop8016" stop-color="#004e8d"/><stop offset="1" id="stop8018" stop-color="#005699"/></linearGradient><path d="M530.672 717.188c.064-1.919.201-3.821.201-5.723.006-111.113.006-222.216 0-333.314 0-1.906-.137-3.818-.213-5.725.219-.407.314-.842.292-1.299 98.685-56.195 197.366-112.382 296.038-168.578 7.374 11.357 10.247 24.106 10.271 37.437.121 90.207.225 180.415-.037 270.618-.082 27.823-12.446 49.14-36.289 62.977-78.302 45.464-156.683 90.788-235.062 136.118-10.785 6.236-22.242 10.145-34.897 9.129-.103-.555-.212-1.112-.304-1.64z" id="path8021" clip-rule="evenodd" fill="url(#SVGID_5_)" fill-rule="evenodd"/><linearGradient id="SVGID_6_" gradientUnits="userSpaceOnUse" x1="530.83502" y1="31.2397" x2="530.83502" y2="371.12701"><stop offset="0" id="stop8023" stop-color="#036"/><stop offset=".3992" id="stop8025" stop-color="#004580"/><stop offset=".644" id="stop8027" stop-color="#004d8c"/><stop offset="1" id="stop8029" stop-color="#005699"/></linearGradient><path d="M826.99 202.549c-98.672 56.196-197.354 112.383-296.038 168.578l-.675-.188-.705.013c-21.579-12.459-43.113-25.007-64.762-37.349-75.641-43.154-151.321-86.237-226.992-129.34-1.016-.574-2.089-1.032-3.139-1.545 6.013-11.256 15.07-19.361 25.853-25.609 77.831-45.078 155.702-90.083 233.504-135.212 24.869-14.426 49.514-14.071 74.215.246 76.354 44.243 152.71 88.503 229.104 132.679 12.025 6.951 22.782 15.138 29.635 27.727z" id="path8032" clip-rule="evenodd" fill="url(#SVGID_6_)" fill-rule="evenodd"/></g><path class="st6" id="line8035" fill="none" stroke="#369" stroke-width=".5" stroke-miterlimit="10" d="M530.65997 371.922v346.68103"/><path class="st6" id="line8037" fill="none" stroke="#369" stroke-width=".5" stroke-miterlimit="10" d="M530.08002 371.922l296.33099-169.87599"/><path class="st6" id="line8039" fill="none" stroke="#369" stroke-width=".5" stroke-miterlimit="10" d="M530.65997 371.922L235.269 202.778"/><path class="st15" d="M227.416 174.239c63.402-52.383 119.738-19.358 176.603 13.935 32.947 19.271 64.16 43.493 105.188 43.417 5.586-.017 11.175-1.064 16.775-1.642-5.647 3.497-10.954 7.661-16.95 10.396-43.918 20.013-85.319 10.512-126.772-9.394-52.917-25.424-105.644-32.002-154.966 9.379-14.225 13.13-22.043 29.327-23.355 48.659-9.27-20.609-10.64-41.823-5.533-63.752 4.65-19.937 15.546-36.167 29.01-50.998z" id="path8041" clip-rule="evenodd" fill="#0091fc" fill-rule="evenodd"/><path class="st15" d="M231.96 596.301c75.764 62.455 142.989 22.979 210.856-16.824 39.316-23.073 76.578-52.01 125.514-51.976 6.677.021 13.346 1.267 20.041 1.95-6.76-4.161-13.104-9.116-20.25-12.369-52.458-23.86-101.862-12.486-151.335 11.353-63.149 30.392-126.088 38.301-185.039-11.023-16.988-15.674-26.337-34.991-27.924-58.093-11.046 24.613-12.658 49.952-6.532 76.113 5.582 23.797 18.603 43.171 34.669 60.869z" id="path8043" clip-rule="evenodd" fill="#0091fc" fill-rule="evenodd"/><path class="st15" d="M836.556 476.407c-60.55 50.029-114.348 18.492-168.663-13.309-31.457-18.401-61.273-41.537-100.438-41.466-5.345.015-10.684 1.017-16.023 1.568 5.377-3.34 10.461-7.312 16.181-9.926 41.943-19.109 81.478-10.038 121.07 8.971 50.535 24.279 100.889 30.562 147.992-8.956 13.582-12.542 21.049-28.011 22.306-46.473 8.853 19.686 10.158 39.942 5.281 60.883-4.443 19.041-14.844 34.541-27.706 48.708z" id="path8045" clip-rule="evenodd" fill="#0091fc" fill-rule="evenodd"/></g></g></g></svg>