<?xml version="1.0" encoding="utf-8"?>
<!-- Generator: Adobe Illustrator 16.2.1, SVG Export Plug-In . SVG Version: 6.00 Build 0)  -->
<!DOCTYPE svg PUBLIC "-//W3C//DTD SVG 1.1//EN" "http://www.w3.org/Graphics/SVG/1.1/DTD/svg11.dtd">
<svg version="1.1" id="Layer_1" xmlns="http://www.w3.org/2000/svg" xmlns:xlink="http://www.w3.org/1999/xlink" x="0px" y="0px"
	 width="1024px" height="319.791px" viewBox="0 0 1024 319.791" style="enable-background:new 0 0 1024 319.791;"
	 xml:space="preserve">
<style type="text/css">
<![CDATA[
	.st0{fill:#CC9966;stroke:#FFFFFF;stroke-width:4;stroke-miterlimit:10;}
	.st1{fill:#FFFFFF;}
	.st2{fill:none;stroke:#FFFFFF;stroke-width:4;stroke-miterlimit:10;}
	.st3{fill-rule:evenodd;clip-rule:evenodd;fill:none;stroke:#FFFFFF;stroke-width:4;stroke-miterlimit:10;}
	.st4{fill-rule:evenodd;clip-rule:evenodd;fill:#FFFFFF;}
]]>
</style>
<g>
	<path class="st1" d="M442.716,166.438h-16.033v67.464H409.4V88.146h17.282v64.966h15.616l46.851-64.966h19.989l-51.431,69.338
		l57.886,76.418H493.73L442.716,166.438z"/>
	<path class="st1" d="M530.376,233.902v-13.951h28.11v-76.209h-28.11v-13.951h38.938l3.332,13.535h1.041
		c4.718-4.301,9.994-7.981,15.825-11.036c5.83-3.052,12.77-4.581,20.822-4.581c4.717,0,8.501,0.904,11.348,2.707
		c2.844,1.806,5.065,4.444,6.663,7.912c1.595,3.472,2.671,7.672,3.228,12.598c0.554,4.929,0.833,10.515,0.833,16.762l-14.575,0.208
		c0-8.811-0.869-15.282-2.604-19.414c-1.737-4.132-4.893-6.198-9.474-6.198c-4.305,0-8.192,0.625-11.661,1.871
		c-3.471,1.246-6.49,2.769-9.058,4.568c-2.57,1.799-4.756,3.599-6.559,5.397c-1.806,1.803-3.123,3.325-3.956,4.568v61.263h39.979
		v13.951H530.376z"/>
	<path class="st1" d="M751.716,220.784c-2.499,2.222-5.45,4.305-8.85,6.247c-3.403,1.946-7.115,3.612-11.141,4.998
		c-4.027,1.389-8.225,2.463-12.597,3.228c-4.373,0.761-8.781,1.145-13.223,1.145c-8.329,0-15.688-1.285-22.071-3.852
		c-6.387-2.567-11.732-6.247-16.033-11.036c-4.305-4.789-7.568-10.516-9.787-17.179c-2.222-6.663-3.331-14.159-3.331-22.488
		c0-8.746,1.213-16.518,3.644-23.321c2.427-6.8,5.935-12.493,10.516-17.074s10.131-8.085,16.657-10.515
		c6.523-2.427,13.812-3.644,21.864-3.644c5.83,0,11.589,0.765,17.282,2.291c5.69,1.529,10.724,4.408,15.096,8.641
		c4.373,4.236,7.737,10.066,10.1,17.491c2.358,7.428,3.191,17.042,2.498,28.839h-80.374c0,12.494,3.357,21.831,10.073,28.006
		c6.715,6.178,15.678,9.266,26.893,9.266c3.738,0,7.441-0.449,11.111-1.353c3.67-0.901,7.164-1.979,10.489-3.228
		c3.321-1.25,6.263-2.635,8.826-4.165c2.561-1.526,4.532-2.915,5.918-4.165L751.716,220.784z M707.875,141.035
		c-4.568,0-8.893,0.488-12.972,1.458c-4.084,0.973-7.682,2.603-10.796,4.894c-3.113,2.29-5.674,5.277-7.678,8.953
		c-2.008,3.68-3.286,8.225-3.839,13.639h64.549c-0.693-9.162-3.634-16.274-8.823-21.343
		C723.127,143.569,716.314,141.035,707.875,141.035z"/>
	<path class="st1" d="M837.086,152.695l20.822,57.886h1.457l14.784-80.791h15.2l-20.405,104.112h-18.532l-19.989-57.47h-0.625
		l-20.822,57.47h-18.532L768.58,129.791h16.033l16.866,81.207h1.249l20.198-58.302H837.086z"/>
</g>
<g id="White">
	<g id="Color_2_">
		<g>
			<g>
				<g>
					<path class="st4" d="M366.623,152.42c-0.465,6.821-3.222,12.535-8.241,17.169c0.026-9.028,0.047-18.062,0.075-27.09
						C362.069,145.07,364.693,148.464,366.623,152.42z"/>
				</g>
			</g>
			<path class="st4" d="M123.98,123.8c0.485-7.142,3.375-13.125,8.627-17.976c-0.028,9.453-0.048,18.913-0.076,28.367
				C128.748,131.497,126.002,127.944,123.98,123.8z"/>
			<path class="st4" d="M122.945,186.593c0.588,8.534,4.043,15.671,10.317,21.461c-0.039-11.284-0.078-22.583-0.126-33.864
				C128.629,177.408,125.344,181.645,122.945,186.593z"/>
			<g id="Cube_5_">
				<path class="st3" d="M245.321,282.223c-4.306,0.307-8.267-0.931-11.947-3.037c-29.184-16.698-58.358-33.42-87.515-50.171
					c-8.933-5.136-13.471-13.014-13.525-23.437c-0.177-33.234-0.291-66.47-0.437-99.703c-0.021-4.968,1.05-9.625,3.692-13.854
					c0.388,0.188,0.785,0.357,1.162,0.567c28.021,15.806,56.047,31.603,84.058,47.428c8.014,4.526,15.988,9.127,23.982,13.697
					c0.136,0.179,0.273,0.363,0.404,0.542c0.029,0.704,0.084,1.41,0.087,2.115c0.175,41.042,0.347,82.085,0.519,123.13
					c0.002,0.703-0.045,1.406-0.066,2.114C245.596,281.811,245.46,282.02,245.321,282.223z"/>
				<path class="st3" d="M245.337,281.854c0.024-0.708,0.074-1.413,0.074-2.116c0.001-41.043,0.001-82.087,0-123.13
					c0-0.706-0.05-1.411-0.077-2.116c0.079-0.15,0.114-0.311,0.105-0.479c36.458-20.76,72.913-41.518,109.365-62.277
					c2.724,4.194,3.783,8.906,3.792,13.83c0.047,33.324,0.085,66.649-0.013,99.972c-0.029,10.276-4.599,18.154-13.405,23.263
					c-28.926,16.799-57.883,33.542-86.839,50.286c-3.983,2.304-8.215,3.748-12.892,3.372
					C245.412,282.256,245.371,282.05,245.337,281.854z"/>
				<path class="st3" d="M354.805,91.737c-36.453,20.759-72.908,41.517-109.365,62.277l-0.248-0.071l-0.261,0.005
					c-7.974-4.603-15.927-9.237-23.924-13.796c-27.945-15.943-55.903-31.859-83.858-47.782c-0.374-0.211-0.771-0.381-1.158-0.57
					c2.22-4.159,5.566-7.152,9.549-9.461c28.754-16.653,57.522-33.279,86.264-49.95c9.185-5.329,18.291-5.198,27.417,0.091
					c28.207,16.344,56.412,32.695,84.636,49.015C348.299,84.062,352.272,87.084,354.805,91.737z"/>
			</g>
			<line class="st0" x1="245.334" y1="154.307" x2="245.334" y2="282.376"/>
			<line class="st2" x1="245.12" y1="154.307" x2="354.591" y2="91.551"/>
			<line class="st2" x1="245.334" y1="154.307" x2="136.208" y2="91.821"/>
			<path class="st4" d="M132.654,81.408c23.422-19.352,44.233-7.15,65.241,5.149c12.172,7.119,23.702,16.066,38.857,16.039
				c2.064-0.006,4.129-0.394,6.199-0.607c-2.086,1.292-4.049,2.83-6.262,3.84c-16.226,7.394-31.519,3.885-46.834-3.47
				c-19.547-9.393-39.027-11.821-57.248,3.465c-5.252,4.851-8.142,10.834-8.627,17.976c-3.424-7.614-3.929-15.451-2.043-23.552
				C123.655,92.884,127.679,86.887,132.654,81.408z"/>
			<path class="st4" d="M133.417,237.198c27.991,23.07,52.823,8.487,77.895-6.218c14.525-8.52,28.292-19.212,46.369-19.199
				c2.467,0.008,4.932,0.467,7.405,0.718c-2.499-1.536-4.843-3.366-7.48-4.567c-19.379-8.815-37.631-4.613-55.908,4.191
				c-23.33,11.228-46.581,14.149-68.358-4.07c-6.274-5.79-9.729-12.927-10.316-21.461c-4.08,9.093-4.675,18.453-2.413,28.119
				C122.671,223.5,127.484,230.658,133.417,237.198z"/>
			<path class="st4" d="M358.339,192.907c-22.368,18.48-42.243,6.831-62.31-4.918c-11.621-6.798-22.634-15.343-37.104-15.316
				c-1.974,0.005-3.946,0.377-5.919,0.578c1.988-1.231,3.864-2.701,5.979-3.666c15.494-7.061,30.097-3.71,44.725,3.313
				c18.67,8.969,37.271,11.291,54.672-3.308c5.019-4.634,7.775-10.348,8.241-17.169c3.267,7.273,3.753,14.756,1.95,22.493
				C366.934,181.946,363.089,187.671,358.339,192.907z"/>
		</g>
	</g>
</g>
<g>
</g>
<g>
</g>
<g>
</g>
<g>
</g>
<g>
</g>
<g>
</g>
<g>
</g>
<g>
</g>
<g>
</g>
<g>
</g>
<g>
</g>
<g>
</g>
<g>
</g>
<g>
</g>
<g>
</g>
</svg>
