<svg xmlns="http://www.w3.org/2000/svg" version="1.1" id="Layer_1" x="0" y="0" width="770.04456" height="258.01218" viewBox="0 0 770.04456 258.01219" xml:space="preserve"><style type="text/css" id="style10128">.st1{fill:#fff}.st2{fill:none;stroke:#fff;stroke-width:4;stroke-miterlimit:10}.st3,.st4{fill-rule:evenodd;clip-rule:evenodd}.st3{stroke:#fff;stroke-width:4;stroke-miterlimit:10;fill:none}.st4{fill:#fff}</style><g id="g10138" transform="translate(-119.30443 -26.505642)"><path class="st1" d="M442.716 166.438h-16.033v67.464H409.4V88.146h17.282v64.966h15.616l46.851-64.966h19.989l-51.431 69.338 57.886 76.418H493.73z" id="path10130" fill="#fff"/><path class="st1" d="M530.376 233.902v-13.951h28.11v-76.209h-28.11v-13.951h38.938l3.332 13.535h1.041c4.718-4.301 9.994-7.981 15.825-11.036 5.83-3.052 12.77-4.581 20.822-4.581 4.717 0 8.501.904 11.348 2.707 2.844 1.806 5.065 4.444 6.663 7.912 1.595 3.472 2.671 7.672 3.228 12.598.554 4.929.833 10.515.833 16.762l-14.575.208c0-8.811-.869-15.282-2.604-19.414-1.737-4.132-4.893-6.198-9.474-6.198-4.305 0-8.192.625-11.661 1.871-3.471 1.246-6.49 2.769-9.058 4.568-2.57 1.799-4.756 3.599-6.559 5.397-1.806 1.803-3.123 3.325-3.956 4.568v61.263h39.979v13.951z" id="path10132" fill="#fff"/><path class="st1" d="M751.716 220.784c-2.499 2.222-5.45 4.305-8.85 6.247-3.403 1.946-7.115 3.612-11.141 4.998-4.027 1.389-8.225 2.463-12.597 3.228-4.373.761-8.781 1.145-13.223 1.145-8.329 0-15.688-1.285-22.071-3.852-6.387-2.567-11.732-6.247-16.033-11.036-4.305-4.789-7.568-10.516-9.787-17.179-2.222-6.663-3.331-14.159-3.331-22.488 0-8.746 1.213-16.518 3.644-23.321 2.427-6.8 5.935-12.493 10.516-17.074 4.581-4.581 10.131-8.085 16.657-10.515 6.523-2.427 13.812-3.644 21.864-3.644 5.83 0 11.589.765 17.282 2.291 5.69 1.529 10.724 4.408 15.096 8.641 4.373 4.236 7.737 10.066 10.1 17.491 2.358 7.428 3.191 17.042 2.498 28.839h-80.374c0 12.494 3.357 21.831 10.073 28.006 6.715 6.178 15.678 9.266 26.893 9.266 3.738 0 7.441-.449 11.111-1.353 3.67-.901 7.164-1.979 10.489-3.228 3.321-1.25 6.263-2.635 8.826-4.165 2.561-1.526 4.532-2.915 5.918-4.165zm-43.841-79.749c-4.568 0-8.893.488-12.972 1.458-4.084.973-7.682 2.603-10.796 4.894-3.113 2.29-5.674 5.277-7.678 8.953-2.008 3.68-3.286 8.225-3.839 13.639h64.549c-.693-9.162-3.634-16.274-8.823-21.343-5.189-5.067-12.002-7.601-20.441-7.601z" id="path10134" fill="#fff"/><path class="st1" d="M837.086 152.695l20.822 57.886h1.457l14.784-80.791h15.2l-20.405 104.112h-18.532l-19.989-57.47h-.625l-20.822 57.47h-18.532L768.58 129.791h16.033l16.866 81.207h1.249l20.198-58.302h14.16z" id="path10136" fill="#fff"/></g><g id="White" transform="translate(-119.30443 -26.505642)"><g id="Color_2_"><g id="g10169"><g id="g10144"><g id="g10142"><path class="st4" d="M366.623 152.42c-.465 6.821-3.222 12.535-8.241 17.169.026-9.028.047-18.062.075-27.09 3.612 2.571 6.236 5.965 8.166 9.921z" id="path10140" clip-rule="evenodd" fill="#fff" fill-rule="evenodd"/></g></g><path class="st4" d="M123.98 123.8c.485-7.142 3.375-13.125 8.627-17.976-.028 9.453-.048 18.913-.076 28.367-3.783-2.694-6.529-6.247-8.551-10.391z" id="path10146" clip-rule="evenodd" fill="#fff" fill-rule="evenodd"/><path class="st4" d="M122.945 186.593c.588 8.534 4.043 15.671 10.317 21.461-.039-11.284-.078-22.583-.126-33.864-4.507 3.218-7.792 7.455-10.191 12.403z" id="path10148" clip-rule="evenodd" fill="#fff" fill-rule="evenodd"/><g id="Cube_5_"><path class="st3" d="M245.321 282.223c-4.306.307-8.267-.931-11.947-3.037-29.184-16.698-58.358-33.42-87.515-50.171-8.933-5.136-13.471-13.014-13.525-23.437-.177-33.234-.291-66.47-.437-99.703-.021-4.968 1.05-9.625 3.692-13.854.388.188.785.357 1.162.567 28.021 15.806 56.047 31.603 84.058 47.428 8.014 4.526 15.988 9.127 23.982 13.697.136.179.273.363.404.542.029.704.084 1.41.087 2.115.175 41.042.347 82.085.519 123.13.002.703-.045 1.406-.066 2.114-.139.197-.275.406-.414.609z" id="path10150" clip-rule="evenodd" fill="none" fill-rule="evenodd" stroke="#fff" stroke-width="4" stroke-miterlimit="10"/><path class="st3" d="M245.337 281.854c.024-.708.074-1.413.074-2.116.001-41.043.001-82.087 0-123.13 0-.706-.05-1.411-.077-2.116.079-.15.114-.311.105-.479 36.458-20.76 72.913-41.518 109.365-62.277 2.724 4.194 3.783 8.906 3.792 13.83.047 33.324.085 66.649-.013 99.972-.029 10.276-4.599 18.154-13.405 23.263-28.926 16.799-57.883 33.542-86.839 50.286-3.983 2.304-8.215 3.748-12.892 3.372-.035-.203-.076-.409-.11-.605z" id="path10152" clip-rule="evenodd" fill="none" fill-rule="evenodd" stroke="#fff" stroke-width="4" stroke-miterlimit="10"/><path class="st3" d="M354.805 91.737c-36.453 20.759-72.908 41.517-109.365 62.277l-.248-.071-.261.005c-7.974-4.603-15.927-9.237-23.924-13.796-27.945-15.943-55.903-31.859-83.858-47.782-.374-.211-.771-.381-1.158-.57 2.22-4.159 5.566-7.152 9.549-9.461 28.754-16.653 57.522-33.279 86.264-49.95 9.185-5.329 18.291-5.198 27.417.091 28.207 16.344 56.412 32.695 84.636 49.015 4.442 2.567 8.415 5.589 10.948 10.242z" id="path10154" clip-rule="evenodd" fill="none" fill-rule="evenodd" stroke="#fff" stroke-width="4" stroke-miterlimit="10"/></g><path id="line10157" fill="#c96" stroke="#fff" stroke-width="4" stroke-miterlimit="10" d="M245.334 154.30701v128.069"/><path class="st2" id="line10159" fill="none" stroke="#fff" stroke-width="4" stroke-miterlimit="10" d="M245.12 154.30701l109.471-62.756007"/><path class="st2" id="line10161" fill="none" stroke="#fff" stroke-width="4" stroke-miterlimit="10" d="M245.334 154.30701L136.20799 91.820999"/><path class="st4" d="M132.654 81.408c23.422-19.352 44.233-7.15 65.241 5.149 12.172 7.119 23.702 16.066 38.857 16.039 2.064-.006 4.129-.394 6.199-.607-2.086 1.292-4.049 2.83-6.262 3.84-16.226 7.394-31.519 3.885-46.834-3.47-19.547-9.393-39.027-11.821-57.248 3.465-5.252 4.851-8.142 10.834-8.627 17.976-3.424-7.614-3.929-15.451-2.043-23.552 1.718-7.364 5.742-13.361 10.717-18.84z" id="path10163" clip-rule="evenodd" fill="#fff" fill-rule="evenodd"/><path class="st4" d="M133.417 237.198c27.991 23.07 52.823 8.487 77.895-6.218 14.525-8.52 28.292-19.212 46.369-19.199 2.467.008 4.932.467 7.405.718-2.499-1.536-4.843-3.366-7.48-4.567-19.379-8.815-37.631-4.613-55.908 4.191-23.33 11.228-46.581 14.149-68.358-4.07-6.274-5.79-9.729-12.927-10.316-21.461-4.08 9.093-4.675 18.453-2.413 28.119 2.06 8.789 6.873 15.947 12.806 22.487z" id="path10165" clip-rule="evenodd" fill="#fff" fill-rule="evenodd"/><path class="st4" d="M358.339 192.907c-22.368 18.48-42.243 6.831-62.31-4.918-11.621-6.798-22.634-15.343-37.104-15.316-1.974.005-3.946.377-5.919.578 1.988-1.231 3.864-2.701 5.979-3.666 15.494-7.061 30.097-3.71 44.725 3.313 18.67 8.969 37.271 11.291 54.672-3.308 5.019-4.634 7.775-10.348 8.241-17.169 3.267 7.273 3.753 14.756 1.95 22.493-1.639 7.032-5.484 12.757-10.234 17.993z" id="path10167" clip-rule="evenodd" fill="#fff" fill-rule="evenodd"/></g></g></g></svg>