<svg xmlns="http://www.w3.org/2000/svg" version="1.1" id="Layer_1" x="0" y="0" width="487.16858" height="628.05798" xml:space="preserve"><style type="text/css" id="style1119">.st0{fill:#9cf}.st1{fill:#036}.st2{fill:none;stroke:#369;stroke-width:.5;stroke-miterlimit:10}.st7,.st8{fill-rule:evenodd;clip-rule:evenodd;fill:#0091fc}.st8{fill:#0256d1}</style><g id="g1234" transform="translate(-259.40544 -42.307)"><g id="g1154"><g id="g1152"><g id="g1125"><g id="g1123"><path class="st0" d="M714.271 326.675c-1.36 0-2.729-.277-4.023-.846-3.642-1.601-5.987-5.208-5.975-9.185.03-9.555.056-19.113.081-28.67l.062-22.065c.011-3.737 2.104-7.156 5.428-8.864 1.441-.741 3.01-1.106 4.571-1.106 2.041 0 4.071.624 5.797 1.851 7.702 5.478 13.921 12.996 18.484 22.347.768 1.572 1.109 3.319.99 5.064-1.041 15.315-7.31 28.377-18.632 38.825-1.884 1.737-4.318 2.649-6.783 2.649z" id="path1121" fill="#9cf"/></g></g><path class="st0" d="M292.451 260.131c-2.044 0-4.077-.625-5.804-1.856-8.004-5.703-14.464-13.516-19.202-23.223-.767-1.572-1.109-3.318-.99-5.064 1.081-15.913 7.594-29.485 19.358-40.34 1.884-1.738 4.317-2.65 6.783-2.65 1.36 0 2.729.277 4.023.846 3.641 1.601 5.987 5.207 5.975 9.184 0 0-.117 43.762-.145 53.135-.011 3.738-2.107 7.158-5.433 8.866-1.438.737-3.004 1.102-4.565 1.102z" id="path1127" fill="#9cf"/><path class="st0" d="M295.679 398.729c-2.467 0-4.9-.912-6.784-2.651-13.671-12.618-21.248-28.384-22.518-46.861-.12-1.739.218-3.479.978-5.048 5.46-11.265 12.954-20.353 22.271-27.01 1.729-1.235 3.767-1.863 5.814-1.863 1.556 0 3.118.363 4.555 1.098 3.328 1.703 5.428 5.12 5.444 8.858.077 17.43.138 34.887.199 52.329l.039 11.113c.014 3.979-2.332 7.586-5.973 9.188-1.294.569-2.664.847-4.025.847z" id="path1129" fill="#9cf"/><g id="Cube_7_"><path class="st0" d="M701.734 264.477c-.654 0-1.314-.064-1.973-.197-3.919-.788-6.992-3.835-7.814-7.748-.096-.454-.185-.907-.27-1.363-.539-2.904.233-5.898 2.11-8.179 1.877-2.281 4.667-3.615 7.62-3.645.371-.004.74-.004 1.117-.004 3.761 0 7.204 2.11 8.911 5.462 1.707 3.352 1.389 7.378-.823 10.419-.162.222-.315.448-.469.671l-.181.262c-1.887 2.739-4.983 4.322-8.228 4.322z" id="path1131" fill="#9cf"/><path class="st0" d="M499.444 538.179c-8.363 0-16.794-2.425-25.059-7.207-56.306-32.528-111.332-64.382-163.542-94.672-19.689-11.426-30.108-29.63-30.132-52.644-.045-41.583-.039-83.857-.033-124.74.003-20.676.006-41.352.003-62.027-.004-11.729 2.878-22.248 8.568-31.262 1.889-2.992 5.127-4.664 8.463-4.664 1.497 0 3.012.336 4.435 1.042.189.094.38.183.571.273.575.271 1.291.608 2.071 1.048l35.419 20.174c40.573 23.108 81.144 46.215 121.701 69.351 10.46 5.963 21.046 12.092 31.283 18.02 4.524 2.619 9.049 5.239 13.575 7.852 1.171.676 2.193 1.583 3.004 2.666.275.368.553.746.821 1.113 1.169 1.601 1.837 3.513 1.917 5.494l.051 1.086c.049.987.104 2.106.104 3.283.007 76.88.007 153.761 0 230.646 0 1.112-.05 2.17-.094 3.104-.019.401-.038.804-.052 1.208-.069 1.963-.715 3.862-1.856 5.46-.127.179-.251.362-.375.546l-.303.443c-1.731 2.518-4.519 4.104-7.567 4.31-.986.064-1.987.097-2.973.097z" id="path1133" fill="#9cf"/><path class="st0" d="M505.508 538.213c-1.186 0-2.388-.048-3.573-.144-4.476-.361-8.162-3.661-9.014-8.069-.082-.422-.163-.852-.237-1.263-.126-.7-.177-1.411-.151-2.122.017-.482.039-.963.062-1.441.034-.724.071-1.444.071-2.166.007-76.884.007-153.764 0-230.644 0-.684-.039-1.468-.08-2.297-.021-.42-.042-.84-.059-1.26-.042-1.026.075-2.049.342-3.031.509-2.895 2.278-5.466 4.901-6.959l204.857-116.653c1.559-.888 3.26-1.312 4.94-1.312 3.283 0 6.488 1.618 8.396 4.557 5.763 8.88 8.695 19.42 8.717 31.329.093 69.453.149 127.342-.026 187.311-.063 22.767-10.47 40.817-30.094 52.2-54.859 31.853-109.669 63.545-162.674 94.194-9.033 5.227-17.663 7.77-26.378 7.77z" id="path1135" fill="#9cf"/><path class="st0" d="M502.719 297.505c-.588 0-1.177-.052-1.762-.156-1.471-.12-2.903-.564-4.188-1.307-4.533-2.617-9.063-5.24-13.594-7.863-10.21-5.911-20.768-12.024-31.173-17.956-40.552-23.133-81.116-46.236-121.682-69.34l-35.393-20.159c-.21-.119-.472-.231-.729-.353-.312-.146-.624-.294-.933-.447-2.424-1.202-4.257-3.333-5.083-5.91-.825-2.576-.571-5.377.704-7.763 4.731-8.854 11.828-15.938 21.694-21.658 19.893-11.521 39.787-23.035 59.682-34.548 33.972-19.66 67.944-39.32 101.895-59.014 9.98-5.789 20.233-8.724 30.473-8.724 10.335 0 20.737 2.992 30.917 8.892l23.602 13.677c44.216 25.623 89.937 52.119 134.926 78.131 7.968 4.607 17.931 11.392 24.284 23.062 2.605 4.785.901 10.775-3.834 13.471L507.668 296.195c-1.522.867-3.229 1.31-4.949 1.31z" id="path1137" fill="#9cf"/></g><path class="st0" d="M502.52 537.949c-5.523 0-10-4.478-10-10V288.055c0-5.523 4.477-10 10-10s10 4.477 10 10V527.95c0 5.522-4.478 9.999-10 9.999z" id="path1140" fill="#9cf"/><path class="st0" d="M502.129 298.056c-3.467 0-6.837-1.805-8.685-5.028-2.747-4.792-1.089-10.902 3.702-13.649l205.053-117.553c4.793-2.747 10.903-1.089 13.649 3.702 2.746 4.792 1.089 10.902-3.702 13.649L507.094 296.73c-1.569.899-3.278 1.326-4.965 1.326z" id="path1142" fill="#9cf"/><path class="st0" d="M502.51 298.057c-1.685 0-3.393-.427-4.96-1.324L293.145 179.689c-4.792-2.745-6.453-8.854-3.709-13.647 2.744-4.792 8.853-6.453 13.647-3.709l204.405 117.044c4.792 2.745 6.453 8.854 3.709 13.647-1.846 3.226-5.218 5.033-8.687 5.033z" id="path1144" fill="#9cf"/><path class="st0" d="M276.428 240.666c-3.879 0-7.481-2.263-9.116-5.899-7.083-15.75-8.579-32.734-4.448-50.482 3.226-13.829 10.347-26.457 22.411-39.746.321-.354.667-.684 1.035-.987 17.302-14.295 35.058-21.244 54.284-21.244 28.16 0 54.15 15.217 79.285 29.933 3.925 2.296 7.779 4.666 11.506 6.958 18.182 11.184 35.356 21.747 56.15 21.747h.117c2.033-.005 4.324-.302 6.749-.616 1.281-.166 2.563-.331 3.846-.464.349-.036.696-.054 1.041-.054 4.234 0 8.063 2.688 9.457 6.767 1.507 4.411-.233 9.278-4.195 11.733-1.1.682-2.22 1.433-3.406 2.227-2.755 1.846-5.879 3.938-9.436 5.563-12.485 5.689-25.545 8.572-38.823 8.573-17.618.001-35.853-4.814-57.386-15.152-18.365-8.823-34.419-13.112-49.083-13.112-17.181 0-32.626 5.919-47.208 18.094-7.883 7.343-12.07 16.125-12.798 26.84-.311 4.577-3.697 8.356-8.212 9.166-.593.104-1.185.155-1.77.155z" id="path1146" fill="#9cf"/><path class="st0" d="M352.984 475.889c-22.457-.002-43.234-8.131-63.521-24.852-.372-.307-.722-.641-1.046-.998-14.169-15.618-22.532-30.412-26.318-46.558-4.862-20.76-3.136-40.625 5.13-59.045 1.633-3.64 5.238-5.907 9.119-5.907.583 0 1.171.051 1.761.156 4.516.806 7.905 4.582 8.22 9.158.916 13.321 6.135 24.24 15.955 33.374 17.781 14.816 36.619 22.019 57.585 22.018 17.83-.001 37.297-5.199 59.513-15.893 25.446-12.259 46.971-17.969 67.737-17.969 15.541 0 30.837 3.374 45.463 10.027 4.077 1.854 7.563 4.179 10.935 6.426 1.449.967 2.818 1.879 4.179 2.716 3.972 2.444 5.728 7.308 4.231 11.725-1.386 4.092-5.221 6.793-9.466 6.793-.337 0-.677-.017-1.019-.052-1.556-.158-3.11-.356-4.663-.556-2.932-.377-5.7-.732-8.239-.743-25.432 0-46.195 12.805-68.177 26.361-4.419 2.726-8.989 5.544-13.569 8.23-29.874 17.521-60.684 35.588-93.803 35.588-.003.001-.003.001-.007.001z" id="path1148" fill="#9cf"/><path class="st0" d="M668.434 388.457c-27.013 0-51.887-14.562-75.941-28.645-3.761-2.199-7.442-4.464-11.003-6.655-17.31-10.648-33.659-20.707-53.384-20.707h-.11c-1.893.005-4.052.286-6.337.583-1.245.162-2.491.323-3.737.452-.347.036-.692.054-1.035.054-4.234 0-8.062-2.688-9.457-6.765-1.507-4.408.229-9.272 4.187-11.73 1.033-.642 2.09-1.35 3.209-2.1 2.659-1.782 5.673-3.801 9.117-5.373 11.977-5.458 24.509-8.224 37.251-8.224 16.896 0 34.373 4.612 55.002 14.515 17.478 8.397 32.746 12.479 46.682 12.479 16.294 0 30.946-5.618 44.782-17.17 7.437-6.93 11.386-15.217 12.073-25.327.311-4.577 3.695-8.355 8.211-9.165.592-.106 1.185-.158 1.77-.158 3.878 0 7.479 2.263 9.115 5.897 6.808 15.128 8.247 31.445 4.277 48.499-3.099 13.281-9.933 25.405-21.508 38.161-.321.354-.667.685-1.036.989-16.608 13.72-33.66 20.39-52.128 20.39z" id="path1150" fill="#9cf"/></g></g><g id="g1232"><g id="g1230"><g id="g1160"><g id="g1158"><path class="st8" d="M729.709 284.521c-.868 12.772-6.034 23.478-15.437 32.154.053-16.91.093-33.828.143-50.737 6.768 4.812 11.678 11.174 15.294 18.583z" id="path1156" clip-rule="evenodd" fill="#0256d1" fill-rule="evenodd"/></g></g><path class="st8" d="M276.433 230.666c.909-13.377 6.32-24.586 16.163-33.668-.052 17.706-.092 35.425-.145 53.134-7.089-5.051-12.23-11.705-16.018-19.466z" id="path1162" clip-rule="evenodd" fill="#0256d1" fill-rule="evenodd"/><path class="st8" d="M276.354 348.53c1.099 15.986 7.57 29.35 19.324 40.198-.075-21.135-.145-42.304-.238-63.434-8.442 6.033-14.594 13.968-19.086 23.236z" id="path1164" clip-rule="evenodd" fill="#0256d1" fill-rule="evenodd"/><g id="Cube_6_"><path d="M701.733 254.477c-.079-.376-.153-.753-.224-1.132.337-.003.673-.003 1.016-.003-.273.375-.532.758-.792 1.135z" id="path1166" clip-rule="evenodd" fill="#683dfe" fill-rule="evenodd"/><linearGradient id="SVGID_1_" gradientUnits="userSpaceOnUse" x1="396.67291" y1="170.9644" x2="396.67279" y2="528.1792"><stop offset="0" id="stop1168" stop-color="#00223d"/><stop offset=".1241" id="stop1170" stop-color="#002542"/><stop offset=".5866" id="stop1172" stop-color="#002d4f"/><stop offset="1" id="stop1174" stop-color="#003054"/><stop offset="1" id="stop1176" stop-color="#00355e"/><stop offset="1" id="stop1178" stop-color="#004174"/><stop offset="1" id="stop1180" stop-color="#004b85"/><stop offset="1" id="stop1182" stop-color="#005190"/><stop offset="1" id="stop1184" stop-color="#005597"/><stop offset="1" id="stop1186" stop-color="#005699"/></linearGradient><path d="M501.747 528.102c-8.07.543-15.476-1.806-22.353-5.785-54.537-31.506-109.05-63.058-163.532-94.666-16.693-9.688-25.13-24.482-25.15-44.004-.068-62.256-.02-124.509-.03-186.758-.003-9.305 2.038-18.022 7.025-25.923.725.359 1.469.675 2.171 1.071 52.365 29.829 104.733 59.641 157.077 89.5 14.978 8.539 29.881 17.226 44.813 25.846.252.336.506.683.751 1.018.054 1.321.146 2.642.146 3.963.007 76.881.007 153.761 0 230.645 0 1.318-.093 2.632-.14 3.96-.262.368-.517.754-.778 1.133z" id="path1189" clip-rule="evenodd" fill="url(#SVGID_1_)" fill-rule="evenodd"/><linearGradient id="SVGID_2_" gradientUnits="userSpaceOnUse" x1="552.73828" y1="258.62741" x2="660.22412" y2="444.7984"><stop offset="0" id="stop1191" stop-color="#036"/><stop offset=".4667" id="stop1193" stop-color="#003468"/><stop offset=".6674" id="stop1195" stop-color="#00396f"/><stop offset=".8171" id="stop1197" stop-color="#00427c"/><stop offset=".9406" id="stop1199" stop-color="#004e8d"/><stop offset="1" id="stop1201" stop-color="#005699"/></linearGradient><path d="M502.526 526.968c.047-1.328.14-2.642.14-3.96.007-76.884.007-153.764 0-230.645 0-1.321-.093-2.642-.146-3.963.153-.282.22-.583.2-.895 68.287-38.888 136.575-77.769 204.856-116.654 5.1 7.858 7.089 16.68 7.105 25.903.083 62.426.156 124.845-.026 187.263-.054 19.25-8.61 34.008-25.111 43.579-54.182 31.459-108.424 62.825-162.662 94.188-7.461 4.318-15.387 7.023-24.143 6.317-.073-.378-.146-.764-.213-1.133z" id="path1204" clip-rule="evenodd" fill="url(#SVGID_2_)" fill-rule="evenodd"/><linearGradient id="SVGID_3_" gradientUnits="userSpaceOnUse" x1="502.64111" y1="52.308102" x2="502.64111" y2="287.5054"><stop offset="0" id="stop1206" stop-color="#036"/><stop offset=".3992" id="stop1208" stop-color="#004580"/><stop offset=".644" id="stop1210" stop-color="#004d8c"/><stop offset="1" id="stop1212" stop-color="#005699"/></linearGradient><path d="M707.576 170.852c-68.281 38.885-136.569 77.766-204.856 116.654l-.467-.133-.484.01c-14.932-8.62-29.836-17.307-44.813-25.846-52.344-29.859-104.712-59.672-157.077-89.5-.702-.396-1.446-.712-2.171-1.071 4.162-7.788 10.428-13.394 17.889-17.719 53.857-31.193 107.745-62.336 161.58-93.564 17.21-9.982 34.267-9.736 51.357.17 52.835 30.616 105.672 61.247 158.536 91.813 8.32 4.81 15.762 10.472 20.506 19.186z" id="path1215" clip-rule="evenodd" fill="url(#SVGID_3_)" fill-rule="evenodd"/></g><path class="st2" id="line1218" fill="none" stroke="#369" stroke-width=".5" stroke-miterlimit="10" d="M502.51999 288.05499v239.89398"/><path class="st2" id="line1220" fill="none" stroke="#369" stroke-width=".5" stroke-miterlimit="10" d="M502.12 288.05499L707.17297 170.502"/><path class="st2" id="line1222" fill="none" stroke="#369" stroke-width=".5" stroke-miterlimit="10" d="M502.51999 288.05499L298.11401 171.011"/><path class="st7" d="M292.68 151.26c43.872-36.247 82.856-13.395 122.207 9.645 22.799 13.334 44.397 30.095 72.786 30.041 3.87-.01 7.735-.731 11.61-1.134-3.908 2.422-7.581 5.3-11.727 7.193-30.395 13.85-59.039 7.276-87.728-6.498-36.616-17.592-73.102-22.144-107.232 6.491-9.843 9.082-15.254 20.292-16.163 33.668-6.414-14.262-7.36-28.94-3.829-44.114 3.219-13.798 10.759-25.029 20.076-35.292z" id="path1224" clip-rule="evenodd" fill="#0091fc" fill-rule="evenodd"/><path class="st7" d="M295.824 443.32c52.428 43.213 98.947 15.898 145.911-11.645 27.204-15.962 52.987-35.99 86.851-35.967 4.622.021 9.236.879 13.871 1.351-4.678-2.878-9.069-6.308-14.014-8.557-36.299-16.512-70.486-8.644-104.723 7.851-43.697 21.033-87.249 26.506-128.042-7.625-11.754-10.848-18.225-24.212-19.324-40.198-7.642 17.031-8.758 34.562-4.518 52.668 3.86 16.464 12.871 29.868 23.988 42.122z" id="path1226" clip-rule="evenodd" fill="#0091fc" fill-rule="evenodd"/><path class="st7" d="M714.192 360.357c-41.898 34.617-79.126 12.792-116.713-9.212-21.766-12.732-42.402-28.745-69.503-28.694-3.692.01-7.386.705-11.085 1.087 3.723-2.312 7.242-5.063 11.201-6.87 29.021-13.225 56.378-6.944 83.775 6.208 34.968 16.8 69.813 21.149 102.404-6.202 9.402-8.676 14.568-19.382 15.437-32.154 6.129 13.62 7.03 27.636 3.657 42.128-3.074 13.179-10.273 23.902-19.173 33.709z" id="path1228" clip-rule="evenodd" fill="#0091fc" fill-rule="evenodd"/></g></g></g><g id="g1244" transform="translate(-259.40544 -42.307)"><path class="st1" d="M299.735 600.37h-16.041v67.495h-17.291V522.042h17.291v64.995h15.624l46.872-64.995h19.999l-51.455 69.37 57.913 76.453h-21.874z" id="path1236" fill="#036"/><path class="st1" d="M387.436 667.865v-13.957h28.123v-76.245h-28.123v-13.957h38.956l3.333 13.54h1.042c4.72-4.303 9.999-7.984 15.832-11.041 5.833-3.053 12.776-4.583 20.832-4.583 4.72 0 8.505.905 11.354 2.709 2.845 1.806 5.068 4.446 6.666 7.916 1.595 3.473 2.672 7.675 3.229 12.603.553 4.932.833 10.521.833 16.771l-14.583.208c0-8.814-.869-15.289-2.604-19.423-1.738-4.134-4.896-6.2-9.479-6.2-4.306 0-8.196.625-11.666 1.871-3.473 1.247-6.494 2.771-9.062 4.57-2.571 1.8-4.759 3.6-6.562 5.4-1.806 1.803-3.125 3.326-3.958 4.569v61.292h39.998v13.957z" id="path1238" fill="#036"/><path class="st1" d="M608.877 654.741c-2.5 2.223-5.452 4.307-8.854 6.249-3.405 1.947-7.119 3.613-11.146 5-4.029 1.39-8.229 2.464-12.604 3.229-4.374.762-8.785 1.146-13.228 1.146-8.333 0-15.696-1.286-22.082-3.854-6.39-2.567-11.737-6.249-16.041-11.04-4.307-4.792-7.571-10.521-9.791-17.187-2.223-6.666-3.333-14.166-3.333-22.499 0-8.749 1.214-16.525 3.646-23.331 2.429-6.804 5.938-12.5 10.521-17.083 4.583-4.583 10.136-8.088 16.665-10.52 6.526-2.429 13.817-3.646 21.874-3.646 5.833 0 11.594.765 17.29 2.291 5.693 1.53 10.729 4.411 15.104 8.646 4.375 4.238 7.74 10.071 10.104 17.499 2.359 7.431 3.193 17.05 2.5 28.852h-80.411c0 12.5 3.358 21.842 10.077 28.02 6.718 6.181 15.686 9.271 26.905 9.271 3.74 0 7.444-.449 11.116-1.354 3.672-.901 7.167-1.979 10.494-3.229 3.323-1.249 6.266-2.636 8.831-4.166 2.562-1.526 4.534-2.916 5.92-4.166zm-43.861-79.786c-4.57 0-8.896.488-12.978 1.458-4.085.974-7.686 2.604-10.8 4.896-3.115 2.292-5.677 5.279-7.682 8.958-2.009 3.681-3.288 8.229-3.841 13.645h64.578c-.693-9.166-3.636-16.281-8.827-21.353-5.191-5.069-12.007-7.604-20.45-7.604z" id="path1240" fill="#036"/><path class="st1" d="M694.286 586.621l20.832 57.912h1.458l14.791-80.827h15.207l-20.415 104.159h-18.541l-19.998-57.496h-.625l-20.832 57.496h-18.54l-21.874-104.159h16.041l16.874 81.244h1.249l20.207-58.329z" id="path1242" fill="#036"/></g></svg>